<svg width="89" height="89" viewBox="0 0 89 89" fill="none" xmlns="http://www.w3.org/2000/svg">
<g clip-path="url(#clip0_351_2859)">
<path d="M41.675 0.5C38.35 1.35 34.65 4.725 33.725 7.7C33.475 8.525 33.225 8.725 31.475 9.575C27.9 11.275 25.625 14.3 24.975 18.175C24.175 22.975 26.8 27.925 31.25 30.05C33.15 30.95 33.45 31.55 32.5 32.5C31.55 33.45 30.95 33.15 30.025 31.225C28.45 27.9 25.325 25.6 21.575 24.975C16.65 24.175 11.575 26.925 9.475 31.575C8.725 33.3 8.55 33.475 7.625 33.8C5.025 34.65 2.475 37.125 1.075 40.125C0.45 41.475 0.4 41.9 0.375 44.5C0.375 47.225 0.425 47.475 1.175 49.05C1.625 50 2.4 51.25 2.925 51.9C4 53.2 6.375 54.875 7.7 55.275C8.525 55.525 8.725 55.775 9.575 57.525C13.725 66.25 25.95 66.375 30.05 57.75C30.95 55.85 31.55 55.55 32.5 56.5C33.45 57.45 33.15 58.05 31.3 58.925C22.6 63.025 22.775 75.55 31.575 79.525C33.25 80.275 33.475 80.45 33.725 81.275C34.475 83.8 37.075 86.5 40.125 87.925C41.5 88.575 41.875 88.625 44.5 88.625C47.225 88.625 47.475 88.575 49.075 87.825C50 87.375 51.275 86.6 51.875 86.1C53.175 85.05 54.875 82.625 55.275 81.25C55.525 80.425 55.75 80.225 56.725 79.85C61.775 77.975 64.925 72.55 64.025 67.35C63.375 63.625 61.05 60.525 57.75 58.95C55.85 58.05 55.55 57.45 56.5 56.5C57.45 55.55 58.05 55.85 58.95 57.75C61.025 62.175 66 64.825 70.775 64.025C74.725 63.375 77.925 60.975 79.5 57.425C80.3 55.7 80.4 55.575 81.525 55.175C83.15 54.6 85.55 52.775 86.5 51.375C86.925 50.75 87.575 49.6 87.95 48.8C88.55 47.525 88.625 47.1 88.625 44.5C88.625 41.875 88.575 41.5 87.925 40.125C86.525 37.125 83.775 34.475 81.275 33.725C80.45 33.475 80.275 33.25 79.525 31.575C77.925 28.075 74.7 25.625 70.825 24.975C66 24.175 61.025 26.825 58.925 31.275C58.05 33.15 57.45 33.45 56.5 32.5C55.55 31.55 55.85 30.95 57.775 30.025C62.225 27.925 64.825 23 64.025 18.225C63.375 14.25 60.975 11.075 57.425 9.475C55.75 8.725 55.525 8.55 55.275 7.725C54.825 6.25 53.05 3.8 51.65 2.75C49.375 1.025 47.725 0.424998 45.025 0.349998C43.7 0.299998 42.2 0.375 41.675 0.5ZM48.45 3.6C50.95 4.875 52.9 7.45 53.375 10.025C53.525 10.875 53.625 10.95 54.55 11.1C55.675 11.275 57.225 12 58.425 12.9C60.2 14.225 61.75 17.5 61.75 19.85C61.75 23.975 58.4 28.025 54.525 28.65L53.5 28.825V31.15C53.5 34.975 54.025 35.5 57.875 35.5C60.075 35.5 60.25 35.475 60.25 35C60.25 34.25 61.15 32.05 61.9 30.95C63.325 28.925 66.575 27.25 69.125 27.25C71.75 27.25 75 28.925 76.45 31.05C77.2 32.15 78 34.15 78 34.975C78 35.325 78.25 35.5 78.95 35.625C81.55 36.1 84.1 38.025 85.425 40.55C86.075 41.75 86.125 42.1 86.125 44.5C86.125 46.9 86.075 47.25 85.425 48.45C84.1 50.975 81.55 52.9 78.95 53.375C78.25 53.5 78 53.675 78 54.025C78 54.85 77.2 56.85 76.45 57.95C75 60.05 71.75 61.75 69.15 61.75C65.05 61.75 60.975 58.375 60.35 54.525L60.175 53.5H57.7H56.4021C55.6324 53.5 54.8943 53.8058 54.35 54.35V54.35V54.35C53.8058 54.8942 53.5 55.6324 53.5 56.4021V57.7V60.175L54.525 60.35C57.025 60.75 59.65 62.825 60.875 65.4C61.85 67.375 61.9 70.375 61.025 72.575C60 75.175 57.175 77.475 54.525 77.9C53.625 78.05 53.525 78.15 53.375 78.975C52.9 81.55 50.975 84.1 48.45 85.425C47.25 86.075 46.9 86.125 44.5 86.125C42.1 86.125 41.75 86.075 40.55 85.425C38.025 84.1 36.1 81.55 35.625 78.975C35.475 78.125 35.375 78.05 34.45 77.9C33.325 77.725 31.775 77 30.575 76.1C28.8 74.775 27.25 71.5 27.25 69.125C27.25 66.6 28.725 63.675 30.825 62.025C31.825 61.25 34.15 60.25 35 60.25C35.475 60.25 35.5 60.075 35.5 57.875C35.5 54.025 34.975 53.5 31.15 53.5H28.825L28.65 54.525C28.025 58.4 23.975 61.75 19.85 61.75C17.5 61.75 14.225 60.2 12.9 58.425C12 57.225 11.275 55.675 11.1 54.55C10.95 53.625 10.875 53.525 10.025 53.375C7.375 52.9 4.725 50.825 3.55 48.3C2.975 47.075 2.875 46.55 2.875 44.5C2.875 42.45 2.975 41.925 3.55 40.7C4.725 38.2 7.375 36.125 10.025 35.65C10.85 35.5 10.95 35.4 11.1 34.475C11.275 33.325 12 31.775 12.9 30.575C14.225 28.8 17.5 27.25 19.85 27.25C23.95 27.25 28.025 30.6 28.65 34.475L28.825 35.5H31.175C34.975 35.5 35.5 34.975 35.5 31.15V28.825L34.475 28.65C30.6 28.025 27.25 23.975 27.25 19.875C27.25 15.825 30.625 11.725 34.475 11.1C35.45 10.95 35.475 10.9 35.75 9.6C36.1 8 37.575 5.625 38.875 4.65C39.4 4.25 40.475 3.65 41.225 3.325C42.425 2.825 42.95 2.75 44.875 2.825C46.725 2.9 47.35 3.025 48.45 3.6Z" fill="#E7C99F"/>
<path d="M42.125 3.5752C38.7 4.7252 36.975 6.8252 36.15 10.7752C36.025 11.3252 35.825 11.4502 34.95 11.6002C32.7 11.9502 30.375 13.5002 29.125 15.5002C28.275 16.8502 27.95 18.1002 27.95 20.0002C27.95 23.9752 31 27.5252 34.95 28.1502L36 28.3252V31.0502C36 35.4502 35.45 36.0002 31.05 36.0002H28.325L28.15 34.9502C27.725 32.3002 25.775 29.7752 23.25 28.6502C21.45 27.8252 18.8 27.7252 17.025 28.3502C15.775 28.8002 14.175 29.9502 13.275 31.0502C12.525 31.9752 11.525 34.4002 11.5 35.3002C11.5 35.8502 11.35 36.0252 10.8 36.1252C7.5 36.8002 5.35 38.3252 4.075 40.9502C3.475 42.1752 3.375 42.6752 3.375 44.5002C3.375 46.2752 3.475 46.8502 4.025 48.0002C5.225 50.5002 7.375 52.1502 10.15 52.7502C11.4 53.0252 11.45 53.0502 11.575 54.0002C11.9 56.4002 13.925 59.1752 16.15 60.2752C21.15 62.6752 27.275 59.5002 28.15 54.0502L28.325 53.0002H31.05C35.45 53.0002 36 53.5502 36 57.9502V60.6752L34.95 60.8502C31 61.4752 27.95 65.0502 27.95 69.0002C27.95 71.6252 28.7 73.4002 30.525 75.2252C31.525 76.2002 33.625 77.2502 35.025 77.4252C35.825 77.5502 36.025 77.6752 36.15 78.2252C36.775 81.2752 37.8 82.9252 39.925 84.3252C44.925 87.6252 51.475 84.8252 52.75 78.8502C53.025 77.6002 53.05 77.5502 54 77.4252C56.425 77.1002 59.075 75.1502 60.225 72.8752C62.7 67.9252 59.525 61.7252 54.05 60.8502L53 60.6752V57.9502C53 53.5502 53.55 53.0002 57.95 53.0002H60.675L60.85 54.0502C61.725 59.5502 67.85 62.6752 72.925 60.2252C75.1 59.1752 77.1 56.4002 77.425 54.0002C77.55 53.0752 77.575 53.0502 79.225 52.6502C85.65 51.0752 87.9 43.1752 83.25 38.5752C82.025 37.3502 80.65 36.6252 78.825 36.2502C77.625 35.9752 77.5 35.9002 77.5 35.3002C77.475 34.4002 76.475 31.9752 75.725 31.0502C74.025 29.0002 71.825 27.9752 69.075 27.9752C65.025 27.9752 61.5 30.9752 60.85 34.9502L60.675 36.0002H57.95C53.55 36.0002 53 35.4502 53 31.0502V28.3252L54.05 28.1502C58.5 27.4252 61.7 23.0252 61 18.5502C60.425 15.0502 57.525 12.1252 54.075 11.6002C53.05 11.4502 53.025 11.4252 52.75 10.1502C52.6 9.4502 52.25 8.4002 51.975 7.8252C51.325 6.5002 49.3 4.6002 47.8 3.9502C46.35 3.3002 43.525 3.1252 42.125 3.5752ZM48.15 4.5502C50.4 5.7252 52.075 8.0752 52.4 10.6002C52.575 11.8252 52.525 11.7752 54.475 12.1002C56.675 12.4752 59.025 14.4252 60.075 16.7002C60.9 18.5252 60.85 21.4252 59.925 23.3002C58.775 25.6502 56.375 27.4252 53.875 27.7252L52.625 27.8752L52.55 30.7502C52.475 34.0502 52.775 34.9752 54.225 35.9502C55.025 36.4752 55.325 36.5002 58.1 36.4502L61.125 36.3752L61.3 35.0502C61.675 32.5002 63.325 30.2252 65.7 29.0752C67.575 28.1502 70.475 28.1002 72.3 28.9252C74.575 29.9752 76.525 32.3252 76.9 34.5252C77.225 36.4752 77.175 36.4252 78.4 36.6002C83.7 37.3252 86.825 43.0502 84.55 47.8752C83.375 50.3252 81.05 52.0502 78.4 52.4002C77.325 52.5502 77.25 52.6252 77.1 53.4752C76.575 56.6502 74.975 58.8502 72.275 60.1002C70.475 60.9002 67.55 60.8502 65.7 59.9252C63.35 58.7752 61.575 56.3752 61.275 53.8752L61.125 52.6252L58.25 52.5502C55.05 52.4752 54.1 52.7752 53.15 54.0752C52.675 54.7002 52.625 55.1502 52.625 57.9502V61.1252L53.875 61.2752C56.375 61.5752 58.775 63.3502 59.925 65.7002C60.85 67.5502 60.9 70.4752 60.1 72.2752C58.85 74.9752 56.65 76.5752 53.475 77.1002C52.625 77.2502 52.55 77.3252 52.4 78.4002C51.675 83.7002 45.95 86.8252 41.125 84.5502C38.675 83.3752 36.95 81.0502 36.6 78.4002C36.45 77.3252 36.375 77.2502 35.525 77.1002C32.35 76.5752 30.15 74.9752 28.9 72.2752C28.1 70.4752 28.15 67.5502 29.075 65.7002C30.225 63.3502 32.5 61.6752 35.05 61.3002L36.375 61.1252V57.9502C36.375 55.1502 36.325 54.7002 35.85 54.0752C34.9 52.7752 33.95 52.4752 30.75 52.5502L27.875 52.6252L27.725 53.8752C27.425 56.3752 25.65 58.7752 23.3 59.9252C21.425 60.8502 18.525 60.9002 16.7 60.0752C14.425 59.0252 12.475 56.6752 12.1 54.4752C11.775 52.5252 11.825 52.5752 10.6 52.4002C5.3 51.6752 2.175 45.9502 4.45 41.1252C5.625 38.6752 7.55 37.2252 10.35 36.6502L11.875 36.3252L12.025 35.0752C12.35 32.5002 14.2 30.0752 16.7 28.9252C18.525 28.1002 21.425 28.1502 23.3 29.0752C25.65 30.2252 27.425 32.6252 27.725 35.1252L27.875 36.3752L30.875 36.4502C34.25 36.5252 35.05 36.2502 36 34.7002C36.45 33.9752 36.5 33.5002 36.45 30.8752L36.375 27.8752L35.125 27.7252C32.625 27.4252 30.225 25.6502 29.075 23.3002C28.15 21.4252 28.1 18.5252 28.925 16.7002C29.975 14.4252 32.325 12.4752 34.525 12.1002C36.475 11.7752 36.425 11.8252 36.6 10.6002C36.95 7.9502 38.65 5.6502 41.125 4.4502C42.5 3.7752 42.8 3.7252 44.75 3.8252C46.425 3.9002 47.15 4.0502 48.15 4.5502Z" fill="#E7C99F"/>
<path d="M43.1229 7.06953L43.1267 7.06811C44.0946 6.70244 45.5463 6.82144 46.7216 7.42017C47.6646 7.90944 48.2761 8.48021 48.6644 9.23779C49.0598 10.0092 49.25 11.0249 49.25 12.4504V14.4504V14.9281L49.7273 14.9498L51.9273 15.0498L51.9297 15.05C52.851 15.0873 53.4087 15.1425 53.848 15.2488C54.2726 15.3516 54.6063 15.507 55.071 15.781L55.0751 15.7835C55.6639 16.1231 56.4517 16.844 56.7828 17.3261C57.0564 17.7549 57.1897 18.0237 57.267 18.3453C57.3486 18.6848 57.375 19.1125 57.375 19.8754C57.375 20.6382 57.3486 21.0659 57.267 21.4054C57.1897 21.727 57.0564 21.9958 56.7828 22.4246C56.4517 22.9067 55.664 23.6276 55.0751 23.9673L55.071 23.9697C54.6063 24.2437 54.2726 24.3991 53.848 24.5019C53.4087 24.6082 52.851 24.6634 51.9297 24.7008L51.9273 24.7009L49.7273 24.8009L49.25 24.8226V25.3004V30.1004C49.25 31.4573 49.2814 32.7654 49.3318 33.8089C49.357 34.3303 49.3871 34.7888 49.4208 35.1558C49.4535 35.5111 49.4921 35.8132 49.5412 36.0016L49.5428 36.0077L49.5428 36.0077C49.7482 36.7557 50.2647 37.5159 50.8746 38.1258C51.4845 38.7357 52.2446 39.2522 52.9926 39.4575L52.9988 39.4592L52.9988 39.4592C53.1872 39.5083 53.4893 39.5469 53.8445 39.5795C54.2116 39.6132 54.67 39.6433 55.1915 39.6685C56.2349 39.719 57.543 39.7504 58.9 39.7504H63.675H64.1477L64.1742 39.2784L64.2989 37.0591C64.2989 37.0581 64.299 37.0571 64.2991 37.0562C64.3615 36.1325 64.4222 35.5568 64.5278 35.1005C64.6295 34.6608 64.7757 34.3201 65.0317 33.8777C65.8519 32.489 67.1343 31.6841 68.6429 31.5485C69.491 31.478 70.1705 31.5513 70.7691 31.77C71.3671 31.9885 71.9188 32.3646 72.4929 32.9503L72.4964 32.9539C73.0658 33.5233 73.4311 34.0725 73.6612 34.7463C73.8951 35.4311 74 36.275 74 37.4504V39.2004V39.6793L74.4785 39.6999L76.8035 39.7999L76.8067 39.8C77.8419 39.8379 78.413 39.8752 78.8384 39.9697C79.2328 40.0573 79.5113 40.1966 79.9451 40.4897L79.9467 40.4908C82.3608 42.1077 82.8687 45.3444 81.0643 47.5322L81.0636 47.533C80.5319 48.1803 79.9921 48.5967 79.3207 48.8598C78.6378 49.1274 77.7834 49.2504 76.6 49.2504H74.55H74.0722L74.0505 49.7277L73.9505 51.9277L73.9504 51.9301C73.9131 52.8513 73.8579 53.4091 73.7515 53.8484C73.6488 54.273 73.4934 54.6067 73.2193 55.0714L73.2169 55.0755C72.8772 55.6643 72.1563 56.4521 71.6742 56.7832C71.2454 57.0568 70.9766 57.19 70.655 57.2673C70.3155 57.3489 69.8878 57.3754 69.125 57.3754C68.3622 57.3754 67.9345 57.3489 67.595 57.2673C67.2734 57.19 67.0046 57.0568 66.5758 56.7832C66.0937 56.4521 65.3728 55.6643 65.0331 55.0755L65.0295 55.0693L65.0258 55.0633C64.7429 54.6035 64.5893 54.273 64.49 53.8489C64.3863 53.4064 64.3371 52.8431 64.2996 51.9054L64.2993 51.8973L64.2992 51.8973L64.1742 49.6723L64.1472 49.1911L63.6653 49.2005L58.5153 49.3004L58.514 49.3005C55.6934 49.3626 54.0321 49.4368 52.9336 49.6776C52.37 49.8011 51.9314 49.9726 51.5484 50.2212C51.1686 50.4678 50.8695 50.7739 50.5694 51.1261L50.568 51.1278C50.0151 51.7825 49.6897 52.5729 49.4996 53.8087C49.3118 55.0289 49.25 56.7264 49.25 59.2254V63.7004V64.1781L49.7273 64.1998L51.9273 64.2998L51.9297 64.3C52.851 64.3373 53.4087 64.3925 53.848 64.4988C54.2726 64.6016 54.6063 64.757 55.071 65.031L55.0769 65.0345L55.0769 65.0345C56.5151 65.8563 57.3166 67.1133 57.4519 68.6435C57.5224 69.4915 57.449 70.1709 57.2304 70.7694C57.0119 71.3675 56.6358 71.9192 56.05 72.4933L56.0464 72.4968C55.4772 73.0661 54.9281 73.4312 54.2515 73.6614C53.5635 73.8954 52.7134 74.0004 51.525 74.0004H49.75H49.25V74.5004V76.5504C49.25 77.7729 49.1267 78.6394 48.8592 79.3248C48.5966 79.9977 48.1812 80.5312 47.5326 81.064L47.5319 81.0646C45.344 82.869 42.1074 82.3612 40.4904 79.9471L40.4893 79.9454C40.1962 79.5117 40.057 79.2331 39.9693 78.8388C39.8748 78.4134 39.8375 77.8422 39.7997 76.8071L39.7995 76.8039L39.6995 74.4789L39.679 74.0004H39.2H37.4266C35.4219 73.9881 33.8993 73.4481 32.9139 72.5549C31.9399 71.672 31.4332 70.3923 31.5487 68.7615C31.653 67.3745 32.1656 66.3337 33.0396 65.6026C33.9254 64.8616 35.2355 64.3948 37.0089 64.2742L37.0098 64.2741L39.1598 64.1241L39.6105 64.0927L39.6248 63.6411L39.6998 61.2661L39.6999 61.26L39.6999 61.26C39.7252 59.9458 39.6749 57.4312 39.5488 55.6654C39.5488 55.6651 39.5487 55.6649 39.5487 55.6647L39.05 55.7004C38.85 52.8504 38.775 52.4504 38.175 51.6754L43.1229 7.06953ZM43.1229 7.06953C42.4348 7.32304 41.9537 7.56511 41.558 7.86465C41.165 8.16214 40.8322 8.53452 40.465 9.07923C40.1857 9.49832 40.0518 9.77068 39.9667 10.1627C39.8748 10.5863 39.8375 11.1589 39.7997 12.1936L39.7995 12.1968L39.6995 14.5218L39.679 15.0004H39.2H37.45C36.2746 15.0004 35.4308 15.1052 34.746 15.3391C34.0722 15.5693 33.5229 15.9345 32.9536 16.5039L32.95 16.5075C32.3642 17.0815 31.9881 17.6332 31.7696 18.2313C31.551 18.8299 31.4776 19.5094 31.5482 20.3576C31.6835 21.8876 32.485 23.1445 33.9231 23.9662L33.9301 23.9703L33.937 23.9745C34.3969 24.2575 34.7274 24.4111 35.1515 24.5104C35.594 24.614 36.1572 24.6632 37.095 24.7008L37.095 24.7007L37.1034 24.7012L39.3034 24.8262L39.7817 24.8533L39.775 25.3324L39.7 30.6324V30.6325L39.6987 30.717C39.6623 33.2694 39.6431 34.6099 39.5466 35.4278C39.4963 35.8532 39.4224 36.1671 39.302 36.4521C39.1841 36.7308 39.03 36.9599 38.8644 37.2051L38.8631 37.207C38.4561 37.804 37.6846 38.5802 37.0913 38.9486C36.86 39.0963 36.6373 39.2293 36.3542 39.3326C36.0712 39.4358 35.7511 39.5013 35.3223 39.5475C34.4807 39.6381 33.1196 39.663 30.6085 39.7003C30.6082 39.7003 30.6078 39.7003 30.6074 39.7003L25.3345 39.8003L24.8528 39.8094L24.8258 39.3284L24.7008 37.1034L24.7007 37.1034L24.7004 37.0953C24.6629 36.1576 24.6137 35.5943 24.51 35.1519C24.4107 34.7277 24.2571 34.3972 23.9742 33.9374L23.974 33.9375L23.9679 33.9269C22.0372 30.6107 17.3843 30.7127 15.6442 34.0799L15.6442 34.0799L15.6412 34.0857C15.2948 34.7351 15.1235 35.5187 15.0494 37.0739C15.0494 37.074 15.0494 37.0741 15.0494 37.0741L14.9495 39.2731L14.9278 39.7504H14.45H12.325C11.1345 39.7504 10.3261 39.856 9.67743 40.1072C9.04104 40.3537 8.51663 40.7566 7.92588 41.4301L7.92492 41.4312C7.24904 42.1972 6.75 43.4816 6.75 44.4004C6.75 44.8841 6.91867 45.5718 7.19676 46.2476C7.4747 46.923 7.82842 47.5051 8.14376 47.8122C8.77668 48.3961 9.19893 48.7036 9.72296 48.8969C10.2641 49.0963 10.9528 49.1886 12.151 49.251L12.1527 49.2511L14.4027 49.3761L14.8427 49.4006L14.8738 49.8401L15.0237 51.964C15.0237 51.9642 15.0237 51.9644 15.0237 51.9646C15.1114 53.1667 15.2028 53.8734 15.3789 54.4185C15.5477 54.9409 15.8026 55.3395 16.2808 55.9013L16.2825 55.9033C17.1704 56.9577 18.5551 57.4929 19.948 57.4785C21.3418 57.4641 22.676 56.901 23.477 55.8477L23.4778 55.8466C24.3724 54.6769 24.7257 53.5395 24.75 51.6722V50.0004V49.5153L25.2349 49.5006L26.0532 49.4758C26.3314 49.4604 27.3073 49.4542 28.5586 49.4462C29.3757 49.441 30.3103 49.4351 31.2448 49.4254H31.25C33.7068 49.4254 35.2124 49.4723 36.2505 49.7343C36.7866 49.8696 37.2139 50.0651 37.5922 50.3471C37.9642 50.6244 38.2673 50.9696 38.5719 51.3713L43.1229 7.06953Z" fill="#E7C99F" stroke="#E7C99F"/>
</g>
<defs>
<clipPath id="clip0_351_2859">
<rect width="89" height="89" fill="white"/>
</clipPath>
</defs>
</svg>
