<svg width="38" height="38" viewBox="0 0 38 38" fill="none" xmlns="http://www.w3.org/2000/svg">
<path fill-rule="evenodd" clip-rule="evenodd" d="M32.9774 23.7366C33.0395 24.0586 32.8288 24.3699 32.5068 24.432L29.8303 24.9481L30.4715 27.3413C30.5564 27.6581 30.3685 27.9836 30.0517 28.0685C29.735 28.1534 29.4094 27.9654 29.3245 27.6487L28.5182 24.6395C28.4756 24.4803 28.501 24.3106 28.5884 24.1709C28.6759 24.0311 28.8175 23.9341 28.9793 23.9029L32.2819 23.266C32.6039 23.2039 32.9153 23.4146 32.9774 23.7366Z" fill="#75C4FE"/>
<path fill-rule="evenodd" clip-rule="evenodd" d="M9.26743 12.5555C9.34462 12.8436 9.19614 13.1442 8.92048 13.258L6.3516 14.3185C6.04851 14.4436 5.70137 14.2993 5.57621 13.9962C5.45108 13.6931 5.59536 13.346 5.89849 13.2208L7.98548 12.3593L7.37614 10.0852C7.29127 9.76846 7.47925 9.44289 7.796 9.35803C8.11275 9.27316 8.43832 9.4611 8.52318 9.77785L9.26743 12.5555Z" fill="#75C4FE"/>
<path fill-rule="evenodd" clip-rule="evenodd" d="M30.3362 9.35024C30.6457 9.45862 30.8088 9.79734 30.7004 10.1068L29.7995 12.6794L32.1903 13.3296C32.5067 13.4156 32.6935 13.7419 32.6074 14.0584C32.5214 14.3748 32.1951 14.5615 31.8787 14.4755L28.8726 13.658C28.7135 13.6148 28.5796 13.5073 28.5029 13.3615C28.4262 13.2156 28.4135 13.0444 28.468 12.8888L29.5796 9.71437C29.688 9.40487 30.0267 9.24186 30.3362 9.35024Z" fill="#75C4FE"/>
<path fill-rule="evenodd" clip-rule="evenodd" d="M8.7427 24.2128C9.03051 24.2911 9.21556 24.5706 9.17519 24.8661L8.79887 27.6197C8.75445 27.9446 8.45509 28.172 8.13019 28.1276C7.80529 28.0832 7.57792 27.7838 7.62229 27.4589L7.92803 25.2219L5.65623 24.604C5.3398 24.518 5.15304 24.1917 5.2391 23.8753C5.32515 23.5589 5.65144 23.3721 5.96787 23.4582L8.7427 24.2128Z" fill="#75C4FE"/>
<path fill-rule="evenodd" clip-rule="evenodd" d="M16.4674 4.41247C16.7152 4.19769 17.0902 4.22449 17.305 4.47228L19.0902 6.53212L20.8421 4.7802C21.074 4.54832 21.4499 4.54832 21.6818 4.7802C21.9137 5.01208 21.9137 5.388 21.6818 5.61988L19.479 7.8227C19.3624 7.93927 19.2027 8.00213 19.0379 7.99623C18.8732 7.99037 18.7184 7.91627 18.6104 7.79174L16.4076 5.25002C16.1928 5.00218 16.2196 4.62721 16.4674 4.41247Z" fill="#75C4FE"/>
<path fill-rule="evenodd" clip-rule="evenodd" d="M18.6392 30.5363C18.8501 30.3255 19.1847 30.3037 19.4211 30.4856L21.6239 32.1801C21.8838 32.38 21.9325 32.7527 21.7325 33.0127C21.5326 33.2726 21.1598 33.3212 20.8999 33.1213L19.1103 31.7446L17.4455 33.4094C17.2137 33.6413 16.8377 33.6413 16.6059 33.4094C16.374 33.1775 16.374 32.8016 16.6059 32.5697L18.6392 30.5363Z" fill="#75C4FE"/>
<path fill-rule="evenodd" clip-rule="evenodd" d="M33.4459 26.9999C33.2272 27.3785 32.7431 27.5082 32.3644 27.2897L5.2163 11.6156C4.83764 11.397 4.70789 10.9129 4.92651 10.5342C5.14513 10.1556 5.62931 10.0258 6.00796 10.2444L33.1561 25.9184C33.5347 26.137 33.6644 26.6212 33.4459 26.9999Z" fill="#75C4FE"/>
<path fill-rule="evenodd" clip-rule="evenodd" d="M32.0824 21.0223C32.2247 21.4357 32.0049 21.8862 31.5914 22.0285L27.3127 23.501L27.8443 27.9129C27.8966 28.3469 27.5871 28.7412 27.153 28.7936C26.7189 28.8459 26.3246 28.5364 26.2723 28.1023L25.6642 23.0553C25.6196 22.6848 25.8397 22.3335 26.1926 22.212L31.0762 20.5313C31.4896 20.3891 31.9401 20.6089 32.0824 21.0223Z" fill="#75C4FE"/>
<path fill-rule="evenodd" clip-rule="evenodd" d="M12.7063 14.462C12.7567 14.8186 12.5601 15.1642 12.2279 15.3032L8.1007 17.0293C7.69731 17.198 7.23355 17.0077 7.06485 16.6044C6.89618 16.201 7.08642 15.7372 7.48977 15.5685L11.0529 14.0783L10.4457 9.78342C10.3845 9.3505 10.6859 8.94996 11.1188 8.88872C11.5517 8.82752 11.9523 9.12887 12.0135 9.5618L12.7063 14.462Z" fill="#75C4FE"/>
<path fill-rule="evenodd" clip-rule="evenodd" d="M33.3922 10.5871C33.6094 10.9666 33.4779 11.4503 33.0984 11.6675L5.8921 27.2402C5.51262 27.4574 5.02895 27.3259 4.81176 26.9464C4.59456 26.567 4.7261 26.0833 5.10554 25.8661L32.3119 10.2934C32.6913 10.0762 33.175 10.2077 33.3922 10.5871Z" fill="#75C4FE"/>
<path fill-rule="evenodd" clip-rule="evenodd" d="M27.5408 8.75757C27.9697 8.84267 28.2484 9.25929 28.1633 9.68818L27.2826 14.1267L31.3626 15.8875C31.7641 16.0607 31.949 16.5266 31.7758 16.928C31.6026 17.3295 31.1367 17.5144 30.7353 17.3412L26.0679 15.3269C25.7253 15.1791 25.5324 14.812 25.6051 14.446L26.6102 9.38002C26.6953 8.95117 27.112 8.67247 27.5408 8.75757Z" fill="#75C4FE"/>
<path fill-rule="evenodd" clip-rule="evenodd" d="M12.1212 22.2004C12.4547 22.3363 12.6545 22.6801 12.6074 23.0371L12.0221 27.4722C11.9649 27.9057 11.5671 28.2107 11.1337 28.1535C10.7002 28.0963 10.3952 27.6986 10.4524 27.2651L10.9577 23.4361L6.94064 21.7995C6.53574 21.6345 6.34119 21.1725 6.50617 20.7676C6.67116 20.3627 7.13309 20.1682 7.53803 20.3332L12.1212 22.2004Z" fill="#75C4FE"/>
<path fill-rule="evenodd" clip-rule="evenodd" d="M19.0591 2.375C19.4964 2.375 19.8508 2.72944 19.8508 3.16667V34.5146C19.8508 34.9518 19.4964 35.3063 19.0591 35.3063C18.6219 35.3063 18.2675 34.9518 18.2675 34.5146V3.16667C18.2675 2.72944 18.6219 2.375 19.0591 2.375Z" fill="#75C4FE"/>
<path fill-rule="evenodd" clip-rule="evenodd" d="M14.5643 6.54456C14.8512 6.21463 15.3513 6.17976 15.6812 6.46666L19.0958 9.43585L22.6508 6.76959C23.0006 6.50727 23.4968 6.57817 23.7591 6.92792C24.0215 7.27772 23.9506 7.77394 23.6008 8.03626L19.5341 11.0864C19.2355 11.3102 18.8212 11.2953 18.5396 11.0504L14.6423 7.66144C14.3123 7.37454 14.2774 6.87449 14.5643 6.54456Z" fill="#75C4FE"/>
<path fill-rule="evenodd" clip-rule="evenodd" d="M18.5712 26.6049C18.8547 26.3829 19.2524 26.3803 19.5389 26.5986L23.0973 29.3098C23.4451 29.5748 23.5122 30.0715 23.2472 30.4193C22.9822 30.7671 22.4855 30.8342 22.1377 30.5692L19.0656 28.2285L15.6497 30.9018C15.3053 31.1713 14.8078 31.1106 14.5383 30.7663C14.2689 30.422 14.3295 29.9244 14.6738 29.655L18.5712 26.6049Z" fill="#75C4FE"/>
<path fill-rule="evenodd" clip-rule="evenodd" d="M14.4046 10.967C14.6185 10.8339 14.883 10.8105 15.1169 10.9041L19.0978 12.4964L23.4093 11.219C23.6259 11.1548 23.8596 11.1862 24.0515 11.3053C24.2435 11.4244 24.3754 11.6198 24.4142 11.8424L25.0469 15.4805L27.9056 18.1804C28.0667 18.3325 28.1566 18.5451 28.1537 18.7666C28.1507 18.9881 28.055 19.1982 27.8899 19.3459L24.8516 22.0644L23.7245 26.5731C23.668 26.7989 23.5151 26.9884 23.3063 27.0912C23.0976 27.1941 22.8542 27.1999 22.6407 27.1072L19.0167 25.5315L15.0642 26.7962C14.8336 26.87 14.5819 26.8342 14.381 26.6991C14.1801 26.564 14.0521 26.3443 14.0335 26.103L13.7253 22.096L9.99763 19.7662C9.77628 19.6278 9.63734 19.3892 9.62626 19.1285C9.61522 18.8676 9.73341 18.6182 9.94221 18.4615L13.7221 15.6266L14.0335 11.5784C14.0529 11.3272 14.1907 11.1002 14.4046 10.967ZM15.5296 12.7744L15.2733 16.1055C15.2558 16.3327 15.1413 16.5414 14.959 16.6781L11.8159 19.0354L14.9036 20.9652C15.1168 21.0985 15.2541 21.3251 15.2733 21.5759L15.5354 24.983L18.8178 23.9326C19.0007 23.8741 19.1987 23.884 19.3748 23.9606L22.415 25.2825L23.3745 21.4446C23.4129 21.2909 23.4966 21.1522 23.6147 21.0466L26.1924 18.7402L23.7684 16.4509C23.6442 16.3336 23.5613 16.1793 23.532 16.011L23.0066 12.9897L19.284 14.0927C19.1132 14.1433 18.9304 14.1348 18.7651 14.0686L15.5296 12.7744Z" fill="#75C4FE"/>
<path fill-rule="evenodd" clip-rule="evenodd" d="M19.0452 12.74C19.27 12.7347 19.4786 12.8569 19.5839 13.0558L20.9231 15.5855L24.0863 15.2842C24.3058 15.2633 24.5188 15.3657 24.6394 15.5502C24.7601 15.7347 24.7687 15.9709 24.6616 16.1637L23.143 18.8972L24.6366 21.1377C24.7581 21.3199 24.7694 21.5542 24.6661 21.7473C24.5627 21.9403 24.3616 22.0609 24.1426 22.0609H20.9599L19.5957 24.9408C19.4974 25.1484 19.2881 25.2806 19.0584 25.2804C18.8287 25.28 18.6197 25.1473 18.5219 24.9394L17.3078 22.3594L14.5879 22.0572C14.3819 22.0343 14.2028 21.9057 14.1153 21.7179C14.0277 21.53 14.0445 21.3102 14.1594 21.1377L15.6344 18.9254L13.8205 16.2047C13.6932 16.0136 13.6874 15.7662 13.8057 15.5694C13.924 15.3726 14.1452 15.2616 14.3737 15.2845L17.345 15.5816L18.5219 13.0807C18.6177 12.8772 18.8203 12.7453 19.0452 12.74ZM19.0904 14.6616L18.2408 16.467C18.1337 16.6946 17.8948 16.83 17.6445 16.805L15.5054 16.5911L16.842 18.596C16.975 18.7955 16.975 19.0553 16.842 19.2547L15.6887 20.9847L17.7691 21.2159C17.9743 21.2387 18.1529 21.3664 18.2408 21.5532L19.0609 23.2959L20.0476 21.2129C20.1458 21.0056 20.3547 20.8734 20.5842 20.8734H23.0332L21.9541 19.2547C21.8307 19.0697 21.8211 18.8314 21.9291 18.637L23.0755 16.5733L20.6405 16.8053C20.4012 16.8281 20.1719 16.7044 20.0594 16.492L19.0904 14.6616Z" fill="#48AAF1"/>
</svg>
