<svg>
    <symbol id="header_instagram" width="22" height="22" viewBox="0 0 22 22" fill="none" xmlns="http://www.w3.org/2000/svg">
        <path d="M14.535 5.66602H17.0003M7.00033 1.66602H15.0003C17.9458 1.66602 20.3337 4.05383 20.3337 6.99935V14.9993C20.3337 17.9449 17.9458 20.3327 15.0003 20.3327H7.00032C4.05481 20.3327 1.66699 17.9449 1.66699 14.9993V6.99935C1.66699 4.05383 4.05481 1.66602 7.00033 1.66602ZM11.0003 14.9993C8.79119 14.9993 7.00033 13.2085 7.00033 10.9993C7.00033 8.79021 8.79119 6.99935 11.0003 6.99935C13.2095 6.99935 15.0003 8.79021 15.0003 10.9993C15.0003 13.2085 13.2095 14.9993 11.0003 14.9993Z" stroke-width="2.5"/>
    </symbol>

    <symbol id="header_telegram" width="22" height="22" viewBox="0 0 22 22" fill="none" xmlns="http://www.w3.org/2000/svg">
        <g clip-path="url(#clip0_461_380)">
        <path d="M21 11C21 16.5228 16.5228 21 11 21C5.47715 21 1 16.5228 1 11C1 5.47715 5.47715 1 11 1C16.5228 1 21 5.47715 21 11Z" stroke-width="2"/>
        <path d="M3.18659 10.5145L16.651 6.01369C16.8532 5.9459 17.0461 6.14081 16.9902 6.35611L14.6345 15.4244C14.5928 15.5846 14.4293 15.6722 14.2816 15.6133L9.52469 13.7204C9.33766 13.6459 9.29133 13.3895 9.43958 13.2482L13.1712 9.69068C13.4006 9.47213 13.153 9.08642 12.8745 9.22901L6.62773 12.4258C6.55932 12.4608 6.48017 12.4634 6.40978 12.4332L3.16663 11.0436C2.93485 10.9441 2.94798 10.5942 3.18661 10.5146L3.18659 10.5145ZM10.6712 11.2813C10.7883 11.1742 10.6583 10.9813 10.5234 11.0621L7.54646 12.7726C7.27799 12.9334 7.15192 13.2689 7.2432 13.5795L8.16274 16.8368C8.20947 17.0018 8.40634 17.055 8.52279 16.9342L10.3581 15.1063C10.4331 15.0284 10.4092 14.8952 10.3123 14.8518L8.40787 13.8531C8.30327 13.7981 8.28268 13.6507 8.3675 13.5665L10.671 11.2812L10.6712 11.2813Z"/>
        </g>
        <defs>
        <clipPath id="clip0_461_380">
        <rect width="22" height="22" fill="white"/>
        </clipPath>
        </defs>
    </symbol>

    <symbol id="header_zen" width="21" height="22" viewBox="0 0 22 22" fill="none" xmlns="http://www.w3.org/2000/svg">
        <g clip-path="url(#clip0_461_384)">
        <path d="M12.2507 5.6036C12.0654 4.63742 11.9865 3.42878 11.9253 1.77228C13.5163 1.77998 14.8361 1.81318 15.9326 1.95457C17.3116 2.1324 18.1092 2.45786 18.5867 2.91308C19.0367 3.3856 19.3657 4.21034 19.5452 5.61896C19.6857 6.72167 19.7195 8.03337 19.7275 9.57283C18.0709 9.50971 16.8624 9.43107 15.8956 9.24632C14.7635 9.03 14.0541 8.68327 13.4232 8.07684C12.8159 7.445 12.4677 6.73486 12.2507 5.6036ZM5.10445 9.24632C4.13759 9.43107 2.92905 9.50971 1.27247 9.57283C1.28051 8.03337 1.31431 6.72167 1.45481 5.61896C1.6343 4.21035 1.96333 3.38562 2.41328 2.9131C2.89055 2.45816 3.68952 2.1325 5.07013 1.95458C6.16701 1.81323 7.4864 1.78 9.07467 1.77229C9.01345 3.42879 8.9346 4.63743 8.7493 5.6036C8.53233 6.73486 8.18414 7.44499 7.57684 8.07683C6.94588 8.68326 6.23652 9.03 5.10445 9.24632ZM8.74632 16.3956C8.93108 17.3624 9.00972 18.571 9.07284 20.2277C7.4827 20.22 6.16351 20.1868 5.06742 20.0454C3.68836 19.8676 2.89081 19.5421 2.41327 19.0869C1.96333 18.6144 1.6343 17.7896 1.45481 16.381C1.31425 15.2779 1.28048 13.9656 1.27246 12.4253C2.92887 12.4866 4.13746 12.5654 5.1036 12.7507C6.23486 12.9677 6.945 13.3159 7.57684 13.9232C8.18327 14.5541 8.53 15.2635 8.74632 16.3956ZM15.8956 12.7537C16.8624 12.5689 18.0709 12.4903 19.7275 12.4272C19.7195 13.9666 19.6857 15.2783 19.5452 16.381C19.3657 17.7897 19.0367 18.6144 18.5867 19.0869C18.1092 19.5421 17.3116 19.8676 15.9326 20.0454C14.8361 20.1868 13.5163 20.22 11.9253 20.2277C11.9865 18.5712 12.0654 17.3626 12.2507 16.3964C12.4677 15.2651 12.8159 14.555 13.4232 13.9232C14.0541 13.3167 14.7635 12.97 15.8956 12.7537Z" stroke-width="2.54"/>
        </g>
        <defs>
        <clipPath id="clip0_461_384">
        <rect width="21" height="21" fill="white" transform="translate(0 0.5)"/>
        </clipPath>
        </defs>
    </symbol>

    <symbol id="header_mail" width="27" height="22" viewBox="0 0 22 22" fill="none" xmlns="http://www.w3.org/2000/svg">
        <path d="M22.3125 0.5H3.9375C2.89321 0.5 1.89169 0.914843 1.15327 1.65327C0.414843 2.39169 0 3.39321 0 4.4375V17.5625C0 18.6068 0.414843 19.6083 1.15327 20.3467C1.89169 21.0852 2.89321 21.5 3.9375 21.5H22.3125C23.3568 21.5 24.3583 21.0852 25.0967 20.3467C25.8352 19.6083 26.25 18.6068 26.25 17.5625V4.4375C26.25 3.39321 25.8352 2.39169 25.0967 1.65327C24.3583 0.914843 23.3568 0.5 22.3125 0.5ZM21.4331 3.125L13.125 9.35938L4.81687 3.125H21.4331ZM22.3125 18.875H3.9375C3.5894 18.875 3.25556 18.7367 3.00942 18.4906C2.76328 18.2444 2.625 17.9106 2.625 17.5625V4.76562L12.3375 12.05C12.5647 12.2204 12.841 12.3125 13.125 12.3125C13.409 12.3125 13.6853 12.2204 13.9125 12.05L23.625 4.76562V17.5625C23.625 17.9106 23.4867 18.2444 23.2406 18.4906C22.9944 18.7367 22.6606 18.875 22.3125 18.875Z"/>
    </symbol>

    <symbol id="header_phone" width="23" height="22" viewBox="0 0 23 22" fill="none" xmlns="http://www.w3.org/2000/svg">
        <g clip-path="url(#clip0_461_390)">
        <path d="M5.99664 11.2139H2.20335C1.7788 11.2139 1.43896 11.5571 1.43896 11.9863V14.3034C1.43896 14.7324 1.77861 15.0758 2.20335 15.0758H5.99664C6.42119 15.0758 6.76102 14.7326 6.76102 14.3034V11.9863C6.76102 11.5571 6.42118 11.2139 5.99664 11.2139Z"/>
        <path d="M5.99676 17.25H2.20347C1.77892 17.25 1.43909 17.5932 1.43909 18.0224V20.3395C1.43909 20.7686 1.77873 21.112 2.20347 21.112H5.99676C6.42131 21.112 6.76114 20.7687 6.76114 20.3395V18.0224C6.76114 17.5932 6.42131 17.25 5.99676 17.25Z"/>
        <path d="M13.4703 11.2139H9.67698C9.25243 11.2139 8.9126 11.5571 8.9126 11.9863V14.3034C8.9126 14.7324 9.25224 15.0758 9.67698 15.0758H13.4703C13.8948 15.0758 14.2347 14.7326 14.2347 14.3034V11.9863C14.2347 11.5571 13.895 11.2139 13.4703 11.2139Z"/>
        <path d="M13.4703 17.25H9.67698C9.25243 17.25 8.9126 17.5932 8.9126 18.0224V20.3395C8.9126 20.7686 9.25224 21.112 9.67698 21.112H13.4703C13.8948 21.112 14.2347 20.7687 14.2347 20.3395V18.0224C14.2347 17.5932 13.895 17.25 13.4703 17.25Z"/>
        <path d="M20.9439 11.2139H17.1506C16.7261 11.2139 16.3862 11.5571 16.3862 11.9863V14.3034C16.3862 14.7324 16.7259 15.0758 17.1506 15.0758H20.9439C21.3685 15.0758 21.7083 14.7326 21.7083 14.3034V11.9863C21.7083 11.5571 21.3686 11.2139 20.9439 11.2139Z"/>
        <path d="M20.9437 17.25H17.1504C16.7258 17.25 16.386 17.5932 16.386 18.0224V20.3395C16.386 20.7686 16.7256 21.112 17.1504 21.112H20.9437C21.3682 21.112 21.708 20.7687 21.708 20.3395V18.0224C21.708 17.5932 21.3684 17.25 20.9437 17.25Z"/>
        <path d="M21.9628 3.46152C21.4533 3.00377 20.8021 2.46018 20.2642 2.14551C17.9147 0.772434 14.8289 0 11.5735 0C8.31797 0 5.23234 0.772434 2.88273 2.17406C2.34481 2.48875 1.69377 3.03232 1.18411 3.49008C0.674661 3.9191 0.4764 4.60574 0.617993 5.26364L1.29745 8.41049C1.4106 8.92531 1.9485 9.23998 2.45815 9.0971L7.01583 7.63821C7.44037 7.49514 7.69528 7.09463 7.63861 6.66563L7.29897 4.14798C8.74266 3.71896 9.93157 3.49008 11.5735 3.49008C13.3286 3.49008 14.5175 3.74749 15.9047 4.17669L15.5933 6.63687C15.5366 7.06589 15.7916 7.49513 16.2161 7.60945L20.7456 9.06835C21.255 9.23995 21.7929 8.92527 21.9063 8.38173L22.5291 5.23488C22.6704 4.57718 22.4724 3.89057 21.9627 3.46152H21.9628Z"/>
        </g>
        <defs>
        <clipPath id="clip0_461_390">
        <rect width="22" height="22" fill="white" transform="translate(0.25)"/>
        </clipPath>
        </defs>
    </symbol>

    <symbol id="stories_video_svg" width="69" height="81" viewBox="0 0 69 81" fill="none" xmlns="http://www.w3.org/2000/svg">
        <g filter="url(#filter0_d_512_664)">
        <path d="M56.8027 36.2411L17.866 10.8268C14.5454 8.6558 10.0527 11.0183 10.0527 14.9135V65.6782C10.0527 69.6371 14.5455 71.9359 17.866 69.765L56.8027 44.3507C59.7326 42.4986 59.7326 38.1567 56.8027 36.241V36.2411Z" fill="#FDFFFE"/>
        </g>
        <defs>
        <filter id="filter0_d_512_664" x="0.0527344" y="0" width="68.9474" height="80.6014" filterUnits="userSpaceOnUse" color-interpolation-filters="sRGB">
        <feFlood flood-opacity="0" result="BackgroundImageFix"/>
        <feColorMatrix in="SourceAlpha" type="matrix" values="0 0 0 0 0 0 0 0 0 0 0 0 0 0 0 0 0 0 127 0" result="hardAlpha"/>
        <feOffset/>
        <feGaussianBlur stdDeviation="5"/>
        <feComposite in2="hardAlpha" operator="out"/>
        <feColorMatrix type="matrix" values="0 0 0 0 0 0 0 0 0 0 0 0 0 0 0 0 0 0 0.5 0"/>
        <feBlend mode="normal" in2="BackgroundImageFix" result="effect1_dropShadow_512_664"/>
        <feBlend mode="normal" in="SourceGraphic" in2="effect1_dropShadow_512_664" result="shape"/>
        </filter>
        </defs>
    </symbol>

    <symbol id="pagination_arrow" width="12" height="18" viewBox="0 0 12 18" fill="none" xmlns="http://www.w3.org/2000/svg">
        <path d="M10 2L3 9L10 16" stroke="#20211B" stroke-width="3" stroke-linecap="round"/>
    </symbol>

    <symbol id="share_post" width="16" height="17" viewBox="0 0 16 17" fill="none" xmlns="http://www.w3.org/2000/svg">
        <path d="M3.20347 5.31496C2.15203 5.31336 1.16703 5.82654 0.568632 6.68779C-0.0297671 7.54904 -0.165128 8.64825 0.206591 9.62791C0.578436 10.6077 1.40973 11.3429 2.43043 11.5944C3.451 11.8459 4.53059 11.5816 5.318 10.8875L9.64822 13.2807C9.47866 14.277 9.79336 15.2943 10.4964 16.0225C11.1995 16.7507 12.2077 17.1036 13.2135 16.9734C14.2193 16.8433 15.1036 16.2457 15.5966 15.3627C16.0897 14.4797 16.1332 13.4161 15.7137 12.496C15.2943 11.5761 14.4618 10.9088 13.4698 10.6977C12.478 10.4865 11.4443 10.7567 10.6841 11.4256L6.35391 9.03234C6.41786 8.68119 6.41786 8.32137 6.35391 7.97018L10.6841 5.57695C11.4216 6.22423 12.4167 6.49785 13.3829 6.31893C14.3492 6.14014 15.1793 5.52868 15.634 4.66063C16.0888 3.79272 16.1178 2.76466 15.7126 1.87266C15.3074 0.98065 14.5131 0.32376 13.5584 0.091268C12.6038 -0.141363 11.5947 0.0762039 10.8221 0.681239C10.0494 1.28641 9.59884 2.21174 9.60021 3.1908C9.60132 3.36885 9.61744 3.54654 9.64817 3.72188L5.31796 6.11511C4.73517 5.59949 3.98282 5.31474 3.20343 5.315L3.20347 5.31496Z" fill="#8B8B88"/>
    </symbol>

    <symbol id="news_gallery_arrow" width="18" height="28" viewBox="0 0 18 28" fill="none" xmlns="http://www.w3.org/2000/svg">
        <path d="M15.5 2.5L3.7 11.35C2.1 12.55 2.1 14.95 3.7 16.15L15.5 25" stroke="#E7C99F" stroke-width="4.5" stroke-linecap="round"/>
    </symbol>

    <symbol id="arrow" width="13" height="19" viewBox="0 0 13 19" fill="none" xmlns="http://www.w3.org/2000/svg">
        <path d="M11 2L3.13333 7.9C2.06667 8.7 2.06667 10.3 3.13333 11.1L11 17" stroke="#E7C99F" stroke-width="3" stroke-linecap="round"/>
    </symbol>

    <symbol id="notes_cart_delete" width="30" height="30" viewBox="0 0 30 30" fill="none" xmlns="http://www.w3.org/2000/svg">
        <path d="M15 15L20.625 9.375M15 15L9.375 20.625M15 15L20.625 20.625M15 15L9.375 9.375" stroke="#BABAB7" stroke-width="3" stroke-linecap="round"/>
        <rect x="0.5" y="0.5" width="29" height="29" rx="14.5" stroke="#BABAB7"/>
    </symbol>
    
    <symbol id="notes_cart_total" width="20" height="20" viewBox="0 0 20 20" fill="none" xmlns="http://www.w3.org/2000/svg">
        <path d="M10 0.000171335C7.34783 0.000171335 4.80435 1.05369 2.9289 2.92905C1.05353 4.8044 0 7.34807 0 10.0001C0 12.6521 1.05353 15.1957 2.9289 17.0711C4.80427 18.9465 7.34796 20 10 20C12.652 20 15.1956 18.9465 17.0711 17.0711C18.9465 15.1958 20 12.6521 20 10.0001C20 8.24477 19.538 6.52028 18.6604 4.99991C17.7826 3.47981 16.5201 2.21736 15 1.33964C13.4797 0.462045 11.7552 0 9.99983 0L10 0.000171335ZM10 18.0003C7.8782 18.0003 5.84331 17.1574 4.3432 15.657C2.84284 14.1568 1.99991 12.122 1.99991 10.0003C1.99991 7.87856 2.84284 5.8436 4.3432 4.34351C5.8434 2.84316 7.87828 2.00024 10 2.00024C12.1217 2.00024 14.1567 2.84316 15.6568 4.34351C17.1572 5.84369 18.0001 7.87856 18.0001 10.0003C18.0001 11.4045 17.6304 12.7841 16.9281 14.0002C16.226 15.2165 15.2162 16.2263 13.9999 16.9284C12.7838 17.6307 11.4042 18.0004 9.99991 18.0004L10 18.0003Z" fill="#8B8B88"/>
        <path d="M10.19 5.00006H9.81001C9.06467 5.00006 8.35002 5.29621 7.823 5.82322C7.29598 6.35007 7 7.06493 7 7.81005V8.00006C7 8.35732 7.19068 8.68745 7.50006 8.86608C7.80945 9.04471 8.19063 9.04471 8.50002 8.86608C8.8094 8.68745 9.00009 8.35732 9.00009 8.00006V7.81005C9.00009 7.59526 9.0853 7.38934 9.23731 7.23734C9.38916 7.0855 9.59524 7.00012 9.81002 7.00012H10.19C10.4166 7.0023 10.6322 7.09806 10.7856 7.2648C10.9391 7.43137 11.0166 7.6542 11 7.88019C11.0009 8.0317 10.9592 8.18052 10.8796 8.30962C10.8001 8.43869 10.6859 8.54282 10.55 8.61012C10.0814 8.83998 9.68732 9.19757 9.41312 9.6417C9.1389 10.0857 8.99576 10.5983 9.00011 11.1201C9.00011 11.4774 9.19063 11.8075 9.5 11.9861C9.80939 12.1648 10.1907 12.1648 10.5001 11.9861C10.8095 11.8075 11 11.4774 11 11.1201C10.9992 10.9686 11.041 10.8198 11.1206 10.6907C11.2001 10.5616 11.3143 10.4575 11.45 10.3902C12.2133 10.0018 12.7616 9.29097 12.943 8.45422C13.1247 7.61734 12.9203 6.74327 12.3866 6.07362C11.8529 5.40397 11.0464 5.00973 10.1901 5L10.19 5.00006Z" fill="#8B8B88"/>
        <path d="M10.7102 13.2903L10.5602 13.1703L10.3802 13.0802V13.0804C10.3206 13.0499 10.2565 13.0296 10.1902 13.0203C10.0619 12.9905 9.92851 12.9905 9.80011 13.0203L9.62014 13.0802L9.44017 13.1703L9.29017 13.2903C9.19909 13.3854 9.12778 13.4976 9.08023 13.6203C8.97326 13.8624 8.97326 14.1383 9.08023 14.3803C9.13079 14.5015 9.20177 14.6132 9.29017 14.7103C9.478 14.8996 9.73349 15.0061 10.0001 15.0061C10.2668 15.0061 10.5223 14.8996 10.7101 14.7103C10.7985 14.6132 10.8695 14.5015 10.9201 14.3803C11.027 14.1382 11.027 13.8623 10.9201 13.6203C10.8725 13.4976 10.8012 13.3854 10.7101 13.2903L10.7102 13.2903Z" fill="#8B8B88"/>
    </symbol>

    <symbol id="contact_instagram" width="22" height="22" viewBox="0 0 22 22" fill="none" xmlns="http://www.w3.org/2000/svg">
        <path d="M14.535 5.66602H17.0003M7.00033 1.66602H15.0003C17.9458 1.66602 20.3337 4.05383 20.3337 6.99935V14.9993C20.3337 17.9449 17.9458 20.3327 15.0003 20.3327H7.00032C4.05481 20.3327 1.66699 17.9449 1.66699 14.9993V6.99935C1.66699 4.05383 4.05481 1.66602 7.00033 1.66602ZM11.0003 14.9993C8.79119 14.9993 7.00033 13.2085 7.00033 10.9993C7.00033 8.79021 8.79119 6.99935 11.0003 6.99935C13.2095 6.99935 15.0003 8.79021 15.0003 10.9993C15.0003 13.2085 13.2095 14.9993 11.0003 14.9993Z" stroke="#20211B" stroke-width="2.5"/>
    </symbol>

    <symbol id="contact_telegram" width="22" height="22" viewBox="0 0 22 22" fill="none" xmlns="http://www.w3.org/2000/svg">
        <g clip-path="url(#clip0_415_2867)">
        <path d="M21 11C21 16.5228 16.5228 21 11 21C5.47715 21 1 16.5228 1 11C1 5.47715 5.47715 1 11 1C16.5228 1 21 5.47715 21 11Z" stroke="#20211B" stroke-width="2"/>
        <path d="M3.18659 10.5145L16.651 6.01369C16.8532 5.9459 17.0461 6.14081 16.9902 6.35611L14.6345 15.4244C14.5928 15.5846 14.4293 15.6722 14.2816 15.6133L9.52469 13.7204C9.33766 13.6459 9.29133 13.3895 9.43958 13.2482L13.1712 9.69068C13.4006 9.47213 13.153 9.08642 12.8745 9.22901L6.62773 12.4258C6.55932 12.4608 6.48017 12.4634 6.40978 12.4332L3.16663 11.0436C2.93485 10.9441 2.94798 10.5942 3.18661 10.5146L3.18659 10.5145ZM10.6712 11.2813C10.7883 11.1742 10.6583 10.9813 10.5234 11.0621L7.54646 12.7726C7.27799 12.9334 7.15192 13.2689 7.2432 13.5795L8.16274 16.8368C8.20947 17.0018 8.40634 17.055 8.52279 16.9342L10.3581 15.1063C10.4331 15.0284 10.4092 14.8952 10.3123 14.8518L8.40787 13.8531C8.30327 13.7981 8.28268 13.6507 8.3675 13.5665L10.671 11.2812L10.6712 11.2813Z" fill="#20211B"/>
        </g>
        <defs>
        <clipPath id="clip0_415_2867">
        <rect width="22" height="22" fill="white"/>
        </clipPath>
        </defs>
    </symbol>

    <symbol id="contact_zen" width="21" height="22" viewBox="0 0 21 22" fill="none" xmlns="http://www.w3.org/2000/svg">
        <g clip-path="url(#clip0_415_2871)">
        <path d="M12.2507 5.6036C12.0654 4.63742 11.9865 3.42878 11.9253 1.77228C13.5163 1.77998 14.8361 1.81318 15.9326 1.95457C17.3116 2.1324 18.1092 2.45786 18.5867 2.91308C19.0367 3.3856 19.3657 4.21034 19.5452 5.61896C19.6857 6.72167 19.7195 8.03337 19.7275 9.57283C18.0709 9.50971 16.8624 9.43107 15.8956 9.24632C14.7635 9.03 14.0541 8.68327 13.4232 8.07684C12.8159 7.445 12.4677 6.73486 12.2507 5.6036ZM5.10445 9.24632C4.13759 9.43107 2.92905 9.50971 1.27247 9.57283C1.28051 8.03337 1.31431 6.72167 1.45481 5.61896C1.6343 4.21035 1.96333 3.38562 2.41328 2.9131C2.89055 2.45816 3.68952 2.1325 5.07013 1.95458C6.16701 1.81323 7.4864 1.78 9.07467 1.77229C9.01345 3.42879 8.9346 4.63743 8.7493 5.6036C8.53233 6.73486 8.18414 7.44499 7.57684 8.07683C6.94588 8.68326 6.23652 9.03 5.10445 9.24632ZM8.74632 16.3956C8.93108 17.3624 9.00972 18.571 9.07284 20.2277C7.4827 20.22 6.16351 20.1868 5.06742 20.0454C3.68836 19.8676 2.89081 19.5421 2.41327 19.0869C1.96333 18.6144 1.6343 17.7896 1.45481 16.381C1.31425 15.2779 1.28048 13.9656 1.27246 12.4253C2.92887 12.4866 4.13746 12.5654 5.1036 12.7507C6.23486 12.9677 6.945 13.3159 7.57684 13.9232C8.18327 14.5541 8.53 15.2635 8.74632 16.3956ZM15.8956 12.7537C16.8624 12.5689 18.0709 12.4903 19.7275 12.4272C19.7195 13.9666 19.6857 15.2783 19.5452 16.381C19.3657 17.7897 19.0367 18.6144 18.5867 19.0869C18.1092 19.5421 17.3116 19.8676 15.9326 20.0454C14.8361 20.1868 13.5163 20.22 11.9253 20.2277C11.9865 18.5712 12.0654 17.3626 12.2507 16.3964C12.4677 15.2651 12.8159 14.555 13.4232 13.9232C14.0541 13.3167 14.7635 12.97 15.8956 12.7537Z" stroke="#20211B" stroke-width="2.54"/>
        </g>
        <defs>
        <clipPath id="clip0_415_2871">
        <rect width="21" height="21" fill="white" transform="translate(0 0.5)"/>
        </clipPath>
        </defs>
    </symbol>
    
    <symbol id="contact_card_link" width="16" height="16" viewBox="0 0 16 16" fill="none" xmlns="http://www.w3.org/2000/svg">
        <path d="M3.03655 6.13674C3.42307 5.75455 4.02695 5.75455 4.41348 6.13674C4.8 6.51894 4.8 7.11607 4.41348 7.49827L3.22984 8.66867C2.67431 9.21798 2.38432 9.93457 2.38432 10.699C2.38432 11.4634 2.67413 12.1798 3.22984 12.7293C3.78536 13.2786 4.51005 13.5653 5.2831 13.5653C6.05615 13.5653 6.78067 13.2788 7.33637 12.7293L8.54412 11.5589C8.93064 11.1767 9.53452 11.1767 9.92105 11.5589C10.3076 11.9411 10.3076 12.5382 9.92105 12.9204L8.73741 14.0908C7.81947 14.9985 6.61172 15.5 5.3315 15.5C4.05128 15.5 2.81946 14.9983 1.92559 14.0908C1.00766 13.1831 0.500486 11.9889 0.500486 10.723C0.500486 9.45708 1.00783 8.23904 1.92559 7.35517L3.03655 6.13674Z" fill="#20211B"/>
        <path d="M10.7174 2.43463C9.94433 2.43463 9.21981 2.7212 8.66412 3.27069L7.45636 4.46493C7.06984 4.84713 6.46596 4.84713 6.07944 4.46493C5.69292 4.08273 5.69292 3.48561 6.07944 3.10341L7.26308 1.90916C8.18101 1.0015 9.38877 0.5 10.669 0.5C11.9492 0.5 13.181 1.00167 14.0749 1.90916C14.9928 2.81683 15.5 4.01108 15.5 5.27697C15.5 6.54287 14.9927 7.76091 14.0749 8.64478L12.8913 9.83903C12.698 10.0301 12.4565 10.1256 12.2149 10.1256C11.9733 10.1256 11.7319 10.0301 11.5386 9.83903C11.152 9.45683 11.152 8.8597 11.5386 8.4775L12.7463 7.28326C13.3018 6.73395 13.5918 6.01736 13.5918 5.25296C13.5918 4.48856 13.302 3.77214 12.7463 3.22266C12.2149 2.72116 11.4902 2.43459 10.7173 2.43459L10.7174 2.43463Z" fill="#20211B"/>
        <path d="M6.44179 10.4839C6.20017 10.4839 5.95873 10.3884 5.76545 10.1973C5.37893 9.81509 5.37893 9.21797 5.76545 8.83577L8.83319 5.80252C9.21971 5.42032 9.82359 5.42032 10.2101 5.80252C10.5966 6.18471 10.5966 6.78184 10.2101 7.16404L7.14237 10.1975C6.94911 10.3884 6.7075 10.4839 6.44179 10.4839Z" fill="#20211B"/>
    </symbol>

    <symbol id="rector_card_mark" width="42" height="44" viewBox="0 0 42 44" fill="none" xmlns="http://www.w3.org/2000/svg">
        <path d="M11.5664 31.7161C11.4253 31.7514 11.3548 31.7867 11.249 31.7867C10.9316 31.7867 10.7553 31.6455 10.6495 31.5396C10.5437 31.4337 10.4027 31.2219 10.4027 30.9042C10.4379 27.445 8.25147 24.4447 4.9719 23.4211C4.90137 23.3858 4.79558 23.3505 4.72505 23.2799C4.4782 23.1034 4.40767 22.8563 4.37241 22.7151C4.33714 22.5386 4.37241 22.2915 4.54873 22.0444C6.59408 19.2912 6.59408 15.5849 4.54873 12.8315L4.44294 12.6903C4.44294 12.655 4.40767 12.6197 4.40767 12.5844C4.30188 12.302 4.40767 12.0549 4.4782 11.9137C4.54873 11.7725 4.68979 11.5607 5.00717 11.4901C8.25152 10.4665 10.4379 7.46618 10.4027 4.04232C10.4027 3.90112 10.4027 3.83053 10.438 3.72463C10.5438 3.44225 10.7201 3.30106 10.8964 3.23046C11.0375 3.15987 11.2843 3.08927 11.5664 3.19516C12.3775 3.47755 13.2238 3.61874 14.035 3.61874C16.5387 3.61874 18.9015 2.41861 20.3473 0.371328L20.5589 0.159541C20.9468 -0.122843 21.511 -0.0169492 21.7931 0.371328C23.239 2.41861 25.6017 3.61874 28.0702 3.61874C28.9165 3.61874 29.7629 3.47755 30.5387 3.19516C30.6445 3.15987 30.715 3.15987 30.8208 3.15987C31.1029 3.15987 31.3145 3.30106 31.4203 3.40695C31.5261 3.51285 31.6672 3.72463 31.6672 4.04232C31.6319 7.46626 33.8184 10.4665 37.0979 11.4901C37.2037 11.5254 37.2743 11.5607 37.38 11.6313C37.768 11.9137 37.8385 12.4785 37.5564 12.8667C35.511 15.62 35.511 19.3262 37.5564 22.0797C37.6269 22.1503 37.6622 22.2562 37.6974 22.3268C37.8032 22.6092 37.6974 22.8562 37.6269 22.9974C37.5564 23.1386 37.38 23.3504 37.0979 23.421C33.8183 24.48 31.6672 27.4802 31.7024 30.8688C31.7024 30.9747 31.7024 31.0806 31.6671 31.1865C31.5613 31.4689 31.385 31.6101 31.2087 31.6807C31.0676 31.7513 30.8208 31.8219 30.5387 31.716C29.6923 31.4336 28.846 31.2924 28.0349 31.2924C25.5664 31.2924 23.2389 32.4573 21.7578 34.5398L21.5462 34.7516C21.2994 34.9281 21.0525 34.9281 20.8762 34.8928C20.6999 34.8575 20.4883 34.7869 20.312 34.5398C18.3372 31.7513 14.8107 30.6219 11.5664 31.7161Z" fill="#E7C99F"/>
        <path d="M29.9042 33.6226C30.6094 33.8697 31.35 33.7991 32.0553 33.5167L32.1259 33.4814C32.7959 33.1284 33.3249 32.5636 33.5718 31.8577C33.6423 31.5047 33.7128 31.1517 33.6776 30.7987C33.6776 29.4222 34.136 28.1514 34.9471 27.1631L42 37.9994H35.7229L32.796 44L26.0605 33.6228C26.66 33.411 27.33 33.2698 28 33.2698C28.6347 33.3051 29.2695 33.411 29.9043 33.6228L29.9042 33.6226Z" fill="#E7C99F"/>
        <path d="M7.08793 27.1624C7.93428 28.1861 8.39276 29.4568 8.35745 30.8687C8.35745 31.6453 8.63957 32.3865 9.2038 32.916C9.69751 33.4102 10.4028 33.7278 11.1081 33.7632C11.4607 33.7985 11.8486 33.7279 12.2366 33.5867C13.4708 33.1631 14.7756 33.1984 15.9746 33.622L9.2038 43.9992L6.27688 37.9985H-0.000221252L7.08793 27.1624Z" fill="#E7C99F"/>
    </symbol>

    <symbol id="book_pdf" width="27" height="35" viewBox="0 0 27 35" xmlns="http://www.w3.org/2000/svg">
        <path d="M26.9599 8.25373C26.9599 7.94223 26.8399 7.63075 26.5999 7.39722L19.8801 0.389433C19.6401 0.116776 19.2802 0 18.92 0H2.12C0.960142 0 0 0.934441 0 2.0634V32.9366C0 34.0655 0.960071 35 2.12 35H24.88C26.0399 35 27 34.0656 27 32.9366L26.9599 8.25373ZM8.15986 25.7732H7.11994V27.136C7.11994 27.4474 6.96006 27.6031 6.64002 27.6031H6.08004C5.76 27.6031 5.60012 27.4474 5.60012 27.136L5.59984 22.1915C5.59984 21.88 5.75972 21.7244 6.07976 21.7244H8.11968C9.27954 21.7244 10.0798 22.5421 10.0798 23.7489C10.0798 24.9555 9.32001 25.7732 8.15986 25.7732ZM13.56 27.5639H11.88C11.56 27.5639 11.4001 27.4083 11.4001 27.0968L11.3998 22.1914C11.3998 21.88 11.5597 21.7243 11.8797 21.7243H13.5597C15.4397 21.7243 16.6398 22.8144 16.6398 24.6443C16.6398 26.4738 15.44 27.5639 13.56 27.5639ZM21.76 22.5027C21.76 22.8142 21.6001 22.9698 21.2801 22.9698H19.52V24.1766H20.8799C21.2 24.1766 21.3599 24.3322 21.3599 24.6437V24.9552C21.3599 25.2667 21.2 25.4223 20.8799 25.4223H19.52V27.1354C19.52 27.4469 19.3601 27.6025 19.0401 27.6025H18.4801C18.1601 27.6025 18.0002 27.4469 18.0002 27.1354L17.9999 22.1915C17.9999 21.88 18.1598 21.7244 18.4798 21.7244H21.2399C21.5599 21.7244 21.7198 21.88 21.7198 22.1915V22.5027L21.76 22.5027ZM25.1199 8.64284H20.7198C19.5599 8.64284 18.5998 7.7084 18.5998 6.57944V1.98558C18.5998 1.86881 18.7597 1.82997 18.8397 1.90764L25.2399 8.40931C25.2798 8.48725 25.2399 8.64284 25.1199 8.64284Z"/>
        <path d="M7.87986 22.9701H7.11979V24.5664H7.83965C8.35973 24.5664 8.59972 24.216 8.59972 23.7487C8.59972 23.2815 8.35976 22.9701 7.87986 22.9701Z"/>
        <path d="M13.4799 22.9701H12.88V26.3571H13.4799C14.4799 26.3571 15.1199 25.7732 15.1199 24.644C15.1199 23.5151 14.4799 22.9701 13.4799 22.9701Z"/>
    </symbol>

    <symbol id="book_epub" width="27" height="35" viewBox="0 0 27 35" xmlns="http://www.w3.org/2000/svg">
        <path d="M20.3199 25.6175H19.6V26.5908H20.3199C20.6798 26.5908 20.84 26.3572 20.84 26.0846C20.8397 25.8122 20.6798 25.6175 20.3199 25.6175Z"/>
        <path d="M10.1599 23.8266H9.55998V25.1113H10.1599C10.56 25.1113 10.7597 24.8387 10.7597 24.4495C10.76 24.0601 10.56 23.8266 10.1599 23.8266Z"/>
        <path d="M20.6399 24.2548C20.6399 24.0213 20.5199 23.8654 20.1998 23.8654H19.6V24.7219H20.1998C20.5199 24.6831 20.6399 24.4493 20.6399 24.2548Z"/>
        <path d="M26.9599 8.25373C26.9599 7.94223 26.8399 7.63075 26.5999 7.39722L19.8801 0.389433C19.6401 0.116776 19.2802 0 18.92 0H2.12C0.960142 0 0 0.934441 0 2.0634V32.9366C0 34.0655 0.960071 35 2.12 35H24.88C26.0399 35 27 34.0656 27 32.9366L26.9599 8.25373ZM7.23987 27.2137C7.23987 27.4472 7.11989 27.564 6.87993 27.564H4.47979C4.23983 27.564 4.11985 27.4472 4.11985 27.2137V23.2037C4.11985 22.9701 4.23983 22.8533 4.47979 22.8533H6.75993C6.99989 22.8533 7.11986 22.9701 7.11986 23.2037V23.4763C7.11986 23.7099 6.99989 23.8267 6.75993 23.8267H5.28V24.6832H6.4C6.63996 24.6832 6.75994 24.7999 6.75994 25.0335V25.3061C6.75994 25.5397 6.63996 25.6565 6.4 25.6565H5.28V26.5518H6.84C7.07996 26.5518 7.19993 26.6686 7.19993 26.9022L7.19966 27.2137L7.23987 27.2137ZM10.3997 26.1236H9.55958L9.55986 27.2137C9.55986 27.4472 9.43988 27.564 9.19992 27.564H8.75991C8.51995 27.564 8.39997 27.4472 8.39997 27.2137L8.39969 23.2037C8.39969 22.9701 8.51967 22.8533 8.75963 22.8533H10.3997C11.3598 22.8533 11.9996 23.5152 11.9996 24.4885C11.9597 25.4227 11.3199 26.1236 10.3997 26.1236L10.3997 26.1236ZM17.0398 25.8509C17.0398 26.9022 16.2399 27.6807 14.9999 27.6807C13.7599 27.6807 12.9599 26.941 12.9599 25.8509V23.2425C12.9599 23.0089 13.0799 22.8921 13.3199 22.8921H13.7599C13.9998 22.8921 14.1198 23.0089 14.1198 23.2425V25.8509C14.1198 26.3571 14.4399 26.6295 14.96 26.6295C15.4801 26.6295 15.8001 26.3568 15.8001 25.8509V23.2425C15.8001 23.0089 15.9201 22.8921 16.16 22.8921H16.6799C16.9198 22.8921 17.0398 23.0089 17.0398 23.2425L17.0398 25.8509ZM20.1997 27.564H18.7995C18.5596 27.564 18.4396 27.4472 18.4396 27.2137L18.4398 23.2037C18.4398 22.9701 18.5598 22.8533 18.7998 22.8533H20.1999C21.16 22.8533 21.84 23.2816 21.84 24.0993C21.84 24.4887 21.6399 24.917 21.28 25.1115C21.84 25.2671 22.0401 25.7733 22.0401 26.1627C22.0398 27.2137 21.1598 27.564 20.1997 27.564ZM25.1199 8.64299H20.7197C19.5599 8.64299 18.5997 7.70854 18.5997 6.57958V1.98573C18.5997 1.86895 18.7596 1.83012 18.8397 1.90779L25.2398 8.40946C25.2797 8.4874 25.2398 8.64299 25.1199 8.64299Z"/>
    </symbol>

    <symbol id="book_fb2" width="27" height="35" viewBox="0 0 27 35" xmlns="http://www.w3.org/2000/svg">
        <path d="M13.4399 23.4373C13.4399 23.1646 13.28 22.9311 12.8799 22.9311H12.16V23.9823H12.9201C13.2797 23.9823 13.4399 23.7487 13.4399 23.4373Z"/>
        <path d="M26.9599 8.25373C26.9599 7.94223 26.8399 7.63075 26.5999 7.39722L19.8801 0.389433C19.6401 0.116776 19.2802 0 18.92 0H2.12C0.960142 0 0 0.934441 0 2.0634V32.9366C0 34.0655 0.960071 35 2.12 35H24.88C26.0399 35 27 34.0656 27 32.9366L26.9599 8.25373ZM9.35986 22.5029C9.35986 22.8144 9.19999 22.97 8.87995 22.97H7.11988V24.1768H8.47981C8.79984 24.1768 8.95972 24.3324 8.95972 24.6439V24.9554C8.95972 25.2669 8.79984 25.4225 8.47981 25.4225H7.11988V27.1356C7.11988 27.4471 6.96 27.6027 6.63996 27.6027H6.07998C5.75994 27.6027 5.60006 27.4471 5.60006 27.1356L5.59978 22.1917C5.59978 21.8802 5.75966 21.7246 6.0797 21.7246H8.83977C9.15981 21.7246 9.31969 21.8802 9.31969 22.1917L9.31997 22.5029L9.35986 22.5029ZM12.8799 27.5641H11.1199C10.7998 27.5641 10.64 27.4085 10.64 27.097L10.6397 22.1917C10.6397 21.8802 10.7995 21.7246 11.1196 21.7246H12.8797C14.0797 21.7246 14.9196 22.2308 14.9196 23.2429C14.9196 23.7491 14.6796 24.2162 14.2396 24.4889C14.9196 24.6836 15.1997 25.3066 15.1997 25.8125C15.1598 27.0971 14.0797 27.5641 12.8799 27.5641ZM20.5199 27.1359C20.5199 27.4474 20.3601 27.603 20.04 27.603H16.7599C16.4797 27.603 16.28 27.4474 16.28 27.1359V26.9412C16.28 24.7998 18.8798 24.4107 18.8798 23.5541C18.8798 23.1647 18.5598 22.9703 18.2398 22.9703C17.9596 22.9703 17.7598 23.1259 17.5997 23.2429C17.3996 23.4376 17.1597 23.5156 16.9596 23.3597L16.6396 23.087C16.3996 22.8923 16.3595 22.6976 16.5196 22.4641C16.7997 22.0746 17.3996 21.6075 18.3996 21.6075C19.3996 21.6075 20.4395 22.1526 20.4395 23.3986C20.4395 25.2284 17.9995 25.5787 17.9195 26.3185H20.0395C20.3595 26.3185 20.5194 26.4741 20.5194 26.7856L20.5199 27.1359ZM25.1201 8.6431H20.7199C19.5601 8.6431 18.5999 7.70866 18.5999 6.5797V1.98585C18.5999 1.86907 18.7598 1.83024 18.8399 1.9079L25.24 8.40957C25.2799 8.48751 25.2401 8.6431 25.1201 8.6431Z"/>
        <path d="M13.0399 25.1503H12.1599V26.3571H13.0399C13.4799 26.3571 13.6799 26.0844 13.6799 25.7341C13.6799 25.3838 13.4799 25.1503 13.0399 25.1503Z"/>
    </symbol>

    <symbol id="order_type-1" width="122" height="132" viewBox="0 0 122 132" fill="none" xmlns="http://www.w3.org/2000/svg">
        <path d="M2.51988 111.89C2.47988 110.37 2.84988 109.18 3.62988 108.32C4.40988 107.46 5.56988 107.03 7.10988 107.03C8.62988 107.03 9.77988 107.47 10.5599 108.35C11.3399 109.21 11.7099 110.39 11.6699 111.89L11.3099 123.83C11.2299 125.17 10.8499 126.23 10.1699 127.01C9.48988 127.77 8.46988 128.15 7.10988 128.15C5.72988 128.15 4.68988 127.77 3.98988 127.01C3.28988 126.23 2.91988 125.17 2.87988 123.83L2.51988 111.89ZM5.81988 123.44C5.85988 124.12 5.96988 124.61 6.14988 124.91C6.34988 125.21 6.66988 125.36 7.10988 125.36C7.54988 125.36 7.85988 125.21 8.03988 124.91C8.21988 124.61 8.32988 124.12 8.36988 123.44L8.66988 112.31C8.66988 111.47 8.54988 110.85 8.30988 110.45C8.08988 110.03 7.68988 109.82 7.10988 109.82C6.52988 109.82 6.11988 110.03 5.87988 110.45C5.63988 110.87 5.51988 111.49 5.51988 112.31L5.81988 123.44ZM24.7218 121.16H27.7218V125.21H30.3918L30.6918 119.99C30.7318 119.19 30.6718 118.58 30.5118 118.16C30.3518 117.74 30.0618 117.46 29.6418 117.32C29.0818 117.5 28.4418 117.59 27.7218 117.59V114.8C28.5418 114.8 29.2418 114.42 29.8218 113.66C30.4018 112.88 30.6918 111.8 30.6918 110.42V109.97H27.7218V113.06H24.7218V107.18H33.6918V109.22C33.6918 112.24 33.1118 114.44 31.9518 115.82C33.1118 116.46 33.6918 117.65 33.6918 119.39L33.6618 119.99L33.2118 128H24.7218V121.16ZM39.2753 125.21L38.9453 118.19C38.8453 116.01 39.3553 114.41 40.4753 113.39C41.5953 112.35 43.0553 111.83 44.8553 111.83L44.8853 109.97H39.2753V107.18H47.8853V125.21H49.6553L49.2953 131.93H46.2353L46.5053 128H40.3253L40.5953 131.93H37.6253L37.1753 125.21H39.2753ZM42.2453 125.21H44.8853V114.62C42.7653 114.62 41.7753 115.81 41.9153 118.19L42.2453 125.21ZM53.9012 107.18H62.8712V110.69C62.8712 116.27 60.8812 119.06 56.9012 119.06V128H53.9012V107.18ZM56.9012 116.27C57.7212 116.27 58.4212 115.89 59.0012 115.13C59.5812 114.35 59.8712 113.27 59.8712 111.89V109.97H56.9012V116.27ZM67.4418 118.19C67.3418 116.01 67.8518 114.41 68.9718 113.39C70.0918 112.35 71.5518 111.83 73.3518 111.83L73.3818 109.97H67.7718V107.18H76.3818V128H73.3818V121.22H70.5618L70.8918 128H67.8918L67.4418 118.19ZM70.4118 118.43H73.3818V114.62C72.3818 114.62 71.6218 114.9 71.1018 115.46C70.5818 116.02 70.3518 116.93 70.4118 118.19V118.43ZM82.0496 107.18H91.0196V109.13C91.0196 112.11 90.4496 114.3 89.3096 115.7C90.3696 116.66 90.8996 118.01 90.8996 119.75L90.8696 120.38L90.4196 128H82.0496V107.18ZM85.0496 114.71C85.8696 114.71 86.5696 114.33 87.1496 113.57C87.7296 112.79 88.0196 111.71 88.0196 110.33V109.97H85.0496V114.71ZM87.6296 125.21L87.9296 120.38C88.0096 118.86 87.6496 117.83 86.8496 117.29C86.3096 117.43 85.7096 117.5 85.0496 117.5V125.21H87.6296ZM96.534 107.18H99.534V115.4L102.504 112.88V107.18H105.474V128H102.504V116.54L99.534 119.06V128H96.534V107.18ZM111.282 107.18H114.282V115.4L117.252 112.88V107.18H120.222V128H117.252V116.54L114.282 119.06V128H111.282V107.18Z" fill="#E7C99F"/>
        <g clip-path="url(#clip0_1006_4551)">
        <path d="M58.054 0.886996C56.1746 1.82613 55.1587 3.49569 54.6508 6.41743C54.346 8.13917 54.0921 8.34787 52.7714 8.34787C51.654 8.34787 50.6889 8.92178 49.2667 10.3826C47.5905 12.0522 47.2857 12.7305 47.2857 14.5566C47.2857 18.5218 49.0635 20.7131 52.873 21.3392L54.6508 21.6522L54.8032 24.9392L54.9556 28.174H52.4667H49.9778L49.673 25.9305C49.1143 21.8609 44.8476 19.4087 41.0381 21.0783C38.9556 21.9653 37.127 24.574 37.127 26.7131C37.127 28.0174 36.9238 28.174 35.5016 28.174C32.1492 28.174 29 31.4087 29 34.8522C29 36.6783 30.8794 39.6522 32.5556 40.5392C33.2667 40.9044 34.5873 41.2174 35.5016 41.2174C36.9238 41.2174 37.127 41.3739 37.127 42.6261C37.127 45.8609 40.327 49.0435 43.4762 49.0435C46.6254 49.0435 49.8254 45.8609 49.8254 42.6261C49.8254 41.2696 49.927 41.2174 52.3651 41.2174H54.9048V44.3479C54.9048 46.0696 54.7524 47.4783 54.5492 47.4783C54.2952 47.4783 53.4825 47.0087 52.619 46.4348C51.8063 45.8609 50.9429 45.3913 50.7397 45.3913C50.4857 45.3913 50.3333 48.5739 50.3333 52.4348V59.4261L52.619 60.8348L54.9556 62.1913L54.8032 68.2435L54.6508 74.3479L52.873 74.6609C49.2667 75.2348 47.2857 77.687 47.2857 81.3913C47.2857 83.2696 47.5905 83.8957 49.2667 85.6174C50.6889 87.1305 51.654 87.6522 52.8222 87.6522C54.0921 87.6522 54.3968 87.8609 54.3968 88.8C54.4476 91.1479 56.2254 94.2261 58.1048 95.1131C60.3397 96.2087 61.6603 96.2087 63.8952 95.1131C65.7746 94.2261 67.5524 91.1479 67.6032 88.8C67.6032 87.9131 67.9079 87.6522 68.9238 87.6522C71.9714 87.6522 74.7143 84.5739 74.7143 81.1305C74.7143 77.4783 72.8349 75.287 69.127 74.6609C67.5016 74.3479 67.3492 74.1913 67.1968 72.3653C66.9937 70.1739 67.2476 70.0696 69.381 71.4783C72.073 73.3044 72.1746 73.1479 72.1746 65.7392V58.9044L69.6349 57.287L67.0952 55.6696V48.4696V41.2174H69.6349C72.073 41.2174 72.1746 41.2696 72.1746 42.6261C72.1746 45.8609 75.3746 49.0435 78.5238 49.0435C81.673 49.0435 84.873 45.8609 84.873 42.6261C84.873 41.3739 85.0762 41.2174 86.5492 41.2174C87.4127 41.2174 88.7333 40.9044 89.4444 40.5392C91.1714 39.6522 93 36.6783 93 34.7479C93 31.3566 89.8 28.174 86.3968 28.174C85.0762 28.174 84.873 28.0174 84.873 26.6609C84.873 24.4174 82.8921 21.7566 80.454 20.9218C78.6762 20.2435 78.1175 20.2435 76.4413 20.9218C74.1556 21.8087 72.1746 24.5218 72.1746 26.7131C72.1746 28.174 72.1238 28.2261 69.7873 28.0696L67.3492 27.9131V24.7826V21.6522L69.127 21.3913C72.9365 20.7131 74.7143 18.5218 74.7143 14.5566C74.7143 12.7305 74.4095 12.0522 72.7333 10.3826C71.3111 8.8696 70.346 8.34787 69.1778 8.34787C67.9079 8.34787 67.6032 8.13917 67.6032 7.14787C67.5524 4.85221 65.7746 1.77395 63.8952 0.886996C61.6603 -0.208656 60.1873 -0.208656 58.054 0.886996ZM64.3016 3.13047C64.9111 3.80873 65.3683 5.16526 65.5714 6.887L65.8254 9.65221L68.3651 10.0174C73.0381 10.6957 74.8159 15.0783 71.7175 18.3131C70.4984 19.5653 69.7873 19.8261 67.9079 19.8261H65.5714V24.7826V29.7392H69.6349H73.6984V27.7044C73.6984 25.4087 75.1714 23.1653 77.1524 22.3826C80.1492 21.1826 83.3492 24.0522 83.3492 27.8609C83.3492 29.687 83.4 29.7392 85.381 29.7392C90.8667 29.7392 93.3048 34.8522 89.5968 38.4C88.581 39.3392 87.7175 39.6522 85.8381 39.6522H83.3492V41.4783C83.3492 44.7653 81.1651 47.4783 78.5238 47.4783C75.8825 47.4783 73.6984 44.7653 73.6984 41.4783V39.6522H69.6349H65.5714V48.1044V56.6087L67.8571 58.0696L70.1429 59.5826V64.7479V69.9653L67.8571 68.5566L65.5714 67.2V71.687V76.1739H67.9079C69.7873 76.1739 70.4984 76.4348 71.7175 77.687C74.8159 80.9218 72.9873 85.5131 68.3143 86.0348L65.8254 86.3479L65.673 89.0087C65.4698 92.4522 63.946 94.1739 60.9492 94.1739C58.1556 94.1739 56.7841 92.6087 56.4286 89.1131L56.1746 86.3479L53.6349 85.9826C48.9619 85.3044 47.1841 80.9218 50.2825 77.687C51.5016 76.4348 52.2127 76.1739 54.0921 76.1739H56.4286V68.7131V61.3044L54.1429 59.8957L51.8571 58.4348V53.2174V47.9479L54.1429 49.3566L56.4286 50.7131V45.1826V39.6522H52.3651H48.3016V41.4783C48.3016 45.6522 45.4571 48.1566 41.9524 46.9566C39.8698 46.2261 38.6508 44.2435 38.6508 41.4783C38.6508 39.7044 38.6 39.6522 36.619 39.6522C33.9778 39.6522 31.8952 38.5566 31.1333 36.7826C29.4571 33.0261 32.0476 29.7392 36.619 29.7392C38.6 29.7392 38.6508 29.687 38.6508 27.9131C38.6508 25.1479 39.8698 23.1653 41.9524 22.4348C45.4571 21.2348 48.3016 23.7392 48.3016 27.9131V29.7392H52.3651H56.4286V24.7826V19.8261H54.0921C49.3175 19.8261 47.0317 14.7653 50.2825 11.4261C51.5016 10.174 52.2127 9.91308 54.0921 9.91308H56.4286V7.14787C56.4286 4.33047 57.3429 2.76526 59.4762 1.93047C60.746 1.40874 63.2349 2.03482 64.3016 3.13047Z" fill="#E7C99F"/>
        <path d="M58.4603 9.91303V12H56.1746H53.8889V14.8696V17.7391H56.1746H58.4603V24.7826V31.8261H47.7936H37.127V34.6956V37.5652H47.7936H58.4603V45.913C58.4603 50.5043 58.3079 54.2609 58.0539 54.2609C57.8508 54.2609 56.8349 53.6869 55.7682 52.9565L53.8889 51.6V54.4696C53.8889 57.2869 53.8889 57.2869 56.1746 58.6435L58.4603 60.0522V72.2609V84.5217H61H63.5396V74.0869C63.5396 68.3478 63.6412 63.6522 63.7936 63.6522C63.946 63.6522 64.9619 64.2261 66.0793 64.9565L68.1111 66.2609V63.4435C68.1111 60.6261 68.1111 60.6261 65.8254 59.2696L63.5396 57.8609V47.7391V37.5652H74.2063H84.873V34.6956V31.8261H74.2063H63.5396V24.7826V17.7391H65.8254H68.1111V14.8696V12H65.8254H63.5396V9.91303V7.82607H61H58.4603V9.91303Z" fill="#E7C99F"/>
        </g>
        <defs>
        <clipPath id="clip0_1006_4551">
        <rect width="64" height="96" fill="white" transform="translate(29)"/>
        </clipPath>
        </defs>
    </symbol>

    <symbol id="order_type-2" width="148" height="132" viewBox="0 0 148 132" fill="none" xmlns="http://www.w3.org/2000/svg">
        <path d="M0.447617 111.89C0.407617 110.37 0.777617 109.18 1.55762 108.32C2.33762 107.46 3.49762 107.03 5.03762 107.03C6.55762 107.03 7.70762 107.47 8.48762 108.35C9.26762 109.21 9.63762 110.39 9.59762 111.89L9.23762 123.83C9.15762 125.17 8.77762 126.23 8.09762 127.01C7.41762 127.77 6.39762 128.15 5.03762 128.15C3.65762 128.15 2.61762 127.77 1.91762 127.01C1.21762 126.23 0.847617 125.17 0.807617 123.83L0.447617 111.89ZM3.74762 123.44C3.78762 124.12 3.89762 124.61 4.07762 124.91C4.27762 125.21 4.59762 125.36 5.03762 125.36C5.47762 125.36 5.78762 125.21 5.96762 124.91C6.14762 124.61 6.25762 124.12 6.29762 123.44L6.59762 112.31C6.59762 111.47 6.47762 110.85 6.23762 110.45C6.01762 110.03 5.61762 109.82 5.03762 109.82C4.45762 109.82 4.04762 110.03 3.80762 110.45C3.56762 110.87 3.44762 111.49 3.44762 112.31L3.74762 123.44ZM25.2295 107.18L26.5795 116.42H27.0595L28.3795 107.18H32.3995V109.97H30.9895L29.2195 120.8C30.0195 121.02 30.6395 121.44 31.0795 122.06C31.5395 122.68 31.7695 123.46 31.7695 124.4C31.7695 125.58 31.4295 126.5 30.7495 127.16C30.0695 127.82 29.1595 128.15 28.0195 128.15H26.0095C24.8695 128.15 23.9595 127.82 23.2795 127.16C22.5995 126.5 22.2595 125.58 22.2595 124.4C22.2595 123.22 22.5995 122.3 23.2795 121.64C23.9595 120.98 24.8695 120.65 26.0095 120.65H26.4595L26.6695 119.21H24.2095L22.1695 107.18H25.2295ZM25.0195 124.4C25.0195 125.14 25.4895 125.51 26.4295 125.51H27.5995C28.5395 125.51 29.0095 125.14 29.0095 124.4C29.0095 123.66 28.5395 123.29 27.5995 123.29H26.4295C25.4895 123.29 25.0195 123.66 25.0195 124.4ZM37.3153 107.18H46.2553V128H43.2553V109.97H40.3153V128H37.3153V107.18ZM51.7933 111.89C51.7533 110.37 52.1233 109.18 52.9033 108.32C53.6833 107.46 54.8433 107.03 56.3833 107.03C57.9033 107.03 59.0533 107.47 59.8333 108.35C60.6133 109.21 60.9833 110.39 60.9433 111.89L60.5833 123.83C60.5033 125.17 60.1233 126.23 59.4433 127.01C58.7633 127.77 57.7433 128.15 56.3833 128.15C55.0033 128.15 53.9633 127.77 53.2633 127.01C52.5633 126.23 52.1933 125.17 52.1533 123.83L51.7933 111.89ZM55.0933 123.44C55.1333 124.12 55.2433 124.61 55.4233 124.91C55.6233 125.21 55.9433 125.36 56.3833 125.36C56.8233 125.36 57.1333 125.21 57.3133 124.91C57.4933 124.61 57.6033 124.12 57.6433 123.44L57.9433 112.31C57.9433 111.47 57.8233 110.85 57.5833 110.45C57.3633 110.03 56.9633 109.82 56.3833 109.82C55.8033 109.82 55.3933 110.03 55.1533 110.45C54.9133 110.87 54.7933 111.49 54.7933 112.31L55.0933 123.44ZM66.3719 107.18H69.3719V114.14C69.6719 114.16 70.1019 114.21 70.6619 114.29L71.8319 107.18H75.7019V109.97H74.2019L73.2119 115.34C74.6719 116.44 75.3319 118.16 75.1919 120.5L74.7419 128H71.7419L72.2219 120.5L72.2519 119.99C72.2519 118.99 72.0119 118.25 71.5319 117.77C71.0519 117.29 70.3319 117.02 69.3719 116.96V128H66.3719V107.18ZM80.3812 111.89C80.3412 110.37 80.7112 109.18 81.4912 108.32C82.2712 107.46 83.4312 107.03 84.9712 107.03C86.4912 107.03 87.6412 107.47 88.4212 108.35C89.2012 109.21 89.5712 110.39 89.5312 111.89L89.1712 123.83C89.0912 125.17 88.7112 126.23 88.0312 127.01C87.3512 127.77 86.3312 128.15 84.9712 128.15C83.5912 128.15 82.5512 127.77 81.8512 127.01C81.1512 126.23 80.7812 125.17 80.7412 123.83L80.3812 111.89ZM83.6812 123.44C83.7212 124.12 83.8312 124.61 84.0112 124.91C84.2112 125.21 84.5312 125.36 84.9712 125.36C85.4112 125.36 85.7212 125.21 85.9012 124.91C86.0812 124.61 86.1912 124.12 86.2312 123.44L86.5312 112.31C86.5312 111.47 86.4112 110.85 86.1712 110.45C85.9512 110.03 85.5512 109.82 84.9712 109.82C84.3912 109.82 83.9812 110.03 83.7412 110.45C83.5012 110.87 83.3812 111.49 83.3812 112.31L83.6812 123.44ZM94.7819 111.26C94.7819 109.92 95.1619 108.91 95.9219 108.23C96.6819 107.53 97.7019 107.18 98.9819 107.18H103.332V113.06H100.332V109.97H99.1919C98.2519 109.97 97.7819 110.46 97.7819 111.44V114.71H101.682V117.5H97.7819V125.21H100.272V121.16H103.272V128H94.7819V111.26ZM108.858 107.18H111.858V114.71H114.798V107.18H117.798V128H114.798V117.5H111.858V128H108.858V107.18ZM123.606 107.18H126.606V115.4L129.576 112.88V107.18H132.546V128H129.576V116.54L126.606 119.06V128H123.606V107.18ZM138.354 107.18H141.354V115.4L144.324 112.88V107.18H147.294V128H144.324V116.54L141.354 119.06V128H138.354V107.18Z" fill="#20211B"/>
        <g clip-path="url(#clip0_862_4625)">
        <path d="M70.9619 0.905365C69.0238 1.86406 67.9762 3.56841 67.4524 6.55102C67.1381 8.30862 66.8762 8.52167 65.5143 8.52167C64.3619 8.52167 63.3667 9.10754 61.9 10.5988C60.1714 12.3032 59.8571 12.9956 59.8571 14.8597C59.8571 18.9075 61.6905 21.1445 65.619 21.7836L67.4524 22.1032L67.6095 25.4586L67.7667 28.7608H65.2H62.6333L62.319 26.4706C61.7429 22.3162 57.3429 19.813 53.4143 21.5173C51.2667 22.4228 49.381 25.0858 49.381 27.2695C49.381 28.601 49.1714 28.7608 47.7048 28.7608C44.2476 28.7608 41 32.063 41 35.5782C41 37.4423 42.9381 40.4782 44.6667 41.3836C45.4 41.7565 46.7619 42.076 47.7048 42.076C49.1714 42.076 49.381 42.2358 49.381 43.5141C49.381 46.8162 52.681 50.0651 55.9286 50.0651C59.1762 50.0651 62.4762 46.8162 62.4762 43.5141C62.4762 42.1293 62.581 42.076 65.0952 42.076H67.7143V45.2717C67.7143 47.0293 67.5571 48.4673 67.3476 48.4673C67.0857 48.4673 66.2476 47.988 65.3571 47.4021C64.519 46.8162 63.6286 46.3369 63.419 46.3369C63.1571 46.3369 63 49.5858 63 53.5271V60.6641L65.3571 62.1021L67.7667 63.4869L67.6095 69.6651L67.4524 75.8967L65.619 76.2162C61.9 76.8021 59.8571 79.3054 59.8571 83.0869C59.8571 85.0043 60.1714 85.6434 61.9 87.401C63.3667 88.9456 64.3619 89.4782 65.5667 89.4782C66.8762 89.4782 67.1905 89.6912 67.1905 90.6499C67.2429 93.0467 69.0762 96.1891 71.0143 97.0945C73.319 98.213 74.681 98.213 76.9857 97.0945C78.9238 96.1891 80.7571 93.0467 80.8095 90.6499C80.8095 89.7445 81.1238 89.4782 82.1714 89.4782C85.3143 89.4782 88.1429 86.3358 88.1429 82.8206C88.1429 79.0923 86.2048 76.8554 82.381 76.2162C80.7048 75.8967 80.5476 75.7369 80.3905 73.8728C80.181 71.6358 80.4429 71.5293 82.6429 72.9673C85.419 74.8314 85.5238 74.6717 85.5238 67.1086V60.1315L82.9048 58.4804L80.2857 56.8293V49.4793V42.076H82.9048C85.419 42.076 85.5238 42.1293 85.5238 43.5141C85.5238 46.8162 88.8238 50.0651 92.0714 50.0651C95.319 50.0651 98.619 46.8162 98.619 43.5141C98.619 42.2358 98.8286 42.076 100.348 42.076C101.238 42.076 102.6 41.7565 103.333 41.3836C105.114 40.4782 107 37.4423 107 35.4717C107 32.0097 103.7 28.7608 100.19 28.7608C98.8286 28.7608 98.619 28.601 98.619 27.2162C98.619 24.926 96.5762 22.2097 94.0619 21.3575C92.2286 20.6651 91.6524 20.6651 89.9238 21.3575C87.5667 22.263 85.5238 25.0325 85.5238 27.2695C85.5238 28.7608 85.4714 28.8141 83.0619 28.6543L80.5476 28.4945V25.2988V22.1032L82.381 21.8369C86.3095 21.1445 88.1429 18.9075 88.1429 14.8597C88.1429 12.9956 87.8286 12.3032 86.1 10.5988C84.6333 9.05428 83.6381 8.52167 82.4333 8.52167C81.1238 8.52167 80.8095 8.30862 80.8095 7.29667C80.7571 4.95319 78.9238 1.8108 76.9857 0.905365C74.681 -0.213112 73.1619 -0.213112 70.9619 0.905365ZM77.4048 3.19558C78.0333 3.88798 78.5048 5.27276 78.7143 7.03036L78.9762 9.8532L81.5952 10.226C86.4143 10.9184 88.2476 15.3923 85.0524 18.6945C83.7952 19.9728 83.0619 20.2391 81.1238 20.2391H78.7143V25.2988V30.3586H82.9048H87.0952V28.2814C87.0952 25.938 88.6143 23.6478 90.6571 22.8488C93.7476 21.6238 97.0476 24.5532 97.0476 28.4412C97.0476 30.3054 97.1 30.3586 99.1429 30.3586C104.8 30.3586 107.314 35.5782 103.49 39.1999C102.443 40.1586 101.552 40.4782 99.6143 40.4782H97.0476V42.3423C97.0476 45.6978 94.7952 48.4673 92.0714 48.4673C89.3476 48.4673 87.0952 45.6978 87.0952 42.3423V40.4782H82.9048H78.7143V49.1064V57.788L81.0714 59.2793L83.4286 60.8238V66.0967V71.4228L81.0714 69.9847L78.7143 68.5999V73.1804V77.7608H81.1238C83.0619 77.7608 83.7952 78.0271 85.0524 79.3054C88.2476 82.6075 86.3619 87.2945 81.5429 87.8271L78.9762 88.1467L78.819 90.863C78.6095 94.3782 77.0381 96.1358 73.9476 96.1358C71.0667 96.1358 69.6524 94.538 69.2857 90.9695L69.0238 88.1467L66.4048 87.7738C61.5857 87.0814 59.7524 82.6075 62.9476 79.3054C64.2048 78.0271 64.9381 77.7608 66.8762 77.7608H69.2857V70.1445V62.5814L66.9286 61.1434L64.5714 59.6521V54.326V48.9467L66.9286 50.3847L69.2857 51.7695V46.1238V40.4782H65.0952H60.9048V42.3423C60.9048 46.6032 57.9714 49.1597 54.3571 47.9347C52.2095 47.1891 50.9524 45.1651 50.9524 42.3423C50.9524 40.5315 50.9 40.4782 48.8571 40.4782C46.1333 40.4782 43.9857 39.3597 43.2 37.5488C41.4714 33.7141 44.1429 30.3586 48.8571 30.3586C50.9 30.3586 50.9524 30.3054 50.9524 28.4945C50.9524 25.6717 52.2095 23.6478 54.3571 22.9021C57.9714 21.6771 60.9048 24.2336 60.9048 28.4945V30.3586H65.0952H69.2857V25.2988V20.2391H66.8762C61.9524 20.2391 59.5952 15.0728 62.9476 11.6641C64.2048 10.3858 64.9381 10.1195 66.8762 10.1195H69.2857V7.29667C69.2857 4.42059 70.2286 2.82275 72.4286 1.97058C73.7381 1.43797 76.3048 2.0771 77.4048 3.19558Z" fill="#20211B"/>
        <path d="M71.3809 10.1194V12.2499H69.0237H66.6666V15.1792V18.1086H69.0237H71.3809V25.2988V32.489H60.3809H49.3809V35.4183V38.3477H60.3809H71.3809V46.8694C71.3809 51.5564 71.2237 55.3912 70.9618 55.3912C70.7523 55.3912 69.7047 54.8053 68.6047 54.0596L66.6666 52.6749V55.6042C66.6666 58.4803 66.6666 58.4803 69.0237 59.8651L71.3809 61.3031V73.7662V86.2825H73.9999H76.619V75.6303C76.619 69.7716 76.7237 64.9781 76.8809 64.9781C77.038 64.9781 78.0856 65.564 79.238 66.3096L81.3332 67.6412V64.7651C81.3332 61.889 81.3332 61.889 78.9761 60.5042L76.619 59.0662V48.7336V38.3477H87.6189H98.6189V35.4183V32.489H87.6189H76.619V25.2988V18.1086H78.9761H81.3332V15.1792V12.2499H78.9761H76.619V10.1194V7.98899H73.9999H71.3809V10.1194Z" fill="#20211B"/>
        </g>
        <defs>
        <clipPath id="clip0_862_4625">
        <rect width="66" height="98" fill="white" transform="translate(41)"/>
        </clipPath>
        </defs>
    </symbol>

    <symbol id="order_list_copy" width="24" height="30" viewBox="0 0 24 30" fill="none" xmlns="http://www.w3.org/2000/svg">
        <g clip-path="url(#clip0_1006_4514)">
        <rect x="6.5" y="1.5" width="16" height="21.0193" rx="1.5" stroke="#BABAB7" stroke-width="3"/>
        <rect x="1.5" y="7.50488" width="16" height="21.0193" rx="1.5" fill="#FDFFFE" stroke="#BABAB7" stroke-width="3"/>
        <path d="M5.37499 14.0112H13.625C14.1162 14.0112 14.5702 14.2975 14.8158 14.7619C15.0614 15.2263 15.0614 15.7985 14.8158 16.263C14.5702 16.7274 14.1162 17.0136 13.625 17.0136H5.37499C4.88375 17.0136 4.42983 16.7274 4.18421 16.263C3.9386 15.7985 3.9386 15.2263 4.18421 14.7619C4.42983 14.2975 4.88376 14.0112 5.37499 14.0112Z" fill="#BABAB7"/>
        <path d="M5.37499 18.0144H9C9.49123 18.0144 9.94516 18.3006 10.1908 18.7651C10.4364 19.2295 10.4364 19.8017 10.1908 20.2661C9.94516 20.7306 9.49122 21.0168 9 21.0168H5.37499C4.88375 21.0168 4.42983 20.7306 4.18421 20.2661C3.9386 19.8017 3.9386 19.2295 4.18421 18.7651C4.42983 18.3006 4.88376 18.0144 5.37499 18.0144Z" fill="#BABAB7"/>
        </g>
        <defs>
        <clipPath id="clip0_1006_4514">
        <rect width="24" height="30" fill="white"/>
        </clipPath>
        </defs>
    </symbol>

    <symbol id="order_list_paste" width="24" height="30" viewBox="0 0 24 30" fill="none" xmlns="http://www.w3.org/2000/svg">
        <g clip-path="url(#clip0_1006_4512)">
        <path d="M20.98 3.01164H17.9812C17.9805 2.21608 17.6642 1.45319 17.1022 0.890485C16.5399 0.328035 15.7777 0.0115139 14.9827 0.0107422H8.98524C8.19032 0.0114958 7.42804 0.328016 6.86579 0.890485C6.30379 1.45319 5.98752 2.21608 5.98675 3.01164H2.988C2.19308 3.0124 1.4308 3.32892 0.868551 3.89164C0.306302 4.45437 -0.0099711 5.21724 -0.0107422 6.0128V27.0205C-0.00998916 27.8161 0.306277 28.579 0.868551 29.1417C1.4308 29.7041 2.19308 30.0206 2.988 30.0214H20.98C21.7749 30.0207 22.5372 29.7041 23.0994 29.1417C23.6617 28.579 23.9779 27.8161 23.9787 27.0205V6.0128C23.978 5.21724 23.6617 4.45434 23.0994 3.89164C22.5372 3.32894 21.7749 3.01241 20.98 3.01164ZM8.98511 4.51235V3.01164L14.9823 3.01616L14.9826 6.01282H8.98511L8.98511 4.51235ZM20.98 27.0204H2.988V6.01267H5.98675C5.9875 6.80823 6.30377 7.57113 6.86579 8.13383C7.42804 8.69653 8.19032 9.01306 8.98524 9.01383H14.9827C15.7729 9.01458 16.5315 8.70158 17.0911 8.14315L17.1017 8.13436C17.3173 7.91255 17.4973 7.65858 17.6356 7.38201C17.6707 7.31394 17.7151 7.25139 17.745 7.1803C17.7681 7.12604 17.7781 7.066 17.798 7.01023C17.8479 6.88212 17.8886 6.75073 17.9202 6.61709C17.932 6.55932 17.9297 6.49727 17.9383 6.43824C17.9626 6.29807 17.9772 6.15639 17.9812 6.0142L20.9799 6.01722L20.98 27.0204ZM16.482 12.0146H7.486C6.95036 12.0146 6.45538 12.3007 6.18755 12.765C5.91973 13.2292 5.91973 13.8012 6.18755 14.2654C6.45538 14.7297 6.95035 15.0158 7.486 15.0158H16.482C17.0176 15.0158 17.5126 14.7296 17.7804 14.2654C18.0482 13.8012 18.0482 13.2292 17.7804 12.765C17.5126 12.3007 17.0176 12.0146 16.482 12.0146ZM11.984 16.5162H7.486C6.95036 16.5162 6.45538 16.8023 6.18755 17.2666C5.91973 17.7308 5.91973 18.3028 6.18755 18.767C6.45538 19.2313 6.95035 19.5174 7.486 19.5174H11.984C12.5196 19.5174 13.0146 19.2312 13.2824 18.767C13.5503 18.3028 13.5503 17.7308 13.2824 17.2666C13.0146 16.8023 12.5196 16.5162 11.984 16.5162Z" fill="#BABAB7"/>
        </g>
        <defs>
        <clipPath id="clip0_1006_4512">
        <rect width="24" height="30" fill="white"/>
        </clipPath>
        </defs>
    </symbol>

    <symbol id="order_list_clear" width="30" height="30" viewBox="0 0 30 30" fill="none" xmlns="http://www.w3.org/2000/svg">
        <path d="M15 15L20.625 9.375M15 15L9.375 20.625M15 15L20.625 20.625M15 15L9.375 9.375" stroke="#BABAB7" stroke-width="3" stroke-linecap="round"/>
        <rect x="1.5" y="1.5" width="27" height="27" rx="13.5" stroke="#BABAB7" stroke-width="3"/>
    </symbol>
    
    <symbol id="order_modal_ornament_light" width="380" height="27" viewBox="0 0 380 27" fill="none" xmlns="http://www.w3.org/2000/svg">
        <path d="M377 13H190V14H377V13Z" fill="#E7C99F"/>
        <path d="M376.812 10.5283C376.256 10.5283 375.712 10.6967 375.25 11.0121C374.787 11.3275 374.427 11.7758 374.214 12.3003C374.001 12.8248 373.946 13.4019 374.054 13.9587C374.163 14.5155 374.43 15.027 374.824 15.4284C375.217 15.8298 375.718 16.1032 376.264 16.214C376.809 16.3247 377.375 16.2679 377.889 16.0506C378.403 15.8334 378.842 15.4655 379.151 14.9934C379.46 14.5214 379.625 13.9664 379.625 13.3987C379.626 13.0214 379.554 12.6476 379.413 12.2987C379.273 11.9498 379.065 11.6329 378.804 11.3661C378.543 11.0993 378.232 10.8879 377.89 10.7441C377.548 10.6003 377.182 10.527 376.812 10.5283V10.5283Z" fill="#E7C99F"/>
        <path d="M204.34 9.71681C203.626 9.7148 202.928 9.92903 202.333 10.3324C201.739 10.7357 201.275 11.31 201 11.9826C200.726 12.6552 200.653 13.3958 200.791 14.1107C200.929 14.8255 201.272 15.4825 201.776 15.9985C202.28 16.5144 202.923 16.8661 203.623 17.0089C204.323 17.1518 205.049 17.0795 205.708 16.8011C206.368 16.5228 206.932 16.0509 207.329 15.4452C207.726 14.8395 207.938 14.1273 207.938 13.3986C207.939 12.9156 207.847 12.4371 207.667 11.9904C207.486 11.5438 207.222 11.1378 206.887 10.7958C206.553 10.4538 206.156 10.1824 205.719 9.99727C205.282 9.81211 204.813 9.71681 204.34 9.71681Z" fill="#E7C99F"/>
        <path d="M204.32 11.7554C204.001 11.7494 203.687 11.8406 203.418 12.0174C203.149 12.1942 202.938 12.4487 202.812 12.7484C202.686 13.048 202.649 13.3793 202.708 13.7C202.767 14.0207 202.918 14.3164 203.142 14.5492C203.366 14.7821 203.652 14.9416 203.965 15.0075C204.278 15.0734 204.604 15.0427 204.9 14.9193C205.196 14.7959 205.449 14.5853 205.627 14.3145C205.805 14.0437 205.9 13.7248 205.901 13.3985C205.901 12.968 205.735 12.5546 205.44 12.2473C205.144 11.94 204.742 11.7634 204.32 11.7554V11.7554Z" fill="#E7C99F"/>
        <path d="M207.112 13.51C207.112 13.51 210.859 18.0844 216.136 17.8917C220.439 17.7294 223.51 14.9706 228.558 14.9706C240.066 14.9706 246.446 26.7767 246.446 26.7767C246.446 26.7767 237.453 21.1272 227.932 24.0179C223.599 25.3365 218.919 26.2392 214.347 23.4601C211.003 21.2626 208.294 18.1958 206.496 14.575C205.592 12.8507 207.112 13.51 207.112 13.51Z" fill="#E7C99F"/>
        <path d="M207.112 13.2566C207.112 13.2566 210.859 8.69234 216.136 8.88505C220.439 9.03719 223.51 11.8062 228.558 11.8062C240.066 11.8062 246.446 0 246.446 0C246.446 0 237.453 5.63937 227.932 2.75883C223.599 1.44027 218.919 0.527423 214.347 3.31668C211.001 5.51154 208.291 8.57903 206.496 12.2017C205.592 13.926 207.112 13.2566 207.112 13.2566Z" fill="#E7C99F"/>
        <path d="M215.839 9.91968C212.172 9.91968 209.2 11.4918 209.2 13.4189C209.2 15.346 212.182 16.9182 215.839 16.9182C219.496 16.9182 224.296 13.4189 224.296 13.4189C224.296 13.4189 219.486 9.91968 215.839 9.91968Z" fill="#E7C99F"/>
        <path d="M201.468 1.54167C202.939 2.7588 202.8 5.44663 201.14 7.53604C199.878 9.12845 196.777 9.83844 195.366 10.0819L192.504 13.6115L191.59 12.8306L194.571 9.13859C194.522 7.57661 194.571 4.6555 195.794 3.15437C197.453 1.01425 199.997 0.334686 201.468 1.54167Z" fill="#E7C99F"/>
        <path d="M201.468 25.2554C202.939 24.0484 202.8 21.3606 201.14 19.2611C199.878 17.6585 196.777 16.9586 195.366 16.7152L192.504 13.1855L191.59 13.9665L194.571 17.6585C194.522 19.2205 194.571 22.1517 195.794 23.6427C197.453 25.7524 199.997 26.4624 201.468 25.2554Z" fill="#E7C99F"/>
        <path d="M190 13H3V14H190V13Z" fill="#E7C99F"/>
        <path d="M2.81242 16.4718C3.36867 16.4718 3.91242 16.3034 4.37492 15.988C4.83742 15.6726 5.1979 15.2243 5.41076 14.6998C5.62363 14.1753 5.67932 13.5982 5.5708 13.0414C5.46229 12.4846 5.19443 11.9731 4.80111 11.5717C4.40778 11.1702 3.90666 10.8969 3.3611 10.7861C2.81554 10.6754 2.25006 10.7322 1.73616 10.9495C1.22225 11.1667 0.783012 11.5346 0.473979 12.0066C0.164946 12.4787 0 13.0336 0 13.6014C0 14.3626 0.296308 15.0927 0.823739 15.631C1.35117 16.1693 2.06652 16.4718 2.81242 16.4718Z" fill="#E7C99F"/>
        <path d="M175.918 17.2425C176.632 17.2425 177.33 17.0263 177.923 16.6213C178.517 16.2163 178.979 15.6407 179.252 14.9673C179.525 14.294 179.595 13.5532 179.455 12.8387C179.315 12.1242 178.971 11.4682 178.465 10.9537C177.96 10.4392 177.316 10.0893 176.616 9.94842C175.915 9.8075 175.19 9.88186 174.531 10.1621C173.872 10.4423 173.309 10.9158 172.914 11.5226C172.518 12.1294 172.309 12.8422 172.311 13.5709C172.311 14.0539 172.404 14.5322 172.585 14.9783C172.767 15.4244 173.033 15.8296 173.368 16.1707C173.703 16.5118 174.101 16.782 174.538 16.966C174.976 17.1499 175.445 17.2439 175.918 17.2425Z" fill="#E7C99F"/>
        <path d="M175.927 15.2142C176.249 15.2162 176.563 15.1207 176.831 14.9398C177.099 14.7589 177.308 14.5008 177.432 14.1983C177.556 13.8958 177.589 13.5626 177.526 13.2409C177.464 12.9193 177.31 12.6238 177.083 12.3919C176.856 12.1601 176.566 12.0025 176.251 11.939C175.936 11.8755 175.609 11.9091 175.313 12.0355C175.016 12.1619 174.764 12.3754 174.586 12.6488C174.409 12.9222 174.315 13.2433 174.317 13.5711C174.32 14.0061 174.49 14.4224 174.792 14.73C175.093 15.0376 175.501 15.2116 175.927 15.2142Z" fill="#E7C99F"/>
        <path d="M173.105 13.4797C173.105 13.4797 169.388 8.91546 164.161 9.12846C159.848 9.2806 156.777 12.0496 151.739 12.0496C140.221 12.0496 133.851 0.243408 133.851 0.243408C133.851 0.243408 142.854 5.88278 152.365 3.00224C156.698 1.68368 161.388 0.770831 165.96 3.56009C169.301 5.75785 172.007 8.82481 173.801 12.4451C174.665 14.139 173.105 13.4797 173.105 13.4797Z" fill="#E7C99F"/>
        <path d="M173.105 13.7333C173.105 13.7333 169.388 18.2569 164.161 18.1149C159.848 17.9527 156.777 15.1938 151.739 15.1938C140.221 15.1938 133.851 27 133.851 27C133.851 27 142.854 21.3505 152.365 24.2412C156.698 25.5496 161.388 26.4624 165.96 23.6732C169.303 21.478 172.01 18.4104 173.801 14.7881C174.665 13.074 173.105 13.7333 173.105 13.7333Z" fill="#E7C99F"/>
        <path d="M164.43 17.0701C168.087 17.0701 171.059 15.5082 171.059 13.581C171.059 11.6539 168.077 10.0818 164.43 10.0818C160.783 10.0818 155.963 13.581 155.963 13.581C155.963 13.581 160.763 17.0701 164.43 17.0701Z" fill="#E7C99F"/>
        <path d="M178.78 25.4583C177.309 24.2412 177.458 21.5533 179.118 19.4538C180.38 17.8614 183.48 17.1514 184.882 16.908L187.754 13.3884L188.668 14.1593L185.686 17.8512C185.736 19.4132 185.686 22.3445 184.474 23.8456C182.795 25.9452 180.26 26.6653 178.78 25.4583Z" fill="#E7C99F"/>
        <path d="M178.78 1.74445C177.309 2.95143 177.458 5.63926 179.118 7.73881C180.38 9.33122 183.48 10.0311 184.882 10.2846L187.754 13.8042L188.668 13.0333L185.686 9.34137C185.736 7.77938 185.686 4.84813 184.474 3.347C182.795 1.24745 180.26 0.527316 178.78 1.74445Z" fill="#E7C99F"/>
    </symbol>
    
    <symbol id="order_modal_ornament_black" width="380" height="27" viewBox="0 0 380 27" fill="none" xmlns="http://www.w3.org/2000/svg">
    <path d="M377 13H190V14H377V13Z" fill="#20211B"/>
    <path d="M376.812 10.5283C376.256 10.5283 375.712 10.6967 375.25 11.0121C374.787 11.3275 374.427 11.7758 374.214 12.3003C374.001 12.8248 373.946 13.4019 374.054 13.9587C374.163 14.5155 374.43 15.027 374.824 15.4284C375.217 15.8298 375.718 16.1032 376.264 16.214C376.809 16.3247 377.375 16.2679 377.889 16.0506C378.403 15.8334 378.842 15.4655 379.151 14.9934C379.46 14.5214 379.625 13.9664 379.625 13.3987C379.626 13.0214 379.554 12.6476 379.413 12.2987C379.273 11.9498 379.065 11.6329 378.804 11.3661C378.543 11.0993 378.232 10.8879 377.89 10.7441C377.548 10.6003 377.182 10.527 376.812 10.5283Z" fill="#20211B"/>
    <path d="M204.34 9.71681C203.626 9.7148 202.928 9.92903 202.333 10.3324C201.739 10.7357 201.275 11.31 201 11.9826C200.726 12.6552 200.653 13.3958 200.791 14.1107C200.929 14.8255 201.272 15.4825 201.776 15.9985C202.28 16.5144 202.923 16.8661 203.623 17.0089C204.323 17.1518 205.049 17.0795 205.708 16.8011C206.368 16.5228 206.932 16.0509 207.329 15.4452C207.726 14.8395 207.938 14.1273 207.938 13.3986C207.939 12.9156 207.847 12.4371 207.667 11.9904C207.486 11.5438 207.222 11.1378 206.887 10.7958C206.553 10.4538 206.156 10.1824 205.719 9.99727C205.282 9.81211 204.813 9.71681 204.34 9.71681Z" fill="#20211B"/>
    <path d="M204.32 11.7554C204.001 11.7494 203.687 11.8406 203.418 12.0174C203.149 12.1942 202.938 12.4487 202.812 12.7484C202.686 13.048 202.649 13.3793 202.708 13.7C202.767 14.0207 202.918 14.3164 203.142 14.5492C203.366 14.7821 203.652 14.9416 203.965 15.0075C204.278 15.0734 204.604 15.0427 204.9 14.9193C205.196 14.7959 205.449 14.5853 205.627 14.3145C205.805 14.0437 205.9 13.7248 205.901 13.3985C205.901 12.968 205.735 12.5546 205.44 12.2473C205.144 11.94 204.742 11.7634 204.32 11.7554Z" fill="#20211B"/>
    <path d="M207.112 13.51C207.112 13.51 210.859 18.0844 216.136 17.8917C220.439 17.7294 223.51 14.9706 228.558 14.9706C240.066 14.9706 246.446 26.7767 246.446 26.7767C246.446 26.7767 237.453 21.1272 227.932 24.0179C223.599 25.3365 218.919 26.2392 214.347 23.4601C211.003 21.2626 208.294 18.1958 206.496 14.575C205.592 12.8507 207.112 13.51 207.112 13.51Z" fill="#20211B"/>
    <path d="M207.112 13.2566C207.112 13.2566 210.859 8.69234 216.136 8.88505C220.439 9.03719 223.51 11.8062 228.558 11.8062C240.066 11.8062 246.446 0 246.446 0C246.446 0 237.453 5.63937 227.932 2.75883C223.599 1.44027 218.919 0.527423 214.347 3.31668C211.001 5.51154 208.291 8.57903 206.496 12.2017C205.592 13.926 207.112 13.2566 207.112 13.2566Z" fill="#20211B"/>
    <path d="M215.839 9.91968C212.172 9.91968 209.2 11.4918 209.2 13.4189C209.2 15.346 212.182 16.9182 215.839 16.9182C219.496 16.9182 224.296 13.4189 224.296 13.4189C224.296 13.4189 219.486 9.91968 215.839 9.91968Z" fill="#20211B"/>
    <path d="M201.468 1.54167C202.939 2.7588 202.8 5.44663 201.14 7.53604C199.878 9.12845 196.777 9.83844 195.366 10.0819L192.504 13.6115L191.59 12.8306L194.571 9.13859C194.522 7.57661 194.571 4.6555 195.794 3.15437C197.453 1.01425 199.997 0.334686 201.468 1.54167Z" fill="#20211B"/>
    <path d="M201.468 25.2554C202.939 24.0484 202.8 21.3606 201.14 19.2611C199.878 17.6585 196.777 16.9586 195.366 16.7152L192.504 13.1855L191.59 13.9665L194.571 17.6585C194.522 19.2205 194.571 22.1517 195.794 23.6427C197.453 25.7524 199.997 26.4624 201.468 25.2554Z" fill="#20211B"/>
    <path d="M190 13H3V14H190V13Z" fill="#20211B"/>
    <path d="M2.81242 16.4718C3.36867 16.4718 3.91242 16.3034 4.37492 15.988C4.83742 15.6726 5.1979 15.2243 5.41076 14.6998C5.62363 14.1753 5.67932 13.5982 5.57081 13.0414C5.46229 12.4846 5.19443 11.9731 4.80111 11.5717C4.40778 11.1702 3.90666 10.8969 3.3611 10.7861C2.81554 10.6754 2.25006 10.7322 1.73616 10.9495C1.22225 11.1667 0.783012 11.5346 0.473979 12.0066C0.164946 12.4787 0 13.0336 0 13.6014C0 14.3626 0.296308 15.0927 0.823739 15.631C1.35117 16.1693 2.06652 16.4718 2.81242 16.4718Z" fill="#20211B"/>
    <path d="M175.918 17.2425C176.632 17.2425 177.33 17.0263 177.923 16.6213C178.517 16.2163 178.979 15.6407 179.252 14.9673C179.525 14.294 179.595 13.5532 179.455 12.8387C179.315 12.1242 178.971 11.4682 178.465 10.9537C177.96 10.4392 177.316 10.0893 176.616 9.94842C175.915 9.8075 175.19 9.88186 174.531 10.1621C173.872 10.4423 173.309 10.9158 172.914 11.5226C172.518 12.1294 172.309 12.8422 172.311 13.5709C172.311 14.0539 172.404 14.5322 172.585 14.9783C172.767 15.4244 173.033 15.8296 173.368 16.1707C173.703 16.5118 174.101 16.782 174.538 16.966C174.976 17.1499 175.445 17.2439 175.918 17.2425Z" fill="#20211B"/>
    <path d="M175.927 15.2142C176.249 15.2162 176.563 15.1207 176.831 14.9398C177.099 14.7589 177.308 14.5008 177.432 14.1983C177.556 13.8958 177.589 13.5626 177.526 13.2409C177.464 12.9193 177.31 12.6238 177.083 12.3919C176.856 12.1601 176.566 12.0025 176.251 11.939C175.936 11.8755 175.609 11.9091 175.313 12.0355C175.016 12.1619 174.764 12.3754 174.586 12.6488C174.409 12.9222 174.315 13.2433 174.317 13.5711C174.32 14.0061 174.49 14.4224 174.792 14.73C175.093 15.0376 175.501 15.2116 175.927 15.2142Z" fill="#20211B"/>
    <path d="M173.105 13.4797C173.105 13.4797 169.388 8.91546 164.161 9.12846C159.848 9.2806 156.777 12.0496 151.739 12.0496C140.221 12.0496 133.851 0.243408 133.851 0.243408C133.851 0.243408 142.854 5.88278 152.365 3.00224C156.698 1.68368 161.388 0.770831 165.96 3.56009C169.301 5.75784 172.007 8.82481 173.801 12.4451C174.665 14.139 173.105 13.4797 173.105 13.4797Z" fill="#20211B"/>
    <path d="M173.105 13.7333C173.105 13.7333 169.388 18.2569 164.161 18.1149C159.848 17.9527 156.777 15.1938 151.739 15.1938C140.221 15.1938 133.851 27 133.851 27C133.851 27 142.854 21.3505 152.365 24.2412C156.698 25.5496 161.388 26.4624 165.96 23.6732C169.303 21.478 172.01 18.4104 173.801 14.7881C174.665 13.074 173.105 13.7333 173.105 13.7333Z" fill="#20211B"/>
    <path d="M164.43 17.0701C168.087 17.0701 171.059 15.5082 171.059 13.581C171.059 11.6539 168.077 10.0818 164.43 10.0818C160.783 10.0818 155.963 13.581 155.963 13.581C155.963 13.581 160.763 17.0701 164.43 17.0701Z" fill="#20211B"/>
    <path d="M178.78 25.4583C177.309 24.2412 177.458 21.5533 179.118 19.4538C180.38 17.8614 183.48 17.1514 184.882 16.908L187.754 13.3884L188.668 14.1593L185.686 17.8512C185.736 19.4132 185.686 22.3445 184.474 23.8456C182.795 25.9452 180.26 26.6653 178.78 25.4583Z" fill="#20211B"/>
    <path d="M178.78 1.74445C177.309 2.95143 177.458 5.63926 179.118 7.73881C180.38 9.33122 183.48 10.0311 184.882 10.2846L187.754 13.8042L188.668 13.0333L185.686 9.34136C185.736 7.77938 185.686 4.84813 184.474 3.347C182.795 1.24745 180.26 0.527316 178.78 1.74445Z" fill="#20211B"/>
    </symbol>
    
    <symbol id="add_iphone" width="21" height="24" viewBox="0 0 21 24" xmlns="http://www.w3.org/2000/svg">
        <path d="M20.0055 8.05422C18.721 6.80769 17.5979 5.60524 15.2368 5.48279C13.326 5.39952 12.4574 6.56034 10.6713 6.60197C9.01242 6.64116 9.13965 5.31626 5.69224 5.6885C2.70726 6.01912 0.0917303 9.00932 0.2997 13.202C0.510117 17.7301 3.66148 23.9995 6.60731 23.9995C8.68212 23.9603 9.1788 22.9636 10.8817 22.9636C12.9957 22.9636 13.4923 24.2052 15.1561 23.9603C18.0188 23.5465 20.7126 19.0183 20.7126 17.5661C19.1369 16.7334 17.5612 15.3228 17.3532 12.9571C17.1844 10.5889 18.6378 9.09503 20.0055 8.05422Z"/>
        <path d="M10.0911 5.81388C9.88312 4.15347 11.0062 0.541224 14.9454 0C15.4004 2.78204 13.1201 5.97796 10.0911 5.81388Z"/>
    </symbol>

    <symbol id="add_android" width="22" height="24" viewBox="0 0 22 24" xmlns="http://www.w3.org/2000/svg">
        <path d="M2.34873 7.77441C1.93603 7.77441 1.58586 7.91862 1.29802 8.20703C1.01018 8.49544 0.866211 8.84152 0.866211 9.24545V15.4473C0.866211 15.8614 1.01013 16.2119 1.29802 16.5004C1.58586 16.7888 1.93603 16.933 2.34873 16.933C2.76114 16.933 3.10918 16.7888 3.39256 16.5004C3.67538 16.2119 3.81718 15.8614 3.81718 15.4473V9.24545C3.81718 8.84147 3.67326 8.49544 3.38537 8.20703C3.09749 7.91862 2.75187 7.77441 2.34873 7.77441Z"/>
        <path d="M14.268 2.20654L15.29 0.317431C15.3571 0.192364 15.3332 0.0964593 15.2182 0.0290222C15.0933 -0.0291282 14.9974 0.00033753 14.9304 0.115336L13.894 2.01954C12.9821 1.61557 12.0176 1.41322 11.0006 1.41322C9.98329 1.41322 9.01872 1.61562 8.10717 2.01954L7.07079 0.115336C7.00344 0.00033753 6.9075 -0.0288678 6.78294 0.0290222C6.66765 0.096763 6.64379 0.192364 6.71113 0.317431L7.73322 2.20654C6.69684 2.7361 5.87143 3.47361 5.25728 4.42068C4.64314 5.36827 4.33594 6.40378 4.33594 7.52903H17.6507C17.6507 6.40404 17.3435 5.36849 16.7294 4.42068C16.1152 3.47361 15.2946 2.7361 14.268 2.20654ZM8.35897 4.95427C8.24844 5.06528 8.11643 5.12052 7.96298 5.12052C7.80923 5.12052 7.67991 5.06528 7.5744 4.95427C7.4689 4.84379 7.41614 4.71204 7.41614 4.55777C7.41614 4.40401 7.4689 4.272 7.5744 4.16126C7.67991 4.05077 7.80953 3.99553 7.96298 3.99553C8.11643 3.99553 8.24844 4.05077 8.35897 4.16126C8.46924 4.27226 8.52464 4.40401 8.52464 4.55777C8.52433 4.71178 8.46898 4.84379 8.35897 4.95427ZM14.4262 4.95427C14.3205 5.06528 14.1908 5.12052 14.0376 5.12052C13.8838 5.12052 13.7519 5.06528 13.6416 4.95427C13.5311 4.84379 13.4759 4.71204 13.4759 4.55777C13.4759 4.40401 13.5311 4.272 13.6416 4.16126C13.7519 4.05077 13.8838 3.99553 14.0376 3.99553C14.1911 3.99553 14.3204 4.05077 14.4262 4.16126C14.5318 4.27226 14.5844 4.40401 14.5844 4.55777C14.5844 4.71178 14.5317 4.84379 14.4262 4.95427Z"/>
        <path d="M4.39258 17.6536C4.39258 18.0963 4.54603 18.4711 4.85297 18.7786C5.16017 19.0861 5.5342 19.2399 5.97575 19.2399H7.04102L7.05562 22.5143C7.05562 22.9278 7.19954 23.2789 7.48738 23.5673C7.77522 23.8558 8.12089 24 8.52376 24C8.93621 24 9.28659 23.8558 9.57448 23.5673C9.86236 23.2789 10.0063 22.9278 10.0063 22.5143V19.2402H11.9927V22.5143C11.9927 22.9278 12.1366 23.2789 12.4244 23.5673C12.7123 23.8558 13.0624 24 13.4752 24C13.8876 24 14.238 23.8558 14.5259 23.5673C14.8138 23.2789 14.9576 22.9278 14.9576 22.5143V19.2402H16.0373C16.469 19.2402 16.8383 19.0864 17.1458 18.7789C17.4527 18.4713 17.6062 18.0966 17.6062 17.6539V8.04773H4.39258V17.6536Z"/>
        <path d="M19.6518 7.77441C19.2486 7.77441 18.9032 7.91649 18.6154 8.19987C18.3275 8.48376 18.1836 8.83249 18.1836 9.24545V15.4473C18.1836 15.8614 18.3275 16.2119 18.6154 16.5004C18.9032 16.7888 19.2489 16.933 19.6518 16.933C20.0642 16.933 20.4146 16.7888 20.7025 16.5004C20.9904 16.2119 21.1343 15.8614 21.1343 15.4473V9.24545C21.1343 8.83245 20.9904 8.48376 20.7025 8.19987C20.4146 7.91649 20.0642 7.77441 19.6518 7.77441Z"/>
    </symbol>

    <symbol id="donat_remont" width="20" height="20" viewBox="0 0 20 20" fill="none" xmlns="http://www.w3.org/2000/svg">
        <g clip-path="url(#clip0_1223_2506)">
        <path d="M16.3676 0.0619141C15.6535 -0.0570588 14.9393 0.00235625 14.2848 0.180887C13.6896 0.418975 13.0946 0.716479 12.559 1.25207C12.0235 1.78766 11.6664 2.50178 11.4879 3.21591C11.3093 3.93003 11.3093 4.64415 11.4879 5.35828L4.52521 12.321C3.93007 12.202 3.33507 12.2614 2.73992 12.3805C2.14478 12.5591 1.60919 12.8566 1.13316 13.3327C0.657124 13.8088 0.359478 14.3444 0.18095 14.88C0.00242043 15.4751 -0.0571365 16.1297 0.0619774 16.7248C0.0619774 16.8438 0.121536 16.9629 0.240507 17.0819C0.300066 17.1414 0.419037 17.2604 0.538008 17.2604C0.656981 17.32 0.776094 17.32 0.895067 17.2604C1.01404 17.2604 1.13315 17.2009 1.25213 17.0819L2.44228 15.9511C2.62081 15.7131 2.97786 15.5941 3.27537 15.5941C3.57287 15.5941 3.87051 15.7131 4.10846 15.8916C4.28699 16.1297 4.40596 16.4272 4.40596 16.7247C4.40596 17.0222 4.28698 17.3792 4.0489 17.5578L2.91817 18.7479C2.79919 18.8669 2.73964 18.986 2.73964 19.105C2.68008 19.224 2.68008 19.3431 2.73964 19.462C2.79919 19.581 2.85861 19.7001 2.91817 19.7596C3.03714 19.8785 3.15625 19.9381 3.27522 19.9381C3.87037 20.0571 4.52493 19.9976 5.12008 19.8191C5.65566 19.6406 6.19125 19.3431 6.66728 18.8669C7.14331 18.3909 7.44096 17.8553 7.61949 17.2601C7.73846 16.665 7.79802 16.07 7.67904 15.4748L14.6417 8.51213C15.3558 8.69066 16.0699 8.69066 16.784 8.51213C17.4982 8.3336 18.2123 7.97653 18.7479 7.44094C19.2835 6.90535 19.581 6.3102 19.8191 5.71519C19.9976 5.06063 20.0571 4.34651 19.938 3.63238C19.8785 3.51341 19.8191 3.3943 19.7595 3.27532C19.6999 3.21576 19.581 3.09679 19.4024 3.09679C19.2835 3.03723 19.1643 3.03723 19.0454 3.03723C18.8668 3.09679 18.7479 3.15621 18.6883 3.27532L17.3196 4.58459C17.0816 4.8821 16.7245 5.00121 16.3674 5.00121C16.0104 5.00121 15.6533 4.88224 15.4152 4.58459C15.1177 4.34651 14.9986 3.98944 14.9986 3.63238C14.9986 3.27532 15.1176 2.91826 15.4152 2.68017L16.7245 1.31149C16.8435 1.25193 16.903 1.13295 16.903 0.954424C16.9626 0.835452 16.9626 0.716336 16.903 0.597363C16.903 0.418832 16.784 0.29986 16.7245 0.240302C16.6055 0.180744 16.4864 0.121329 16.3674 0.0617712L16.3676 0.0619141ZM14.5227 0.895009C15.0583 0.716479 15.6535 0.716479 16.189 0.776037H16.2486H16.189H16.2486H16.189L14.8798 2.14472C14.4632 2.56134 14.2846 3.09693 14.2846 3.63253C14.2846 4.16812 14.4632 4.70371 14.8798 5.12033C15.2964 5.53695 15.832 5.71548 16.3676 5.71548C16.9032 5.71548 17.4388 5.53695 17.8554 5.12033L19.224 3.81106V3.7515V3.81106C19.2836 4.34665 19.2836 4.9418 19.1051 5.47739C18.9265 6.01298 18.629 6.48902 18.2124 6.90564C17.7958 7.38167 17.2008 7.67932 16.6057 7.79829C15.9511 7.97682 15.2964 7.91726 14.6418 7.73873L14.4633 7.67917L7.0247 15.1178L6.84617 15.2368L6.90573 15.4749C7.0247 16.0105 7.0247 16.5461 6.90573 17.0221C6.78675 17.4981 6.48911 17.9743 6.13205 18.3908C5.77499 18.7479 5.35838 18.9859 4.88235 19.1049C4.40631 19.2834 3.93014 19.2834 3.45411 19.2239L4.58484 18.0931C4.9419 17.7361 5.17999 17.2601 5.17999 16.7245C5.17999 16.2484 5.00146 15.7723 4.58484 15.4152C4.22779 14.9986 3.75175 14.82 3.27558 14.82C2.73999 14.82 2.26396 15.0581 1.9069 15.4152L0.776169 16.5459C0.71661 16.0699 0.71661 15.5937 0.89514 15.1177C1.01411 14.6417 1.2522 14.225 1.60926 13.868C2.02587 13.5109 2.5019 13.2134 2.97793 13.0943C3.45397 12.9753 3.98956 12.9753 4.52514 13.0943L4.76323 13.1538L4.8822 12.9753L12.3208 5.53666L12.2613 5.35813C12.0232 4.70357 12.0232 4.04886 12.2017 3.3943C12.3207 2.79915 12.6183 2.20414 13.0943 1.78752C13.511 1.3709 13.987 1.0734 14.5226 0.894867L14.5227 0.895009ZM16.2485 0.776037H16.1889H16.2485Z" fill="#2B2B2B"/>
        </g>
        <defs>
        <clipPath id="clip0_1223_2506">
        <rect width="20" height="20" fill="white"/>
        </clipPath>
        </defs>                                 
    </symbol>
    <symbol id="donat_school" width="21" height="20" viewBox="0 0 21 20" fill="none" xmlns="http://www.w3.org/2000/svg">
        <path fill-rule="evenodd" clip-rule="evenodd" d="M12.31 20H9.69649C9.52234 20 9.38069 19.8589 9.38069 19.6854V16.1323L7.25716 15.6062C7.08843 15.5628 6.98491 15.3947 7.02845 15.2264L7.66004 12.6987C7.6819 12.6174 7.73086 12.5468 7.80168 12.5088C7.8725 12.4654 7.95958 12.4547 8.04123 12.4708L9.38067 12.8017V10.236H3.8158C3.64164 10.236 3.5 10.0949 3.5 9.92135V7.31768C3.5 7.14418 3.64164 7.00307 3.8158 7.00307H9.38019V5.92911H5.90101C5.72686 5.92911 5.58521 5.788 5.58521 5.61449V3.01082C5.58521 2.83732 5.72685 2.6962 5.90101 2.6962H9.38019V0.314616C9.38019 0.141114 9.52183 0 9.69599 0H12.3095C12.4836 0 12.6253 0.141109 12.6253 0.314616V2.71222H16.1044C16.2786 2.71222 16.4202 2.85332 16.4202 3.02683V5.6305C16.4202 5.80401 16.2786 5.94512 16.1044 5.94512L12.6198 5.9453V7.01927H18.1842C18.3584 7.01927 18.5 7.16038 18.5 7.33388V9.93755C18.5 10.1111 18.3584 10.2522 18.1842 10.2522H12.6198V13.6208L14.7433 14.1469C14.9121 14.1903 15.0156 14.3584 14.9721 14.5267L14.3405 17.0544C14.3186 17.1357 14.2696 17.2063 14.1988 17.2442C14.128 17.2876 14.0409 17.2984 13.9593 17.2822L12.6198 16.9514V19.7016C12.6198 19.8589 12.4784 20 12.3096 20H12.31ZM10.0067 19.3708H11.994V16.5339C11.994 16.4363 12.0375 16.3494 12.1138 16.2898C12.19 16.2301 12.2879 16.2085 12.3806 16.2301L13.8071 16.5826L14.2863 14.6624L12.2336 14.1525C12.0919 14.1199 11.994 13.9952 11.994 13.8487V9.9268C11.994 9.7533 12.1357 9.61218 12.3098 9.61218H17.8742V7.63235H12.3098C12.1357 7.63235 11.994 7.49124 11.994 7.31773V5.61994C11.994 5.44643 12.1357 5.30532 12.3098 5.30532H15.789V3.32549H12.3098C12.1357 3.32549 11.994 3.18438 11.994 3.01087V0.623897H10.0065V3.0215C10.0065 3.195 9.86489 3.33611 9.69073 3.33611H6.21155V5.31595H9.69073C9.86489 5.31595 10.0065 5.45706 10.0065 5.63056V7.32836C10.0065 7.50186 9.86489 7.64298 9.69073 7.64298L4.12634 7.64316V9.623H9.69073C9.86489 9.623 10.0065 9.76411 10.0065 9.93761V13.2139C10.0065 13.3114 9.96299 13.3984 9.88675 13.4579C9.81051 13.5177 9.7126 13.5393 9.61992 13.5177L8.19342 13.1651L7.71428 15.0854L9.76697 15.5953C9.90861 15.6278 10.0065 15.7526 10.0065 15.8991L10.0067 19.3708Z" fill="#2B2B2B"/>
    </symbol>
    <symbol id="donat_soc-meropr" width="21" height="20" viewBox="0 0 21 20" fill="none" xmlns="http://www.w3.org/2000/svg">
        <g clip-path="url(#clip0_1223_752)">
        <path d="M10.5 0C4.98589 0 0.5 4.48627 0.5 10C0.5 15.5137 4.98627 20 10.5 20C16.0137 20 20.5 15.5137 20.5 10C20.5 4.48627 16.0137 0 10.5 0ZM10.5 19.1305C5.46516 19.1305 1.36945 15.0348 1.36945 10C1.36945 4.96515 5.46516 0.869452 10.5 0.869452C15.5348 0.869452 19.6305 4.96515 19.6305 10C19.6305 15.0348 15.5348 19.1305 10.5 19.1305Z" fill="#2B2B2B"/>
        <path d="M10.0311 3.70802C10.1922 3.27272 10.8078 3.27272 10.9689 3.70802L12.3023 7.31146C12.4542 7.72204 12.778 8.04576 13.1885 8.19768L16.792 9.53107C17.2273 9.69215 17.2273 10.3078 16.792 10.4689L13.1885 11.8023C12.778 11.9542 12.4542 12.278 12.3023 12.6885L10.9689 16.292C10.8078 16.7273 10.1922 16.7273 10.0311 16.292L8.69768 12.6885C8.54576 12.278 8.22204 11.9542 7.81146 11.8023L4.20802 10.4689C3.77272 10.3078 3.77272 9.69215 4.20802 9.53107L7.81146 8.19768C8.22204 8.04576 8.54576 7.72204 8.69768 7.31146L10.0311 3.70802Z" stroke="#2B2B2B"/>
        </g>
        <defs>
        <clipPath id="clip0_1223_752">
        <rect width="20" height="20" fill="white" transform="translate(0.5)"/>
        </clipPath>
        </defs>
    </symbol>
    <symbol id="donat_soderj-xrama" width="20" height="20" viewBox="0 0 20 20" fill="none" xmlns="http://www.w3.org/2000/svg">
        <path d="M16.2236 18.9999H12.4139C12.1931 18.9999 12.0139 18.8228 12.0139 18.6039V15.8754C12.0139 15.1631 11.63 14.5049 11.007 14.1488C10.384 13.7927 9.61618 13.7927 8.99327 14.1488C8.37035 14.5049 7.98637 15.1631 7.98637 15.8754V18.6039C7.98389 18.8219 7.80621 18.9978 7.58635 18.9999H3.77661C3.35643 18.999 2.95396 18.8329 2.65715 18.5382C2.36039 18.2438 2.19388 17.8447 2.19388 17.4291V12.4601H1.58486C1.16468 12.4607 0.761577 12.2959 0.464208 12.0021C0.166832 11.708 -0.000309164 11.3092 4.29327e-07 10.8929C4.29327e-07 10.477 0.167141 10.0782 0.464517 9.78442L8.87991 1.45312C9.17573 1.16271 9.57513 1 9.99127 1C10.4077 1 10.8071 1.16271 11.1026 1.45312L19.5355 9.78442C19.8329 10.0782 20 10.477 20 10.8929C20.0003 11.3092 19.8332 11.708 19.5358 12.0021C19.2384 12.2959 18.8353 12.4607 18.4151 12.4601H17.8238V17.4291C17.8238 17.8478 17.6548 18.2496 17.3543 18.5447C17.0538 18.8397 16.6467 19.0036 16.2234 18.9999H16.2236ZM12.7962 18.2079H16.2236C16.4323 18.2079 16.6326 18.1259 16.7802 17.9798C16.9278 17.8337 17.0106 17.6354 17.0106 17.4291V12.0641C17.0094 11.9594 17.0506 11.8587 17.1247 11.7841C17.1992 11.7098 17.3006 11.668 17.4063 11.668H18.3976C18.7136 11.668 18.9986 11.4802 19.1202 11.1913C19.2417 10.9024 19.176 10.5696 18.9533 10.3477L10.5554 2.00776C10.2462 1.70937 9.75324 1.70937 9.44404 2.00776L1.02865 10.3438C0.806007 10.5657 0.74027 10.8985 0.861512 11.1874C0.983063 11.4759 1.26835 11.6641 1.58433 11.6638H2.57567C2.68141 11.6638 2.7825 11.7059 2.85692 11.7802C2.93134 11.8545 2.97258 11.9555 2.97134 12.0601V17.4294C2.97134 17.6391 3.05662 17.8398 3.20795 17.9863C3.35927 18.133 3.56424 18.2128 3.77602 18.2082H7.20347V15.8757C7.20099 15.138 7.49371 14.4292 8.01778 13.9048C8.54183 13.3802 9.2544 13.0824 9.99957 13.0766C10.745 13.079 11.4595 13.3731 11.9866 13.895C12.5141 14.4172 12.8112 15.1242 12.8136 15.8625L12.7962 18.2079Z" fill="#2B2B2B"/>
    </symbol>
    
    <symbol id="">

    </symbol>
</svg>