<svg width="129" height="130" fill="none" xmlns="http://www.w3.org/2000/svg"><g clip-path="url(#clip0_512_66)"><path opacity=".25" d="M72.928 22.121c-.304 1.935-.793 3.966-.804 5.934a.128.128 0 00.195.104.126.126 0 00.053-.068c.51-1.9.602-3.981.835-5.927.018-.158-.254-.199-.277-.04l-.002-.003zm2.713-19.63c-.717 4.952-1.454 9.899-2.082 14.861-.088.704-.152 1.413-.259 2.125-.023.159.23.16.251.005.677-4.874 1.429-9.891 2.078-14.828l.275-2.108c.02-.156-.266-.21-.277-.04l.014-.014zm7.28 12.055c-1.472 4.425-2.95 8.847-4.404 13.281-.207.638-.373 1.3-.587 1.93-.047.139.187.192.224.063 1.445-4.375 2.986-8.848 4.444-13.268l.63-1.92c.064-.193-.243-.279-.307-.086zm.866-2.715a6.374 6.374 0 00-.494 1.572c-.013.11.157.161.21.058.212-.51.357-1.047.433-1.597a.074.074 0 00-.107-.08.073.073 0 00-.035.04l-.007.007zm1.666-5.133l.014-.014c.044-.118-.154-.16-.189-.051-.474 1.29-1.044 2.632-1.278 3.993a.114.114 0 00.083.123.113.113 0 00.134-.063 39.88 39.88 0 001.239-4.014l-.19-.051c-.034.122.155.159.187.053v.024zm-6.507 3.688c-.877 3.879-1.837 7.787-2.521 11.717-.013.064.087.09.097.028.92-3.883 1.656-7.821 2.533-11.715.015-.07-.096-.098-.109-.03zm-2.745 12.807a43.542 43.542 0 00-1.206 5.224c-.007.045.061.063.08.01.486-1.708.789-3.492 1.197-5.214a.037.037 0 00-.053-.04.037.037 0 00-.018.02zm-2.964-3.11a3.468 3.468 0 00-.182.706c-.023.172-.111.473.03.608a.05.05 0 00.036.015.053.053 0 00.037-.016c.129-.125.082-.393.102-.568.027-.246.034-.501.077-.735.01-.06-.075-.077-.102-.013l.002.002zm11.179 6.099c-.825 1.776-1.852 3.59-2.398 5.475a.125.125 0 00.161.159.123.123 0 00.067-.063c1.018-1.66 1.66-3.633 2.414-5.425.068-.164-.164-.308-.244-.146zM92.404 8.09c-2.038 4.54-4.1 9.074-6.057 13.65-.271.635-.565 1.39-.822 1.971-.063.146.15.275.216.127 2.01-4.554 4.078-9.084 6.062-13.65.288-.661.57-1.312.848-1.954.068-.165-.167-.306-.247-.144zm3.718 13.564a6296.27 6296.27 0 00-7.881 11.536c-.382.563-.717 1.137-1.094 1.691-.082.122.116.239.198.117 2.591-3.799 5.305-7.673 7.918-11.516l1.136-1.667c.113-.17-.152-.32-.277-.161zm1.593-2.388c-.362.412-.67.868-.915 1.359-.044.103.085.24.176.138a6.39 6.39 0 00.847-1.41c.034-.07-.06-.162-.113-.091l.005.004zm2.998-4.456l.017-.016c.072-.098-.095-.198-.169-.098-.811 1.107-1.727 2.24-2.324 3.482a.114.114 0 00.047.14.113.113 0 00.146-.024 39.738 39.738 0 002.298-3.503l-.17-.097-.014.014c-.065.11.095.198.167.1l.002.002zm-7.281 1.758c-1.92 3.486-3.91 6.976-5.64 10.556-.029.056.056.11.087.051 1.952-3.476 3.74-7.05 5.65-10.551a.057.057 0 00-.064-.074.056.056 0 00-.033.018zm-6.154 11.538a42.911 42.911 0 00-2.589 4.672.044.044 0 00.048.054.044.044 0 00.025-.012c.938-1.507 1.707-3.131 2.58-4.677a.037.037 0 00-.016-.046.037.037 0 00-.048.01zm-2.003-3.796a3.436 3.436 0 00-.388.672c-.073.17-.195.364-.119.547a.054.054 0 00.07.02c.153-.096.174-.3.233-.46.094-.241.19-.488.296-.727a.054.054 0 00-.092-.052zm9.1 8.916c-1.278 1.478-2.764 2.937-3.81 4.596a.125.125 0 00.195.153c1.435-1.316 2.597-3.032 3.812-4.546.113-.138-.077-.342-.196-.203zm12.658-15.172c-3.212 3.797-6.437 7.584-9.576 11.442-.425.52-.93 1.18-1.335 1.663-.113.11.072.304.175.18 3.186-3.818 6.419-7.598 9.581-11.441.451-.546.901-1.096 1.352-1.642.112-.137-.082-.342-.197-.202zm-.132 14.032c-3.589 2.97-7.18 5.931-10.755 8.915-.513.428-.995.888-1.51 1.314-.106.102.046.26.16.166 3.52-2.916 7.211-5.9 10.779-8.876l1.544-1.28c.146-.143-.068-.362-.234-.242l.016.003zm2.186-1.854c-.459.3-.878.655-1.248 1.06-.069.09.019.253.133.179.448-.32.852-.696 1.202-1.121.055-.054-.015-.169-.087-.118zm4.115-3.457l.014-.013c.089-.086-.038-.216-.136-.14-1.087.842-2.276 1.675-3.195 2.704a.115.115 0 00-.035.08c0 .03.012.06.033.08a.114.114 0 00.161.004 39.369 39.369 0 003.172-2.728l-.136-.14-.014.014c-.091.088.038.211.133.137l.003.002zm-7.5-.307c-2.806 2.822-5.679 5.634-8.338 8.575a.05.05 0 00-.015.035.05.05 0 00.05.051.05.05 0 00.035-.014c2.842-2.814 5.534-5.74 8.339-8.575a.064.064 0 00.017-.04.057.057 0 00-.017-.04.056.056 0 00-.08-.001l.009.01zm-9.091 9.387a42.91 42.91 0 00-3.77 3.773.044.044 0 00.007.052.044.044 0 00.051.008c1.316-1.19 2.501-2.539 3.763-3.78a.037.037 0 000-.052.037.037 0 00-.051 0zm-.892-4.192a3.585 3.585 0 00-.562.546c-.115.145-.28.272-.262.475a.05.05 0 00.013.043.05.05 0 00.043.015.833.833 0 00.335-.353c.16-.218.326-.435.496-.642a.053.053 0 00.007-.034.055.055 0 00-.046-.047.053.053 0 00-.034.006l.01-.01zm6.332 11.055c-1.639 1.069-3.473 2.06-4.932 3.366a.123.123 0 00-.017.166.125.125 0 00.164.033c1.743-.87 3.335-2.197 4.922-3.319.143-.101.015-.347-.137-.246zm16.351-11.095c-4.133 2.763-8.283 5.514-12.362 8.356-.558.382-1.221.877-1.745 1.227-.133.088-.013.312.121.22 4.115-2.792 8.267-5.535 12.367-8.356.582-.401 1.168-.802 1.752-1.206.148-.101.013-.35-.137-.246l.004.005zm-3.97 13.43c-4.266 1.866-8.549 3.73-12.806 5.606-.613.273-1.21.586-1.835.847-.135.057-.021.26.112.2 4.218-1.847 8.572-3.695 12.829-5.571l1.846-.812c.188-.084.032-.359-.155-.28l.009.01zm2.617-1.18a6.355 6.355 0 00-1.493.673c-.095.07-.05.25.083.21a6.396 6.396 0 001.463-.748c.067-.041.03-.165-.053-.136zm4.913-2.191l.014-.014c.117-.048.021-.218-.093-.172-1.278.512-2.657.986-3.822 1.72-.1.065-.043.257.083.21a41.314 41.314 0 003.832-1.758l-.093-.172-.014.014c-.116.057-.019.215.091.17l.002.002zm-7.14-2.353c-3.479 1.94-7.005 3.84-10.377 5.957a.051.051 0 00-.02.068c.007.012.018.02.03.024a.052.052 0 00.039-.004c3.495-1.913 6.907-3.993 10.381-5.947.062-.036.009-.134-.053-.098zm-11.332 6.515a42.884 42.884 0 00-4.673 2.59.041.041 0 00.01.076.044.044 0 00.032-.005c1.593-.78 3.106-1.75 4.666-2.597a.034.034 0 00.015-.021.034.034 0 00-.004-.026.037.037 0 00-.019-.017.04.04 0 00-.027 0zm.281-4.26a3.52 3.52 0 00-.681.362c-.15.104-.354.205-.396.386a.045.045 0 00.001.023.067.067 0 00.012.02.05.05 0 00.02.012.05.05 0 00.023.003c.196-.008.331-.186.483-.297.196-.143.391-.29.591-.43a.047.047 0 00.016-.03.051.051 0 00-.006-.034.054.054 0 00-.061-.026l-.002.012zm3.072 12.342c-1.868.574-3.905 1.028-5.671 1.878-.134.064-.043.258.092.234 1.915-.358 3.814-1.198 5.65-1.839.168-.056.105-.327-.071-.273zm18.802-6.17c-4.743 1.524-9.492 3.026-14.205 4.634-.653.222-1.411.509-2.014.706-.152.05-.093.292.059.243 4.734-1.553 9.486-3.048 14.208-4.632.674-.224 1.348-.45 2.02-.675.171-.059.105-.332-.068-.276zM118.14 59.56c-4.628.62-9.254 1.245-13.877 1.873-.668.093-1.33.23-2.005.329-.144.019-.088.244.059.223 4.573-.618 9.273-1.2 13.889-1.833l2.004-.271c.204-.03.129-.346-.08-.312l.01-.01zm2.848-.418a6.47 6.47 0 00-1.625.241c-.112.038-.109.223.028.22a6.26 6.26 0 001.612-.316c.079-.02.07-.148-.015-.145zm5.322-.746c.123-.012.125-.206.002-.194-1.383.131-2.834.207-4.175.606-.114.036-.107.235.026.223a41.269 41.269 0 004.175-.635l-.047-.192c-.107.019-.09.204.021.19l-.002.002zm-6.231-4.22c-3.883.907-7.805 1.765-11.623 2.867a.051.051 0 00-.031.023.046.046 0 00-.005.038.048.048 0 00.023.031.05.05 0 00.038.006c3.896-.879 7.752-1.938 11.623-2.868a.056.056 0 00.028-.026.054.054 0 00.005-.04.053.053 0 00-.023-.032.055.055 0 00-.038-.01l.003.01zm-12.71 3.15a42.956 42.956 0 00-5.213 1.204.047.047 0 00-.018.021.044.044 0 00.015.051.042.042 0 00.026.009c1.759-.304 3.472-.828 5.208-1.213.048-.008.03-.08-.018-.071zm1.449-4.017c-.263.026-.522.08-.773.161-.169.061-.382.086-.466.276a.05.05 0 00.049.05c.177.058.379-.087.555-.155.226-.084.451-.172.684-.253a.057.057 0 00.026-.025.055.055 0 00-.051-.077l-.024.023zm-.421 12.687c-1.964.036-4.047-.084-5.981.25-.15.024-.107.235.03.247 1.943.182 4.002-.106 5.951-.215.177-.009.185-.288 0-.282zm19.812-.77c-4.987.163-9.981.3-14.964.555-.689.032-1.496.1-2.133.125-.161.006-.164.257-.003.25 4.987-.173 9.972-.334 14.964-.55.71-.034 1.421-.067 2.133-.096.18-.011.185-.288.003-.284zm-10.466 9.27a2852.66 2852.66 0 00-13.903-1.994c-.666-.092-1.343-.142-2.009-.24-.146-.02-.146.209 0 .23 4.579.66 9.261 1.397 13.891 2.048l2.004.287c.205.03.206-.29.005-.32l.012-.011zm2.857.38a9.795 9.795 0 00-.796-.135 4.308 4.308 0 00-.834-.079.11.11 0 00-.102.177.111.111 0 00.073.043c.54.117 1.091.163 1.641.138.08.002.105-.126.018-.144zm5.335.749c.123.02.172-.168.051-.186-1.367-.245-2.804-.576-4.196-.563-.121 0-.163.196-.031.222 1.387.264 2.795.407 4.199.532l.005-.196-.012-.012c-.109-.012-.134.168-.025.188l.009.015zm-4.848-5.766c-3.992-.19-8.007-.442-12.001-.429a.054.054 0 00-.03.019.064.064 0 00-.012.033c0 .012.004.023.012.033a.05.05 0 00.029.02c3.994.22 8.002.26 12.001.437.073.004.074-.11.001-.113zm-13.11-.456c-1.773-.15-3.591-.346-5.357-.273-.054.001-.052.08 0 .085 1.772.183 3.575.154 5.361.255a.035.035 0 00.024-.01.033.033 0 00.011-.025.04.04 0 00-.009-.026.036.036 0 00-.023-.013l-.007.007zm2.505-3.457a3.349 3.349 0 00-.754-.058c-.163.009-.487-.023-.581.138a.046.046 0 00-.006.033.048.048 0 00.015.03c.128.132.406.025.57.012.248-.017.495-.041.743-.053.055-.002.084-.082.013-.102zm-3.892 12.058c-1.888-.508-3.88-1.19-5.835-1.402-.153-.014-.158.2-.033.248 1.826.707 3.889.997 5.792 1.424.177.039.238-.232.076-.27zm19.306 4.686c-4.855-1.211-9.702-2.444-14.576-3.565-.694-.164-1.396-.297-2.09-.466-.155-.036-.217.212-.066.243 4.864 1.178 9.707 2.42 14.576 3.57l2.082.491c.175.04.239-.232.074-.273zm-12.59 6.047a3835.714 3835.714 0 00-12.839-5.727c-.608-.272-1.312-.533-1.88-.787-.134-.061-.252.138-.115.197 4.277 1.908 8.544 3.873 12.819 5.765l1.856.828c.186.082.347-.192.159-.276zm2.619 1.13a6.456 6.456 0 00-1.517-.651.113.113 0 00-.124.067.108.108 0 00-.004.075.113.113 0 00.043.062c.488.26 1.007.454 1.544.58a.074.074 0 00.083-.043.07.07 0 00.003-.049.07.07 0 00-.028-.04zm4.939 2.17l.015.014c.11.056.209-.115.096-.169-1.25-.607-2.547-1.314-3.891-1.688-.118-.03-.205.147-.088.206a41.321 41.321 0 003.904 1.663l.051-.19-.014-.015c-.101-.038-.171.13-.073.178zm-3.102-6.85c-3.794-1.277-7.594-2.618-11.447-3.698a.05.05 0 00-.062.034.051.051 0 00.005.038c.006.012.017.02.03.024 3.789 1.31 7.643 2.445 11.444 3.71.069.023.093-.09.03-.108zm-12.511-4.032a43.504 43.504 0 00-5.085-1.726.042.042 0 00-.043.03.038.038 0 00.001.028.042.042 0 00.017.022c1.661.657 3.415 1.121 5.091 1.717.044.017.059-.058.019-.07zm3.363-2.628a3.328 3.328 0 00-.723-.266c-.173-.038-.432-.142-.585-.022-.021.02-.017.054 0 .076.112.144.396.125.566.161.234.05.467.089.703.145.055.013.096-.069.039-.094zm-7.061 10.496c-1.698-1-3.415-2.203-5.244-2.94-.141-.06-.197.15-.094.227 1.568 1.178 3.474 2.024 5.196 2.954a.14.14 0 00.142-.241zm17.33 9.793c-4.344-2.49-8.681-5.005-13.081-7.426-.619-.336-1.254-.655-1.885-1.016a.125.125 0 00-.171.044.125.125 0 00-.012.095.12.12 0 00.058.076c4.359 2.466 8.691 4.981 13.079 7.428l1.873 1.042a.142.142 0 00.156-.01.136.136 0 00.053-.093.15.15 0 00-.028-.104.155.155 0 00-.042-.036zm-13.787 2.353c-3.599-3.009-7.192-6.022-10.808-9.013-.518-.433-1.122-.872-1.591-1.264-.1-.104-.278.064-.165.16 3.601 3.001 7.171 6.047 10.779 9.046l1.558 1.296c.16.131.384-.083.239-.232l-.012.007zm2.213 1.802a6.57 6.57 0 00-1.281-1.04.11.11 0 00-.14.031.106.106 0 00-.024.072c0 .026.01.052.027.072.398.383.845.712 1.329.98a.072.072 0 00.05.007.068.068 0 00.043-.027.073.073 0 00.016-.048.077.077 0 00-.02-.047zm4.171 3.435l.014.015c.087.089.235-.051.139-.135-1.041-.927-2.095-1.959-3.29-2.686a.114.114 0 00-.14.031.12.12 0 00-.024.073.117.117 0 00.028.071 41.7 41.7 0 003.309 2.663l.096-.169-.014-.015c-.087-.065-.197.08-.115.15l-.003.002zm-1.116-7.422c-3.308-2.264-6.604-4.593-10.023-6.684-.044-.046-.104.05-.053.089 3.294 2.293 6.698 4.436 10.018 6.694.061.039.117-.057.058-.099zM99.408 91.69a44.231 44.231 0 00-4.43-3.051c-.048-.025-.082.04-.042.072 1.423 1.086 2.97 2.017 4.434 3.045.032.033.076-.037.038-.066zm3.951-1.611a3.673 3.673 0 00-.605-.442c-.17-.093-.367-.248-.564-.197a.053.053 0 00-.021.011.07.07 0 00-.014.02c-.003.007-.004.015-.003.023 0 .008.003.016.007.023.092.168.321.217.489.303.216.112.435.218.649.338.038.038.109-.04.072-.07l-.01-.01zm-8.73 8.811c-1.375-1.414-2.688-3.046-4.249-4.26-.122-.092-.228.096-.153.196 1.188 1.562 2.81 2.89 4.2 4.26a.142.142 0 00.1.042.14.14 0 00.142-.138.141.141 0 00-.04-.1zm14.018 14.156c-3.506-3.582-6.989-7.189-10.569-10.698-.508-.499-1.038-.987-1.539-1.493a.127.127 0 00-.18.174c3.528 3.561 7.016 7.164 10.567 10.701l1.517 1.513a.146.146 0 00.187-.011.143.143 0 00.017-.186zm-13.696-1.306c-2.64-3.873-5.289-7.744-7.947-11.612-.375-.544-.842-1.144-1.19-1.654-.083-.12-.285-.012-.202.112 2.649 3.867 5.256 7.768 7.912 11.633l1.165 1.677c.117.168.398.017.279-.153l-.017-.003zm1.64 2.336a6.322 6.322 0 00-.952-1.351.117.117 0 00-.07-.03.118.118 0 00-.073.022.113.113 0 00-.035.139c.282.477.623.916 1.015 1.308a.07.07 0 00.047.019.069.069 0 00.047-.015.07.07 0 00.027-.042.075.075 0 00-.006-.05zm3.082 4.438l.014.015c.07.105.241.013.174-.094-.75-1.173-1.487-2.452-2.444-3.471a.116.116 0 00-.07-.029.112.112 0 00-.116.085.114.114 0 00.007.076 40.53 40.53 0 002.446 3.473l.141-.137-.014-.015c-.075-.077-.21.022-.152.111l.014-.014zm.214-7.966c-2.566-3.079-5.11-6.213-7.83-9.163-.047-.048-.114.022-.074.072 2.552 3.103 5.24 6.093 7.823 9.17.051.053.126-.023.081-.079zm-8.562-10.002a43.876 43.876 0 00-3.44-4.15.043.043 0 00-.065.03c-.001.01 0 .02.005.028 1.072 1.432 2.31 2.748 3.448 4.143.032.034.08-.012.052-.051zm4.75-.135a3.86 3.86 0 00-.47-.597c-.137-.142-.28-.322-.483-.335a.054.054 0 00-.044.014.054.054 0 00-.016.044c.09.17.222.314.384.418.173.178.363.336.536.509.04.041.119-.012.086-.06l.007.007zm-11.417 6.092c-.916-1.732-1.744-3.644-2.91-5.222a.12.12 0 00-.032-.038.139.139 0 00-.044-.023.133.133 0 00-.095.01.139.139 0 00-.037.031.13.13 0 00-.027.092.125.125 0 00.015.047c.72 1.825 1.904 3.541 2.883 5.236.009.016.02.031.035.043.014.011.031.02.049.025a.138.138 0 00.15-.045.143.143 0 00.03-.103.146.146 0 00-.017-.053zm9.648 17.397c-2.406-4.387-4.779-8.807-7.256-13.163-.354-.617-.728-1.227-1.075-1.851a.125.125 0 00-.17-.05.125.125 0 00-.05.169c2.415 4.395 4.802 8.797 7.256 13.166l1.05 1.865a.15.15 0 00.084.063.14.14 0 00.161-.199zm-14.097-6.85c-1.233-3.659-2.57-7.391-3.797-10.981-.048-.141-.27-.088-.223.053 1.243 3.668 2.452 7.346 3.719 10.996.066.193.365.113.308-.075l-.007.007zm.947 2.686a6.24 6.24 0 00-.547-1.557.113.113 0 00-.06-.057.116.116 0 00-.082 0 .11.11 0 00-.063.139c.14.534.347 1.048.619 1.53a.074.074 0 00.089.027.074.074 0 00.044-.082zm1.755 5.11l.012.012c.039.121.226.075.192-.046-.403-1.333-.76-2.761-1.397-4.005a.11.11 0 00-.06-.057.106.106 0 00-.082 0 .106.106 0 00-.06.056.11.11 0 00-.003.082 39.687 39.687 0 001.422 3.992c.054-.03.114-.06.17-.092l-.013-.015c-.04-.102-.21-.034-.178.071l-.003.002zm4.022-5.283c-1.63-3.656-3.22-7.362-5.046-10.928-.03-.06-.116-.009-.088.048 1.604 3.678 3.373 7.295 5.027 10.942.033.067.128.012.1-.055l.007-.007zm-5.516-11.942a43.173 43.173 0 00-2.174-4.913c-.032-.034-.094-.016-.075.027.642 1.67 1.475 3.277 2.176 4.911.02.045.082.008.064-.035l.01.01zm4.23.731a3.616 3.616 0 00-.286-.696c-.095-.165-.185-.401-.379-.461a.048.048 0 00-.023.003.043.043 0 00-.02.012.047.047 0 00-.013.02.05.05 0 00-.003.023c-.007.194.164.351.257.514.126.21.258.414.38.629.025.05.113.021.094-.036l-.007-.008zm-49.83 2.533c1.65-2.945 3.293-6.013 4.91-8.906a.116.116 0 00-.043-.157.112.112 0 00-.157.042c-1.648 2.956-3.344 5.893-4.985 8.857a.16.16 0 00-.006.114.164.164 0 00.072.09c.033.02.074.027.112.019a.157.157 0 00.097-.059zm-1.355 2.498a6.45 6.45 0 00.78-1.449c.043-.129-.134-.182-.204-.086-.3.46-.538.956-.71 1.478-.03.08.09.122.133.057zm-2.59 4.714l-.014.014a.1.1 0 00.043.121c.02.012.043.017.066.014a.104.104 0 00.06-.032c.708-1.185 1.518-2.413 2.011-3.708.049-.122-.14-.192-.205-.086a39.579 39.579 0 00-1.982 3.698l.169.102.014-.013a.098.098 0 00-.036-.131.096.096 0 00-.071-.011.09.09 0 00-.06.042l.005-.01zm5.668-18.37c.23-.298.458-.6.676-.905.24-.27.43-.58.561-.915a.124.124 0 00-.04-.132.125.125 0 00-.138-.014 3.12 3.12 0 00-.67.843c-.215.322-.427.65-.631.98-.099.157.136.284.242.144zm-11.223 16.271c2.855-4.078 5.726-8.144 8.516-12.28.396-.586.771-1.19 1.172-1.772.091-.131-.127-.26-.216-.127-2.786 4.034-5.717 8.167-8.518 12.277l-1.199 1.756c-.103.152.142.293.245.146zm-1.156-13.97c3.313-3.286 6.614-6.552 9.903-9.848.478-.465.964-1.031 1.395-1.459a.113.113 0 00.001-.16.113.113 0 00-.16-.003c-3.309 3.29-6.638 6.527-9.934 9.816-.478.465-.944.942-1.427 1.425a.161.161 0 00.013.21.16.16 0 00.21.019zm-1.99 2.028a6.425 6.425 0 001.149-1.177c.076-.112-.084-.21-.177-.138-.413.36-.778.772-1.086 1.225-.06.058.055.138.115.09zm-3.788 3.815l-.015.014a.095.095 0 00-.029.068.098.098 0 00.096.099.1.1 0 00.069-.028c1.013-.942 2.125-1.888 2.955-3.004.077-.107-.087-.219-.176-.138a39.51 39.51 0 00-2.915 3.003l.136.139.014-.013a.098.098 0 00-.136-.14zm7.485-.358c2.539-3.068 5.142-6.119 7.524-9.316.04-.04-.044-.107-.07-.072-2.565 3.051-4.992 6.221-7.525 9.297-.05.049.032.138.08.082l-.01.009zm8.205-10.174a84.288 84.288 0 001.899-2.207c.318-.334.602-.698.849-1.088a.044.044 0 00-.007-.052.044.044 0 00-.052-.008c-.35.344-.67.719-.95 1.121-.593.725-1.18 1.456-1.781 2.171-.033.033.02.088.052.053l-.01.01zm1.262 4.099c.184-.169.35-.358.493-.564.108-.161.273-.335.24-.537a.053.053 0 00-.055-.039.06.06 0 00-.023.007c-.176.077-.242.305-.343.46-.133.203-.258.409-.392.61-.043.042.039.103.07.073l.01-.01zm-7.27-10.466c1.524-1.206 3.248-2.353 4.576-3.775.098-.095-.023-.277-.147-.199-1.667 1.03-3.142 2.506-4.626 3.772-.132.127.058.313.197.202zM13.786 103.5c3.865-3.13 7.748-6.246 11.56-9.445.54-.454 1.067-.93 1.61-1.379.118-.114-.05-.283-.175-.18-3.786 3.105-7.744 6.273-11.557 9.442-.547.451-1.09.905-1.637 1.357-.13.125.058.318.199.205zm2.717-13.726c4.083-2.24 8.168-4.48 12.237-6.744.59-.325 1.16-.691 1.745-1.017a.113.113 0 00.044-.155.115.115 0 00-.156-.046c-4.078 2.246-8.184 4.449-12.263 6.704-.588.322-1.177.648-1.765.976a.159.159 0 00-.046.208.162.162 0 00.201.072l.003.002zm-2.468 1.416c.51-.209.99-.483 1.43-.814.098-.096-.026-.223-.133-.18a6.34 6.34 0 00-1.384.876c-.062.061.015.15.087.118zm-4.712 2.613l-.014.014c-.11.055-.014.23.098.172 1.241-.635 2.565-1.234 3.67-2.078.104-.079-.027-.232-.134-.18a39.945 39.945 0 00-3.634 2.086l.098.172.019-.018a.096.096 0 00.034-.131.098.098 0 00-.13-.04l-.007.003zm7.315 1.705c3.284-2.255 6.633-4.462 9.802-6.878.04-.04-.01-.112-.07-.072-3.307 2.221-6.511 4.601-9.795 6.861-.05.049-.006.142.053.098l.01-.01zm10.689-7.51a43.288 43.288 0 004.426-3.007.04.04 0 00.012-.028.04.04 0 00-.04-.04.04.04 0 00-.028.01c-1.519.925-2.936 2.025-4.415 3.01-.033.032-.006.09.035.064l.01-.01zm.102 4.275c.212-.106.413-.233.598-.38.153-.125.372-.258.405-.464a.053.053 0 00-.014-.05.055.055 0 00-.05-.015c-.191.032-.312.22-.452.343-.175.17-.35.339-.55.482-.043.042.011.111.073.075l-.01.009zm-4.142-12.036c1.798-.737 3.78-1.37 5.447-2.368a.126.126 0 00.052-.155.129.129 0 00-.144-.079c-1.89.535-3.71 1.545-5.495 2.353-.164.075-.026.317.14.249zM5.13 88.076c4.584-1.946 9.18-3.87 13.727-5.897.648-.289 1.279-.597 1.932-.88.148-.064.027-.284-.12-.22-4.506 1.944-9.185 3.897-13.73 5.893l-1.953.86c-.166.073-.027.316.14.248l.004-.004zm6.371-12.425c4.552-1.033 9.1-2.072 13.646-3.115.648-.161 1.312-.338 1.957-.497a.114.114 0 00.084-.138.116.116 0 00-.138-.086c-4.497 1.027-9.123 2.03-13.655 3.073l-1.971.454a.16.16 0 00-.095.187.162.162 0 00.172.122zm-2.77.665a6.245 6.245 0 001.601-.39c.098-.043.06-.221-.052-.212a6.383 6.383 0 00-1.583.462.073.073 0 00-.04.083.075.075 0 00.074.057zm-5.244 1.238l-.014.014c-.124.022-.073.212.047.188 1.361-.264 2.814-.477 4.106-.989.126-.047.036-.226-.08-.207a40.677 40.677 0 00-4.073 1.008l.047.188.015-.014a.096.096 0 00.062-.115.098.098 0 00-.11-.073zm6.58 3.637c3.785-1.257 7.616-2.466 11.334-3.916.052-.023.015-.114-.037-.096-3.798 1.229-7.535 2.64-11.324 3.903-.069.02-.041.129.028.109zm12.367-4.284a42.845 42.845 0 005.092-1.671c.03-.03.013-.087-.033-.076-1.715.468-3.383 1.139-5.075 1.679-.045.01-.03.084.018.07l-.002-.002zm-1.081 4.134c.244-.05.483-.124.712-.224.176-.077.42-.141.49-.332a.055.055 0 00-.04-.065c-.186-.034-.353.115-.514.192-.229.11-.457.224-.69.324-.055.025-.015.109.04.098l.002.007zm-.694-12.686c1.935-.214 4.013-.276 5.897-.782a.126.126 0 00.084-.135.128.128 0 00-.114-.111c-1.964-.007-4 .467-5.937.754-.183.028-.107.292.07.274zM1.01 70.903c4.959-.604 9.91-1.202 14.848-1.899.7-.1 1.403-.225 2.104-.317.16-.02.097-.263-.06-.242-4.88.632-9.925 1.218-14.849 1.896l-2.11.286c-.18.026-.108.297.067.276zm9.557-10.186c4.67.255 9.337.504 14.004.749.674.033 1.353.024 2.024.06.147.007.15-.225.003-.232-4.616-.244-9.36-.542-14.006-.793l-2.024-.103c-.206-.01-.207.309-.001.32zm-2.864-.11c.546.09 1.1.112 1.65.063.11-.017.111-.197.003-.218a6.434 6.434 0 00-1.652.008.074.074 0 00-.068.072.074.074 0 00.067.075zm-5.4-.26c-.127-.012-.127.184-.004.196 1.374.117 2.827.316 4.2.18a.113.113 0 00.097-.112.115.115 0 00-.096-.113 41.365 41.365 0 00-4.19-.144l-.004.196.012-.011c.126 0 .125-.183.002-.194l-.016.002zm5.353 5.3c3.988-.168 8-.283 11.98-.65.065-.005.07-.105.002-.103-3.995.136-7.988.457-11.983.641-.071.004-.073.117 0 .111zm13.091-.722c1.793.04 3.586-.032 5.369-.216.045-.006.036-.082-.011-.083-1.78-.022-3.565.159-5.36.226a.037.037 0 00-.022.062c.006.007.015.01.024.011zm-2.171 3.672c.244.02.49.017.733-.011.168-.023.492-.01.575-.188a.053.053 0 00-.019-.072c-.15-.102-.407.021-.575.05-.242.037-.483.085-.728.116-.061.008-.043.099.014.105zm2.769-12.371c1.934.325 3.962.833 5.934.873a.126.126 0 00.102-.194.129.129 0 00-.068-.054c-1.894-.543-3.985-.646-5.93-.901-.158-.02-.199.25-.038.276zM1.709 53.289c4.92.758 9.827 1.559 14.753 2.236.709.098 1.538.186 2.195.283.158.024.224-.218.066-.242-4.954-.74-9.902-1.54-14.861-2.252l-2.108-.294c-.158-.024-.196.252-.038.277l-.007-.008zm12.024-7.145c4.429 1.524 8.86 3.042 13.293 4.554.639.218 1.304.386 1.933.612.14.048.19-.183.06-.221-4.379-1.5-8.863-3.096-13.293-4.588l-1.92-.654c-.195-.068-.279.239-.083.306l.01-.01zm-2.722-.896c.501.236 1.03.407 1.573.508.11.016.16-.155.057-.21a6.514 6.514 0 00-1.593-.442.073.073 0 00-.08.106.078.078 0 00.041.035l.002.003zM5.875 43.52l-.014-.014c-.118-.045-.158.153-.052.19 1.292.488 2.637 1.073 4 1.322a.113.113 0 00.115-.161.115.115 0 00-.057-.056 41.728 41.728 0 00-4.006-1.295l-.052.19.012.013c.122.035.155-.151.051-.186l.003-.003zm3.713 6.555c3.893.93 7.796 1.927 11.725 2.655.066.01.089-.086.027-.101-3.887-.962-7.832-1.755-11.72-2.66-.068-.017-.095.093-.03.109l-.002-.003zm12.814 2.89a43.48 43.48 0 005.218 1.265c.05.008.072-.07.022-.082-1.713-.505-3.49-.823-5.22-1.254a.037.037 0 00-.041.053.038.038 0 00.02.018zm-3.1 2.928c.23.087.469.15.711.19.172.025.472.118.606-.022a.054.054 0 000-.075c-.121-.126-.38-.1-.53-.107-.253-.026-.511-.047-.76-.087a.053.053 0 00-.034.01.053.053 0 00.008.091zm6.06-11.11c1.778.844 3.596 1.892 5.479 2.46a.127.127 0 00.143-.072.127.127 0 00-.044-.155c-1.667-1.036-3.64-1.703-5.436-2.478-.164-.07-.306.162-.142.245zM7.24 36.587c4.547 2.09 9.09 4.204 13.673 6.213.636.281 1.39.583 1.972.847.146.064.276-.151.128-.218-4.562-2.062-9.1-4.181-13.679-6.223l-1.957-.87c-.162-.072-.304.165-.142.246l.005.005zm13.544-3.565c3.853 2.677 7.703 5.356 11.568 8.012.562.391 1.14.733 1.695 1.117.124.084.237-.115.115-.197-3.806-2.638-7.693-5.394-11.546-8.052l-1.673-1.151c-.17-.117-.321.148-.162.274l.003-.003zm-2.392-1.619c.415.365.873.676 1.365.927.106.046.24-.084.137-.175a6.423 6.423 0 00-1.416-.864c-.066-.034-.157.06-.088.115l.002-.003zm-4.467-3.054l-.014-.014c-.1-.076-.2.095-.1.168 1.112.825 2.248 1.754 3.493 2.365a.114.114 0 00.143-.047.113.113 0 00-.03-.147 41.397 41.397 0 00-3.506-2.34l-.1.17.013.014c.108.068.198-.094.099-.167l.002-.002zm1.785 7.306c3.498 1.958 6.986 3.982 10.576 5.762.06.027.11-.054.053-.089-3.486-1.988-7.066-3.82-10.571-5.771-.063-.032-.121.061-.058.098zm11.563 6.284a43.742 43.742 0 004.68 2.644.041.041 0 00.058-.013.042.042 0 00-.014-.057c-1.511-.957-3.138-1.741-4.686-2.635-.033-.034-.078.039-.05.049l.011.012zm-3.79 1.965c.211.154.437.286.675.393.172.076.363.2.548.128a.05.05 0 00.027-.051.051.051 0 00-.007-.02c-.096-.155-.302-.176-.46-.238-.242-.1-.49-.198-.727-.304a.054.054 0 00-.04-.006.053.053 0 00-.04.064.054.054 0 00.024.034zm8.882-9.005c1.485 1.297 2.948 2.802 4.61 3.866a.127.127 0 00.158-.034.127.127 0 00-.005-.162c-1.32-1.448-3.032-2.64-4.562-3.866-.136-.111-.341.075-.2.196zM17.147 22.062c3.812 3.256 7.609 6.525 11.478 9.711.523.428 1.185.942 1.668 1.353.113.115.304-.07.18-.174-3.831-3.233-7.623-6.507-11.476-9.714l-1.649-1.371c-.138-.114-.34.076-.2.195zm14.025.296c2.982 3.622 5.957 7.251 8.956 10.861.432.517.893 1.006 1.32 1.527.104.106.26-.045.166-.16-2.95-3.574-5.94-7.286-8.922-10.89l-1.288-1.558c-.13-.159-.358.067-.239.232l.007-.012zm-1.863-2.207c.302.462.66.884 1.066 1.259.082.084.251-.015.18-.132a6.406 6.406 0 00-1.129-1.213c-.054-.055-.168.013-.117.085zm-3.464-4.152l-.016-.017c-.075-.1-.213.04-.139.135.848 1.097 1.688 2.295 2.719 3.227a.114.114 0 00.146-.01.113.113 0 00.014-.146 40.307 40.307 0 00-2.74-3.205l-.139.134.017.017c.089.092.213-.039.138-.135zm-.285 7.496c2.834 2.839 5.655 5.745 8.619 8.425a.05.05 0 00.07.001.05.05 0 000-.071c-2.825-2.873-5.76-5.6-8.607-8.434a.057.057 0 00-.08-.001.057.057 0 00-.002.08zm9.422 9.2a43.908 43.908 0 003.787 3.813.043.043 0 00.065-.031.044.044 0 00-.005-.027c-1.196-1.33-2.548-2.53-3.794-3.807a.037.037 0 00-.063.025c0 .01.003.02.01.026zm-4.187.842c.163.208.347.398.55.566.146.116.274.282.478.267a.05.05 0 00.058-.056.985.985 0 00-.397-.374c-.206-.16-.415-.318-.615-.484a.054.054 0 00-.08.038.054.054 0 00.006.034v.01zm11.014-6.191c1.073 1.65 2.077 3.494 3.387 4.97.1.104.26-.023.2-.147-.879-1.75-2.214-3.357-3.34-4.96-.103-.145-.347-.019-.247.137zM30.66 10.849c2.782 4.168 5.55 8.349 8.402 12.467.387.561.884 1.23 1.24 1.755.091.132.31.012.22-.124-2.81-4.146-5.568-8.332-8.39-12.455l-1.213-1.768c-.103-.149-.35-.016-.25.135l-.01-.01zm13.446 4.125c1.882 4.293 3.757 8.588 5.658 12.872.275.618.589 1.222.86 1.84.057.136.26.023.199-.11-1.866-4.243-3.73-8.619-5.62-12.896l-.809-1.85c-.08-.189-.36-.035-.278.153l-.01-.01zm-1.191-2.632a6.35 6.35 0 00.682 1.5c.068.1.246.053.207-.078a6.492 6.492 0 00-.754-1.474c-.042-.067-.163-.029-.135.052zm-2.21-4.94l-.013-.014c-.044-.117-.218-.023-.17.094.518 1.282.998 2.665 1.736 3.84.065.1.257.045.209-.081a41.25 41.25 0 00-1.775-3.853l-.17.094.015.014c.058.112.213.018.169-.094zm-2.32 7.123c1.956 3.5 3.87 7.05 6 10.446a.051.051 0 00.05.026.05.05 0 00.038-.074c-1.928-3.517-4.022-6.953-5.983-10.457a.058.058 0 00-.078-.023.056.056 0 00-.022.078l-.005.004zm6.565 11.41a43.643 43.643 0 002.604 4.701.043.043 0 00.074-.039c-.788-1.604-1.762-3.126-2.616-4.699-.03-.031-.085-.006-.05.05l-.012-.013zm-4.27-.337c.096.242.218.472.365.686.105.15.207.356.389.4a.053.053 0 00.056-.035.054.054 0 00.003-.024c-.01-.196-.188-.332-.298-.483-.144-.201-.296-.396-.434-.6a.055.055 0 00-.03-.016.053.053 0 00-.058.032.053.053 0 00-.002.035l.01.005zm12.327-2.933c.584 1.878 1.045 3.92 1.903 5.697.064.134.257.045.232-.09-.365-1.922-1.212-3.83-1.867-5.68-.06-.172-.33-.11-.276.066l.008.007zM46.765 3.79c1.541 4.76 3.061 9.531 4.69 14.263.223.654.514 1.417.713 2.024.05.152.295.092.242-.062-1.57-4.752-3.078-9.516-4.685-14.263l-.685-2.028c-.06-.172-.332-.108-.275.066zm11.832 7.642c.628 4.63 1.27 9.265 1.928 13.903.095.667.233 1.33.325 1.999.02.144.246.09.223-.058-.636-4.58-1.236-9.29-1.894-13.903l-.283-2.007c-.028-.206-.344-.134-.308.075l.01-.009zm-.43-2.852c.014.551.099 1.1.251 1.63.04.117.222.113.22-.022a6.242 6.242 0 00-.323-1.62c-.019-.076-.149-.07-.143.017l-.004-.005zm-.775-5.326l-.012-.012c-.013-.123-.207-.127-.194-.004.147 1.38.229 2.851.627 4.188.034.117.23.108.218-.024a41.088 41.088 0 00-.643-4.196 2.706 2.706 0 01-.188.047c.02.107.203.089.19-.02l.002.02zm-4.183 6.174c.926 3.893 1.796 7.825 2.928 11.676a.05.05 0 00.061.036.05.05 0 00.036-.06c-.892-3.907-1.976-7.771-2.909-11.671a.057.057 0 00-.099-.012.057.057 0 00-.01.038l-.007-.007zm3.196 12.75c.3 1.765.71 3.511 1.224 5.228a.044.044 0 00.075.008.044.044 0 00.009-.028c-.316-1.759-.845-3.484-1.236-5.226a.037.037 0 00-.044-.024.036.036 0 00-.028.042zm-4.02-1.492c.025.254.078.504.157.746.058.16.105.428.277.5a.053.053 0 00.076-.032c.056-.177-.089-.383-.16-.557-.083-.228-.175-.452-.256-.688a.054.054 0 00-.091-.01.054.054 0 00-.01.034l.006.007zm12.62-.183c-.026 1.964-.22 4.04.049 5.99.022.152.233.101.249-.026.244-1.938.031-4.008-.015-5.959-.005-.182-.284-.192-.284-.005zM64.9.666c-.009 4.993-.044 9.997.052 14.982.012.71.047 1.425.054 2.136 0 .163.251.167.25.004-.029-4.993.008-9.986-.052-14.982L65.18.671c0-.182-.285-.192-.28-.005zm4.39 7.341c-.32 3.975-.71 7.978-.83 11.97-.002.067.095.066.1.005.359-3.983.518-7.998.84-11.975.006-.071-.105-.07-.11 0zm-.897 13.08a43.387 43.387 0 00-.452 5.339c.002.054.078.05.085.001.236-1.765.285-3.556.44-5.337.004-.05-.058-.06-.073-.004zm-3.37-2.674a3.6 3.6 0 00-.083.747c.003.16-.038.505.114.596a.057.057 0 00.064-.006c.125-.121.045-.433.028-.58-.007-.246-.02-.497-.026-.734-.002-.059-.082-.084-.104-.016l.007-.007zm8.39 90.28c.402 2.421.803 4.884 1.555 7.231.005.022.02.042.04.054a.08.08 0 00.066.011.086.086 0 00.065-.105c-.492-2.418-1.134-4.8-1.566-7.229-.018-.104-.175-.064-.16.038z" fill="#E7C99F"/><path opacity=".25" d="M101.5 40.754c-1.593 1.14-3.385 2.214-4.797 3.586a.128.128 0 00.063.212c.03.007.06.003.086-.01 1.713-.969 3.262-2.361 4.813-3.559.125-.098-.036-.32-.165-.225v-.004zm15.904-11.82c-4.035 2.958-8.08 5.899-12.06 8.928-.564.431-1.114.882-1.697 1.305-.129.095.047.277.172.182 3.952-2.933 8.057-5.913 12.033-8.909l1.697-1.281c.125-.095-.036-.337-.165-.226h.02zm-3.497 13.64c-4.188 2.051-8.379 4.095-12.56 6.166-.601.299-1.189.645-1.789.934-.131.064-.006.268.112.204 4.134-2.035 8.405-4.07 12.58-6.129l1.811-.896c.182-.09.028-.368-.154-.279zm2.543-1.285a6.37 6.37 0 00-1.467.75c-.088.068-.005.224.106.19a6.448 6.448 0 001.442-.81.073.073 0 00.031-.045.072.072 0 00-.048-.088.074.074 0 00-.054.003h-.01zm4.83-2.41l.02.001c.114-.05.005-.221-.096-.17-1.254.566-2.609 1.1-3.744 1.886a.11.11 0 00-.042.068.119.119 0 00.012.078.113.113 0 00.139.051 39.884 39.884 0 003.731-1.93l-.096-.17c-.111.062-.005.222.093.17l-.017.017zm-7.191-2.056c-3.382 2.093-6.843 4.147-10.126 6.414-.054.035-.002.124.048.088 3.415-2.065 6.74-4.3 10.132-6.403.061-.039.004-.138-.054-.099zm-11.06 7.017a43.583 43.583 0 00-4.571 2.801c-.038.026-.002.088.048.065 1.56-.85 3.044-1.885 4.559-2.801a.038.038 0 00.015-.022.032.032 0 00-.003-.027.037.037 0 00-.048-.016zm.142-4.294c-.222.1-.434.222-.632.365-.139.105-.415.253-.413.448a.05.05 0 00.016.036.05.05 0 00.036.015c.18.005.338-.217.477-.324.194-.154.381-.328.578-.461.051-.036.002-.108-.062-.082v.003zm3.483 12.25c-1.845.656-3.858 1.194-5.586 2.125a.125.125 0 00-.064.16.123.123 0 00.155.071c1.897-.437 3.755-1.362 5.562-2.08.165-.067.105-.333-.067-.277zm18.504-6.981c-4.667 1.727-9.347 3.434-13.983 5.246-.643.25-1.387.57-1.982.794-.148.058-.09.3.061.244 4.658-1.758 9.338-3.458 13.986-5.243l1.988-.764c.165-.067.101-.334-.07-.277zm-7.07 12.158c-4.582.815-9.166 1.636-13.753 2.463-.669.122-1.313.285-1.973.405-.144.027-.089.25.055.223 4.526-.814 9.192-1.594 13.765-2.423l1.985-.357c.201-.04.121-.334-.079-.311zm2.819-.537c-.547.03-1.089.13-1.61.299-.105.041-.112.23.024.222a6.394 6.394 0 001.6-.383c.073-.025.073-.156-.014-.145v.007zm5.28-.984h.024c.12-.017.074-.206-.049-.189-1.359.197-2.809.339-4.112.783a.109.109 0 00-.058.053.113.113 0 00.034.145.11.11 0 00.075.021c1.383-.2 2.755-.472 4.11-.816l-.049-.19h-.02c-.124.031-.075.207.045.19v.003zm-6.357-3.963c-3.832 1.075-7.716 2.101-11.483 3.375-.06.02-.039.117.025.098 3.848-1.044 7.65-2.273 11.486-3.365a.058.058 0 00.026-.027.055.055 0 00.003-.038.053.053 0 00-.021-.031.055.055 0 00-.036-.012zm-12.543 3.697a42.83 42.83 0 00-5.147 1.428.037.037 0 00-.018.02.044.044 0 00.013.051c.008.006.017.01.026.01 1.733-.387 3.43-.977 5.144-1.438a.037.037 0 00.022-.044.036.036 0 00-.04-.027zm1.304-4.089a3.449 3.449 0 00-.752.194c-.171.067-.396.116-.473.299a.05.05 0 00.005.04.051.051 0 00.03.024c.176.041.335-.086.49-.156.239-.102.482-.208.727-.3a.055.055 0 00.025-.026.05.05 0 00.002-.036.052.052 0 00-.054-.04zm.017 12.74c-1.949.124-4.032.086-5.949.502a.124.124 0 00-.056.216c.023.02.053.03.084.03 1.944.102 3.983-.271 5.915-.465.177-.017.19-.295.006-.283zm19.694-1.604c-4.959.37-9.922.723-14.873 1.188-.668.062-1.494.164-2.122.213-.157-.004-.166.265-.006.252 4.957-.404 9.919-.747 14.877-1.184.704-.061 1.413-.126 2.118-.187.177-.016.186-.298.006-.282zm-10.102 9.74c-4.633-.48-9.263-.965-13.896-1.424-.666-.066-1.332-.088-1.997-.157-.147-.003-.152.215-.005.232 4.546.467 9.261 1.009 13.885 1.468l1.996.203c.203.005.21-.3.007-.335l.01.013zm2.855.26a6.518 6.518 0 00-1.631-.148c-.113.014-.167.191-.035.221.542.096 1.094.12 1.642.071.077.002.11-.128.024-.143zm5.349.513h.02c.123.003.127-.178.004-.194-1.362-.186-2.79-.45-4.168-.385a.114.114 0 00-.116.112.113.113 0 00.11.117c1.383.19 2.775.307 4.17.35l.004-.194h-.02c-.126-.004-.124.174-.004.19v.004zm-5.037-5.565c-3.98-.024-7.999-.103-11.96.062a.052.052 0 00-.036.013.051.051 0 00-.001.072c.009.01.021.015.035.015 3.999.055 7.973-.076 11.96-.061.015 0 .03-.006.04-.016a.057.057 0 00.002-.08.054.054 0 00-.039-.018l-.001.013zm-13.068.093a42.901 42.901 0 00-5.333-.045.044.044 0 00-.023.015.04.04 0 00-.009.026c0 .01.002.02.008.027a.04.04 0 00.022.016c1.772.105 3.564.004 5.334.035a.036.036 0 00.037-.036.037.037 0 00-.036-.038zm2.366-3.574a3.59 3.59 0 00-.783-.018c-.184.02-.39-.009-.523.146a.04.04 0 00-.015.017.045.045 0 00-.006.023c0 .008.001.015.005.022a.048.048 0 00.014.018.834.834 0 00.487-.008c.267-.038.538-.072.805-.096a.055.055 0 00.03-.019.056.056 0 00.012-.032.057.057 0 00-.011-.034.054.054 0 00-.028-.02h.013zm-3.448 12.264c-1.911-.42-3.904-1.033-5.858-1.159a.122.122 0 00-.085.027.125.125 0 00-.027.166.124.124 0 00.073.052c1.842.633 3.905.838 5.817 1.185.173.03.259-.233.08-.27zm19.374 3.889c-4.868-1.012-9.738-2.045-14.625-2.963-.664-.13-1.481-.256-2.098-.384-.156-.034-.232.21-.072.24 4.875.979 9.742 2.018 14.628 2.966l2.087.404c.176.034.259-.236.08-.27v.007zm-12.363 6.58c-4.321-1.735-8.652-3.484-12.973-5.206-.625-.246-1.267-.453-1.89-.716-.136-.056-.201.167-.066.22 4.275 1.715 8.644 3.525 12.965 5.247l1.874.749c.191.075.278-.23.09-.308v.014zm2.676 1.039a6.352 6.352 0 00-1.526-.593c-.117-.02-.214.14-.092.206.496.24 1.019.415 1.559.52.076.019.138-.094.059-.133zm5.006 1.97h.02c.116.05.17-.137.058-.187-1.261-.553-2.566-1.204-3.906-1.52-.116-.027-.214.149-.092.205a41.51 41.51 0 003.94 1.502l.058-.187h-.02c-.123-.043-.167.137-.058.183v.003zm-3.326-6.743c-3.821-1.122-7.648-2.305-11.521-3.227a.051.051 0 00-.063.034.052.052 0 00.004.038.05.05 0 00.03.025c3.814 1.152 7.689 2.128 11.518 3.237.069.019.102-.088.032-.107zm-12.588-3.517a42.887 42.887 0 00-5.123-1.519.04.04 0 00-.031.004.04.04 0 00-.02.025.049.049 0 00.004.032c.006.01.015.017.025.02 1.674.589 3.425.989 5.123 1.508.009.002.018 0 .026-.005a.037.037 0 00.016-.02.034.034 0 00-.002-.026.034.034 0 00-.018-.02zm3.234-2.785a3.523 3.523 0 00-.734-.232c-.18-.034-.395-.11-.554-.013a.058.058 0 00-.015.018.083.083 0 00-.006.022.05.05 0 00.02.04c.143.135.364.107.55.138.239.04.482.075.721.12a.055.055 0 00.033-.01.056.056 0 00.02-.028.053.053 0 00-.002-.035.052.052 0 00-.022-.026l-.011.006zm-6.649 10.84c-1.719-.93-3.47-2.065-5.316-2.729-.138-.05-.213.15-.102.23 1.599 1.115 3.528 1.882 5.272 2.741.158.081.307-.154.146-.242zm17.578 9.089c-4.411-2.316-8.812-4.65-13.262-6.886-.616-.31-1.352-.65-1.915-.941-.142-.074-.273.138-.132.212 4.425 2.288 8.822 4.63 13.261 6.889.633.324 1.266.646 1.899.968.161.08.31-.158.149-.242zm-13.68 2.918a7562.47 7562.47 0 00-11.062-8.586c-.534-.412-1.095-.788-1.639-1.2-.115-.09-.236.109-.118.199 3.646 2.828 7.356 5.773 11.041 8.622l1.598 1.24c.164.124.337-.15.167-.275h.013zm2.294 1.739a6.453 6.453 0 00-1.311-.99c-.105-.054-.235.078-.137.174.409.368.865.68 1.355.928.069.042.155-.053.093-.112zm4.262 3.273c.095.079.235-.055.14-.135-1.063-.894-2.134-1.876-3.359-2.553-.105-.056-.242.089-.14.175a41.194 41.194 0 003.379 2.533l.104-.169c-.089-.062-.209.08-.12.149h-.004zm-1.357-7.403c-3.368-2.133-6.728-4.33-10.191-6.28a.05.05 0 00-.069.016.05.05 0 00-.005.038.05.05 0 00.022.031c3.358 2.164 6.816 4.171 10.191 6.282a.059.059 0 00.04.002.056.056 0 00.038-.064.058.058 0 00-.019-.034l-.007.01zm-11.154-6.857a42.986 42.986 0 00-4.512-2.876.043.043 0 00-.048.02.044.044 0 00.006.053c1.45 1.041 3.024 1.897 4.515 2.866.04.027.078-.036.039-.063zm3.881-1.783a3.737 3.737 0 00-.657-.438c-.161-.078-.328-.213-.523-.14a.047.047 0 00-.015.035.047.047 0 00.013.036c.083.166.329.209.5.287.218.102.439.201.66.31a.053.053 0 00.064-.021.055.055 0 00.008-.036.057.057 0 00-.017-.032h-.033zm-9.345 8.592c-1.402-1.376-2.777-2.947-4.37-4.092-.122-.09-.243.089-.155.195 1.232 1.513 2.88 2.78 4.324 4.094.13.12.335-.07.2-.197zm14.434 13.592c-3.612-3.443-7.21-6.909-10.883-10.285-.506-.469-1.12-.997-1.584-1.434-.117-.11-.298.063-.18.174 3.618 3.436 7.226 6.878 10.879 10.288.522.482 1.043.967 1.563 1.454.134.12.335-.07.205-.197zm-13.947-.969a2764.61 2764.61 0 00-8.322-11.315c-.401-.54-.84-1.057-1.237-1.6-.087-.12-.25.04-.164.16 2.739 3.729 5.494 7.585 8.275 11.345l1.2 1.63c.122.167.35-.056.231-.22h.017zm1.73 2.305a10.18 10.18 0 00-.46-.663 4.34 4.34 0 00-.53-.65.113.113 0 00-.072-.044.11.11 0 00-.082.022.11.11 0 00-.022.155 6.4 6.4 0 001.051 1.268c.056.058.164-.013.116-.088zm3.205 4.33c.071.102.24.005.169-.094-.784-1.147-1.555-2.404-2.54-3.387-.084-.086-.253.021-.18.133.784 1.174 1.669 2.279 2.564 3.368l.143-.134.001-.017c-.068-.086-.214.022-.153.114l-.004.017zm.716-7.499c-2.662-2.981-5.296-6.022-8.105-8.861a.053.053 0 00-.082.037.054.054 0 00.007.035c2.641 3.004 5.422 5.89 8.098 8.867.049.055.13-.024.082-.078zm-8.863-9.671c-1.136-1.37-2.27-2.804-3.559-4.013-.04-.038-.094.018-.061.059 1.111 1.393 2.396 2.659 3.575 4.003a.037.037 0 00.05 0 .037.037 0 00.005-.05h-.01zm4.222-.636a3.351 3.351 0 00-.487-.579c-.121-.11-.325-.364-.506-.317a.05.05 0 00-.028.018.05.05 0 00-.01.031c-.004.185.266.309.39.416.187.165.376.324.56.493.038.038.116.003.08-.062zm-11.33 5.673c-.96-1.702-1.87-3.601-3.088-5.144-.098-.12-.254.028-.2.15.775 1.799 2.014 3.473 3.042 5.13.097.153.334.007.247-.136zm10.188 17.056c-2.538-4.312-5.056-8.633-7.672-12.896-.37-.61-.766-1.203-1.132-1.816-.084-.137-.303-.007-.22.122 2.57 4.296 5.077 8.62 7.67 12.899l1.107 1.83c.094.153.334.008.247-.139zm-13.137-4.743a3868.86 3868.86 0 00-4.912-13.172c-.232-.623-.54-1.309-.757-1.892-.05-.139-.274-.083-.22.056 1.635 4.388 3.224 8.809 4.87 13.184l.71 1.904c.073.19.381.113.31-.08zm1.03 2.661a6.453 6.453 0 00-.599-1.539.112.112 0 00-.06-.044.107.107 0 00-.075.003.114.114 0 00-.057.05.113.113 0 00-.013.074 6.36 6.36 0 00.669 1.507.072.072 0 00.038.03.07.07 0 00.05 0 .077.077 0 00.037-.032.076.076 0 00.01-.049zm1.914 5.043v.021c.037.118.228.069.187-.05-.443-1.317-.847-2.737-1.522-3.959-.061-.106-.25-.043-.209.083.449 1.342.966 2.66 1.55 3.949l.172-.097v-.02c-.044-.098-.212-.032-.178.073zm2.711-7.013c-1.747-3.601-3.454-7.252-5.384-10.757a.05.05 0 00-.068-.02.049.049 0 00-.024.03.05.05 0 00.004.038c1.72 3.621 3.613 7.166 5.374 10.764.032.064.13.003.098-.055zm-5.891-11.75a43.552 43.552 0 00-2.333-4.837.04.04 0 00-.024-.014.051.051 0 00-.028.004.05.05 0 00-.019.02.045.045 0 00-.003.028c.695 1.646 1.593 3.222 2.343 4.835.019.044.083.002.064-.036zm4.231.558a3.323 3.323 0 00-.317-.703c-.093-.15-.2-.408-.394-.432-.03-.001-.05.025-.054.052-.024.181.188.371.281.517.13.201.265.396.39.604.029.047.116.019.094-.038zm-12.435 2.318c-.476-1.912-.822-3.98-1.578-5.801-.056-.143-.245-.036-.228.092.258 1.944.99 3.896 1.534 5.777a.14.14 0 00.272-.068zm5.16 19.225c-1.27-4.843-2.515-9.7-3.871-14.535-.194-.677-.412-1.354-.596-2.057a.125.125 0 00-.151-.091.127.127 0 00-.09.153c1.295 4.837 2.537 9.69 3.867 14.535l.569 2.066a.146.146 0 00.065.087.157.157 0 00.051.018.167.167 0 00.055-.003.15.15 0 00.05-.024.155.155 0 00.036-.042.138.138 0 00.015-.107zm-11.341-8.186c-.376-4.675-.746-9.35-1.145-14.026-.055-.673-.165-1.411-.214-2.021.003-.144-.24-.153-.23-.005.383 4.672.712 9.353 1.102 14.029l.167 2.02c.018.205.328.215.333.007l-.013-.004zm.265 2.842a6.585 6.585 0 00-.156-1.643.118.118 0 00-.047-.061.114.114 0 00-.174.086 6.33 6.33 0 00.233 1.635.074.074 0 00.079.053.074.074 0 00.065-.07zm.473 5.383v.02c-.004.125.2.133.193.005-.068-1.393-.071-2.868-.39-4.229a.118.118 0 00-.046-.061.114.114 0 00-.175.086c.068 1.415.209 2.826.42 4.226.064-.015.128-.034.188-.049v-.02c-.014-.108-.194-.085-.187.022h-.003zm4.511-5.998c-.702-3.947-1.351-7.929-2.255-11.834.001-.064-.11-.039-.1.025.672 3.956 1.529 7.887 2.245 11.837.015.071.122.043.11-.028zm-2.473-12.927a44.223 44.223 0 00-.929-5.3c-.016-.051-.086-.029-.08.022.222 1.776.642 3.532.935 5.296-.001.047.08.029.074-.018zm3.918 1.689a3.685 3.685 0 00-.11-.742c-.052-.186-.08-.435-.254-.54a.06.06 0 00-.023-.007.053.053 0 00-.043.018.052.052 0 00-.011.021c-.054.183.071.381.127.561.071.233.15.463.214.7-.001.054.106.049.1.002v-.013zm-12.404-.053c.045-1.971.29-4.052.061-6.016-.02-.152-.228-.096-.247.028-.281 1.942-.093 4.03-.094 5.982a.141.141 0 00.137.144.138.138 0 00.1-.039.143.143 0 00.043-.099zm-.274 19.92c.099-5.01.23-10.023.225-15.036 0-.712-.024-1.432-.014-2.144a.131.131 0 00-.041-.078.128.128 0 00-.081-.032.128.128 0 00-.128.104c-.068 5.011-.193 10.025-.228 15.037l-.016 2.143a.144.144 0 00.233.093.146.146 0 00.05-.087zm-8.666-10.684c.912-4.598 1.817-9.2 2.714-13.807.125-.649.225-1.403.346-2.008.026-.144-.192-.213-.222-.065-.902 4.598-1.858 9.193-2.754 13.795l-.38 2.007c-.037.201.267.295.306.091l-.01-.013zm-.518 2.807a6.33 6.33 0 00.297-1.626.111.111 0 00-.028-.071.11.11 0 00-.067-.037.114.114 0 00-.124.072 6.632 6.632 0 00-.22 1.642c0 .017.006.033.018.046a.076.076 0 00.044.024.076.076 0 00.05-.011.074.074 0 00.03-.039zm-1.005 5.308v.021c-.027.123.158.181.188.058.311-1.357.707-2.779.763-4.176a.116.116 0 00-.03-.071.115.115 0 00-.14-.022.11.11 0 00-.05.058 40.412 40.412 0 00-.762 4.179l.196.004v-.02c.003-.107-.163-.135-.185-.031h.02zm5.832-5.429c.398-3.989.85-8.001 1.049-12.008.001-.067-.095-.066-.103-.002-.425 3.995-.674 8.008-1.06 12.007-.001.074.106.073.114.003zm1.134-13.118a43.82 43.82 0 00.55-5.363.044.044 0 00-.015-.023.04.04 0 00-.026-.009.041.041 0 00-.026.008.044.044 0 00-.016.022c-.27 1.768-.342 3.574-.54 5.364-.001.047.066.048.073.001zm3.425 3.294c.058-.247.09-.5.098-.754.004-.198.033-.425-.1-.58a.062.062 0 00-.018-.015.047.047 0 00-.023-.006.062.062 0 00-.024.005.05.05 0 00-.019.014 1.124 1.124 0 00-.03.567c-.005.249.016.495.014.74-.002.057.091.076.103.019v.01zm-12.346-3.875c.593-1.867 1.377-3.798 1.685-5.736a.128.128 0 00-.04-.134.137.137 0 00-.043-.023c-.016-.005-.032-.006-.048-.005a.128.128 0 00-.107.089c-.798 1.793-1.192 3.84-1.715 5.726a.144.144 0 00.044.151c.014.011.03.02.048.026.018.005.036.007.055.005a.137.137 0 00.12-.099zm-5.649 19.075c1.444-4.791 2.934-9.582 4.305-14.402.192-.684.365-1.379.567-2.063a.127.127 0 00-.01-.096.127.127 0 00-.073-.061.125.125 0 00-.155.084c-1.444 4.802-2.91 9.589-4.308 14.402l-.594 2.056a.142.142 0 00.096.17.14.14 0 00.172-.09zm-4.993-14.857c1.746-3.444 3.471-7.013 5.173-10.404.066-.133-.128-.255-.194-.122-1.746 3.457-3.522 6.897-5.239 10.359-.09.182.176.34.27.167h-.01zm-1.252 2.558c.306-.459.551-.957.727-1.482a.11.11 0 00-.001-.082.114.114 0 00-.058-.059.11.11 0 00-.142.053 6.357 6.357 0 00-.659 1.513.073.073 0 00.008.049.07.07 0 00.036.034.07.07 0 00.049.003.075.075 0 00.04-.029zm-2.415 4.833v.017c-.06.113.105.214.167.105.668-1.221 1.437-2.477 1.878-3.804a.114.114 0 00-.002-.083.109.109 0 00-.057-.058.105.105 0 00-.082-.003.114.114 0 00-.06.055 39.799 39.799 0 00-1.852 3.811c.06.018.123.04.186.058v-.02c.046-.1-.123-.174-.175-.078h-.003zm6.587-.833c1.466-3.726 2.995-7.457 4.259-11.258.021-.064-.075-.089-.096-.029-1.5 3.721-2.84 7.517-4.282 11.254-.025.07.08.099.109.033h.01zm4.653-12.304a43.331 43.331 0 001.981-4.994c.002-.047-.054-.079-.072-.036-.74 1.63-1.304 3.35-1.978 4.995-.018.046.052.065.07.021l-.001.014zm2.443 3.53c.122-.22.221-.452.296-.692.05-.184.156-.413.063-.593a.053.053 0 00-.018-.016.087.087 0 00-.023-.006.053.053 0 00-.042.02c-.143.131-.135.363-.186.543-.062.237-.114.475-.183.711-.018.054.065.096.093.043v-.01zM12.174 76.488c3.258-.886 6.597-1.864 9.795-2.738a.115.115 0 00.081-.141.115.115 0 00-.14-.082c-3.264.896-6.547 1.745-9.812 2.65a.16.16 0 00-.1.19.162.162 0 00.176.121zm-2.732.784a6.42 6.42 0 001.581-.457c.122-.061.035-.224-.082-.207a6.375 6.375 0 00-1.552.529c-.078.035-.024.15.053.135zM4.265 78.73h-.02a.1.1 0 00-.057.115.1.1 0 00.102.078c1.341-.326 2.785-.609 4.054-1.164.122-.051.039-.234-.082-.207a39.616 39.616 0 00-4.027 1.178l.045.192h.02a.097.097 0 00.069-.116.097.097 0 00-.114-.073l.01-.003zM21.34 69.9c.375-.045.75-.094 1.12-.153.36-.017.715-.1 1.046-.241a.124.124 0 00.066-.122.124.124 0 00-.087-.107 3.118 3.118 0 00-1.07.113c-.381.072-.763.15-1.142.236-.18.04-.107.297.067.274zM1.87 73.296c4.91-.822 9.822-1.623 14.727-2.532.697-.128 1.39-.284 2.087-.405.157-.027.096-.274-.061-.244-4.83.84-9.833 1.646-14.728 2.528l-2.092.376c-.18.032-.11.306.067.276zm9.155-10.616c4.666.06 9.309.127 13.965.163.667.015 1.412-.035 2.018-.028a.113.113 0 00.116-.111c0-.03-.01-.06-.031-.082a.113.113 0 00-.08-.035c-4.666-.053-9.308-.16-13.964-.206-.666-.015-1.333-.014-2.017-.02a.16.16 0 00-.14.157.162.162 0 00.133.163zm-2.84.003a6.405 6.405 0 001.643-.006c.134-.024.092-.207-.025-.223a6.368 6.368 0 00-1.635.084c-.084-.002-.06.136.016.145zm-5.378-.03h-.02a.098.098 0 00-.004.195c1.382.062 2.836.192 4.214.002.13-.02.095-.216-.025-.222a39.522 39.522 0 00-4.185.025l-.004.195h.02a.096.096 0 00.099-.095.098.098 0 00-.095-.1zm5.501 5.089c3.969-.34 7.97-.62 11.92-1.161.056 0 .045-.107.002-.101-3.975.308-7.937.799-11.906 1.148-.07-.002-.076.12-.002.114h-.014zm13.009-1.278c.968-.048 1.936-.11 2.905-.192a6.94 6.94 0 001.37-.156.044.044 0 00.002-.084c-.49-.01-.982.026-1.466.107-.932.086-1.864.18-2.796.252-.047-.001-.049.076-.002.074h-.013zm-2.04 3.774c.25.012.5-.002.747-.044.191-.035.431-.04.552-.205a.053.053 0 00.003-.047.054.054 0 00-.035-.031c-.178-.072-.387.041-.568.077-.238.049-.473.104-.71.149-.06-.002-.046.1-.003.1h.014zm2.37-12.521c1.928.242 3.956.668 5.9.619.137.003.182-.211.04-.244-1.903-.468-3.99-.485-5.933-.657-.183-.005-.183.26-.007.282zM2.001 55.6c4.942.563 9.886 1.15 14.84 1.627.701.066 1.41.11 2.112.183.163.003.165-.235.006-.252-4.87-.525-9.903-1.128-14.836-1.627-.705-.074-1.41-.144-2.115-.217-.18-.004-.186.265-.007.285zm11.695-7.681c4.46 1.342 8.92 2.687 13.388 4.003.645.193 1.305.342 1.948.531a.114.114 0 00.12-.037.115.115 0 00.013-.127.113.113 0 00-.068-.056c-4.46-1.335-8.91-2.72-13.376-4.05-.643-.193-1.287-.385-1.934-.575a.16.16 0 00-.18.113.163.163 0 00.09.194v.004zm-2.74-.769a6.401 6.401 0 001.584.45c.137.003.14-.175.035-.221a6.342 6.342 0 00-1.595-.373c-.086-.002-.096.116-.023.144zm-5.165-1.53h-.02c-.116-.04-.173.15-.054.19 1.323.44 2.678.966 4.054 1.162.13.02.147-.181.035-.221a39.953 39.953 0 00-4.035-1.13l-.054.19h.026a.096.096 0 00.117-.067.098.098 0 00-.062-.12l-.007-.003zm3.91 6.413c3.91.762 7.832 1.605 11.776 2.172.057.002.072-.085.002-.1-3.902-.802-7.845-1.42-11.759-2.179-.07-.001-.105.095-.032.107h.013zm12.848 2.361a43.27 43.27 0 005.247 1.052.04.04 0 00.041-.04.04.04 0 00-.04-.041c-1.723-.436-3.5-.675-5.24-1.04-.046-.002-.067.058-.02.07h.012zm-2.977 3.07c.224.077.455.13.69.16.196.022.444.084.614-.036a.054.054 0 00.002-.09c-.157-.115-.375-.07-.561-.084-.244-.006-.487-.011-.73-.054-.06-.001-.071.086-.002.104h-.013zm5.682-11.39c1.786.767 3.628 1.736 5.507 2.226a.126.126 0 00.146-.072.129.129 0 00-.044-.157c-1.705-.973-3.702-1.563-5.53-2.27-.168-.065-.244.202-.079.273zM6.94 38.615c4.6 1.907 9.193 3.836 13.826 5.66.66.26 1.322.493 1.982.76.15.061.221-.18.073-.24-4.545-1.851-9.218-3.82-13.826-5.662l-1.982-.792c-.169-.067-.245.203-.08.274h.007zm13.328-4.163a6058.5 6058.5 0 0011.785 7.551c.569.35 1.16.699 1.726 1.048a.114.114 0 00.158-.037.115.115 0 00-.036-.159c-3.884-2.487-7.842-5.085-11.762-7.587l-1.705-1.087a.159.159 0 00-.2.063.162.162 0 00.034.209zm-2.416-1.51c.427.35.897.643 1.4.869.1.04.2-.113.114-.185a6.371 6.371 0 00-1.438-.806.072.072 0 00-.087.03.074.074 0 00.01.092zm-4.559-2.873h-.02c-.101-.073-.202.096-.1.166 1.142.785 2.312 1.672 3.583 2.235.122.057.186-.133.091-.203a40.694 40.694 0 00-3.574-2.198l-.1.166h.02a.096.096 0 00.126-.036.099.099 0 00-.026-.13zm2.018 7.243c3.549 1.819 7.096 3.704 10.736 5.34.053.021.092-.069.042-.093-3.538-1.849-7.164-3.524-10.72-5.343-.062-.035-.12.061-.058.096zm11.722 5.82a42.869 42.869 0 004.761 2.46c.043.001.071-.052.032-.076-1.537-.895-3.184-1.615-4.755-2.444-.04-.025-.08.038-.038.063v-.004zm-3.706 2.125a3.5 3.5 0 00.659.351c.178.071.395.2.58.118a.054.054 0 00.019-.074c-.107-.157-.33-.172-.498-.233-.238-.086-.48-.169-.714-.265-.057-.022-.089.065-.043.096l-.003.007zm8.563-9.385c1.51 1.23 3.01 2.669 4.69 3.658a.126.126 0 00.183-.114c0-.03-.01-.058-.028-.08-1.371-1.406-3.136-2.525-4.7-3.706-.146-.111-.282.127-.145.242zM16.301 23.64c3.905 3.113 7.801 6.226 11.76 9.26.563.43 1.143.843 1.7 1.279.128.1.256-.115.132-.212-3.871-3.039-7.826-6.227-11.76-9.264l-1.684-1.305c-.144-.111-.286.131-.149.242zm13.963-.322a7013.44 7013.44 0 009.28 10.514c.449.504.931.982 1.376 1.486.098.11.265-.05.167-.16-3.06-3.464-6.172-7.056-9.25-10.547l-1.345-1.516c-.136-.154-.365.069-.228.223zm-1.929-2.12a6.52 6.52 0 001.113 1.221c.088.066.218-.059.156-.15a6.43 6.43 0 00-1.163-1.173.073.073 0 00-.122.05.074.074 0 00.016.052zm-3.598-4.034c-.08-.1-.22.039-.143.135.88 1.061 1.756 2.237 2.816 3.122a.113.113 0 00.18-.082.115.115 0 00-.02-.076 41.386 41.386 0 00-2.833-3.089l-.143.135h.016c.088.09.218-.039.14-.134l-.013-.01zm-.03 7.532c2.915 2.728 5.809 5.509 8.86 8.092.05.041.124-.024.075-.072-2.897-2.755-5.924-5.377-8.856-8.099-.052-.048-.134.03-.078.079zm9.69 8.833a43.099 43.099 0 003.916 3.678c.036.028.084-.031.052-.066-1.231-1.285-2.612-2.432-3.917-3.664a.036.036 0 00-.05.002.037.037 0 00-.001.05zm-4.141 1.024c.156.19.33.362.522.516.134.104.352.344.537.278a.054.054 0 00.038-.063c-.033-.18-.3-.276-.438-.377-.197-.145-.4-.284-.594-.437-.049-.038-.1.039-.065.083zm10.765-6.694c1.124 1.608 2.183 3.41 3.537 4.845a.126.126 0 00.21-.063.128.128 0 00-.01-.087c-.94-1.732-2.332-3.296-3.513-4.861-.097-.127-.317.033-.224.166zM29.355 11.795c2.907 4.041 5.775 8.101 8.744 12.09.427.575.945 1.228 1.336 1.765.094.13.313.007.22-.123-2.944-4.052-5.841-8.143-8.81-12.18l-1.267-1.708c-.094-.13-.317.036-.224.166v-.01zm13.523 3.569a5080.12 5080.12 0 006.068 12.674c.292.608.639 1.2.918 1.809.064.132.263.006.2-.113-1.998-4.175-4.003-8.491-6.044-12.698l-.878-1.827c-.089-.187-.366-.032-.277.155h.013zm-1.267-2.57c.182.524.43 1.02.739 1.48.065.088.223.005.19-.107-.205-.515-.474-1-.801-1.446a.073.073 0 00-.097-.026.074.074 0 00-.032.096v.004zM39.24 7.92l.001-.02c-.05-.115-.22-.005-.172.097.558 1.263 1.083 2.632 1.86 3.779a.114.114 0 00.145.03.114.114 0 00.051-.14A41.707 41.707 0 0039.241 7.9l-.172.097v.017c.06.112.216.005.169-.094h.003zm-2.072 7.243c2.065 3.428 4.089 6.911 6.323 10.225.039.054.123.003.091-.052-2.038-3.447-4.238-6.817-6.316-10.224-.036-.061-.134-.003-.098.055v-.004zm6.918 11.166a43.45 43.45 0 002.755 4.608c.029.041.1.003.074-.041-.84-1.575-1.86-3.067-2.765-4.603a.037.037 0 00-.022-.016.037.037 0 00-.042.052zm-4.26-.159c.1.225.22.44.362.64.103.14.247.42.44.417a.054.054 0 00.054-.052c.005-.175-.195-.341-.295-.454-.16-.199-.325-.397-.47-.602a.053.053 0 00-.09.015.054.054 0 00-.001.036zm12.171-3.463c.644 1.86 1.171 3.89 2.085 5.632a.127.127 0 00.152.05.127.127 0 00.08-.14c-.43-1.914-1.337-3.79-2.042-5.613-.066-.166-.33-.105-.275.07zM45.145 4.033c1.696 4.71 3.371 9.431 5.151 14.108.245.651.558 1.4.778 2 .056.15.3.091.244-.061-1.725-4.7-3.394-9.421-5.147-14.118l-.75-2.006c-.063-.167-.331-.102-.275.07v.007zm12.035 7.164c.79 4.624 1.578 9.248 2.392 13.867.115.674.277 1.326.391 1.99.027.15.248.09.222-.055-.786-4.563-1.545-9.268-2.35-13.879l-.35-2c-.035-.203-.33-.125-.308.077h.003zm-.522-2.841c.031.551.13 1.096.297 1.623.04.108.227.112.22-.025a6.418 6.418 0 00-.376-1.615c-.022-.071-.152-.07-.144.017h.003zm-.951-5.327v-.02c-.017-.125-.208-.075-.19.046.191 1.372.324 2.833.761 4.15a.114.114 0 00.133.069.115.115 0 00.085-.124 41.405 41.405 0 00-.788-4.141l-.192.046v.02c.027.125.205.075.188-.046h.003zm-3.96 6.393c1.054 3.868 2.055 7.775 3.3 11.583.023.061.117.04.102-.024-1.025-3.88-2.227-7.718-3.292-11.586-.022-.068-.13-.044-.11.027zm3.62 12.652a43.743 43.743 0 001.394 5.193.041.041 0 00.05.031.041.041 0 00.03-.05c-.376-1.748-.957-3.459-1.404-5.189.001-.047-.083-.029-.07-.002v.017zm-4.057-1.326c.037.259.102.512.192.757.066.176.111.4.293.48a.05.05 0 00.055-.017.051.051 0 00.009-.018c.044-.177-.086-.338-.152-.494-.098-.244-.202-.488-.293-.732a.054.054 0 00-.064-.04.054.054 0 00-.04.064zm12.648.025c.115 1.968.067 4.067.473 5.998a.126.126 0 00.247-.028c.108-1.956-.241-4.014-.44-5.964-.016-.175-.292-.191-.28-.006zM62.45.923c.349 5 .677 10 1.116 14.993.061.673.159 1.505.204 2.138-.003.161.263.167.25.006-.378-4.998-.7-9.998-1.113-14.993L62.73.929c-.016-.178-.293-.188-.28-.006zm9.617 10.212c-.493 4.665-.997 9.33-1.471 14-.065.67-.09 1.342-.163 2.012-.003.148.213.153.23.005.483-4.608 1.035-9.343 1.515-13.995l.21-2.011c.02-.205-.3-.209-.334-.008l.013-.003zm.27-2.876a6.663 6.663 0 00-.151 1.642c-.003.118.186.17.219.036a6.402 6.402 0 00.075-1.655c.001-.077-.128-.11-.143-.023zm.533-5.38v-.024c.02-.124-.176-.125-.193-.004-.188 1.373-.454 2.811-.396 4.2a.114.114 0 00.11.097.113.113 0 00.113-.092c.196-1.393.318-2.795.367-4.201l-.194-.004v.023c-.003.128.177.125.193.005zm-5.547 5.05c-.038 4.01-.134 8.06.03 12.052a.05.05 0 10.1.002c.07-4.03-.042-8.034-.016-12.052a.057.057 0 00-.016-.04.056.056 0 00-.098.038zm.042 13.167a43.903 43.903 0 00-.067 5.374.043.043 0 00.067.025.044.044 0 00.016-.023c.111-1.785.02-3.59.057-5.374a.037.037 0 00-.036-.038.037.037 0 00-.037.036zM63.829 18.7c-.034.262-.04.527-.018.79.019.185-.01.392.145.527.004.006.01.012.017.015a.049.049 0 00.044.001.05.05 0 00.019-.014.985.985 0 00-.011-.545c-.031-.26-.065-.519-.086-.778a.054.054 0 00-.05-.041.053.053 0 00-.053.039l-.007.006zm12.135 3.518c-.424 1.922-1.037 3.93-1.172 5.9-.004.144.2.168.245.038.633-1.853.844-3.931 1.198-5.858.031-.174-.23-.261-.271-.08zm3.955-19.514c-1.023 4.906-2.066 9.81-3.005 14.73-.129.67-.258 1.493-.382 2.115-.03.158.208.23.242.07.989-4.91 2.042-9.81 3.004-14.714l.412-2.104c.034-.177-.234-.26-.272-.083v-.014zM86.4 15.186c-1.743 4.352-3.493 8.7-5.217 13.058-.248.629-.46 1.276-.71 1.902-.057.136.165.202.218.065 1.72-4.304 3.534-8.701 5.26-13.046l.754-1.874c.077-.19-.227-.28-.305-.091v-.013zm1.042-2.694a6.349 6.349 0 00-.592 1.539c-.022.117.135.211.202.092.24-.499.416-1.026.522-1.57.019-.077-.093-.137-.132-.06zm1.976-5.038v-.02c.053-.113-.135-.17-.185-.054-.552 1.267-1.203 2.58-1.523 3.93-.026.116.148.214.204.091a41.21 41.21 0 001.505-3.967l-.186-.054v.02c-.04.12.136.164.185.054zm-6.708 3.337c-1.125 3.848-2.317 7.701-3.246 11.6a.052.052 0 00.004.04.05.05 0 00.03.024c.006.002.012.002.019.002a.05.05 0 00.034-.019.05.05 0 00.009-.017c1.158-3.84 2.141-7.742 3.266-11.597a.058.058 0 00-.038-.071.057.057 0 00-.07.038h-.008zm-3.538 12.68a43.629 43.629 0 00-1.528 5.152.043.043 0 00.08.025c.591-1.686.995-3.448 1.518-5.16 0-.043-.055-.064-.07 0v-.018zm-2.751-3.282a3.458 3.458 0 00-.234.74c-.034.18-.11.398-.013.558a.053.053 0 00.083.002c.134-.145.105-.368.136-.552.043-.244.075-.489.124-.73a.054.054 0 00-.039-.053.053.053 0 00-.06.024l.002.01zm10.73 6.737c-.93 1.732-2.064 3.494-2.73 5.35-.05.14.149.215.228.102 1.114-1.607 1.882-3.548 2.742-5.312.08-.163-.153-.313-.24-.15v.01zm9.09-17.682c-2.315 4.435-4.653 8.864-6.886 13.341-.311.618-.652 1.36-.945 1.927-.073.143.14.276.214.13 2.289-4.45 4.63-8.865 6.89-13.338l.968-1.91c.08-.163-.156-.313-.24-.15zm2.841 13.796c-2.862 3.693-5.718 7.4-8.566 11.12-.41.534-.785 1.097-1.198 1.632-.09.115.108.237.198.118 2.82-3.664 5.76-7.393 8.589-11.095l1.234-1.608c.127-.165-.146-.339-.27-.167h.013zm1.734-2.305c-.384.396-.716.84-.987 1.321-.056.11.074.237.17.142.368-.412.68-.872.928-1.367.041-.066-.053-.155-.112-.09l.001-.006zm3.255-4.286l.001-.017c.078-.096-.055-.236-.134-.14-.881 1.07-1.873 2.16-2.548 3.381-.059.106.085.24.17.138a40.977 40.977 0 002.542-3.399 2.523 2.523 0 01-.164-.1c-.062.088.078.206.147.12l-.014.017zm-7.335 1.343c-2.128 3.388-4.323 6.765-6.277 10.271a.05.05 0 00-.006.039.05.05 0 00.06.037.05.05 0 00.031-.023c2.162-3.374 4.159-6.856 6.287-10.254a.057.057 0 00-.096-.06v-.01zM89.88 29.008a43.738 43.738 0 00-2.872 4.537.044.044 0 00.018.052.043.043 0 00.055-.007c1.033-1.458 1.893-3.044 2.861-4.544a.037.037 0 00-.013-.049.037.037 0 00-.05.01zm-1.754-3.914a3.495 3.495 0 00-.422.635c-.073.153-.232.374-.162.547a.054.054 0 00.053.038.054.054 0 00.023-.006c.165-.083.21-.33.285-.504.105-.22.2-.442.312-.665a.054.054 0 00-.022-.064.053.053 0 00-.067.009v.01zm8.974 8.874c-1.418 1.358-3.035 2.675-4.237 4.233-.093.122.09.237.193.16 1.554-1.185 2.88-2.787 4.24-4.187.126-.132-.063-.338-.196-.206zm14.077-13.976c-3.568 3.492-7.161 6.975-10.65 10.537-.499.506-.984 1.032-1.486 1.534-.116.115.057.297.173.183 3.541-3.52 7.128-6.993 10.65-10.538l1.505-1.514c.13-.128-.062-.337-.192-.202zm-2.16 8.275c-3.06 2.558-6.188 5.086-9.12 7.797-.048.046.02.115.068.076 3.092-2.536 6.067-5.236 9.13-7.794.054-.045-.024-.124-.078-.079zm-9.958 8.527a43.391 43.391 0 00-4.126 3.42c-.037.04.018.091.059.062 1.425-1.07 2.736-2.29 4.116-3.427.038-.032.002-.084-.049-.055zm-.455-4.277c-.212.133-.41.289-.59.464-.113.115-.388.327-.346.5a.057.057 0 00.05.04c.173.005.34-.27.432-.386.17-.177.341-.362.505-.533.041-.042.003-.117-.061-.085h.01zm-58.52 69.255c-1.445 1.983-2.921 3.995-4.068 6.176a.089.089 0 00.027.122c.02.012.043.017.066.011a.086.086 0 00.055-.039c1.38-2.044 2.63-4.172 4.059-6.182.062-.086-.076-.17-.138-.088z" fill="#E7C99F"/><path d="M63.278 20.098c-3.925 1.318-5.902 3.725-6.847 8.251-.144.63-.373.774-1.376.946-2.578.401-5.243 2.177-6.676 4.47-.974 1.547-1.346 2.98-1.346 5.157 0 4.556 3.495 8.624 8.022 9.34l1.204.2v3.124c0 5.043-.63 5.673-5.673 5.673h-3.123l-.201-1.203c-.487-3.037-2.722-5.931-5.616-7.22-2.063-.946-5.1-1.06-7.134-.344-1.433.515-3.266 1.833-4.298 3.094-.86 1.06-2.005 3.84-2.034 4.87 0 .631-.172.832-.802.946-3.782.774-6.246 2.522-7.708 5.53-.687 1.404-.802 1.977-.802 4.069 0 2.034.115 2.693.745 4.01 1.375 2.866 3.84 4.757 7.02 5.445 1.432.315 1.49.343 1.633 1.432.372 2.75 2.693 5.931 5.243 7.192 5.73 2.75 12.75-.888 13.753-7.135l.2-1.203h3.124c5.042 0 5.673.63 5.673 5.673v3.123l-1.204.2c-4.527.717-8.022 4.814-8.022 9.341 0 3.009.86 5.043 2.95 7.134 1.147 1.118 3.554 2.321 5.158 2.522.917.143 1.146.286 1.29.917.716 3.495 1.89 5.386 4.326 6.991 5.73 3.782 13.237.573 14.698-6.275.315-1.433.344-1.49 1.433-1.633 2.779-.373 5.816-2.607 7.134-5.215 2.837-5.673-.802-12.778-7.077-13.781l-1.203-.2v-3.124c0-5.043.63-5.673 5.673-5.673h3.123l.2 1.203c1.003 6.304 8.023 9.885 13.84 7.078 2.492-1.204 4.784-4.384 5.156-7.135.144-1.06.172-1.089 2.063-1.547 7.364-1.805 9.943-10.859 4.613-16.13-1.404-1.405-2.979-2.236-5.071-2.666-1.375-.315-1.519-.4-1.519-1.088-.028-1.032-1.174-3.81-2.034-4.871-1.948-2.35-4.47-3.524-7.621-3.524-4.642 0-8.682 3.438-9.427 7.994l-.2 1.203h-3.123c-5.043 0-5.673-.63-5.673-5.673v-3.123l1.203-.2c5.1-.832 8.768-5.874 7.965-11.003-.659-4.011-3.982-7.363-7.936-7.965-1.175-.172-1.204-.2-1.519-1.662-.172-.802-.573-2.005-.888-2.665-.745-1.518-3.066-3.695-4.785-4.44-1.662-.745-4.9-.946-6.504-.43zm6.905 1.117c2.579 1.347 4.499 4.04 4.871 6.934.2 1.404.143 1.346 2.378 1.719 2.522.43 5.215 2.665 6.418 5.272.946 2.091.888 5.415-.172 7.564-1.318 2.693-4.068 4.727-6.933 5.071l-1.433.172-.086 3.295c-.086 3.782.258 4.842 1.92 5.96.916.601 1.26.63 4.44.573l3.468-.086.2-1.519c.43-2.922 2.32-5.53 5.043-6.848 2.149-1.06 5.472-1.117 7.564-.172 2.607 1.204 4.842 3.897 5.272 6.419.372 2.234.315 2.177 1.719 2.378 6.074.83 9.655 7.392 7.048 12.921-1.346 2.808-4.011 4.785-7.048 5.187-1.232.171-1.318.257-1.49 1.231-.602 3.64-2.435 6.16-5.53 7.593-2.063.917-5.415.86-7.535-.2-2.693-1.318-4.728-4.069-5.072-6.934l-.171-1.433-3.295-.086c-3.668-.086-4.757.258-5.845 1.748-.545.716-.602 1.232-.602 4.441v3.639l1.433.172c2.865.344 5.615 2.378 6.933 5.071 1.06 2.12 1.118 5.473.2 7.536-1.432 3.094-3.953 4.928-7.592 5.529-.974.172-1.06.258-1.232 1.49-.83 6.074-7.392 9.656-12.922 7.049-2.808-1.347-4.785-4.012-5.186-7.049-.172-1.232-.258-1.318-1.232-1.49-3.639-.601-6.16-2.435-7.593-5.53-.916-2.062-.859-5.415.201-7.535 1.318-2.693 3.925-4.613 6.848-5.043l1.518-.2v-3.639c0-3.209-.057-3.725-.601-4.44-1.09-1.49-2.178-1.835-5.845-1.749l-3.295.086-.172 1.433c-.344 2.865-2.378 5.616-5.071 6.934-2.15 1.06-5.473 1.117-7.565.171-2.607-1.203-4.842-3.896-5.271-6.417-.373-2.235-.316-2.178-1.72-2.379-6.074-.83-9.655-7.392-7.048-12.921 1.347-2.808 3.553-4.47 6.762-5.13l1.748-.372.172-1.432c.372-2.951 2.492-5.73 5.357-7.048 2.092-.946 5.416-.889 7.565.171 2.693 1.318 4.727 4.069 5.07 6.934l.173 1.433 3.438.086c3.868.086 4.785-.23 5.874-2.006.515-.83.573-1.375.515-4.384l-.086-3.438-1.432-.172c-2.865-.344-5.616-2.378-6.934-5.071-1.06-2.149-1.117-5.473-.172-7.564 1.204-2.607 3.897-4.842 6.418-5.272 2.235-.372 2.178-.315 2.378-1.72.401-3.036 2.35-5.672 5.186-7.047 1.576-.774 1.92-.831 4.155-.717 1.92.086 2.75.258 3.896.831z" fill="#E7C99F"/><path d="M60.253 79.801c.144 2.022.202 4.902.173 6.406h0v.006l-.086 2.722-.014.452-.451.031-2.464.172h-.001c-2.042.139-3.56.677-4.591 1.54-1.02.852-1.614 2.065-1.735 3.67-.133 1.889.454 3.378 1.589 4.407 1.146 1.04 2.91 1.662 5.22 1.676h2.512l.02.478.115 2.665v.003c.044 1.185.086 1.846.196 2.342.104.464.268.792.607 1.293l.001.002c1.877 2.801 5.635 3.393 8.177 1.296h.001c.751-.617 1.236-1.238 1.542-2.024.312-.797.453-1.801.453-3.206v-2.849h2.534c1.366 0 2.35-.121 3.148-.393.789-.268 1.427-.693 2.086-1.352l.003-.003c.678-.664 1.116-1.305 1.37-2.003.256-.699.34-1.489.259-2.468-.157-1.778-1.09-3.24-2.759-4.193h0l-.006-.004c-.536-.316-.925-.498-1.421-.618-.511-.123-1.157-.187-2.213-.23h-.002l-2.522-.114-.477-.022v-5.606c0-2.865.071-4.805.285-6.197.217-1.408.586-2.3 1.208-3.037l.002-.001c.342-.402.68-.746 1.106-1.023.43-.28.924-.473 1.563-.614 1.25-.274 3.147-.359 6.382-.43h.001l5.902-.115.482-.009.027.481.144 2.55h0v.008c.043 1.075.1 1.727.22 2.241.116.497.296.883.623 1.414l.004.006.003.006c.395.684 1.229 1.596 1.791 1.982.495.315.811.473 1.191.565.399.095.897.125 1.771.125.874 0 1.372-.03 1.77-.125.381-.092.697-.25 1.192-.565.562-.386 1.397-1.298 1.79-1.982l.003-.004c.316-.536.498-.925.618-1.422.124-.51.188-1.156.23-2.212v-.003l.115-2.521.022-.477h2.827c1.36 0 2.35-.142 3.145-.453.783-.307 1.411-.793 2.027-1.542l.001-.001c2.096-2.542 1.504-6.301-1.297-8.177l-.002-.001c-.501-.34-.829-.504-1.293-.607-.495-.11-1.157-.153-2.341-.196h-.004l-2.664-.115-.479-.02V58.92c0-1.35-.12-2.327-.392-3.123-.268-.784-.694-1.423-1.352-2.082l-.004-.004c-.663-.677-1.305-1.115-2.003-1.37-.698-.255-1.488-.34-2.467-.258-1.754.158-3.244 1.094-4.196 2.705-.296.512-.467.91-.586 1.422-.122.53-.192 1.195-.264 2.254v.003l-.143 2.544-.026.472h-5.945c-1.555 0-3.053-.036-4.247-.094a37.03 37.03 0 01-1.54-.102c-.408-.037-.749-.08-.958-.135h0l-.006-.002c-.841-.231-1.702-.814-2.395-1.508-.694-.693-1.277-1.554-1.508-2.395h0l-.002-.006c-.054-.21-.098-.55-.135-.957-.039-.42-.073-.944-.102-1.541a91.299 91.299 0 01-.094-4.247v-5.979l.477-.021 2.522-.115h.002c1.056-.043 1.702-.106 2.213-.23.496-.12.885-.302 1.421-.618l.004-.002c.684-.395 1.596-1.229 1.982-1.791.316-.495.474-.811.565-1.192.096-.398.126-.896.126-1.77s-.03-1.372-.126-1.77c-.091-.381-.25-.697-.565-1.192-.386-.563-1.298-1.397-1.982-1.791l-.004-.003c-.536-.316-.925-.497-1.421-.617-.511-.124-1.157-.188-2.213-.23h-.002l-2.522-.115-.477-.022V30.27c0-1.639-.218-2.816-.68-3.715-.453-.885-1.167-1.549-2.258-2.115-1.361-.693-3.046-.834-4.178-.407l-.004.002-4.643 55.803m.499-.036l-.499.036m.499-.036s0 0 0 0l-.499.036m.499-.036c-.114-1.62-.194-2.591-.34-3.267-.154-.722-.387-1.126-.765-1.614m.606 4.917c-.23-3.267-.315-3.725-1.003-4.613m.397-.304l.002.002-.399.302m.397-.304c-.347-.459-.69-.848-1.108-1.16-.425-.317-.905-.537-1.512-.69-1.18-.298-2.895-.352-5.713-.352h-.005c-1.075.011-2.148.018-3.086.024-1.432.01-2.546.016-2.862.034m14.286 2.144l-.001-.002-.396.306m0 0l-13.889-2.448m0 0h.007l.015.5m-.022-.5l5.953.442c-1.098.012-2.187.018-3.13.024-1.42.01-2.509.016-2.801.033m-.022-.5l-.939.03-.485.014v2.402c-.028 2.152-.436 3.472-1.473 4.828h0c-.935 1.23-2.487 1.882-4.102 1.899-1.615.016-3.224-.604-4.258-1.832l-.002-.002c-.55-.647-.85-1.113-1.047-1.724-.205-.634-.31-1.452-.41-2.83 0 0 0 0 0 0l-.172-2.434-.031-.44-.44-.024-2.579-.144h-.002c-1.373-.071-2.172-.177-2.804-.41-.614-.227-1.107-.587-1.835-1.259-.372-.362-.782-1.04-1.102-1.818-.32-.779-.518-1.577-.518-2.145 0-1.072.58-2.56 1.365-3.451v-.001c.683-.778 1.293-1.248 2.037-1.536.756-.293 1.693-.414 3.06-.414h2.915l.021-.477.115-2.52v-.001c.085-1.785.282-2.697.687-3.456l.003-.005h0c2.02-3.912 7.426-4.028 9.667-.179l.006.01h0c.327.532.507.918.623 1.414.12.515.178 1.166.22 2.241v.008h0l.144 2.55.027.481.482-.009 6.043-.114s0 0 0 0c2.88-.043 4.437-.072 5.397-.175.488-.053.849-.127 1.166-.242.316-.116.566-.265.83-.434.67-.416 1.548-1.298 2.01-1.975V58.6c.191-.282.364-.539.496-.85.134-.319.218-.671.275-1.155.11-.933.132-2.467.174-5.4l.001-.088v0l.086-6.074.007-.48-.479-.026-2.521-.144h-.008c-1.075-.043-1.727-.1-2.242-.22-.496-.116-.882-.296-1.413-.623l-.007-.004-.007-.004c-1.668-.953-2.6-2.415-2.758-4.193l-7.146 35.886v-1.92l.946-.029m-.022-.5l-.008.001.03.5m27.633 28.107h-.5v2.349c0 2.865-.573 4.298-2.177 5.616l2.677-7.965zm0 0h1.534c2.78 0 4.183-.487 5.587-1.891 1.433-1.404 1.949-2.808 1.777-4.871-.172-1.948-1.204-3.553-3.009-4.584l-5.889 11.346zm2.021-12.263l-2.521-.115v-5.128c0-5.73.287-7.622 1.375-8.911 1.318-1.547 2.178-1.748 8.682-1.891l5.902-.115.143 2.55c.086 2.15.23 2.78.917 3.897.43.745 1.318 1.719 1.948 2.149 1.032.659 1.49.773 3.238.773s2.206-.114 3.238-.773L74.538 89.12zm24.87-9.713c.659-1.117.831-1.748.917-3.868l.114-2.521h2.35c2.779 0 4.24-.573 5.558-2.178l-8.939 8.567zM60.9 26.087l.416.276v.001l-.001.002-.415-.28z" stroke="#E7C99F"/></g><defs><clipPath id="clip0_512_66"><path fill="#fff" d="M0 0h129v130H0z"/></clipPath></defs></svg>