<svg width="89" height="89" fill="none" xmlns="http://www.w3.org/2000/svg"><g clip-path="url(#clip0_351_2859)" fill="#E7C99F"><path d="M41.675.5c-3.325.85-7.025 4.225-7.95 7.2-.25.825-.5 1.025-2.25 1.875-3.575 1.7-5.85 4.725-6.5 8.6-.8 4.8 1.825 9.75 6.275 11.875 1.9.9 2.2 1.5 1.25 2.45-.95.95-1.55.65-2.475-1.275-1.575-3.325-4.7-5.625-8.45-6.25-4.925-.8-10 1.95-12.1 6.6-.75 1.725-.925 1.9-1.85 2.225-2.6.85-5.15 3.325-6.55 6.325C.45 41.475.4 41.9.375 44.5c0 2.725.05 2.975.8 4.55.45.95 1.225 2.2 1.75 2.85C4 53.2 6.375 54.875 7.7 55.275c.825.25 1.025.5 1.875 2.25 4.15 8.725 16.375 8.85 20.475.225.9-1.9 1.5-2.2 2.45-1.25.95.95.65 1.55-1.2 2.425-8.7 4.1-8.525 16.625.275 20.6 1.675.75 1.9.925 2.15 1.75.75 2.525 3.35 5.225 6.4 6.65 1.375.65 1.75.7 4.375.7 2.725 0 2.975-.05 4.575-.8.925-.45 2.2-1.225 2.8-1.725 1.3-1.05 3-3.475 3.4-4.85.25-.825.475-1.025 1.45-1.4 5.05-1.875 8.2-7.3 7.3-12.5-.65-3.725-2.975-6.825-6.275-8.4-1.9-.9-2.2-1.5-1.25-2.45.95-.95 1.55-.65 2.45 1.25 2.075 4.425 7.05 7.075 11.825 6.275 3.95-.65 7.15-3.05 8.725-6.6.8-1.725.9-1.85 2.025-2.25 1.625-.575 4.025-2.4 4.975-3.8.425-.625 1.075-1.775 1.45-2.575.6-1.275.675-1.7.675-4.3 0-2.625-.05-3-.7-4.375-1.4-3-4.15-5.65-6.65-6.4-.825-.25-1-.475-1.75-2.15-1.6-3.5-4.825-5.95-8.7-6.6-4.825-.8-9.8 1.85-11.9 6.3C58.05 33.15 57.45 33.45 56.5 32.5c-.95-.95-.65-1.55 1.275-2.475 4.45-2.1 7.05-7.025 6.25-11.8-.65-3.975-3.05-7.15-6.6-8.75-1.675-.75-1.9-.925-2.15-1.75C54.825 6.25 53.05 3.8 51.65 2.75 49.375 1.025 47.725.425 45.025.35 43.7.3 42.2.375 41.675.5zm6.775 3.1c2.5 1.275 4.45 3.85 4.925 6.425.15.85.25.925 1.175 1.075 1.125.175 2.675.9 3.875 1.8 1.775 1.325 3.325 4.6 3.325 6.95 0 4.125-3.35 8.175-7.225 8.8l-1.025.175v2.325c0 3.825.525 4.35 4.375 4.35 2.2 0 2.375-.025 2.375-.5 0-.75.9-2.95 1.65-4.05 1.425-2.025 4.675-3.7 7.225-3.7 2.625 0 5.875 1.675 7.325 3.8.75 1.1 1.55 3.1 1.55 3.925 0 .35.25.525.95.65 2.6.475 5.15 2.4 6.475 4.925.65 1.2.7 1.55.7 3.95 0 2.4-.05 2.75-.7 3.95-1.325 2.525-3.875 4.45-6.475 4.925-.7.125-.95.3-.95.65 0 .825-.8 2.825-1.55 3.925-1.45 2.1-4.7 3.8-7.3 3.8-4.1 0-8.175-3.375-8.8-7.225l-.175-1.025h-3.773a2.902 2.902 0 00-2.902 2.902v3.773l1.025.175c2.5.4 5.125 2.475 6.35 5.05.975 1.975 1.025 4.975.15 7.175-1.025 2.6-3.85 4.9-6.5 5.325-.9.15-1 .25-1.15 1.075-.475 2.575-2.4 5.125-4.925 6.45-1.2.65-1.55.7-3.95.7-2.4 0-2.75-.05-3.95-.7-2.525-1.325-4.45-3.875-4.925-6.45-.15-.85-.25-.925-1.175-1.075-1.125-.175-2.675-.9-3.875-1.8-1.775-1.325-3.325-4.6-3.325-6.975 0-2.525 1.475-5.45 3.575-7.1 1-.775 3.325-1.775 4.175-1.775.475 0 .5-.175.5-2.375 0-3.85-.525-4.375-4.35-4.375h-2.325l-.175 1.025c-.625 3.875-4.675 7.225-8.8 7.225-2.35 0-5.625-1.55-6.95-3.325-.9-1.2-1.625-2.75-1.8-3.875-.15-.925-.225-1.025-1.075-1.175-2.65-.475-5.3-2.55-6.475-5.075-.575-1.225-.675-1.75-.675-3.8s.1-2.575.675-3.8c1.175-2.5 3.825-4.575 6.475-5.05.825-.15.925-.25 1.075-1.175.175-1.15.9-2.7 1.8-3.9 1.325-1.775 4.6-3.325 6.95-3.325 4.1 0 8.175 3.35 8.8 7.225l.175 1.025h2.35c3.8 0 4.325-.525 4.325-4.35v-2.325l-1.025-.175c-3.875-.625-7.225-4.675-7.225-8.775 0-4.05 3.375-8.15 7.225-8.775.975-.15 1-.2 1.275-1.5.35-1.6 1.825-3.975 3.125-4.95.525-.4 1.6-1 2.35-1.325 1.2-.5 1.725-.575 3.65-.5 1.85.075 2.475.2 3.575.775z"/><path d="M42.125 3.575c-3.425 1.15-5.15 3.25-5.975 7.2-.125.55-.325.675-1.2.825-2.25.35-4.575 1.9-5.825 3.9-.85 1.35-1.175 2.6-1.175 4.5 0 3.975 3.05 7.525 7 8.15l1.05.175v2.725c0 4.4-.55 4.95-4.95 4.95h-2.725l-.175-1.05c-.425-2.65-2.375-5.175-4.9-6.3-1.8-.825-4.45-.925-6.225-.3-1.25.45-2.85 1.6-3.75 2.7-.75.925-1.75 3.35-1.775 4.25 0 .55-.15.725-.7.825-3.3.675-5.45 2.2-6.725 4.825-.6 1.225-.7 1.725-.7 3.55 0 1.775.1 2.35.65 3.5 1.2 2.5 3.35 4.15 6.125 4.75 1.25.275 1.3.3 1.425 1.25.325 2.4 2.35 5.175 4.575 6.275 5 2.4 11.125-.775 12-6.225l.175-1.05h2.725c4.4 0 4.95.55 4.95 4.95v2.725l-1.05.175c-3.95.625-7 4.2-7 8.15 0 2.625.75 4.4 2.575 6.225 1 .975 3.1 2.025 4.5 2.2.8.125 1 .25 1.125.8.625 3.05 1.65 4.7 3.775 6.1 5 3.3 11.55.5 12.825-5.475.275-1.25.3-1.3 1.25-1.425 2.425-.325 5.075-2.275 6.225-4.55 2.475-4.95-.7-11.15-6.175-12.025L53 60.675V57.95c0-4.4.55-4.95 4.95-4.95h2.725l.175 1.05c.875 5.5 7 8.625 12.075 6.175C75.1 59.175 77.1 56.4 77.425 54c.125-.925.15-.95 1.8-1.35 6.425-1.575 8.675-9.475 4.025-14.075-1.225-1.225-2.6-1.95-4.425-2.325-1.2-.275-1.325-.35-1.325-.95-.025-.9-1.025-3.325-1.775-4.25-1.7-2.05-3.9-3.075-6.65-3.075-4.05 0-7.575 3-8.225 6.975L60.675 36H57.95c-4.4 0-4.95-.55-4.95-4.95v-2.725l1.05-.175c4.45-.725 7.65-5.125 6.95-9.6-.575-3.5-3.475-6.425-6.925-6.95-1.025-.15-1.05-.175-1.325-1.45-.15-.7-.5-1.75-.775-2.325C51.325 6.5 49.3 4.6 47.8 3.95c-1.45-.65-4.275-.825-5.675-.375zm6.025.975c2.25 1.175 3.925 3.525 4.25 6.05.175 1.225.125 1.175 2.075 1.5 2.2.375 4.55 2.325 5.6 4.6.825 1.825.775 4.725-.15 6.6-1.15 2.35-3.55 4.125-6.05 4.425l-1.25.15-.075 2.875c-.075 3.3.225 4.225 1.675 5.2.8.525 1.1.55 3.875.5l3.025-.075.175-1.325a7.977 7.977 0 014.4-5.975c1.875-.925 4.775-.975 6.6-.15 2.275 1.05 4.225 3.4 4.6 5.6.325 1.95.275 1.9 1.5 2.075 5.3.725 8.425 6.45 6.15 11.275-1.175 2.45-3.5 4.175-6.15 4.525-1.075.15-1.15.225-1.3 1.075-.525 3.175-2.125 5.375-4.825 6.625-1.8.8-4.725.75-6.575-.175-2.35-1.15-4.125-3.55-4.425-6.05l-.15-1.25-2.875-.075c-3.2-.075-4.15.225-5.1 1.525-.475.625-.525 1.075-.525 3.875v3.175l1.25.15c2.5.3 4.9 2.075 6.05 4.425.925 1.85.975 4.775.175 6.575-1.25 2.7-3.45 4.3-6.625 4.825-.85.15-.925.225-1.075 1.3-.725 5.3-6.45 8.425-11.275 6.15-2.45-1.175-4.175-3.5-4.525-6.15-.15-1.075-.225-1.15-1.075-1.3-3.175-.525-5.375-2.125-6.625-4.825-.8-1.8-.75-4.725.175-6.575 1.15-2.35 3.425-4.025 5.975-4.4l1.325-.175V57.95c0-2.8-.05-3.25-.525-3.875-.95-1.3-1.9-1.6-5.1-1.525l-2.875.075-.15 1.25c-.3 2.5-2.075 4.9-4.425 6.05-1.875.925-4.775.975-6.6.15-2.275-1.05-4.225-3.4-4.6-5.6-.325-1.95-.275-1.9-1.5-2.075-5.3-.725-8.425-6.45-6.15-11.275 1.175-2.45 3.1-3.9 5.9-4.475l1.525-.325.15-1.25c.325-2.575 2.175-5 4.675-6.15 1.825-.825 4.725-.775 6.6.15 2.35 1.15 4.125 3.55 4.425 6.05l.15 1.25 3 .075c3.375.075 4.175-.2 5.125-1.75.45-.725.5-1.2.45-3.825l-.075-3-1.25-.15c-2.5-.3-4.9-2.075-6.05-4.425-.925-1.875-.975-4.775-.15-6.6 1.05-2.275 3.4-4.225 5.6-4.6 1.95-.325 1.9-.275 2.075-1.5.35-2.65 2.05-4.95 4.525-6.15 1.375-.675 1.675-.725 3.625-.625 1.675.075 2.4.225 3.4.725z"/><path d="M43.123 7.07l.004-.002c.968-.366 2.42-.247 3.595.352.943.49 1.554 1.06 1.942 1.818.396.771.586 1.787.586 3.212v2.478l.477.022 2.2.1h.003c.921.037 1.479.092 1.918.199.425.103.758.258 1.223.532l.004.002c.589.34 1.377 1.061 1.708 1.543.273.429.407.698.484 1.02.082.339.108.767.108 1.53 0 .762-.026 1.19-.108 1.53-.077.321-.21.59-.484 1.019-.331.482-1.119 1.203-1.708 1.542l-.004.003c-.465.274-.798.43-1.223.532-.44.106-.997.161-1.918.199h-.003l-2.2.1-.477.022V30.1c0 1.357.031 2.665.082 3.709.025.521.055.98.089 1.347.032.355.071.657.12.846l.002.006h0c.205.748.722 1.508 1.332 2.118.61.61 1.37 1.126 2.118 1.332l.006.001h0c.188.05.49.088.845.12.368.034.826.064 1.347.09 1.044.05 2.352.081 3.709.081h5.248l.026-.472.125-2.219v-.003c.063-.923.123-1.5.229-1.956.101-.44.248-.78.504-1.222.82-1.389 2.102-2.194 3.61-2.33.849-.07 1.529.003 2.127.222.598.218 1.15.595 1.724 1.18l.003.004c.57.57.935 1.118 1.165 1.792.234.685.339 1.529.339 2.704v2.23l.478.02 2.326.1h.003c1.035.038 1.606.075 2.031.17.395.087.673.227 1.107.52h.002c2.414 1.618 2.922 4.854 1.117 7.042v.001c-.532.647-1.072 1.064-1.743 1.327-.683.267-1.538.39-2.721.39h-2.528l-.022.478-.1 2.2v.002c-.037.921-.092 1.48-.199 1.918-.102.425-.258.759-.532 1.223l-.002.005c-.34.588-1.06 1.376-1.543 1.707-.429.274-.697.407-1.019.484-.34.082-.767.108-1.53.108s-1.19-.026-1.53-.108c-.322-.077-.59-.21-1.02-.484-.481-.33-1.202-1.119-1.542-1.708l-.004-.006-.003-.006c-.283-.46-.437-.79-.536-1.214-.104-.443-.153-1.006-.19-1.944v-.008h0l-.126-2.225-.027-.48-.482.008-5.15.1h-.001c-2.82.063-4.482.137-5.58.378-.564.123-1.003.295-1.386.543-.38.247-.678.553-.979.905l-.001.002c-.553.654-.878 1.445-1.068 2.68-.188 1.22-.25 2.918-.25 5.417v4.953l.477.022 2.2.1h.003c.921.037 1.479.093 1.918.199.425.103.758.258 1.223.532l.006.003h0c1.438.822 2.24 2.08 2.375 3.61.07.847-.003 1.527-.222 2.125-.218.599-.594 1.15-1.18 1.724l-.004.004c-.569.57-1.118.934-1.794 1.164-.689.234-1.539.34-2.727.34H49.25v2.55c0 1.222-.123 2.088-.39 2.774-.263.673-.679 1.206-1.327 1.739h-.001c-2.188 1.805-5.425 1.297-7.042-1.117v-.002c-.294-.433-.433-.712-.52-1.106-.095-.426-.133-.997-.17-2.032v-.003l-.1-2.325-.021-.479h-2.252c-2.005-.012-3.528-.552-4.513-1.445-.974-.883-1.48-2.163-1.365-3.794.104-1.386.617-2.427 1.49-3.158.886-.741 2.197-1.208 3.97-1.329h0l2.15-.15.452-.031.014-.452.075-2.375v-.006h0a74.778 74.778 0 00-.151-5.595s0 0 0 0l-.499.035c-.2-2.85-.275-3.25-.875-4.025L43.123 7.07zm0 0c-.688.253-1.17.495-1.565.795-.393.297-.726.67-1.093 1.214-.28.42-.413.692-.498 1.084-.092.423-.13.996-.167 2.03v.004l-.1 2.325-.021.478H37.45c-1.175 0-2.02.105-2.704.34-.674.23-1.223.595-1.792 1.164l-.004.003c-.586.574-.962 1.126-1.18 1.724-.219.599-.292 1.278-.222 2.127.136 1.53.937 2.787 2.375 3.608l.007.004.007.005c.46.282.79.436 1.215.535.442.104 1.005.153 1.943.19h0l.008.001 2.2.125.479.027-.007.48-.075 5.3v0l-.001.084c-.037 2.552-.056 3.893-.152 4.71-.05.426-.125.74-.245 1.025-.118.279-.272.508-.438.753v.002c-.408.597-1.18 1.373-1.773 1.742-.231.147-.454.28-.737.384-.283.103-.603.168-1.032.215-.841.09-2.202.115-4.714.152 0 0 0 0 0 0l-5.274.1-.481.01-.027-.482-.125-2.225h0v-.008c-.038-.937-.087-1.5-.191-1.943-.1-.424-.253-.755-.536-1.215h0l-.006-.01c-1.93-3.316-6.584-3.214-8.324.153h0l-.003.006c-.346.65-.518 1.433-.592 2.988 0 0 0 0 0 0l-.1 2.2-.021.476h-2.603c-1.19 0-1.999.106-2.648.357-.636.247-1.16.65-1.751 1.323l-.001.001c-.676.766-1.175 2.05-1.175 2.97 0 .483.169 1.17.447 1.847.278.675.631 1.257.947 1.564.633.584 1.055.892 1.579 1.085.541.2 1.23.292 2.428.354h.002l2.25.125.44.025.03.44.15 2.123s0 0 0 0c.088 1.203.18 1.91.356 2.455.169.522.424.92.902 1.482l.002.002c.887 1.055 2.272 1.59 3.665 1.575 1.394-.014 2.728-.577 3.529-1.63v-.001c.895-1.17 1.249-2.308 1.273-4.175v-2.157l.485-.014.818-.025c.278-.016 1.254-.022 2.506-.03.817-.005 1.751-.01 2.686-.02h.005c2.457 0 3.962.046 5 .308.537.136.964.331 1.342.613.372.277.675.623.98 1.024l4.55-44.301z" stroke="#E7C99F"/></g><defs><clipPath id="clip0_351_2859"><path fill="#fff" d="M0 0h89v89H0z"/></clipPath></defs></svg>