<svg width="134" height="40" viewBox="0 0 134 40" fill="none" xmlns="http://www.w3.org/2000/svg">
<g clip-path="url(#clip0_646_4669)">
<path d="M123.307 0.0122062H8.39551C7.64347 0.0244125 6.89143 0.0854439 6.15306 0.195301C5.41469 0.305157 4.69 0.52487 4.02 0.830027C3.35 1.13518 2.73469 1.53799 2.20143 2.01404C1.66816 2.49008 1.21694 3.02716 0.875102 3.63747C0.546939 4.23558 0.31449 4.87031 0.191429 5.52945C0.0683673 6.18859 0 6.85993 0 7.53128V32.4809C0 33.1523 0.0683673 33.8236 0.191429 34.4828C0.31449 35.1419 0.560612 35.7888 0.902449 36.3869C1.24429 36.9851 1.69551 37.5221 2.22878 37.9982C2.76204 38.4742 3.36367 38.877 4.04735 39.1822C4.71735 39.4873 5.42837 39.6948 6.18041 39.8169C6.91878 39.9268 7.67082 39.9878 8.42286 40H125.577C126.329 39.9878 127.081 39.9268 127.82 39.8169C128.558 39.7071 129.283 39.4873 129.953 39.1822C130.623 38.877 131.238 38.4864 131.771 37.9982C132.304 37.5221 132.742 36.9851 133.098 36.3869C133.426 35.7888 133.658 35.1419 133.795 34.4828C133.918 33.8236 133.986 33.1523 134 32.4809V8.44675V7.53128C133.986 6.85993 133.918 6.18859 133.795 5.52945C133.672 4.87031 133.426 4.23558 133.098 3.62527C132.756 3.02716 132.304 2.47788 131.771 2.00183C131.238 1.52579 130.623 1.12298 129.953 0.817821C129.283 0.512664 128.558 0.305157 127.82 0.183094C127.081 0.0732377 126.329 0.0122063 125.577 0L123.307 0.0122062Z" fill="#B7B7B7"/>
<path d="M9.96946 38.3648H8.96678C8.27574 38.3765 7.5847 38.3296 6.89367 38.2357C6.24328 38.1301 5.61999 37.9306 5.03735 37.6607C4.46826 37.4143 3.93981 37.0974 3.49267 36.6984C3.04553 36.3112 2.66614 35.8535 2.38159 35.349C2.0835 34.8444 1.88025 34.3046 1.77185 33.753C1.66345 33.1546 1.5957 32.5561 1.5957 31.9576V8.86375V8.00712C1.5957 7.40865 1.66345 6.79845 1.77185 6.21171C1.8667 5.64845 2.06995 5.10865 2.36804 4.59232C2.65259 4.08773 3.01843 3.64181 3.47912 3.24283C3.93981 2.85559 4.45471 2.52702 5.03735 2.28059C5.61999 2.02242 6.24328 1.8464 6.88012 1.75253C7.57115 1.65865 8.26219 1.59998 8.96678 1.59998H125.034C125.725 1.59998 126.416 1.65865 127.094 1.75253C127.744 1.8464 128.367 2.02242 128.95 2.28059C130.102 2.78518 131.037 3.59487 131.619 4.59232C131.904 5.09691 132.107 5.62498 132.216 6.17651C132.324 6.77498 132.392 7.37345 132.405 7.98365V31.9576C132.392 32.5561 132.324 33.1428 132.216 33.7413C132.107 34.3046 131.904 34.8444 131.619 35.349C131.335 35.8418 130.955 36.2877 130.508 36.6867C130.061 37.074 129.533 37.4025 128.95 37.649C128.367 37.9306 127.744 38.1301 127.094 38.2474C126.403 38.353 125.712 38.4 125.021 38.4H9.96946V38.3648Z" fill="black"/>
<path d="M27.6907 24.6951C27.3489 25.7927 26.8361 26.8414 26.1769 27.7805C25.2857 29.1219 24.3456 30.4268 22.8562 30.4512C21.3668 30.4756 20.9272 29.5975 19.2669 29.5975C17.6065 29.5975 17.0816 30.4268 15.6898 30.4756C14.2981 30.5244 13.1871 29.061 12.2592 27.7317C10.4036 25 9.0118 20.1097 10.9041 16.7805C11.7953 15.1341 13.5045 14.0853 15.3724 14.0122C16.7886 14.0122 18.1071 15.0122 18.9861 15.0122C19.8651 15.0122 21.4766 13.8293 23.1492 14.0122C24.7485 14.061 26.2257 14.8658 27.1536 16.1707C25.7008 17.0488 24.8095 18.6219 24.7973 20.3171C24.7729 22.2195 25.9205 23.9512 27.6907 24.6951ZM22.0016 12.2195C22.8074 11.2439 23.2102 9.99998 23.1126 8.73169C21.8673 8.86584 20.7319 9.4512 19.9017 10.3902C19.096 11.3171 18.6809 12.5244 18.7664 13.7439C20.0116 13.7561 21.208 13.1951 22.0016 12.2195Z" fill="white"/>
<path d="M42.29 27.1342H37.5653L36.4299 30.4878H34.4277L38.9082 18.0854H40.9959L45.4764 30.4878H43.4742L42.29 27.1342ZM38.0536 25.5854H41.8016L39.9948 20.1464H39.946L38.0536 25.5854ZM55.1577 25.9635C55.1577 28.7683 53.6438 30.5732 51.3731 30.5732C50.2011 30.6342 49.0901 30.0122 48.5285 28.9878V33.4635H46.624V21.4757H48.4186V22.9878C49.0168 21.9635 50.1278 21.3537 51.312 21.3903C53.6438 21.3415 55.1455 23.1464 55.1455 25.9878L55.1577 25.9635ZM53.241 25.9635C53.241 24.1342 52.2399 22.9635 50.8481 22.9635C49.4563 22.9635 48.4675 24.1952 48.4675 25.9635C48.4675 27.7317 49.4685 29.0122 50.8481 29.0122C52.2277 29.0122 53.241 27.8171 53.241 26V25.9635ZM65.1076 25.9635C65.1076 28.7683 63.6059 30.5732 61.3352 30.5732C60.1632 30.6342 59.0522 30.0122 58.4906 28.9878V33.4635H56.5861V21.4757H58.3807V22.9878C58.9789 21.9635 60.0777 21.3537 61.2619 21.3903C63.5937 21.3415 65.0954 23.1464 65.0954 25.9878L65.1076 25.9635ZM63.2031 25.9635C63.2031 24.1342 62.263 22.9635 60.8102 22.9635C59.3574 22.9635 58.4418 24.1952 58.4418 25.9635C58.4418 27.7317 59.394 28.9878 60.8102 28.9878C62.2264 28.9878 63.2031 27.8049 63.2031 25.9878V25.9635ZM71.7001 26.9878C71.8344 28.2196 73.0309 28.9878 74.7034 28.9878C76.376 28.9878 77.3893 28.183 77.3893 27.0732C77.3893 25.9635 76.7056 25.5366 75.0941 25.1342L73.4826 24.7439C71.1996 24.1952 70.1497 23.1342 70.1497 21.4025C70.1497 19.2561 72.0054 17.7927 74.6546 17.7927C77.3038 17.7927 79.0863 19.2561 79.1473 21.4025H77.2428C77.1329 20.1586 76.1074 19.4025 74.618 19.4025C73.1285 19.4025 72.103 20.1464 72.103 21.2561C72.103 22.122 72.7501 22.6464 74.3494 23.0488L75.7167 23.3781C78.2683 23.9757 79.3304 25 79.3304 26.8171C79.3304 29.1464 77.4747 30.5976 74.5325 30.5976C71.7856 30.5976 69.9177 29.183 69.8078 26.9391L71.7001 26.9878ZM83.3348 19.3049V21.4391H85.0562V22.9025H83.3348V27.8903C83.3348 28.6586 83.6766 29.0244 84.4336 29.0244C84.6411 29.0366 84.8364 29.0366 85.044 29.0244V30.4878C84.7144 30.5488 84.3847 30.5854 84.0429 30.5732C82.1994 30.5732 81.4913 29.8781 81.4913 28.122V22.9025H80.1362V21.4391H81.4547V19.3049H83.3348ZM86.0451 25.9878C86.0451 23.1464 87.7298 21.3537 90.3425 21.3537C92.9673 21.3537 94.6276 23.1464 94.6276 25.9878C94.6276 28.8293 92.9795 30.5976 90.3425 30.5976C87.7054 30.5976 86.0451 28.8171 86.0451 25.9878ZM92.7475 25.9878C92.7475 24.0366 91.8441 22.8781 90.3425 22.8781C88.8408 22.8781 87.9862 23.9878 87.9862 25.9878C87.9862 27.9878 88.8774 29.0976 90.3913 29.0976C91.8929 29.0976 92.7475 27.9147 92.7475 25.9878ZM96.1781 21.4635H97.9849V22.9878C98.2291 22 99.1448 21.3171 100.17 21.3659C100.39 21.3659 100.598 21.3903 100.805 21.4391V23.1708C100.549 23.061 100.268 23 99.9871 22.9878C98.9494 22.9147 98.046 23.683 97.9727 24.7196C97.9605 24.8537 97.9727 24.9757 97.9849 25.1098V30.4757H96.1781V21.4635ZM109.363 27.8659C109.119 29.5 107.508 30.6342 105.469 30.6342C102.832 30.6342 101.196 28.8659 101.196 26.0366C101.196 23.2074 102.832 21.3659 105.383 21.3659C107.935 21.3659 109.461 23.0854 109.461 25.8293V26.4635H103.064V26.5854C102.954 27.8781 103.918 29.0244 105.212 29.1342C105.31 29.1464 105.408 29.1464 105.505 29.1464C106.409 29.2318 107.251 28.7196 107.593 27.8781L109.363 27.8659ZM103.088 25.1586H107.617C107.678 23.9635 106.763 22.9391 105.566 22.8781C105.505 22.8781 105.457 22.8781 105.395 22.8781C104.138 22.8781 103.113 23.8781 103.088 25.1342V25.1586Z" fill="white"/>
<path d="M35.6963 8.93911C36.1358 8.65862 36.6852 8.4635 37.3689 8.4635C38.4676 8.4635 39.2368 9.03667 39.2368 10.0123C39.2368 10.7928 38.6752 11.3903 37.9305 11.5611V11.5855C38.8217 11.683 39.4809 12.2684 39.4809 13.183C39.4809 14.5001 38.3455 15.0245 37.1857 15.0245C36.6119 15.0245 36.0015 14.9025 35.5254 14.6098L35.7451 13.9635C36.087 14.1586 36.6486 14.3537 37.1735 14.3537C38.1136 14.3537 38.6385 13.8416 38.6385 13.1464C38.6385 12.1952 37.7229 11.9269 36.9172 11.9269H36.5387V11.305H36.9172C37.7595 11.305 38.4066 10.7928 38.4066 10.1342C38.4066 9.48789 37.9549 9.13423 37.2712 9.13423C36.7951 9.13423 36.2945 9.32935 35.9527 9.54887L35.6963 8.93911Z" fill="white"/>
<path d="M43.0702 14.9148L43.0091 14.3416H42.9847C42.7283 14.6953 42.24 15.0245 41.5929 15.0245C40.6651 15.0245 40.2012 14.3782 40.2012 13.7196C40.2012 12.6221 41.1778 12.0123 42.9481 12.0245V11.927C42.9481 11.5489 42.8504 10.866 41.9104 10.866C41.4831 10.866 41.0436 11.0001 40.7261 11.2074L40.543 10.6587C40.9215 10.4148 41.4709 10.2562 42.0446 10.2562C43.4364 10.2562 43.7783 11.2074 43.7783 12.1221V13.8294C43.7783 14.2196 43.8027 14.6099 43.8515 14.927H43.0702V14.9148ZM42.9481 12.5855C42.0446 12.5611 41.0191 12.7318 41.0191 13.6099C41.0191 14.1465 41.3732 14.4026 41.8005 14.4026C42.3987 14.4026 42.7772 14.0245 42.8992 13.6343C42.9237 13.5489 42.9481 13.4513 42.9481 13.366V12.5855Z" fill="white"/>
<path d="M47.868 10.3538V11.0245H45.8902V14.9147H45.0723V10.3538H47.868Z" fill="white"/>
<path d="M48.6597 11.8416C48.6597 11.2562 48.6353 10.7806 48.623 10.3538H49.3678L49.4044 11.1343H49.4288C49.7706 10.5733 50.3078 10.244 51.0525 10.244C52.1513 10.244 52.9815 11.1708 52.9815 12.5611C52.9815 14.1952 51.9804 15.0123 50.906 15.0123C50.3078 15.0123 49.7706 14.744 49.5021 14.2928H49.4776V16.7684H48.6597V11.8416ZM49.4776 13.0611C49.4776 13.183 49.5021 13.2928 49.5143 13.4026C49.6608 13.9757 50.1613 14.3782 50.7595 14.3782C51.6385 14.3782 52.1513 13.6587 52.1513 12.6221C52.1513 11.7074 51.6752 10.9269 50.7962 10.9269C50.2346 10.9269 49.6974 11.3294 49.5387 11.9513C49.5143 12.0489 49.4776 12.183 49.4776 12.2928V13.0611Z" fill="white"/>
<path d="M54.2296 10.3538L55.2307 13.0489C55.3284 13.3538 55.4504 13.7074 55.5237 13.9757H55.5481C55.6336 13.7074 55.7312 13.3538 55.8411 13.0245L56.7445 10.3538H57.6235L56.3783 13.5977C55.7801 15.1586 55.3772 15.9635 54.8156 16.4513C54.4127 16.805 54.0098 16.9513 53.8023 16.9879L53.5948 16.2928C53.8023 16.2318 54.0709 16.0977 54.3151 15.8903C54.547 15.7074 54.8278 15.3903 55.0109 14.9635C55.0476 14.8781 55.072 14.8172 55.072 14.7684C55.072 14.7196 55.0476 14.6586 55.0109 14.5489L53.3262 10.3538H54.2296Z" fill="white"/>
<path d="M58.7955 12.2684H59.1862C59.8821 12.2684 60.3582 11.9513 60.3582 11.5245C60.3582 11.1221 59.9919 10.866 59.467 10.866C59.1007 10.866 58.6856 10.9879 58.3682 11.1831L58.1607 10.6709C58.6246 10.3904 59.1495 10.2562 59.6745 10.2562C60.3704 10.2562 61.225 10.5611 61.225 11.4513C61.225 12.0123 60.7122 12.3782 60.1995 12.4879V12.5123C60.8831 12.5733 61.4447 12.9879 61.4447 13.6465C61.4447 14.6343 60.4314 15.0001 59.4792 15.0001C58.942 15.0001 58.4048 14.8538 58.002 14.6343L58.2217 14.0733C58.5513 14.2562 58.9908 14.3782 59.4303 14.3782C60.114 14.3782 60.5535 14.0489 60.5535 13.5977C60.5535 12.9879 59.9065 12.8172 59.2228 12.8172H58.8077V12.2684H58.7955Z" fill="white"/>
<path d="M63.2384 10.3538V12.2806C63.2384 13.0001 63.2262 13.4635 63.1895 14.1099L63.214 14.1221C63.4825 13.5611 63.6535 13.244 63.9465 12.7196L65.3749 10.366H66.3515V14.9269H65.558V13.0001C65.558 12.2562 65.5824 11.866 65.619 11.1342H65.5946C65.3016 11.7196 65.1063 12.0855 64.8377 12.5489C64.3982 13.2562 63.9098 14.1342 63.4093 14.9269H62.457V10.3538H63.2384Z" fill="white"/>
<path d="M70.7587 10.3538V11.0123H69.3303V14.9147H68.5124V11.0123H67.084V10.3538H70.7587Z" fill="white"/>
<path d="M71.8224 12.7806C71.8468 13.9026 72.5549 14.366 73.385 14.366C73.9832 14.366 74.3373 14.2684 74.6547 14.1343L74.8012 14.7318C74.5082 14.866 74.0077 15.0123 73.2874 15.0123C71.8834 15.0123 71.041 14.0855 71.041 12.7196C71.041 11.3538 71.8468 10.2562 73.1775 10.2562C74.6669 10.2562 75.0576 11.5611 75.0576 12.4026C75.0576 12.5733 75.0332 12.7074 75.0332 12.7928H71.8224V12.7806ZM74.2518 12.1953C74.264 11.6709 74.0321 10.8538 73.1042 10.8538C72.2619 10.8538 71.8956 11.6221 71.8346 12.1953H74.2518Z" fill="white"/>
<path d="M78.0605 10.4148C78.378 10.3538 78.9762 10.3173 79.5133 10.3173C80.2825 10.3173 81.54 10.4392 81.54 11.4514C81.54 12.0124 81.1004 12.366 80.5877 12.4758V12.5002C81.2592 12.5977 81.7475 12.9758 81.7475 13.6343C81.7475 14.8295 80.2337 14.9758 79.3424 14.9758C78.8297 14.9758 78.3047 14.9392 78.0605 14.9148V10.4148ZM78.8541 14.366C79.0861 14.3904 79.257 14.4026 79.5256 14.4026C80.0872 14.4026 80.9173 14.2685 80.9173 13.6099C80.9173 12.9514 80.2581 12.8051 79.4645 12.8051H78.8663V14.366H78.8541ZM78.8541 12.2685H79.4767C80.0871 12.2685 80.722 12.0856 80.722 11.549C80.722 11.0977 80.3313 10.8782 79.5011 10.8782C79.2326 10.8782 79.0616 10.9026 78.8541 10.9148V12.2685Z" fill="white"/>
</g>
<defs>
<clipPath id="clip0_646_4669">
<rect width="134" height="40" fill="white"/>
</clipPath>
</defs>
</svg>
