<svg width="134" height="40" viewBox="0 0 134 40" fill="none" xmlns="http://www.w3.org/2000/svg">
<g clip-path="url(#clip0_646_4649)">
<path d="M123.307 0.0122062H8.39551C7.64347 0.0244125 6.89143 0.0854439 6.15306 0.195301C5.41469 0.305157 4.69 0.52487 4.02 0.830027C3.35 1.13518 2.73469 1.53799 2.20143 2.01404C1.66816 2.49008 1.21694 3.02716 0.875102 3.63747C0.546939 4.23558 0.31449 4.87031 0.191429 5.52945C0.0683673 6.18859 0 6.85993 0 7.53128V32.4809C0 33.1523 0.0683673 33.8236 0.191429 34.4828C0.31449 35.1419 0.560612 35.7888 0.902449 36.3869C1.24429 36.9851 1.69551 37.5221 2.22878 37.9982C2.76204 38.4742 3.36367 38.877 4.04735 39.1822C4.71735 39.4873 5.42837 39.6948 6.18041 39.8169C6.91878 39.9268 7.67082 39.9878 8.42286 40H125.577C126.329 39.9878 127.081 39.9268 127.82 39.8169C128.558 39.7071 129.283 39.4873 129.953 39.1822C130.623 38.877 131.238 38.4864 131.771 37.9982C132.304 37.5221 132.742 36.9851 133.098 36.3869C133.426 35.7888 133.658 35.1419 133.795 34.4828C133.918 33.8236 133.986 33.1523 134 32.4809V8.44675V7.53128C133.986 6.85993 133.918 6.18859 133.795 5.52945C133.672 4.87031 133.426 4.23558 133.098 3.62527C132.756 3.02716 132.304 2.47788 131.771 2.00183C131.238 1.52579 130.623 1.12298 129.953 0.817821C129.283 0.512664 128.558 0.305157 127.82 0.183094C127.081 0.0732377 126.329 0.0122063 125.577 0L123.307 0.0122062Z" fill="#B7B7B7"/>
<path d="M9.96946 38.3648H8.96678C8.27574 38.3765 7.5847 38.3296 6.89367 38.2357C6.24328 38.1301 5.61999 37.9306 5.03735 37.6607C4.46826 37.4143 3.93981 37.0974 3.49267 36.6984C3.04553 36.3112 2.66614 35.8535 2.38159 35.349C2.0835 34.8444 1.88025 34.3046 1.77185 33.753C1.66345 33.1546 1.5957 32.5561 1.5957 31.9576V8.86375V8.00712C1.5957 7.40865 1.66345 6.79845 1.77185 6.21171C1.8667 5.64845 2.06995 5.10865 2.36804 4.59232C2.65259 4.08773 3.01843 3.64181 3.47912 3.24283C3.93981 2.85559 4.45471 2.52702 5.03735 2.28059C5.61999 2.02242 6.24328 1.8464 6.88012 1.75253C7.57115 1.65865 8.26219 1.59998 8.96678 1.59998H125.034C125.725 1.59998 126.416 1.65865 127.094 1.75253C127.744 1.8464 128.367 2.02242 128.95 2.28059C130.102 2.78518 131.037 3.59487 131.619 4.59232C131.904 5.09691 132.107 5.62498 132.216 6.17651C132.324 6.77498 132.392 7.37345 132.405 7.98365V31.9576C132.392 32.5561 132.324 33.1428 132.216 33.7413C132.107 34.3046 131.904 34.8444 131.619 35.349C131.335 35.8418 130.955 36.2877 130.508 36.6867C130.061 37.074 129.533 37.4025 128.95 37.649C128.367 37.9306 127.744 38.1301 127.094 38.2474C126.403 38.353 125.712 38.4 125.021 38.4H9.96946V38.3648Z" fill="black"/>
<path d="M10.3637 7.51721C10.0492 7.91721 9.88511 8.41376 9.92613 8.9241V31.0758C9.89878 31.5862 10.0629 32.0965 10.391 32.4827L10.4594 32.5655L22.7245 20.1655V19.862L10.432 7.44824L10.3637 7.51721Z" fill="url(#paint0_linear_646_4649)"/>
<path d="M26.7993 24.2896L22.7246 20.1517V19.8483L26.7993 15.7103L26.895 15.7655L31.7628 18.5517C33.1575 19.3379 33.1575 20.6483 31.7628 21.4483L26.9087 24.2345L26.7993 24.2896Z" fill="url(#paint1_linear_646_4649)"/>
<path d="M26.9238 24.2345L22.7261 20L10.3516 32.4828C10.9258 33.0069 11.7873 33.0345 12.4026 32.5517L26.9238 24.2345Z" fill="url(#paint2_linear_646_4649)"/>
<path d="M26.9238 15.7793L12.4163 7.46205C11.8009 6.97929 10.9395 7.00688 10.3652 7.51722L22.7397 20L26.9238 15.7793Z" fill="url(#paint3_linear_646_4649)"/>
<path d="M67.629 21.7517C65.2909 21.7517 63.4039 23.669 63.4039 26.0276C63.4039 28.3862 65.3045 30.2897 67.6427 30.2897C69.9809 30.2897 71.8678 28.3724 71.8678 26.0138C71.8951 23.6966 70.0629 21.7931 67.7658 21.7517C67.7247 21.7517 67.6837 21.7517 67.629 21.7517ZM67.629 28.5931C66.2207 28.6897 64.99 27.6138 64.8943 26.1931C64.7986 24.7724 65.8651 23.531 67.2735 23.4345C68.6819 23.3379 69.9125 24.4138 70.0082 25.8345C70.0082 25.8897 70.0082 25.9448 70.0082 26.0138C70.0766 27.3793 69.0374 28.5241 67.6837 28.5931C67.6837 28.5931 67.6564 28.5931 67.629 28.5931ZM58.3858 21.7517C56.0476 21.7517 54.1607 23.669 54.1607 26.0276C54.1607 28.3862 56.0613 30.2897 58.3994 30.2897C60.7376 30.2897 62.6245 28.3724 62.6245 26.0138C62.6519 23.6966 60.8196 21.7931 58.5225 21.7517C58.4815 21.7517 58.4268 21.7517 58.3858 21.7517ZM58.3858 28.5931C56.9774 28.6897 55.7468 27.6138 55.6511 26.1931C55.5554 24.7724 56.6219 23.531 58.0302 23.4345C59.4386 23.3379 60.6692 24.4138 60.7649 25.8345C60.7649 25.8897 60.7649 25.9448 60.7649 26.0138C60.8333 27.3793 59.7941 28.5241 58.4405 28.5931C58.4268 28.5931 58.3994 28.5931 58.3858 28.5931ZM47.3923 23.0621V24.869H51.6858C51.6174 25.7241 51.2619 26.5241 50.6876 27.1448C49.8125 28.0414 48.6092 28.5241 47.3786 28.469C44.7533 28.469 42.6202 26.3172 42.6202 23.669C42.6202 21.0207 44.7533 18.869 47.3786 18.869C48.5956 18.8552 49.7578 19.3103 50.6329 20.1655L51.8909 18.8966C50.7013 17.7103 49.0741 17.0483 47.3923 17.0759C43.7688 16.9379 40.7196 19.7793 40.5829 23.4345C40.4462 27.0897 43.2629 30.1655 46.8864 30.3034C47.0505 30.3034 47.2282 30.3034 47.3923 30.3034C49.1151 30.3724 50.7696 29.6965 51.9729 28.4552C53.0121 27.2965 53.5727 25.7793 53.518 24.2207C53.518 23.8483 53.4907 23.4759 53.4223 23.1034L47.3923 23.0621ZM92.3643 24.469C91.8311 22.8965 90.3953 21.8207 88.7545 21.7517C86.5668 21.7517 84.7756 23.531 84.7756 25.7517C84.7756 25.8345 84.7756 25.9172 84.7892 26.0138C84.7619 28.3586 86.6351 30.2621 88.946 30.2897C90.368 30.3034 91.708 29.5862 92.4874 28.3862L91.0517 27.3793C90.6141 28.1103 89.8211 28.5655 88.9733 28.5517C88.0982 28.5931 87.2778 28.069 86.9223 27.2552L92.5694 24.8965L92.3643 24.469ZM86.6078 25.8897C86.5258 24.6069 87.4966 23.4897 88.7682 23.4069C88.7819 23.4069 88.8092 23.4069 88.8229 23.4069C89.4792 23.3655 90.0945 23.7241 90.3817 24.3034L86.6078 25.8897ZM82.0135 30.0138H83.8731V17.5034H82.0135V30.0138ZM78.978 22.7034H78.9096C78.3353 22.0828 77.5286 21.7241 76.6809 21.7517C74.3427 21.8621 72.5515 23.8621 72.6609 26.2207C72.7703 28.4138 74.5068 30.1655 76.6809 30.2759C77.5286 30.2897 78.349 29.931 78.9096 29.269H78.978V29.8759C78.978 31.5034 78.1166 32.3724 76.7219 32.3724C75.7784 32.3448 74.9307 31.7517 74.5888 30.8552L72.9753 31.531C73.5907 33.0759 75.0674 34.0828 76.7219 34.0552C78.896 34.0552 80.6872 32.7586 80.6872 29.6138V21.9862H78.9643L78.978 22.7034ZM76.8449 28.5931C75.4366 28.5103 74.3564 27.2828 74.4521 25.8483C74.5341 24.5517 75.5596 23.5172 76.8449 23.4345C78.1576 23.4897 79.1694 24.6069 79.1147 25.931C79.1147 25.9586 79.1147 25.9862 79.1147 26.0138C79.2241 27.3241 78.267 28.4828 76.9543 28.5931C76.9133 28.5931 76.886 28.5931 76.8449 28.5931ZM101.061 17.5034H96.6168V30.0138H98.4764V25.269H101.061C103.194 25.4207 105.04 23.8069 105.19 21.669C105.34 19.531 103.741 17.6552 101.621 17.5034C101.43 17.4897 101.238 17.4897 101.061 17.5034ZM101.061 23.5034H98.4764V19.2414H101.102C102.278 19.2414 103.221 20.2069 103.221 21.3793C103.221 22.5655 102.264 23.5172 101.102 23.5172L101.061 23.5034ZM112.505 21.7103C111.124 21.6276 109.825 22.3724 109.196 23.6276L110.837 24.3172C111.179 23.6966 111.835 23.3517 112.533 23.4069C113.517 23.2965 114.406 24 114.515 24.9931C114.515 25.0069 114.515 25.0069 114.515 25.0207V25.1448C113.914 24.8276 113.257 24.6621 112.574 24.6621C110.81 24.6621 109.005 25.669 109.005 27.4897C109.073 29.0897 110.413 30.3172 111.999 30.2483C112.027 30.2483 112.054 30.2483 112.095 30.2483C113.039 30.3034 113.941 29.8345 114.461 29.0207H114.515V30.0276H116.307V25.2138C116.307 23.0207 114.652 21.7517 112.546 21.7517L112.505 21.7103ZM112.287 28.5655C111.685 28.5655 110.837 28.2483 110.837 27.5034C110.837 26.4965 111.89 26.1655 112.82 26.1655C113.408 26.1517 113.996 26.2897 114.502 26.5793C114.379 27.7103 113.435 28.5655 112.314 28.5793L112.287 28.5655ZM122.829 22L120.709 27.4207H120.655L118.453 22H116.471L119.78 29.5862L117.865 33.8069H119.848L124.88 22H122.829ZM106.147 30.0138H107.993V17.5034H106.147V30.0138Z" fill="white"/>
<path d="M45.3677 7.11731V12.2346L45.86 12.2483L45.8053 14.207H45.231L45.1763 12.8277H41.5938L41.5391 14.207H40.9648L40.9102 12.2483L41.334 12.2346C41.5391 11.8483 41.7579 11.4208 41.8946 10.9794C42.0861 10.3173 42.1681 9.55869 42.1681 8.56559V7.11731H45.3677ZM42.8655 8.80007C42.8655 9.72421 42.7834 10.4966 42.5783 11.1311C42.4553 11.5311 42.2775 11.9173 42.1134 12.2208H44.6293V7.72421H42.8655V8.80007Z" fill="white"/>
<path d="M51.5612 9.9173C51.5612 11.8897 50.3716 12.938 48.9222 12.938C47.4181 12.938 46.3652 11.7656 46.3652 10.0276C46.3652 8.20696 47.4865 7.02075 49.0042 7.02075C50.563 7.02075 51.5612 8.22075 51.5612 9.9173ZM47.1583 10.0139C47.1583 11.2414 47.8146 12.3311 48.9632 12.3311C50.1254 12.3311 50.7818 11.2552 50.7818 9.95868C50.7818 8.81385 50.1938 7.62765 48.9769 7.62765C47.7599 7.62765 47.1583 8.75868 47.1583 10.0139Z" fill="white"/>
<path d="M56.4849 12.6483C56.2114 12.7863 55.6781 12.9242 54.9808 12.9242C53.381 12.9242 52.1777 11.9035 52.1777 10.0276C52.1777 8.23454 53.381 7.02075 55.1449 7.02075C55.8559 7.02075 56.2934 7.17248 56.4986 7.26903L56.3208 7.87592C56.0473 7.73799 55.6508 7.64144 55.1722 7.64144C53.8459 7.64144 52.9571 8.49661 52.9571 10.0001C52.9571 11.407 53.7639 12.3035 55.1449 12.3035C55.5961 12.3035 56.0473 12.207 56.3345 12.069L56.4849 12.6483Z" fill="white"/>
<path d="M58.7678 7.738H57.0449V7.10352H61.2427V7.738H59.5061V12.8414H58.7678V7.738Z" fill="white"/>
<path d="M62.4181 7.11731L63.553 9.55869C63.6897 9.90352 63.8264 10.2346 63.9632 10.5656H63.9768C64.0726 10.2621 64.1819 9.9311 64.3324 9.5311L65.2211 7.11731H66.0005L64.8109 10.0552C64.4964 10.8139 64.1409 11.6966 63.7444 12.2346C63.3752 12.7035 62.965 12.938 62.4591 12.938C62.2677 12.938 62.1446 12.9242 62.0489 12.8828L62.1309 12.2759C62.1856 12.2897 62.2677 12.3035 62.4044 12.3035C62.9923 12.2897 63.3342 11.7242 63.5119 11.3242C63.5666 11.2001 63.553 11.1173 63.4846 10.9794L61.5977 7.11731H62.4181Z" fill="white"/>
<path d="M70.7056 7.11731V12.8414H69.9672V7.738H67.3282V12.8414H66.5898V7.11731H70.7056Z" fill="white"/>
<path d="M72.7149 7.11731V9.51731H75.4633V7.11731H76.2017V12.8414H75.4633V10.1518H72.7149V12.8414H71.9766V7.11731H72.7149Z" fill="white"/>
<path d="M82.3131 9.9173C82.3131 11.8897 81.1235 12.938 79.6741 12.938C78.17 12.938 77.1172 11.7656 77.1172 10.0276C77.1172 8.20696 78.2384 7.02075 79.7562 7.02075C81.3149 7.02075 82.3131 8.22075 82.3131 9.9173ZM77.9102 10.0139C77.9102 11.2414 78.5666 12.3311 79.7151 12.3311C80.8774 12.3311 81.5337 11.2552 81.5337 9.95868C81.5337 8.81385 80.9458 7.62765 79.7288 7.62765C78.5256 7.62765 77.9102 8.75868 77.9102 10.0139Z" fill="white"/>
<path d="M86.8398 7.18627C87.1543 7.11731 87.6603 7.06213 88.1799 7.06213C88.9182 7.06213 89.3831 7.18627 89.7386 7.47593C90.0394 7.69662 90.2035 8.04144 90.2035 8.48282C90.2035 9.03455 89.848 9.51731 89.2464 9.738V9.75179C89.7796 9.88972 90.4223 10.3449 90.4223 11.1863C90.4223 11.6828 90.2309 12.0552 89.9437 12.3311C89.5472 12.6897 88.9045 12.869 87.9884 12.869C87.4825 12.869 87.0996 12.8414 86.8535 12.8001V7.18627H86.8398ZM87.5782 9.5311H88.2482C89.0276 9.5311 89.4788 9.11731 89.4788 8.56558C89.4788 7.88972 88.9729 7.62765 88.2345 7.62765C87.8927 7.62765 87.7013 7.65524 87.5919 7.68282V9.5311H87.5782ZM87.5782 12.2759C87.7149 12.3035 87.9337 12.3035 88.1935 12.3035C88.9456 12.3035 89.6566 12.0277 89.6566 11.1863C89.6566 10.4001 88.9866 10.0828 88.1935 10.0828H87.5919V12.2759H87.5782Z" fill="white"/>
</g>
<defs>
<linearGradient id="paint0_linear_646_4649" x1="21.6479" y1="8.70666" x2="4.84697" y2="25.3618" gradientUnits="userSpaceOnUse">
<stop stop-color="#00A0FF"/>
<stop offset="0.01" stop-color="#00A1FF"/>
<stop offset="0.26" stop-color="#00BEFF"/>
<stop offset="0.51" stop-color="#00D2FF"/>
<stop offset="0.76" stop-color="#00DFFF"/>
<stop offset="1" stop-color="#00E3FF"/>
</linearGradient>
<linearGradient id="paint1_linear_646_4649" x1="33.5789" y1="19.9999" x2="9.56795" y2="19.9999" gradientUnits="userSpaceOnUse">
<stop stop-color="#FFE000"/>
<stop offset="0.41" stop-color="#FFBD00"/>
<stop offset="0.78" stop-color="#FFA500"/>
<stop offset="1" stop-color="#FF9C00"/>
</linearGradient>
<linearGradient id="paint2_linear_646_4649" x1="24.6433" y1="22.3003" x2="1.85505" y2="44.881" gradientUnits="userSpaceOnUse">
<stop stop-color="#FF3A44"/>
<stop offset="1" stop-color="#C31162"/>
</linearGradient>
<linearGradient id="paint3_linear_646_4649" x1="7.24909" y1="0.153217" x2="17.4217" y2="10.2376" gradientUnits="userSpaceOnUse">
<stop stop-color="#32A071"/>
<stop offset="0.07" stop-color="#2DA771"/>
<stop offset="0.48" stop-color="#15CF74"/>
<stop offset="0.8" stop-color="#06E775"/>
<stop offset="1" stop-color="#00F076"/>
</linearGradient>
<clipPath id="clip0_646_4649">
<rect width="134" height="40" fill="white"/>
</clipPath>
</defs>
</svg>
