<svg width="89" height="89" fill="none" xmlns="http://www.w3.org/2000/svg"><g clip-path="url(#clip0_470_371)" fill="#E7C99F"><path d="M41.675.5c-3.325.85-7.025 4.225-7.95 7.2-.25.825-.5 1.025-2.25 1.875-3.575 1.7-5.85 4.725-6.5 8.6-.8 4.8 1.825 9.75 6.275 11.875 1.9.9 2.2 1.5 1.25 2.45-.95.95-1.55.65-2.475-1.275-1.575-3.325-4.7-5.625-8.45-6.25-4.925-.8-10 1.95-12.1 6.6-.75 1.725-.925 1.9-1.85 2.225-2.6.85-5.15 3.325-6.55 6.325C.45 41.475.4 41.9.375 44.5c0 2.725.05 2.975.8 4.55.45.95 1.225 2.2 1.75 2.85C4 53.2 6.375 54.875 7.7 55.275c.825.25 1.025.5 1.875 2.25 4.15 8.725 16.375 8.85 20.475.225.9-1.9 1.5-2.2 2.45-1.25.95.95.65 1.55-1.2 2.425-8.7 4.1-8.525 16.625.275 20.6 1.675.75 1.9.925 2.15 1.75.75 2.525 3.35 5.225 6.4 6.65 1.375.65 1.75.7 4.375.7 2.725 0 2.975-.05 4.575-.8.925-.45 2.2-1.225 2.8-1.725 1.3-1.05 3-3.475 3.4-4.85.25-.825.475-1.025 1.45-1.4 5.05-1.875 8.2-7.3 7.3-12.5-.65-3.725-2.975-6.825-6.275-8.4-1.9-.9-2.2-1.5-1.25-2.45.95-.95 1.55-.65 2.45 1.25 2.075 4.425 7.05 7.075 11.825 6.275 3.95-.65 7.15-3.05 8.725-6.6.8-1.725.9-1.85 2.025-2.25 1.625-.575 4.025-2.4 4.975-3.8.425-.625 1.075-1.775 1.45-2.575.6-1.275.675-1.7.675-4.3 0-2.625-.05-3-.7-4.375-1.4-3-4.15-5.65-6.65-6.4-.825-.25-1-.475-1.75-2.15-1.6-3.5-4.825-5.95-8.7-6.6-4.825-.8-9.8 1.85-11.9 6.3C58.05 33.15 57.45 33.45 56.5 32.5c-.95-.95-.65-1.55 1.275-2.475 4.45-2.1 7.05-7.025 6.25-11.8-.65-3.975-3.05-7.15-6.6-8.75-1.675-.75-1.9-.925-2.15-1.75C54.825 6.25 53.05 3.8 51.65 2.75 49.375 1.025 47.725.425 45.025.35 43.7.3 42.2.375 41.675.5zm6.775 3.1c2.5 1.275 4.45 3.85 4.925 6.425.15.85.25.925 1.175 1.075 1.125.175 2.675.9 3.875 1.8 1.775 1.325 3.325 4.6 3.325 6.95 0 4.125-3.35 8.175-7.225 8.8l-1.025.175v2.325c0 3.825.525 4.35 4.375 4.35 2.2 0 2.375-.025 2.375-.5 0-.75.9-2.95 1.65-4.05 1.425-2.025 4.675-3.7 7.225-3.7 2.625 0 5.875 1.675 7.325 3.8.75 1.1 1.55 3.1 1.55 3.925 0 .35.25.525.95.65 2.6.475 5.15 2.4 6.475 4.925.65 1.2.7 1.55.7 3.95 0 2.4-.05 2.75-.7 3.95-1.325 2.525-3.875 4.45-6.475 4.925-.7.125-.95.3-.95.65 0 .825-.8 2.825-1.55 3.925-1.45 2.1-4.7 3.8-7.3 3.8-4.1 0-8.175-3.375-8.8-7.225l-.175-1.025h-3.773a2.902 2.902 0 00-2.902 2.902v3.773l1.025.175c2.5.4 5.125 2.475 6.35 5.05.975 1.975 1.025 4.975.15 7.175-1.025 2.6-3.85 4.9-6.5 5.325-.9.15-1 .25-1.15 1.075-.475 2.575-2.4 5.125-4.925 6.45-1.2.65-1.55.7-3.95.7-2.4 0-2.75-.05-3.95-.7-2.525-1.325-4.45-3.875-4.925-6.45-.15-.85-.25-.925-1.175-1.075-1.125-.175-2.675-.9-3.875-1.8-1.775-1.325-3.325-4.6-3.325-6.975 0-2.525 1.475-5.45 3.575-7.1 1-.775 3.325-1.775 4.175-1.775.475 0 .5-.175.5-2.375 0-3.85-.525-4.375-4.35-4.375h-2.325l-.175 1.025c-.625 3.875-4.675 7.225-8.8 7.225-2.35 0-5.625-1.55-6.95-3.325-.9-1.2-1.625-2.75-1.8-3.875-.15-.925-.225-1.025-1.075-1.175-2.65-.475-5.3-2.55-6.475-5.075-.575-1.225-.675-1.75-.675-3.8s.1-2.575.675-3.8c1.175-2.5 3.825-4.575 6.475-5.05.825-.15.925-.25 1.075-1.175.175-1.15.9-2.7 1.8-3.9 1.325-1.775 4.6-3.325 6.95-3.325 4.1 0 8.175 3.35 8.8 7.225l.175 1.025h2.35c3.8 0 4.325-.525 4.325-4.35v-2.325l-1.025-.175c-3.875-.625-7.225-4.675-7.225-8.775 0-4.05 3.375-8.15 7.225-8.775.975-.15 1-.2 1.275-1.5.35-1.6 1.825-3.975 3.125-4.95.525-.4 1.6-1 2.35-1.325 1.2-.5 1.725-.575 3.65-.5 1.85.075 2.475.2 3.575.775z"/><path d="M42.125 3.575c-3.425 1.15-5.15 3.25-5.975 7.2-.125.55-.325.675-1.2.825-2.25.35-4.575 1.9-5.825 3.9-.85 1.35-1.175 2.6-1.175 4.5 0 3.975 3.05 7.525 7 8.15l1.05.175v2.725c0 4.4-.55 4.95-4.95 4.95h-2.725l-.175-1.05c-.425-2.65-2.375-5.175-4.9-6.3-1.8-.825-4.45-.925-6.225-.3-1.25.45-2.85 1.6-3.75 2.7-.75.925-1.75 3.35-1.775 4.25 0 .55-.15.725-.7.825-3.3.675-5.45 2.2-6.725 4.825-.6 1.225-.7 1.725-.7 3.55 0 1.775.1 2.35.65 3.5 1.2 2.5 3.35 4.15 6.125 4.75 1.25.275 1.3.3 1.425 1.25.325 2.4 2.35 5.175 4.575 6.275 5 2.4 11.125-.775 12-6.225l.175-1.05h2.725c4.4 0 4.95.55 4.95 4.95v2.725l-1.05.175c-3.95.625-7 4.2-7 8.15 0 2.625.75 4.4 2.575 6.225 1 .975 3.1 2.025 4.5 2.2.8.125 1 .25 1.125.8.625 3.05 1.65 4.7 3.775 6.1 5 3.3 11.55.5 12.825-5.475.275-1.25.3-1.3 1.25-1.425 2.425-.325 5.075-2.275 6.225-4.55 2.475-4.95-.7-11.15-6.175-12.025L53 60.675V57.95c0-4.4.55-4.95 4.95-4.95h2.725l.175 1.05c.875 5.5 7 8.625 12.075 6.175C75.1 59.175 77.1 56.4 77.425 54c.125-.925.15-.95 1.8-1.35 6.425-1.575 8.675-9.475 4.025-14.075-1.225-1.225-2.6-1.95-4.425-2.325-1.2-.275-1.325-.35-1.325-.95-.025-.9-1.025-3.325-1.775-4.25-1.7-2.05-3.9-3.075-6.65-3.075-4.05 0-7.575 3-8.225 6.975L60.675 36H57.95c-4.4 0-4.95-.55-4.95-4.95v-2.725l1.05-.175c4.45-.725 7.65-5.125 6.95-9.6-.575-3.5-3.475-6.425-6.925-6.95-1.025-.15-1.05-.175-1.325-1.45-.15-.7-.5-1.75-.775-2.325C51.325 6.5 49.3 4.6 47.8 3.95c-1.45-.65-4.275-.825-5.675-.375zm6.025.975c2.25 1.175 3.925 3.525 4.25 6.05.175 1.225.125 1.175 2.075 1.5 2.2.375 4.55 2.325 5.6 4.6.825 1.825.775 4.725-.15 6.6-1.15 2.35-3.55 4.125-6.05 4.425l-1.25.15-.075 2.875c-.075 3.3.225 4.225 1.675 5.2.8.525 1.1.55 3.875.5l3.025-.075.175-1.325a7.977 7.977 0 014.4-5.975c1.875-.925 4.775-.975 6.6-.15 2.275 1.05 4.225 3.4 4.6 5.6.325 1.95.275 1.9 1.5 2.075 5.3.725 8.425 6.45 6.15 11.275-1.175 2.45-3.5 4.175-6.15 4.525-1.075.15-1.15.225-1.3 1.075-.525 3.175-2.125 5.375-4.825 6.625-1.8.8-4.725.75-6.575-.175-2.35-1.15-4.125-3.55-4.425-6.05l-.15-1.25-2.875-.075c-3.2-.075-4.15.225-5.1 1.525-.475.625-.525 1.075-.525 3.875v3.175l1.25.15c2.5.3 4.9 2.075 6.05 4.425.925 1.85.975 4.775.175 6.575-1.25 2.7-3.45 4.3-6.625 4.825-.85.15-.925.225-1.075 1.3-.725 5.3-6.45 8.425-11.275 6.15-2.45-1.175-4.175-3.5-4.525-6.15-.15-1.075-.225-1.15-1.075-1.3-3.175-.525-5.375-2.125-6.625-4.825-.8-1.8-.75-4.725.175-6.575 1.15-2.35 3.425-4.025 5.975-4.4l1.325-.175V57.95c0-2.8-.05-3.25-.525-3.875-.95-1.3-1.9-1.6-5.1-1.525l-2.875.075-.15 1.25c-.3 2.5-2.075 4.9-4.425 6.05-1.875.925-4.775.975-6.6.15-2.275-1.05-4.225-3.4-4.6-5.6-.325-1.95-.275-1.9-1.5-2.075-5.3-.725-8.425-6.45-6.15-11.275 1.175-2.45 3.1-3.9 5.9-4.475l1.525-.325.15-1.25c.325-2.575 2.175-5 4.675-6.15 1.825-.825 4.725-.775 6.6.15 2.35 1.15 4.125 3.55 4.425 6.05l.15 1.25 3 .075c3.375.075 4.175-.2 5.125-1.75.45-.725.5-1.2.45-3.825l-.075-3-1.25-.15c-2.5-.3-4.9-2.075-6.05-4.425-.925-1.875-.975-4.775-.15-6.6 1.05-2.275 3.4-4.225 5.6-4.6 1.95-.325 1.9-.275 2.075-1.5.35-2.65 2.05-4.95 4.525-6.15 1.375-.675 1.675-.725 3.625-.625 1.675.075 2.4.225 3.4.725z"/><path d="M39.549 55.665c.126 1.766.176 4.28.15 5.595v.006l-.074 2.375-.014.452-.451.031-2.15.15h-.001c-1.773.12-3.084.588-3.97 1.329-.873.73-1.386 1.772-1.49 3.159-.116 1.63.391 2.91 1.365 3.793.985.893 2.508 1.433 4.513 1.445h2.252l.02.479.1 2.325v.003c.038 1.035.076 1.606.17 2.032.088.394.227.673.52 1.106l.001.002c1.617 2.414 4.854 2.922 7.042 1.118v-.001c.65-.533 1.065-1.066 1.327-1.74.268-.685.391-1.551.391-2.774V74h2.275c1.188 0 2.038-.105 2.727-.339.676-.23 1.225-.595 1.794-1.164l.004-.004c.586-.574.962-1.125 1.18-1.724.219-.598.292-1.278.222-2.126-.135-1.53-.937-2.787-2.375-3.609h0l-.006-.003c-.465-.274-.798-.43-1.223-.532-.44-.106-.997-.162-1.918-.199h-.003l-2.2-.1-.477-.022v-4.953c0-2.499.062-4.196.25-5.416.19-1.236.515-2.026 1.068-2.681l.001-.002c.3-.352.6-.658.98-.905.382-.248.821-.42 1.385-.543 1.098-.241 2.76-.315 5.58-.377h.001l5.15-.1.482-.01.027.481.125 2.225h0v.008c.038.938.087 1.501.191 1.944.1.424.253.755.536 1.214l.004.006.003.006c.34.59 1.06 1.377 1.543 1.708.428.274.697.407 1.019.484.34.082.767.108 1.53.108s1.19-.026 1.53-.108c.322-.077.59-.21 1.02-.484.481-.33 1.202-1.119 1.542-1.708l.002-.004c.274-.464.43-.798.532-1.223.107-.439.162-.997.2-1.918v-.002l.1-2.2.021-.478H76.6c1.183 0 2.038-.123 2.72-.39.672-.263 1.212-.68 1.744-1.327h0c1.805-2.189 1.297-5.425-1.117-7.042l-.002-.001c-.434-.293-.712-.433-1.107-.52-.425-.095-.996-.132-2.031-.17h-.004l-2.325-.1-.478-.02v-2.23c0-1.175-.105-2.019-.339-2.704-.23-.674-.595-1.223-1.165-1.792l-.003-.004c-.574-.585-1.126-.962-1.724-1.18-.598-.219-1.278-.292-2.126-.221-1.508.135-2.791.94-3.611 2.329-.256.442-.403.783-.504 1.222-.106.457-.166 1.032-.229 1.956v.003l-.125 2.22-.026.471H58.9c-1.357 0-2.665-.031-3.709-.081-.521-.026-.98-.056-1.347-.09a5.99 5.99 0 01-.845-.12h0l-.006-.002c-.748-.205-1.509-.721-2.118-1.331-.61-.61-1.127-1.37-1.332-2.118h0l-.002-.006a6.002 6.002 0 01-.12-.846 32.312 32.312 0 01-.09-1.347 79.738 79.738 0 01-.081-3.709v-5.277l.477-.022 2.2-.1h.003c.921-.038 1.479-.093 1.918-.2.425-.102.758-.257 1.223-.531l.004-.003c.589-.34 1.377-1.06 1.708-1.542.273-.43.407-.698.484-1.02.082-.34.108-.767.108-1.53 0-.762-.026-1.19-.108-1.53-.077-.321-.21-.59-.484-1.019-.331-.482-1.12-1.203-1.708-1.543l-.004-.002c-.465-.274-.798-.43-1.223-.532-.44-.107-.997-.162-1.918-.199h-.003l-2.2-.1-.477-.022V12.45c0-1.425-.19-2.44-.586-3.212-.388-.758-1-1.329-1.943-1.818-1.175-.599-2.627-.717-3.594-.352l-.004.002L39.05 55.7m.499-.035l-.499.035m.499-.035s0 0 0 0l-.499.035m.499-.035c-.1-1.412-.17-2.265-.298-2.86-.137-.641-.345-1.002-.679-1.434m.478 4.33c-.2-2.85-.275-3.25-.875-4.026m.397-.304l.002.002-.399.302m.397-.304c-.305-.401-.608-.747-.98-1.024-.378-.282-.805-.477-1.341-.613-1.039-.262-2.544-.309-5.001-.309h-.005c-.935.01-1.87.016-2.686.021-1.252.008-2.228.014-2.506.03m12.519 1.895l-.002-.002-.395.306m0 0l-12.122-2.2m0 0h.007l.015.5m-.022-.5l5.197.45c-.958.01-1.908.016-2.731.022-1.238.007-2.189.013-2.444.028m-.022-.5l-.818.026-.485.014v2.157c-.024 1.867-.378 3.005-1.272 4.175h-.001c-.801 1.054-2.135 1.617-3.529 1.631-1.393.015-2.778-.52-3.666-1.575l-.001-.002c-.478-.562-.733-.96-.902-1.483-.176-.545-.268-1.251-.355-2.453v-.001l-.15-2.124-.031-.44-.44-.024-2.25-.125h-.002c-1.198-.062-1.887-.155-2.428-.354-.524-.193-.946-.5-1.58-1.085-.315-.307-.668-.889-.946-1.564-.278-.676-.447-1.364-.447-1.848 0-.918.499-2.203 1.175-2.969h0c.592-.674 1.116-1.077 1.752-1.324.65-.251 1.457-.357 2.648-.357h2.603l.021-.477.1-2.199s0 0 0 0c.075-1.555.246-2.339.592-2.988l.003-.006h0c1.74-3.367 6.393-3.47 8.324-.153l.006.01h0c.283.46.437.79.536 1.215.104.442.153 1.006.19 1.943v.008h0l.126 2.225.027.481.481-.009 5.273-.1s0 0 0 0c2.512-.037 3.874-.062 4.715-.153.43-.046.75-.111 1.032-.214a3.65 3.65 0 00.737-.384c.594-.369 1.365-1.145 1.772-1.742l.001-.002c.166-.245.32-.474.438-.753.12-.285.194-.599.245-1.024.096-.818.115-2.159.152-4.711l.001-.084v0l.075-5.3.007-.48-.479-.027-2.2-.125h-.008 0c-.938-.038-1.501-.087-1.944-.19-.424-.1-.754-.253-1.214-.537l-.007-.004-.007-.004c-1.438-.822-2.24-2.078-2.375-3.608L25.25 51.675V50l.825-.025m-.022-.5l-.007.001.029.5M40.05 8.8l.416.278v.001h-.001L40.05 8.8z" stroke="#E7C99F"/></g><defs><clipPath id="clip0_470_371"><path fill="#fff" d="M0 0h89v89H0z"/></clipPath></defs></svg>