<svg width="38" height="38" fill="none" xmlns="http://www.w3.org/2000/svg"><path fill-rule="evenodd" clip-rule="evenodd" d="M32.977 23.737a.594.594 0 01-.47.695l-2.677.516.642 2.393a.594.594 0 11-1.148.308l-.806-3.01a.594.594 0 01.461-.736l3.303-.637a.594.594 0 01.695.47zM9.267 12.556a.594.594 0 01-.347.702l-2.568 1.06a.594.594 0 01-.454-1.097l2.087-.862-.609-2.274a.594.594 0 011.147-.307l.744 2.777zM30.336 9.35c.31.109.473.447.364.757l-.9 2.572 2.39.65a.594.594 0 11-.311 1.146l-3.006-.817a.594.594 0 01-.405-.77l1.112-3.174a.594.594 0 01.756-.364zM8.743 24.213a.594.594 0 01.432.653L8.8 27.62a.594.594 0 01-1.177-.161l.306-2.237-2.272-.618a.594.594 0 11.312-1.146l2.775.755zm7.724-19.801a.594.594 0 01.838.06l1.785 2.06 1.752-1.752a.594.594 0 01.84.84l-2.203 2.203a.594.594 0 01-.869-.031L16.408 5.25a.594.594 0 01.06-.838zm2.173 26.124a.594.594 0 01.781-.05l2.203 1.694a.594.594 0 11-.724.941l-1.79-1.376-1.665 1.664a.594.594 0 11-.84-.84l2.034-2.033z" fill="#75C4FE"/><path fill-rule="evenodd" clip-rule="evenodd" d="M33.446 27a.792.792 0 01-1.082.29L5.216 11.616a.792.792 0 11.792-1.372l27.148 15.674a.792.792 0 01.29 1.082z" fill="#75C4FE"/><path fill-rule="evenodd" clip-rule="evenodd" d="M32.082 21.022a.792.792 0 01-.49 1.007l-4.28 1.472.532 4.412a.792.792 0 01-1.572.19l-.608-5.048a.792.792 0 01.529-.843l4.883-1.68a.792.792 0 011.006.49zm-19.376-6.56a.792.792 0 01-.478.841L8.1 17.03a.792.792 0 01-.611-1.46l3.563-1.49-.607-4.296a.792.792 0 011.568-.221l.692 4.9zm20.686-3.875a.792.792 0 01-.294 1.08L5.892 27.24a.792.792 0 11-.786-1.374l27.206-15.573a.792.792 0 011.08.294z" fill="#75C4FE"/><path fill-rule="evenodd" clip-rule="evenodd" d="M27.54 8.758a.792.792 0 01.623.93l-.88 4.439 4.08 1.76a.792.792 0 11-.628 1.454l-4.667-2.014a.792.792 0 01-.463-.881L26.61 9.38a.792.792 0 01.93-.622zM12.121 22.2a.79.79 0 01.486.837l-.585 4.435a.792.792 0 01-1.57-.207l.506-3.829L6.94 21.8a.792.792 0 01.597-1.466l4.583 1.867zM19.06 2.375a.79.79 0 01.79.792v31.348a.792.792 0 11-1.583 0V3.167c0-.438.355-.792.792-.792z" fill="#75C4FE"/><path fill-rule="evenodd" clip-rule="evenodd" d="M14.564 6.545a.792.792 0 011.117-.078l3.415 2.969L22.65 6.77a.792.792 0 01.95 1.266l-4.067 3.05a.792.792 0 01-.994-.036l-3.898-3.389a.792.792 0 01-.078-1.116zm4.007 20.06a.792.792 0 01.968-.006l3.558 2.71a.792.792 0 11-.96 1.26l-3.071-2.34-3.416 2.673a.792.792 0 01-.976-1.247l3.897-3.05z" fill="#75C4FE"/><path fill-rule="evenodd" clip-rule="evenodd" d="M14.405 10.967a.792.792 0 01.712-.063l3.98 1.592 4.312-1.277a.791.791 0 011.005.623l.633 3.638 2.859 2.7a.792.792 0 01-.016 1.166l-3.038 2.718-1.128 4.51a.792.792 0 01-1.083.533l-3.624-1.575-3.953 1.264a.792.792 0 01-1.03-.693l-.309-4.007-3.727-2.33a.792.792 0 01-.056-1.304l3.78-2.835.312-4.049a.792.792 0 01.37-.611zm1.125 1.807l-.257 3.332a.792.792 0 01-.314.572l-3.143 2.357 3.088 1.93c.213.134.35.36.37.61l.261 3.408 3.283-1.05a.792.792 0 01.557.028l3.04 1.322.96-3.838a.791.791 0 01.24-.398l2.577-2.307-2.424-2.29a.792.792 0 01-.236-.439l-.525-3.021-3.723 1.103a.791.791 0 01-.519-.024l-3.235-1.295z" fill="#75C4FE"/><path fill-rule="evenodd" clip-rule="evenodd" d="M19.045 12.74a.594.594 0 01.539.316l1.34 2.53 3.162-.302a.594.594 0 01.576.88l-1.519 2.733 1.494 2.24a.594.594 0 01-.494.924H20.96l-1.364 2.88a.594.594 0 01-1.074-.002l-1.214-2.58-2.72-.302a.594.594 0 01-.429-.92l1.475-2.212-1.814-2.72a.594.594 0 01.554-.92l2.971.297 1.177-2.501a.594.594 0 01.523-.341zm.045 1.922l-.85 1.805a.594.594 0 01-.595.338l-2.14-.214 1.337 2.005c.133.2.133.46 0 .659l-1.153 1.73 2.08.23a.598.598 0 01.472.338l.82 1.743.987-2.083a.594.594 0 01.536-.34h2.45l-1.08-1.618a.594.594 0 01-.025-.618l1.147-2.064-2.436.232a.594.594 0 01-.58-.313l-.97-1.83z" fill="#48AAF1"/></svg>