<svg width="159" height="50" fill="none" xmlns="http://www.w3.org/2000/svg"><g clip-path="url(#clip0_1212_8528)" fill="#E7C99F"><path d="M23.413.281c-1.868.478-3.946 2.374-4.466 4.045-.14.464-.281.576-1.264 1.053-2.009.956-3.287 2.655-3.652 4.832-.45 2.697 1.025 5.477 3.525 6.671 1.068.506 1.236.843.703 1.377-.534.533-.871.365-1.39-.717-.886-1.868-2.641-3.16-4.748-3.51-2.767-.45-5.618 1.095-6.798 3.707-.421.97-.52 1.067-1.039 1.25-1.46.477-2.893 1.868-3.68 3.553-.35.759-.379.998-.393 2.458 0 1.531.028 1.672.45 2.556.252.534.688 1.236.983 1.601.603.73 1.938 1.672 2.682 1.897.464.14.576.28 1.053 1.264 2.332 4.901 9.2 4.972 11.503.126.506-1.067.843-1.236 1.377-.702.533.534.365.87-.675 1.362-4.887 2.303-4.789 9.34.155 11.573.941.422 1.067.52 1.208.983.421 1.419 1.882 2.936 3.595 3.736.773.365.983.394 2.458.394 1.531 0 1.672-.029 2.57-.45.52-.253 1.236-.688 1.573-.969.73-.59 1.686-1.952 1.91-2.725.141-.463.267-.576.815-.786 2.837-1.054 4.607-4.101 4.101-7.023-.365-2.092-1.671-3.834-3.525-4.719-1.067-.505-1.236-.843-.702-1.376.534-.534.87-.365 1.376.702 1.166 2.486 3.96 3.975 6.643 3.525 2.22-.365 4.017-1.713 4.902-3.708.45-.969.506-1.039 1.138-1.264.913-.323 2.261-1.348 2.795-2.134.239-.351.604-.998.814-1.447.338-.716.38-.955.38-2.416 0-1.474-.029-1.685-.394-2.458-.786-1.685-2.331-3.174-3.736-3.595-.463-.14-.561-.267-.983-1.208-.899-1.966-2.71-3.343-4.887-3.708-2.711-.45-5.506 1.04-6.686 3.54-.491 1.053-.828 1.221-1.362.688-.534-.534-.365-.871.716-1.39 2.5-1.18 3.96-3.947 3.511-6.63-.365-2.233-1.713-4.017-3.708-4.916-.94-.421-1.067-.52-1.207-.983-.253-.829-1.25-2.205-2.037-2.795C27.74.576 26.812.24 25.295.197c-.744-.028-1.587.014-1.882.084zm3.806 1.742c1.405.716 2.5 2.163 2.767 3.61.084.477.14.519.66.603.632.099 1.503.506 2.177 1.011.998.745 1.868 2.585 1.868 3.905 0 2.317-1.882 4.593-4.059 4.944l-.576.098V17.5c0 2.15.295 2.444 2.458 2.444 1.236 0 1.335-.014 1.335-.28 0-.422.505-1.658.927-2.276.8-1.138 2.626-2.079 4.058-2.079 1.475 0 3.301.941 4.116 2.135.421.618.87 1.742.87 2.205 0 .197.14.295.534.365 1.46.267 2.894 1.349 3.638 2.767.365.674.393.87.393 2.22 0 1.348-.028 1.544-.393 2.218-.744 1.419-2.177 2.5-3.638 2.767-.393.07-.533.169-.533.365 0 .464-.45 1.587-.871 2.205-.815 1.18-2.64 2.135-4.101 2.135-2.304 0-4.593-1.896-4.944-4.059l-.099-.576h-2.12a1.63 1.63 0 00-1.63 1.63v2.12l.576.099c1.405.224 2.88 1.39 3.568 2.837.547 1.11.576 2.795.084 4.03-.576 1.461-2.163 2.754-3.652 2.992-.505.084-.562.14-.646.604-.267 1.447-1.348 2.88-2.767 3.624-.674.365-.87.393-2.219.393-1.348 0-1.545-.028-2.219-.393-1.418-.745-2.5-2.177-2.767-3.624-.084-.477-.14-.52-.66-.604-.632-.098-1.503-.505-2.177-1.011-.997-.744-1.868-2.584-1.868-3.919 0-1.418.829-3.061 2.009-3.988.561-.436 1.868-.997 2.345-.997.267 0 .281-.099.281-1.335 0-2.163-.295-2.458-2.444-2.458h-1.306l-.098.576c-.351 2.177-2.627 4.06-4.944 4.06-1.32 0-3.16-.872-3.905-1.869-.505-.674-.912-1.545-1.01-2.177-.085-.52-.127-.576-.605-.66-1.488-.267-2.977-1.432-3.637-2.85-.323-.69-.38-.984-.38-2.136 0-1.151.057-1.446.38-2.135.66-1.404 2.149-2.57 3.637-2.837.464-.084.52-.14.604-.66.099-.646.506-1.517 1.011-2.19.745-.998 2.585-1.869 3.905-1.869 2.303 0 4.593 1.882 4.944 4.06l.098.575h1.32c2.135 0 2.43-.295 2.43-2.444v-1.306l-.576-.098c-2.177-.351-4.059-2.627-4.059-4.93 0-2.275 1.896-4.579 4.06-4.93.547-.084.561-.112.715-.843.197-.898 1.026-2.233 1.756-2.78.295-.225.899-.562 1.32-.745.674-.28.97-.323 2.05-.28 1.04.041 1.391.112 2.01.435z"/><path d="M23.666 2.009c-1.924.646-2.893 1.825-3.357 4.044-.07.31-.182.38-.674.464-1.264.197-2.57 1.067-3.272 2.191-.478.758-.66 1.46-.66 2.528 0 2.233 1.713 4.228 3.932 4.579l.59.098v1.531c0 2.472-.309 2.78-2.78 2.78h-1.532l-.098-.589c-.239-1.489-1.334-2.907-2.753-3.54-1.011-.463-2.5-.519-3.497-.168-.702.253-1.601.899-2.107 1.517-.421.52-.983 1.882-.997 2.388 0 .309-.084.407-.393.463-1.854.38-3.062 1.236-3.778 2.71-.337.689-.394.97-.394 1.995 0 .997.057 1.32.366 1.966.674 1.405 1.882 2.332 3.44 2.669.703.154.731.168.801.702.183 1.349 1.32 2.908 2.57 3.525 2.81 1.349 6.25-.435 6.742-3.497l.098-.59h1.531c2.472 0 2.781.31 2.781 2.781v1.531l-.59.098c-2.219.352-3.932 2.36-3.932 4.58 0 1.474.421 2.471 1.446 3.496.562.548 1.742 1.138 2.528 1.236.45.07.562.14.632.45.351 1.713.927 2.64 2.121 3.427 2.81 1.854 6.489.28 7.205-3.076.155-.702.169-.73.702-.8 1.363-.183 2.852-1.279 3.498-2.557 1.39-2.78-.394-6.264-3.47-6.756l-.59-.098v-1.53c0-2.473.31-2.782 2.782-2.782h1.53l.099.59c.491 3.09 3.932 4.846 6.783 3.47 1.222-.59 2.346-2.15 2.529-3.498.07-.52.084-.534 1.01-.758 3.61-.885 4.874-5.323 2.262-7.907-.688-.689-1.46-1.096-2.486-1.307-.674-.154-.744-.196-.744-.533-.014-.506-.576-1.868-.997-2.388-.956-1.152-2.191-1.728-3.736-1.728-2.276 0-4.256 1.686-4.621 3.919l-.099.59h-1.53c-2.472 0-2.781-.31-2.781-2.781v-1.53l.59-.1c2.5-.407 4.297-2.879 3.904-5.393-.323-1.966-1.952-3.61-3.89-3.904-.576-.084-.59-.098-.745-.815a7.128 7.128 0 00-.435-1.306c-.365-.744-1.503-1.812-2.346-2.177-.814-.365-2.401-.463-3.188-.21zm3.385.547c1.264.66 2.205 1.98 2.388 3.4.098.687.07.66 1.165.842 1.236.21 2.556 1.306 3.146 2.584.464 1.025.436 2.655-.084 3.708-.646 1.32-1.994 2.317-3.399 2.486l-.702.084-.042 1.615c-.042 1.854.126 2.374.94 2.922.45.295.619.309 2.178.28l1.7-.041.098-.745a4.482 4.482 0 012.471-3.357c1.054-.52 2.683-.547 3.708-.084 1.279.59 2.374 1.91 2.585 3.146.182 1.096.154 1.068.842 1.166 2.978.407 4.733 3.623 3.455 6.334-.66 1.377-1.966 2.346-3.455 2.542-.604.085-.646.127-.73.604-.295 1.784-1.194 3.02-2.71 3.722-1.012.45-2.655.421-3.694-.098-1.32-.646-2.318-1.994-2.486-3.399l-.085-.702-1.615-.042c-1.798-.043-2.331.126-2.865.856-.267.351-.295.604-.295 2.177v1.784l.702.084c1.405.169 2.753 1.166 3.4 2.486.519 1.04.547 2.683.097 3.694-.702 1.517-1.938 2.416-3.721 2.71-.478.085-.52.127-.604.731-.408 2.978-3.624 4.733-6.335 3.455-1.376-.66-2.345-1.966-2.542-3.455-.084-.604-.126-.646-.604-.73-1.783-.295-3.02-1.194-3.722-2.71-.45-1.012-.421-2.655.099-3.695.646-1.32 1.924-2.261 3.356-2.472l.745-.098v-1.784c0-1.573-.028-1.825-.295-2.177-.534-.73-1.067-.899-2.865-.856l-1.615.042-.085.702c-.168 1.405-1.165 2.753-2.486 3.399-1.053.52-2.682.548-3.708.084-1.278-.59-2.373-1.91-2.584-3.146-.182-1.095-.154-1.067-.843-1.166-2.977-.407-4.733-3.623-3.455-6.334.66-1.376 1.742-2.19 3.315-2.514l.857-.183.084-.702c.183-1.446 1.222-2.809 2.626-3.455 1.026-.463 2.655-.435 3.708.084 1.32.646 2.318 1.995 2.486 3.4l.085.701 1.685.043c1.896.042 2.345-.113 2.88-.984.252-.407.28-.674.252-2.148l-.042-1.686-.702-.084c-1.405-.169-2.753-1.166-3.4-2.486-.519-1.053-.547-2.683-.084-3.708.59-1.278 1.91-2.373 3.146-2.584 1.096-.183 1.068-.155 1.166-.843.197-1.489 1.152-2.78 2.542-3.455.773-.38.941-.407 2.037-.351.94.042 1.348.126 1.91.407z"/><path d="M24.306 4.176l-.004.001c-.375.139-.623.266-.822.416-.196.148-.367.337-.564.63-.148.222-.208.349-.248.533-.047.215-.068.517-.09 1.102v.004l-.055 1.306-.021.478H21.04c-.65 0-1.096.059-1.448.179-.341.116-.622.3-.923.602l-.004.003c-.312.306-.502.59-.61.888-.11.298-.15.646-.113 1.1.07.785.477 1.429 1.225 1.856l.007.004.007.004c.246.152.41.226.617.275.227.053.524.08 1.051.101h.009l1.235.07.479.028-.007.479-.042 2.977h0l-.001.074c-.02 1.41-.031 2.172-.087 2.643-.03.252-.075.45-.153.635a2.616 2.616 0 01-.263.456l-.003.004-.001.002c-.243.356-.697.815-1.06 1.04-.133.085-.274.17-.456.237-.181.066-.38.106-.631.133-.486.052-1.263.066-2.668.087h-.001l-2.962.056-.481.009-.027-.481-.07-1.25h0v-.008c-.022-.527-.05-.825-.102-1.05-.049-.209-.123-.372-.274-.618h0l-.007-.01c-1-1.717-3.395-1.66-4.292.076h0l-.003.005c-.171.321-.266.721-.307 1.586 0 0 0 0 0 0l-.056 1.235-.022.478H6.925c-.66 0-1.082.059-1.409.186-.314.121-.581.322-.898.683l-.001.001c-.347.393-.605 1.064-.605 1.523 0 .232.083.588.234.954.15.366.335.66.48.804.348.32.56.47.813.563.27.1.627.15 1.3.185h.001l1.264.07.44.025.031.44.084 1.192s0 0 0 0c.05.677.1 1.05.19 1.328.082.255.206.454.465.758l.002.002c.45.534 1.16.815 1.889.807.73-.007 1.41-.302 1.81-.83h.001c.468-.612.656-1.201.67-2.214v-1.423l.485-.015.457-.014a58.97 58.97 0 011.433-.016l1.49-.012v0h.006c1.372 0 2.248.025 2.863.18.324.082.591.203.83.381.233.174.418.386.594.618.203.262.336.494.422.893.076.353.116.85.171 1.637.072.999.1 2.418.086 3.163h0v.006l-.042 1.334-.015.452-.45.031-1.208.085h-.001c-.968.066-1.654.319-2.104.695-.439.367-.705.893-.76 1.623-.06.859.205 1.508.696 1.953.502.455 1.298.748 2.388.755h1.475l.02.479.057 1.306v.003c.021.586.042.886.09 1.102.041.185.104.316.26.547l.001.001c.84 1.253 2.51 1.509 3.634.58h.001c.342-.28.55-.551.68-.887.136-.349.205-.804.205-1.48v-1.65h1.497c.657 0 1.107-.06 1.461-.18.343-.116.623-.3.924-.601h0l.004-.004c.312-.306.502-.589.61-.887.11-.299.15-.647.113-1.1-.07-.786-.477-1.43-1.225-1.856h0l-.006-.004c-.251-.148-.418-.224-.627-.275-.225-.054-.52-.084-1.035-.105h-.003l-1.236-.057-.477-.021v-2.992c0-1.404.034-2.373.143-3.077.11-.72.304-1.206.65-1.614v-.002a2.75 2.75 0 01.598-.55 2.5 2.5 0 01.85-.335c.643-.141 1.6-.182 3.178-.217h.001l2.893-.056.482-.01.027.482.07 1.25h0v.008c.022.527.05.824.102 1.05.049.208.123.371.274.618l.004.006.004.006c.175.304.556.719.798.886.23.147.357.207.502.242.163.039.38.054.809.054.428 0 .645-.015.808-.054.145-.035.272-.095.502-.242.242-.166.623-.582.799-.886l.002-.004c.148-.251.224-.418.275-.628.054-.224.085-.519.106-1.035v-.002l.056-1.236.022-.477h1.629c.652 0 1.101-.069 1.449-.205.336-.131.61-.34.89-.68h0c.928-1.126.672-2.796-.58-3.635l-.002-.001c-.231-.157-.362-.22-.547-.26-.216-.048-.516-.069-1.102-.09h-.003l-1.306-.057-.479-.02V21.04c0-.65-.058-1.097-.178-1.449-.117-.34-.301-.622-.602-.923l-.004-.003c-.305-.312-.589-.502-.887-.61-.298-.11-.647-.15-1.1-.113-.775.07-1.433.48-1.859 1.201a2.105 2.105 0 00-.258.626c-.055.237-.089.544-.124 1.063v.002l-.07 1.245-.026.472H33.09c-.765 0-1.504-.018-2.094-.046a18.474 18.474 0 01-.766-.051 3.536 3.536 0 01-.51-.074h0l-.006-.002c-.469-.128-.928-.445-1.287-.804-.36-.36-.676-.818-.805-1.287h0l-.001-.006a3.552 3.552 0 01-.074-.51c-.02-.21-.037-.472-.05-.767a44.872 44.872 0 01-.047-2.094v-3.174l.477-.022 1.236-.056h.003c.515-.02.81-.051 1.035-.106.21-.05.376-.127.627-.275l.004-.002c.304-.175.72-.556.886-.798.148-.231.207-.357.242-.503.039-.162.054-.38.054-.808 0-.429-.015-.646-.054-.808-.035-.146-.095-.272-.242-.503-.167-.242-.582-.623-.886-.798l-.004-.002a2.142 2.142 0 00-.627-.275c-.225-.055-.52-.085-1.035-.106h-.003l-1.236-.056-.477-.022V6.995c0-.785-.105-1.316-.305-1.705-.192-.376-.497-.667-.997-.926-.616-.314-1.367-.368-1.842-.188z" stroke="#E7C99F"/></g><path d="M56.176 22.144a.467.467 0 01-.24-.096c-.08-.064-.12-.128-.12-.192 0-.144.152-.76.456-1.848.4-1.504.768-3.048 1.104-4.632l.24-1.2c.096-.416.16-.824.192-1.224.016-.144.024-.336.024-.576 0-.528-.048-1.072-.144-1.632a24.534 24.534 0 00-.432-2.184l-.384-1.656a3.011 3.011 0 00-.168-.624l-.144-.48c-.16-.544-.256-.984-.288-1.32.144-.208.272-.312.384-.312.128 0 .232.04.312.12a.38.38 0 01.144.24c.016.048.024.168.024.36.016.096.024.2.024.312l.576 2.856.168.84c.064.384.136.776.216 1.176.08.4.152.776.216 1.128.096-.736.408-2.528.936-5.376l.048-.36c.048-.368.112-.72.192-1.056a1.09 1.09 0 01.192-.432c.096-.112.192-.168.288-.168.288 0 .432.088.432.264 0 .128-.048.312-.144.552l-.168.408c-.224.88-.552 2.392-.984 4.536l-.24 1.296a48.17 48.17 0 00-.192 1.296c-.032.288-.048.48-.048.576l1.272 6.48.264 1.224.048.288c.032.128.048.28.048.456 0 .336-.128.504-.384.504h-.216a.378.378 0 01-.144-.096c-.048-.048-.072-.12-.072-.216 0-.288-.04-.728-.12-1.32 0-.016-.04-.248-.12-.696.016.064-.024-.144-.12-.624l-.168-.864c-.368-1.856-.6-2.936-.696-3.24-.064.112-.296 1.088-.696 2.928-.4 1.824-.656 3.064-.768 3.72l-.024.168-.048.288a1.68 1.68 0 01-.12.24.144.144 0 01-.096.096.931.931 0 00-.12.048l-.192.024zm7.615.144c-.176-1.008-.264-2.16-.264-3.456 0-.512.024-1.256.072-2.232l.048-2.232c-.112-.224-.168-.408-.168-.552.16-.256.24-.992.24-2.208 0-2.912-.04-4.464-.12-4.656.144-.4.256-.6.336-.6h1.056c.176 0 .424.088.744.264.336.16.616.336.84.528.4.368.6 1.312.6 2.832 0 .816-.024 1.44-.072 1.872-.032.304-.088.544-.168.72a3.107 3.107 0 01-.312.6c-.24.368-.648.688-1.224.96-.24.128-.576.256-1.008.384v2.856c0 .4.04 1.184.12 2.352l.048.768.048 1.56c0 .288-.152.432-.456.432l-.36-.192zm.768-8.592c.464 0 .856-.216 1.176-.648.112-.16.216-.376.312-.648s.16-.536.192-.792A8 8 0 0066.383 10v-.648c0-.224-.008-.44-.024-.648a3.612 3.612 0 00-.096-.6 1.364 1.364 0 00-.264-.504 1.125 1.125 0 00-.408-.36 1.543 1.543 0 00-.696-.144c-.192 0-.328.048-.408.144-.08.096-.12.264-.12.504 0 .384.024.96.072 1.728l.048 1.728c0 .416-.016.792-.048 1.128l-.048 1.128.168.24zm9.928 8.52c-.24 0-.392-.032-.456-.096-.064-.048-.112-.192-.144-.432a262.392 262.392 0 01-.264-2.184l-.12-.96a5.438 5.438 0 00-1.2-.12l-.864-.048a7.609 7.609 0 00-.84-.072c-.096 0-.152.04-.168.12 0 .048-.008.072-.024.072l-.048.48c-.016.288-.104.864-.264 1.728-.08.432-.176.768-.288 1.008-.128.272-.248.408-.36.408-.096 0-.2-.04-.312-.12-.112-.096-.168-.192-.168-.288l.024-.072.024-.072c.288-1.136.528-2.264.72-3.384l.288-1.488.288-1.824.264-1.584c.08-.432.224-1.128.432-2.088.224-1.088.36-1.832.408-2.232.016-.048.048-.344.096-.888.064-.608.12-1.056.168-1.344.048-.416.096-.656.144-.72h.168a.532.532 0 00.168.024c.192 0 .336-.048.432-.144.112 0 .208.04.288.12.096.064.144.144.144.24 0 .768.056 1.648.168 2.64.064.512.112.936.144 1.272.176 2.064.624 5.936 1.344 11.616v.072c0 .16-.064.28-.192.36zm-1.104-4.32c-.16-2.304-.464-5.704-.912-10.2l-1.296 6.408c-.368 1.84-.552 3-.552 3.48 0 .08.304.152.912.216.608.064 1.144.096 1.608.096h.24zm13.38 5.352c-.32 0-.48-.512-.48-1.536v-1.584c0-2.304-.048-4.104-.144-5.4l-.072-.888a6.784 6.784 0 01-.096-1.056c0-.544.016-1.04.048-1.488l.048-1.488c0-.496-.032-.872-.096-1.128-.32.224-1.288 3.592-2.904 10.104l-.024.36c-.048.4-.112.72-.192.96a.9.9 0 01-.216.408.363.363 0 01-.288.144c-.256 0-.44-.064-.552-.192-.112-.128-.168-.328-.168-.6 0-.432-.208-1.552-.624-3.36-.4-1.808-.84-3.544-1.32-5.208-.464-1.664-.784-2.584-.96-2.76-.016.56-.08 1.88-.192 3.96-.224 3.68-.336 6.576-.336 8.688l.024.96c-.064.208-.232.312-.504.312-.048 0-.128-.048-.24-.144-.112-.08-.168-.144-.168-.192 0-1.44.128-3.968.384-7.584.24-3.36.36-5.88.36-7.56 0-.08-.016-.16-.048-.24a.553.553 0 01-.072-.216c0-.24.208-.36.624-.36.272 0 .432.12.48.36.064.32.096.56.096.72l.024.288c.08.416.312 1.056.696 1.92.304.688.536 1.288.696 1.8.096.384.184.696.264.936.256.928.424 1.616.504 2.064l.312.624c.048.24.144.632.288 1.176.144.608.248 1.104.312 1.488.064.384.096.752.096 1.104.176-.272.672-1.904 1.488-4.896.832-3.008 1.32-4.928 1.464-5.76a.267.267 0 00.024-.12c.016-.064.032-.144.048-.24.032-.208.104-.52.216-.936.128-.32.32-.48.576-.48.112 0 .24.048.384.144.144.096.216.192.216.288 0 6.672.104 10.2.312 10.584v1.248c-.016.368-.024.792-.024 1.272 0 1.024.056 1.792.168 2.304.016.016.024.04.024.072a.931.931 0 01.048.12.892.892 0 01.024.216.977.977 0 01-.168.528c-.096.176-.216.264-.36.264zM85.97 8.536h-.024l-.048.024.072.024v-.048zM96.225 22a.606.606 0 01-.408-.144.52.52 0 01-.12-.408c.032-.384.048-.68.048-.888 0-.608-.08-1.552-.24-2.832a54.965 54.965 0 01-.216-2.904 450.927 450.927 0 01-.264-5.304c-.032-.624-.064-1.776-.096-3.456v-.552a18.85 18.85 0 01-.024-1.128.662.662 0 01.144-.36.467.467 0 01.312-.168c.336-.016 1.024 0 2.064.048.24 0 .392.032.456.096.144.112.2.256.168.432a.287.287 0 01-.216.168c-.08.016-.304.024-.672.024h-1.128c-.128 0-.216.048-.264.144-.048.08-.072.232-.072.456a18.447 18.447 0 00.072 1.704c.032.448.048.76.048.936.064 2.976.128 5.208.192 6.696.016.32.048.672.096 1.056.048.368.08.624.096.768l.096.864c.208 1.968.344 3.376.408 4.224a.452.452 0 01-.144.384.46.46 0 01-.336.144zm9.692.216c-.24 0-.392-.032-.456-.096-.064-.048-.112-.192-.144-.432a262.392 262.392 0 01-.264-2.184l-.12-.96a5.438 5.438 0 00-1.2-.12l-.864-.048a7.609 7.609 0 00-.84-.072c-.096 0-.152.04-.168.12 0 .048-.008.072-.024.072l-.048.48c-.016.288-.104.864-.264 1.728-.08.432-.176.768-.288 1.008-.128.272-.248.408-.36.408-.096 0-.2-.04-.312-.12-.112-.096-.168-.192-.168-.288l.024-.072.024-.072c.288-1.136.528-2.264.72-3.384l.288-1.488.288-1.824.264-1.584c.08-.432.224-1.128.432-2.088.224-1.088.36-1.832.408-2.232.016-.048.048-.344.096-.888.064-.608.12-1.056.168-1.344.048-.416.096-.656.144-.72h.168a.532.532 0 00.168.024c.192 0 .336-.048.432-.144.112 0 .208.04.288.12.096.064.144.144.144.24 0 .768.056 1.648.168 2.64.064.512.112.936.144 1.272.176 2.064.624 5.936 1.344 11.616v.072c0 .16-.064.28-.192.36zm-1.104-4.32c-.16-2.304-.464-5.704-.912-10.2l-1.296 6.408c-.368 1.84-.552 3-.552 3.48 0 .08.304.152.912.216.608.064 1.144.096 1.608.096h.24zm4.283 4.368a.46.46 0 01-.336-.144.543.543 0 01-.12-.36l-.024-.744c0-.576.048-1.424.144-2.544.08-1.248.12-2.088.12-2.52l-.024-1.08c-.016-.32-.024-.672-.024-1.056 0-.64.024-1.592.072-2.856.048-1.296.072-2.256.072-2.88l-.024-1.392-.096-.12v-.144c0-.416.168-.624.504-.624.256 0 .672.104 1.248.312.592.192.888.352.888.48v.072c.288.464.48.928.576 1.392.112.464.168 1.056.168 1.776 0 1.168-.128 2.12-.384 2.856h.024a6.81 6.81 0 01-.384.624l-.336.504c.288.224.528.552.72.984.208.432.336.848.384 1.248.016.144.032.32.048.528.016.208.032.456.048.744l.024.624v.336c0 1.536-.48 2.672-1.44 3.408-.496.384-1.112.576-1.848.576zm.744-8.928c1.056 0 1.584-1.064 1.584-3.192 0-.176-.016-.52-.048-1.032l-.024-.456-.048-.048c-.064-.528-.152-.944-.264-1.248-.08-.224-.208-.4-.384-.528a.89.89 0 00-.576-.216c-.352 0-.528 1.048-.528 3.144 0 .4.008.672.024.816v1.296c-.016.256-.024.544-.024.864v.288l.048.144.048.168h.192zm-.36 7.992c.384 0 .736-.128 1.056-.384.336-.256.6-.584.792-.984.192-.416.288-.824.288-1.224l.024-.096v-.456c0-.672-.056-1.312-.168-1.92-.176-.816-.488-1.408-.936-1.776a1.401 1.401 0 00-.912-.312 56.38 56.38 0 00-.12 3.264v.552c0 .464.024.832.072 1.104-.08.144-.12.528-.12 1.152v.624l.024.456zm6.365.96c-.176-1.008-.264-2.16-.264-3.456 0-.512.024-1.256.072-2.232l.048-2.232c-.112-.224-.168-.408-.168-.552.16-.256.24-.992.24-2.208 0-2.912-.04-4.464-.12-4.656.144-.4.256-.6.336-.6h1.056c.176 0 .424.088.744.264.336.16.616.336.84.528.4.368.6 1.312.6 2.832 0 .816-.024 1.44-.072 1.872-.032.304-.088.544-.168.72a3.107 3.107 0 01-.312.6c-.24.368-.648.688-1.224.96-.24.128-.576.256-1.008.384v2.856c0 .4.04 1.184.12 2.352l.048.768.048 1.56c0 .288-.152.432-.456.432l-.36-.192zm.768-8.592c.464 0 .856-.216 1.176-.648.112-.16.216-.376.312-.648s.16-.536.192-.792a8 8 0 00.144-1.608v-.648c0-.224-.008-.44-.024-.648a3.612 3.612 0 00-.096-.6 1.364 1.364 0 00-.264-.504 1.125 1.125 0 00-.408-.36 1.543 1.543 0 00-.696-.144c-.192 0-.328.048-.408.144-.08.096-.12.264-.12.504 0 .384.024.96.072 1.728l.048 1.728c0 .416-.016.792-.048 1.128l-.048 1.128.168.24zM122.846 22c-.208 0-.352-.04-.432-.12-.08-.096-.12-.248-.12-.456-.144-7.616-.28-12.024-.408-13.224-.048-.304-.104-.76-.168-1.368-.016-.208.024-.368.12-.48a.548.548 0 01.432-.192c.304 0 .456.208.456.624-.016.56.016 2.056.096 4.488.032.896.048 1.736.048 2.52 0 1.072.024 2.416.072 4.032l.168 2.304.192-.24a234.125 234.125 0 001.68-4.56c.672-1.872 1.072-3.008 1.2-3.408l.312-.768c.256-.64.464-1.208.624-1.704.096-.288.224-.752.384-1.392.128-.464.256-.888.384-1.272.128-.4.24-.64.336-.72a.57.57 0 01.264-.096.62.62 0 01.288-.024c.048.016.096.072.144.168.048.08.072.16.072.24.016.272.016.576 0 .912V9.16c0 .624.032 1.56.096 2.808.032.4.064 1.016.096 1.848.016.288.024.712.024 1.272 0 .864-.008 1.504-.024 1.92l-.024 1.944c0 .768.024 1.536.072 2.304v.048c0 .112-.056.216-.168.312a.662.662 0 01-.36.144.644.644 0 01-.384-.12.387.387 0 01-.12-.336l.072-1.776.144-3.72v-.72a269.6 269.6 0 01-.072-4.272c-.016-1.632-.016-2.464 0-2.496l-.168-.024-1.656 4.584c-1.44 4.064-2.568 7.096-3.384 9.096l-.288.024zm10.781 0c-.208 0-.352-.04-.432-.12-.08-.096-.12-.248-.12-.456-.144-7.616-.28-12.024-.408-13.224-.048-.304-.104-.76-.168-1.368-.016-.208.024-.368.12-.48a.548.548 0 01.432-.192c.304 0 .456.208.456.624-.016.56.016 2.056.096 4.488.032.896.048 1.736.048 2.52 0 1.072.024 2.416.072 4.032l.168 2.304.192-.24a234.125 234.125 0 001.68-4.56c.672-1.872 1.072-3.008 1.2-3.408l.312-.768c.256-.64.464-1.208.624-1.704.096-.288.224-.752.384-1.392.128-.464.256-.888.384-1.272.128-.4.24-.64.336-.72a.57.57 0 01.264-.096.62.62 0 01.288-.024c.048.016.096.072.144.168.048.08.072.16.072.24.016.272.016.576 0 .912V9.16c0 .624.032 1.56.096 2.808.032.4.064 1.016.096 1.848.016.288.024.712.024 1.272 0 .864-.008 1.504-.024 1.92l-.024 1.944c0 .768.024 1.536.072 2.304v.048c0 .112-.056.216-.168.312a.662.662 0 01-.36.144.644.644 0 01-.384-.12.387.387 0 01-.12-.336l.072-1.776.144-3.72v-.72a269.6 269.6 0 01-.072-4.272c-.016-1.632-.016-2.464 0-2.496l-.168-.024-1.656 4.584c-1.44 4.064-2.568 7.096-3.384 9.096l-.288.024zm9.821-.144c-.192.112-.352.168-.48.168-.192 0-.312-.096-.36-.288v-.072c0-.112.064-.208.192-.288.128-.096.216-.16.264-.192a2.52 2.52 0 00.696-.936c.176-.368.352-.864.528-1.488.32-1.232.48-2.64.48-4.224 0-.4-.016-1-.048-1.8-.048-.992-.088-2.136-.12-3.432-.032-1.296-.04-2.12-.024-2.472a.184.184 0 00-.072.024h-.12c-.352 0-.528-.08-.528-.24 0-.176.128-.312.384-.408.24-.096.512-.136.816-.12h1.752c.544 0 .848-.008.912-.024.4-.032.688.008.864.12.176.112.264.328.264.648 0 .144-.008.256-.024.336-.064.464-.096 1-.096 1.608l.024 1.704c0 .976-.008 1.704-.024 2.184l-.024 2.208v.72c0 .928.048 2.336.144 4.224 0 .24.016.512.048.816.032.288.056.496.072.624v.096c0 .16-.032.272-.096.336-.048.064-.152.104-.312.12h-.048a.543.543 0 01-.36-.12c-.08-.08-.12-.2-.12-.36l.024-1.512c.016-.592.024-1.48.024-2.664l-.072-6.312.024-1.488c0-.64-.024-1.256-.072-1.848 0-.096-.048-.288-.144-.576H145.2l.096 1.896.072 1.392c.064 2.272.096 3.976.096 5.112-.032 1.728-.28 3.32-.744 4.776-.272.816-.696 1.4-1.272 1.752zm13.75.36c-.24 0-.392-.032-.456-.096-.064-.048-.112-.192-.144-.432a262.392 262.392 0 01-.264-2.184l-.12-.96a5.438 5.438 0 00-1.2-.12l-.864-.048a7.609 7.609 0 00-.84-.072c-.096 0-.152.04-.168.12 0 .048-.008.072-.024.072l-.048.48c-.016.288-.104.864-.264 1.728-.08.432-.176.768-.288 1.008-.128.272-.248.408-.36.408-.096 0-.2-.04-.312-.12-.112-.096-.168-.192-.168-.288l.024-.072.024-.072c.288-1.136.528-2.264.72-3.384l.288-1.488.288-1.824.264-1.584c.08-.432.224-1.128.432-2.088.224-1.088.36-1.832.408-2.232.016-.048.048-.344.096-.888.064-.608.12-1.056.168-1.344.048-.416.096-.656.144-.72h.168a.532.532 0 00.168.024c.192 0 .336-.048.432-.144.112 0 .208.04.288.12.096.064.144.144.144.24 0 .768.056 1.648.168 2.64.064.512.112.936.144 1.272.176 2.064.624 5.936 1.344 11.616v.072c0 .16-.064.28-.192.36zm-1.104-4.32c-.16-2.304-.464-5.704-.912-10.2l-1.296 6.408c-.368 1.84-.552 3-.552 3.48 0 .08.304.152.912.216.608.064 1.144.096 1.608.096h.24zM58.36 45.928a.847.847 0 01-.336.072.935.935 0 01-.648-.264.853.853 0 01-.264-.624c0-.528-.016-1.304-.048-2.328l-.096-3.744-.048-2.424a388.396 388.396 0 00-.096-4.896c0 .272-.024.056-.072-.648-.048-.72-.08-1.304-.096-1.752 0-.048-.008-.12-.024-.216a1.273 1.273 0 00-.072-.264 1.313 1.313 0 01-.048-.288c0-.192.056-.352.168-.48a.681.681 0 01.504-.192 56.484 56.484 0 012.16-.024c.368 0 .56.184.576.552-.24.064-.448.104-.624.12-.064.016-.304.024-.72.024a3.093 3.093 0 01-.384.024c-.128 0-.24.008-.336.024-.256.048-.376.2-.36.456 0 .416.008 1.112.024 2.088s.04 1.92.072 2.832v1.416c.064.016.144.04.24.072a.762.762 0 00.216.048c.4-.048.752.016 1.056.192.304.176.592.432.864.768.56.752.936 1.72 1.128 2.904.096.528.144 1.048.144 1.56 0 .976-.184 1.928-.552 2.856-.208.544-.488.96-.84 1.248-.336.272-.832.568-1.488.888zm-.216-.648c.512-.24.928-.504 1.248-.792a2.54 2.54 0 00.744-1.128 7.175 7.175 0 00.384-2.328c0-.416-.04-.904-.12-1.464-.128-.864-.504-1.776-1.128-2.736-.24-.352-.592-.552-1.056-.6l-.576-.072c-.032.832-.048 1.44-.048 1.824 0 1.376.072 3.04.216 4.992l.048.816v.456c0 .208.016.4.048.576.048.16.128.312.24.456zm6.235 1.032c-.288 0-.448-.168-.48-.504v-.312a1.49 1.49 0 00.024-.288l-.096-.096c.128-.336.192-.664.192-.984 0-.368-.024-.896-.072-1.584L63.9 40.96c0-.8.024-2 .072-3.6.064-1.424.096-2.632.096-3.624l-.048-1.44a19.628 19.628 0 01-.048-1.44c0-.24.056-.408.168-.504.112-.112.288-.168.528-.168.16 0 .288.048.384.144.032.016.264.048.696.096.4.048.744.12 1.032.216.304.096.456.216.456.36 0 .16-.152.32-.456.48-.912-.304-1.56-.456-1.944-.456l-.12.144c.016.144.024.488.024 1.032 0 .688-.016 1.304-.048 1.848-.016.56-.024 1.184-.024 1.872 0 .448.112.672.336.672l.384-.024c.128-.016.264-.024.408-.024.624 0 .936.144.936.432 0 .176-.04.328-.12.456-.08.112-.2.168-.36.168-.24 0-.424-.064-.552-.192l-.768-.12h-.12l-.12.12v.072c.032.272.048.904.048 1.896 0 .624-.008 1.192-.024 1.704l-.024 1.704c0 .624.024 1.264.072 1.92.016.368.096.616.24.744.144.112.408.168.792.168l.432-.024c.144-.016.304-.024.48-.024.464 0 .696.104.696.312 0 .288-.352.432-1.056.432H64.38zm5.757-.456c-.192.112-.352.168-.48.168-.192 0-.312-.096-.36-.288v-.072c0-.112.064-.208.192-.288.128-.096.216-.16.264-.192a2.52 2.52 0 00.696-.936c.176-.368.352-.864.528-1.488.32-1.232.48-2.64.48-4.224 0-.4-.016-1-.048-1.8-.048-.992-.088-2.136-.12-3.432-.032-1.296-.04-2.12-.024-2.472a.184.184 0 00-.072.024h-.12c-.352 0-.528-.08-.528-.24 0-.176.128-.312.384-.408.24-.096.512-.136.816-.12h1.752c.544 0 .848-.008.912-.024.4-.032.688.008.864.12.176.112.264.328.264.648 0 .144-.008.256-.024.336-.064.464-.096 1-.096 1.608l.024 1.704c0 .976-.008 1.704-.024 2.184l-.024 2.208v.72c0 .928.048 2.336.144 4.224 0 .24.016.512.048.816.032.288.056.496.072.624v.096c0 .16-.032.272-.096.336-.048.064-.152.104-.312.12H75.2a.543.543 0 01-.36-.12c-.08-.08-.12-.2-.12-.36l.024-1.512c.016-.592.024-1.48.024-2.664l-.072-6.312.024-1.488c0-.64-.024-1.256-.072-1.848 0-.096-.048-.288-.144-.576h-2.616l.096 1.896.072 1.392c.064 2.272.096 3.976.096 5.112-.032 1.728-.28 3.32-.744 4.776-.272.816-.696 1.4-1.272 1.752zm11.518.6c-1.872 0-2.808-2.944-2.808-8.832v-.84c0-4.464.576-6.696 1.728-6.696.08 0 .192.024.336.072a6.603 6.603 0 001.512.336c.304.064.608.376.912.936.336.576.584 1.336.744 2.28.176.944.264 1.912.264 2.904l-.048.12c0 .528.008 1 .024 1.416l.024 1.44c0 .816-.032 1.552-.096 2.208-.096.992-.256 1.848-.48 2.568a4.533 4.533 0 01-.504 1.08c-.176.288-.4.528-.672.72-.256.192-.568.288-.936.288zm-.096-.696c.624 0 1.088-.44 1.392-1.32.304-.896.488-1.808.552-2.736.064-.96.096-1.728.096-2.304 0-.64-.048-1.584-.144-2.832-.08-1.392-.12-2.336-.12-2.832l-.096-.192.048-.12c0-.704-.2-1.312-.6-1.824-.384-.512-.856-.768-1.416-.768-.736 0-1.176.352-1.32 1.056-.032.24-.064.584-.096 1.032 0 1.184-.048 1.992-.144 2.424 0 .24-.024.616-.072 1.128L79.59 37.6c0 .352.008.664.024.936l.024.96c0 .752.064 1.616.192 2.592.096.72.208 1.328.336 1.824.128.496.312.92.552 1.272.24.384.52.576.84.576zm7.673.408a2.474 2.474 0 01-.792-.408c-.208-.176-.408-.44-.6-.792-.336-.64-.536-1.56-.6-2.76a24.857 24.857 0 01-.048-1.44v-2.736c0-1.04.032-2.048.096-3.024.048-.72.12-1.328.216-1.824s.248-.992.456-1.488c.224-.512.472-.872.744-1.08.112-.096.328-.208.648-.336.208-.08.408-.168.6-.264h1.032c.016.016.04.024.072.024l.12.024.096.072c.048.048.072.08.072.096.016.032.024.08.024.144l-.312.36h-1.008c-.304 0-.584.152-.84.456-.24.288-.424.656-.552 1.104-.128.4-.232.872-.312 1.416-.08.544-.128 1.016-.144 1.416-.032.512-.048.864-.048 1.056l-.048.12c0 .896-.016 1.704-.048 2.424l-.048 2.424c0 .704.048 1.352.144 1.944.08.64.312 1.216.696 1.728.368.512.936.768 1.704.768.24 0 .44-.072.6-.216.24 0 .36.088.36.264 0 .112-.104.24-.312.384-.192.16-.392.28-.6.36h-.792l-.576-.216zm6.651-.504l-.024-.888a13.974 13.974 0 01-.024-.864c0-.16.008-.296.024-.408l.024-.432c0-.16-.032-.352-.096-.576 0-1.072-.08-3.064-.24-5.976-.16-2.816-.248-4.728-.264-5.736-.992 0-1.656-.024-1.992-.072-.32-.08-.48-.208-.48-.384.08-.176.232-.264.456-.264.48 0 1.176.032 2.088.096.832.08 1.528.12 2.088.12h.504l.504-.024c.288 0 .432.104.432.312 0 .096-.056.176-.168.24a.801.801 0 01-.36.072c-.32 0-.656-.016-1.008-.048l-1.032-.048c-.064 0-.096.024-.096.072-.016.048-.024.2-.024.456 0 1.552.096 3.904.288 7.056.176 3.264.264 5.608.264 7.032 0 .112-.072.216-.216.312a.638.638 0 01-.384.144l-.264-.192zm8.037.792c-1.872 0-2.808-2.944-2.808-8.832v-.84c0-4.464.576-6.696 1.728-6.696.08 0 .192.024.336.072a6.603 6.603 0 001.512.336c.304.064.608.376.912.936.336.576.584 1.336.744 2.28.176.944.264 1.912.264 2.904l-.048.12c0 .528.008 1 .024 1.416l.024 1.44c0 .816-.032 1.552-.096 2.208-.096.992-.256 1.848-.48 2.568a4.533 4.533 0 01-.504 1.08c-.176.288-.4.528-.672.72-.256.192-.568.288-.936.288zm-.096-.696c.624 0 1.088-.44 1.392-1.32.304-.896.488-1.808.552-2.736.064-.96.096-1.728.096-2.304 0-.64-.048-1.584-.144-2.832-.08-1.392-.12-2.336-.12-2.832l-.096-.192.048-.12c0-.704-.2-1.312-.6-1.824-.384-.512-.856-.768-1.416-.768-.736 0-1.176.352-1.32 1.056-.032.24-.064.584-.096 1.032 0 1.184-.048 1.992-.144 2.424 0 .24-.024.616-.072 1.128l-.048 1.128c0 .352.008.664.024.936l.024.96c0 .752.064 1.616.192 2.592.096.72.208 1.328.336 1.824.128.496.312.92.552 1.272.24.384.52.576.84.576zm9.041.408c-.336-.096-.6-.256-.792-.48a2.669 2.669 0 01-.408-.912 7.834 7.834 0 01-.216-1.344 51.609 51.609 0 01-.024-1.728c0-.512-.008-.896-.024-1.152 0-.416-.048-.84-.144-1.272-.032-.224-.112-.384-.24-.48-.112-.096-.328-.16-.648-.192l-.024.72c-.032.64-.048 1.112-.048 1.416 0 .368.016.904.048 1.608l.024.792.168 2.16.024.24c0 .176-.072.296-.216.36a.597.597 0 01-.264.072.484.484 0 01-.312-.096.543.543 0 01-.144-.336 3.743 3.743 0 010-.6c.032-.224.048-.376.048-.456l.024-.96c.032-.864.048-1.496.048-1.896l-.024-1.488a132.431 132.431 0 01-.048-2.952v-.72c0-.752.032-1.784.096-3.096l.048-1.344-.024-1.008c0-.352.04-.568.12-.648a.23.23 0 01.168-.072c.08 0 .16.024.24.072a.597.597 0 01.216.168c.064.08.096.2.096.36l-.024.288-.096 2.88c-.08 1.808-.12 2.936-.12 3.384.192.048.336.032.432-.048.112-.08.216-.208.312-.384.368-.704.592-1.56.672-2.568l.264-3.024c.032-.336.176-.64.432-.912.272-.272.576-.44.912-.504a.728.728 0 01.216-.024c.208 0 .376.064.504.192.208.176.264.336.168.48a.891.891 0 01-.216.24c-.112.096-.192.144-.24.144-.448.064-.744.168-.888.312-.128.128-.216.424-.264.888-.048.4-.104 1.056-.168 1.968-.048.832-.192 1.64-.432 2.424a6.715 6.715 0 01-.168.528.954.954 0 01-.24.408c-.24.24-.536.376-.888.408.016.032.104.088.264.168.176.064.28.104.312.12.24.16.392.336.456.528.08.192.144.48.192.864.048.288.072.608.072.96v.648c.016.752.08 1.592.192 2.52 0 .112.016.296.048.552.112.672.456 1 1.032.984h.216c.192 0 .32.048.384.144.032.064.048.12.048.168a.638.638 0 01-.144.384c-.144.144-.336.216-.576.216-.16 0-.304-.024-.432-.072zm5.523 0a2.474 2.474 0 01-.792-.408c-.208-.176-.408-.44-.6-.792-.336-.64-.536-1.56-.6-2.76a24.857 24.857 0 01-.048-1.44v-2.736c0-1.04.032-2.048.096-3.024.048-.72.12-1.328.216-1.824s.248-.992.456-1.488c.224-.512.472-.872.744-1.08.112-.096.328-.208.648-.336.208-.08.408-.168.6-.264h1.032c.016.016.04.024.072.024l.12.024.096.072c.048.048.072.08.072.096.016.032.024.08.024.144l-.312.36h-1.008c-.304 0-.584.152-.84.456-.24.288-.424.656-.552 1.104-.128.4-.232.872-.312 1.416-.08.544-.128 1.016-.144 1.416-.032.512-.048.864-.048 1.056l-.048.12c0 .896-.016 1.704-.048 2.424l-.048 2.424c0 .704.048 1.352.144 1.944.08.64.312 1.216.696 1.728.368.512.936.768 1.704.768.24 0 .44-.072.6-.216.24 0 .36.088.36.264 0 .112-.104.24-.312.384-.192.16-.392.28-.6.36h-.792l-.576-.216zm8.212 0c-.336-.096-.6-.256-.792-.48a2.669 2.669 0 01-.408-.912 7.834 7.834 0 01-.216-1.344 51.609 51.609 0 01-.024-1.728c0-.512-.008-.896-.024-1.152 0-.416-.048-.84-.144-1.272-.032-.224-.112-.384-.24-.48-.112-.096-.328-.16-.648-.192l-.024.72c-.032.64-.048 1.112-.048 1.416 0 .368.016.904.048 1.608l.024.792.168 2.16.024.24c0 .176-.072.296-.216.36a.597.597 0 01-.264.072.484.484 0 01-.312-.096.543.543 0 01-.144-.336 3.743 3.743 0 010-.6c.032-.224.048-.376.048-.456l.024-.96c.032-.864.048-1.496.048-1.896l-.024-1.488a132.431 132.431 0 01-.048-2.952v-.72c0-.752.032-1.784.096-3.096l.048-1.344-.024-1.008c0-.352.04-.568.12-.648a.23.23 0 01.168-.072c.08 0 .16.024.24.072a.597.597 0 01.216.168c.064.08.096.2.096.36l-.024.288-.096 2.88c-.08 1.808-.12 2.936-.12 3.384.192.048.336.032.432-.048.112-.08.216-.208.312-.384.368-.704.592-1.56.672-2.568l.264-3.024c.032-.336.176-.64.432-.912.272-.272.576-.44.912-.504a.728.728 0 01.216-.024c.208 0 .376.064.504.192.208.176.264.336.168.48a.891.891 0 01-.216.24c-.112.096-.192.144-.24.144-.448.064-.744.168-.888.312-.128.128-.216.424-.264.888-.048.4-.104 1.056-.168 1.968-.048.832-.192 1.64-.432 2.424a6.715 6.715 0 01-.168.528.954.954 0 01-.24.408c-.24.24-.536.376-.888.408.016.032.104.088.264.168.176.064.28.104.312.12.24.16.392.336.456.528.08.192.144.48.192.864.048.288.072.608.072.96v.648c.016.752.08 1.592.192 2.52 0 .112.016.296.048.552.112.672.456 1 1.032.984h.216c.192 0 .32.048.384.144.032.064.048.12.048.168a.638.638 0 01-.144.384c-.144.144-.336.216-.576.216-.16 0-.304-.024-.432-.072zm6.242.288c-1.872 0-2.808-2.944-2.808-8.832v-.84c0-4.464.576-6.696 1.728-6.696.08 0 .192.024.336.072a6.603 6.603 0 001.512.336c.304.064.608.376.912.936.336.576.584 1.336.744 2.28.176.944.264 1.912.264 2.904l-.048.12c0 .528.008 1 .024 1.416l.024 1.44c0 .816-.032 1.552-.096 2.208-.096.992-.256 1.848-.48 2.568a4.533 4.533 0 01-.504 1.08c-.176.288-.4.528-.672.72-.256.192-.568.288-.936.288zm-.096-.696c.624 0 1.088-.44 1.392-1.32.304-.896.488-1.808.552-2.736.064-.96.096-1.728.096-2.304 0-.64-.048-1.584-.144-2.832-.08-1.392-.12-2.336-.12-2.832l-.096-.192.048-.12c0-.704-.2-1.312-.6-1.824-.384-.512-.856-.768-1.416-.768-.736 0-1.176.352-1.32 1.056-.032.24-.064.584-.096 1.032 0 1.184-.048 1.992-.144 2.424 0 .24-.024.616-.072 1.128l-.048 1.128c0 .352.008.664.024.936l.024.96c0 .752.064 1.616.192 2.592.096.72.208 1.328.336 1.824.128.496.312.92.552 1.272.24.384.52.576.84.576zm6.497.216a.532.532 0 01-.168.024.46.46 0 01-.336-.144.58.58 0 01-.12-.384 26.194 26.194 0 01-.024-1.32 466.121 466.121 0 01-.048-5.496V37.36c.032-1.504.064-2.632.096-3.384.032-.592.064-1.448.096-2.568.016-.16.024-.416.024-.768 0-.24.04-.416.12-.528.08-.112.216-.168.408-.168.448 0 1 .072 1.656.216l.72.12c.112.016.192.064.24.144.048.08.056.168.024.264a.483.483 0 01-.144.24.64.64 0 01-.216.144h-.072c-.096 0-.24-.032-.432-.096l-1.344-.24-.048.672a90.644 90.644 0 00-.192 2.808l-.12 3.48c-.032.608-.064 1.08-.096 1.416 0 .16-.016.416-.048.768.016.416.048 1.128.096 2.136.048.992.104 1.96.168 2.904.016.16.056.456.12.888a1.052 1.052 0 00-.192.096c-.064.032-.12.056-.168.072zm7.638.48c-1.872 0-2.808-2.944-2.808-8.832v-.84c0-4.464.576-6.696 1.728-6.696.08 0 .192.024.336.072a6.603 6.603 0 001.512.336c.304.064.608.376.912.936.336.576.584 1.336.744 2.28.176.944.264 1.912.264 2.904l-.048.12c0 .528.008 1 .024 1.416l.024 1.44c0 .816-.032 1.552-.096 2.208-.096.992-.256 1.848-.48 2.568a4.533 4.533 0 01-.504 1.08c-.176.288-.4.528-.672.72-.256.192-.568.288-.936.288zm-.096-.696c.624 0 1.088-.44 1.392-1.32.304-.896.488-1.808.552-2.736.064-.96.096-1.728.096-2.304 0-.64-.048-1.584-.144-2.832-.08-1.392-.12-2.336-.12-2.832l-.096-.192.048-.12c0-.704-.2-1.312-.6-1.824-.384-.512-.856-.768-1.416-.768-.736 0-1.176.352-1.32 1.056-.032.24-.064.584-.096 1.032 0 1.184-.048 1.992-.144 2.424 0 .24-.024.616-.072 1.128l-.048 1.128c0 .352.008.664.024.936l.024.96c0 .752.064 1.616.192 2.592.096.72.208 1.328.336 1.824.128.496.312.92.552 1.272.24.384.52.576.84.576z" fill="#FDFFFE"/><defs><clipPath id="clip0_1212_8528"><path fill="#fff" d="M0 0h50v50H0z"/></clipPath></defs></svg>