<svg width="159" height="50" viewBox="0 0 159 50" fill="none" xmlns="http://www.w3.org/2000/svg">
<g clip-path="url(#clip0_1212_8528)">
<path d="M23.4132 0.281124C21.5452 0.758652 19.4666 2.65472 18.9469 4.32607C18.8064 4.78955 18.666 4.90191 17.6828 5.37944C15.6744 6.3345 14.3963 8.03393 14.0312 10.2109C13.5817 12.9075 15.0564 15.6884 17.5564 16.8822C18.6239 17.3879 18.7924 17.7249 18.2587 18.2587C17.725 18.7924 17.3879 18.6238 16.8682 17.5424C15.9834 15.6744 14.2278 14.3822 12.1211 14.0311C9.3542 13.5817 6.50307 15.1266 5.3233 17.739C4.90195 18.7081 4.80363 18.8064 4.28397 18.989C2.8233 19.4665 1.39071 20.857 0.604196 22.5424C0.253072 23.3008 0.224982 23.5396 0.210938 25.0002C0.210938 26.5311 0.239027 26.6716 0.660376 27.5564C0.913185 28.0901 1.34858 28.7924 1.64352 29.1575C2.24745 29.8879 3.58172 30.8289 4.32611 31.0536C4.78959 31.194 4.90195 31.3345 5.37948 32.3176C7.71094 37.2193 14.5789 37.2896 16.8823 32.444C17.3879 31.3766 17.725 31.2081 18.2587 31.7418C18.7924 32.2755 18.6239 32.6126 17.5845 33.1042C12.6969 35.4075 12.7952 42.444 17.739 44.6772C18.68 45.0985 18.8064 45.1969 18.9469 45.6603C19.3682 47.0789 20.8289 48.5957 22.5424 49.3963C23.3149 49.7615 23.5255 49.7896 25.0003 49.7896C26.5312 49.7896 26.6716 49.7615 27.5705 49.3401C28.0902 49.0873 28.8064 48.6519 29.1435 48.371C29.8739 47.7811 30.8289 46.4188 31.0536 45.6463C31.1941 45.1828 31.3205 45.0704 31.8682 44.8598C34.7053 43.8064 36.475 40.7587 35.9694 37.8373C35.6042 35.7446 34.298 34.003 32.4441 33.1182C31.3767 32.6126 31.2081 32.2755 31.7418 31.7418C32.2756 31.2081 32.6126 31.3766 33.1182 32.444C34.284 34.93 37.0789 36.4188 39.7615 35.9693C41.9806 35.6042 43.7784 34.2558 44.6632 32.2615C45.1126 31.2924 45.1688 31.2221 45.8008 30.9974C46.7138 30.6744 48.0621 29.6491 48.5958 28.8626C48.8345 28.5115 49.1997 27.8654 49.4104 27.416C49.7475 26.6997 49.7896 26.4609 49.7896 25.0002C49.7896 23.5255 49.7615 23.3148 49.3963 22.5424C48.6098 20.857 47.0649 19.3682 45.6604 18.9469C45.1969 18.8064 45.0986 18.68 44.6772 17.739C43.7784 15.7727 41.9666 14.3963 39.7896 14.0311C37.0789 13.5817 34.284 15.0704 33.1042 17.5704C32.6126 18.6238 32.2756 18.7924 31.7418 18.2587C31.2081 17.7249 31.3767 17.3879 32.4581 16.8682C34.9581 15.6884 36.4188 12.9216 35.9694 10.239C35.6042 8.00584 34.2559 6.22213 32.2615 5.32326C31.3205 4.90191 31.1941 4.8036 31.0536 4.34011C30.8008 3.51146 29.8036 2.13506 29.0171 1.54517C27.739 0.576069 26.8121 0.238991 25.2952 0.196854C24.5508 0.168766 23.7081 0.210899 23.4132 0.281124ZM27.2194 2.0227C28.6239 2.73899 29.7194 4.18562 29.9862 5.63225C30.0705 6.10978 30.1267 6.15191 30.6463 6.23618C31.2784 6.3345 32.1491 6.7418 32.8233 7.24742C33.8205 7.9918 34.6913 9.83168 34.6913 11.1519C34.6913 13.4693 32.8093 15.7446 30.6323 16.0957L30.0564 16.194V17.5002C30.0564 19.6491 30.3514 19.944 32.5143 19.944C33.7503 19.944 33.8486 19.93 33.8486 19.6631C33.8486 19.2418 34.3542 18.0058 34.7756 17.3879C35.5761 16.2502 37.402 15.3092 38.8345 15.3092C40.3093 15.3092 42.1351 16.2502 42.9497 17.444C43.3711 18.062 43.8205 19.1856 43.8205 19.6491C43.8205 19.8457 43.9609 19.944 44.3542 20.0143C45.8149 20.2811 47.2475 21.3626 47.9918 22.7811C48.357 23.4553 48.3851 23.6519 48.3851 25.0002C48.3851 26.3485 48.357 26.5452 47.9918 27.2193C47.2475 28.6379 45.8149 29.7193 44.3542 29.9862C43.9609 30.0564 43.8205 30.1547 43.8205 30.3513C43.8205 30.8148 43.3711 31.9384 42.9497 32.5564C42.1351 33.7362 40.3093 34.6912 38.8486 34.6912C36.5452 34.6912 34.2559 32.7952 33.9048 30.6322L33.8064 30.0564H32.416H31.6868C31.2544 30.0564 30.8397 30.2282 30.534 30.5339C30.2282 30.8397 30.0564 31.2544 30.0564 31.6868V32.416V33.8064L30.6323 33.9047C32.0368 34.1294 33.5115 35.2952 34.1997 36.7418C34.7475 37.8513 34.7756 39.5367 34.284 40.7727C33.7081 42.2334 32.1211 43.5255 30.6323 43.7643C30.1267 43.8485 30.0705 43.9047 29.9862 44.3682C29.7194 45.8148 28.6379 47.2474 27.2194 47.9918C26.5452 48.357 26.3486 48.3851 25.0003 48.3851C23.652 48.3851 23.4553 48.357 22.7812 47.9918C21.3626 47.2474 20.2812 45.8148 20.0143 44.3682C19.93 43.8907 19.8739 43.8485 19.3542 43.7643C18.7222 43.666 17.8514 43.2587 17.1772 42.753C16.18 42.0087 15.3093 40.1688 15.3093 38.8345C15.3093 37.416 16.1379 35.7727 17.3177 34.8457C17.8795 34.4103 19.1857 33.8485 19.6632 33.8485C19.93 33.8485 19.9441 33.7502 19.9441 32.5143C19.9441 30.3513 19.6491 30.0564 17.5003 30.0564H16.1941L16.0958 30.6322C15.7446 32.8092 13.4694 34.6912 11.152 34.6912C9.83173 34.6912 7.99184 33.8204 7.24746 32.8233C6.74184 32.1491 6.33453 31.2783 6.23622 30.6463C6.15195 30.1266 6.10981 30.0704 5.63229 29.9862C4.14352 29.7193 2.65476 28.5536 1.99465 27.1351C1.67161 26.4469 1.61543 26.1519 1.61543 25.0002C1.61543 23.8485 1.67161 23.5536 1.99465 22.8654C2.65476 21.4609 4.14352 20.2952 5.63229 20.0283C6.09577 19.944 6.15195 19.8879 6.23622 19.3682C6.33453 18.7221 6.74184 17.8513 7.24746 17.1772C7.99184 16.18 9.83173 15.3092 11.152 15.3092C13.4553 15.3092 15.7446 17.1912 16.0958 19.3682L16.1941 19.944H17.5143C19.6491 19.944 19.9441 19.6491 19.9441 17.5002V16.194L19.3682 16.0957C17.1913 15.7446 15.3093 13.4693 15.3093 11.166C15.3093 8.89067 17.2053 6.5873 19.3682 6.23618C19.916 6.15191 19.93 6.12382 20.0845 5.39348C20.2812 4.49461 21.1098 3.16034 21.8402 2.61259C22.1351 2.38787 22.739 2.05079 23.1604 1.8682C23.8345 1.5873 24.1295 1.54517 25.2109 1.5873C26.2503 1.62944 26.6014 1.69967 27.2194 2.0227Z" fill="#E7C99F"/>
<path d="M23.6661 2.00856C21.742 2.65462 20.7729 3.8344 20.3094 6.0535C20.2392 6.36249 20.1268 6.43272 19.6352 6.51699C18.3712 6.71362 17.065 7.5844 16.3628 8.708C15.8852 9.46642 15.7027 10.1687 15.7027 11.2361C15.7027 13.4692 17.4161 15.4636 19.6352 15.8147L20.2251 15.9131V17.444C20.2251 19.9159 19.9161 20.2248 17.4442 20.2248H15.9133L15.815 19.635C15.5763 18.1462 14.4808 16.7277 13.0622 16.0956C12.051 15.6322 10.5622 15.576 9.56502 15.9271C8.86278 16.1799 7.9639 16.826 7.45828 17.444C7.03693 17.9636 6.47514 19.326 6.46109 19.8316C6.46109 20.1406 6.37682 20.2389 6.06783 20.2951C4.2139 20.6743 3.00603 21.531 2.28974 23.0057C1.95266 23.694 1.89648 23.9748 1.89648 25.0001C1.89648 25.9973 1.95266 26.3204 2.26165 26.9664C2.93581 28.3709 4.14368 29.2979 5.70266 29.635C6.40491 29.7895 6.433 29.8035 6.50323 30.3372C6.68581 31.6855 7.82345 33.2445 9.07345 33.8625C11.8824 35.2108 15.3235 33.4271 15.815 30.3653L15.9133 29.7754H17.4442C19.9161 29.7754 20.2251 30.0844 20.2251 32.5563V34.0872L19.6352 34.1855C17.4161 34.5366 15.7027 36.5451 15.7027 38.7642C15.7027 40.2389 16.124 41.2361 17.1493 42.2614C17.7111 42.8091 18.8909 43.399 19.6774 43.4973C20.1268 43.5675 20.2392 43.6378 20.3094 43.9468C20.6605 45.6602 21.2364 46.5872 22.4302 47.3737C25.2392 49.2277 28.919 47.6546 29.6353 44.2979C29.7897 43.5956 29.8038 43.5675 30.3375 43.4973C31.6999 43.3147 33.1886 42.2192 33.8347 40.9411C35.2251 38.1602 33.4414 34.6771 30.3656 34.1855L29.7757 34.0872V32.5563C29.7757 30.0844 30.0847 29.7754 32.5566 29.7754H34.0875L34.1858 30.3653C34.6774 33.4552 38.1184 35.2108 40.9695 33.8344C42.1914 33.2445 43.315 31.6855 43.4976 30.3372C43.5678 29.8175 43.5819 29.8035 44.5088 29.5788C48.1184 28.694 49.3824 24.2557 46.7701 21.6715C46.0819 20.9833 45.3094 20.576 44.2841 20.3653C43.61 20.2108 43.5397 20.1687 43.5397 19.8316C43.5257 19.326 42.9639 17.9636 42.5426 17.444C41.5875 16.2923 40.3515 15.7164 38.8066 15.7164C36.5313 15.7164 34.551 17.4018 34.1858 19.635L34.0875 20.2248H32.5566C30.0847 20.2248 29.7757 19.9159 29.7757 17.444V15.9131L30.3656 15.8147C32.8656 15.4074 34.6633 12.9355 34.2701 10.4215C33.947 8.45519 32.3178 6.81193 30.3796 6.51699C29.8038 6.43272 29.7897 6.41867 29.6353 5.70238C29.551 5.30912 29.3544 4.71923 29.1999 4.3962C28.8347 3.65182 27.697 2.5844 26.8544 2.21923C26.0397 1.85406 24.4527 1.75575 23.6661 2.00856ZM27.051 2.55631C28.315 3.21642 29.256 4.53665 29.4386 5.95519C29.5369 6.64339 29.5088 6.6153 30.6044 6.79789C31.8403 7.00856 33.1605 8.10406 33.7504 9.38215C34.2139 10.4074 34.1858 12.0366 33.6661 13.09C33.0201 14.4102 31.6718 15.4074 30.2673 15.576L29.565 15.6602L29.5229 17.2754C29.4808 19.1293 29.6493 19.649 30.4639 20.1968C30.9133 20.4917 31.0819 20.5057 32.6409 20.4777L34.3403 20.4355L34.4386 19.6911C34.6493 18.2586 35.5763 16.9805 36.9105 16.3344C37.9639 15.8147 39.5931 15.7866 40.6184 16.2501C41.8965 16.84 42.992 18.1602 43.2027 19.3962C43.3853 20.4917 43.3572 20.4636 44.0454 20.5619C47.0229 20.9692 48.7785 24.1855 47.5004 26.8962C46.8403 28.2726 45.5341 29.2417 44.0454 29.4383C43.4414 29.5226 43.3993 29.5647 43.315 30.0423C43.0201 31.826 42.1212 33.0619 40.6044 33.7642C39.5931 34.2136 37.9499 34.1855 36.9105 33.6659C35.5903 33.0198 34.5931 31.6715 34.4246 30.267L34.3403 29.5647L32.7251 29.5226C30.9274 29.4805 30.3937 29.649 29.86 30.3793C29.5931 30.7305 29.565 30.9833 29.565 32.5563V34.34L30.2673 34.4243C31.6718 34.5928 33.0201 35.59 33.6661 36.9102C34.1858 37.9496 34.2139 39.5928 33.7645 40.6041C33.0622 42.1209 31.8263 43.0198 30.0426 43.3147C29.565 43.399 29.5229 43.4411 29.4386 44.0451C29.0313 47.0226 25.815 48.7782 23.1044 47.5001C21.7279 46.84 20.7588 45.5338 20.5622 44.0451C20.4779 43.4411 20.4358 43.399 19.9583 43.3147C18.1746 43.0198 16.9386 42.1209 16.2364 40.6041C15.7869 39.5928 15.815 37.9496 16.3347 36.9102C16.9808 35.59 18.2588 34.649 19.6914 34.4383L20.4358 34.34V32.5563C20.4358 30.9833 20.4077 30.7305 20.1409 30.3793C19.6072 29.649 19.0735 29.4805 17.2757 29.5226L15.6605 29.5647L15.5763 30.267C15.4077 31.6715 14.4105 33.0198 13.0903 33.6659C12.0369 34.1855 10.4077 34.2136 9.38244 33.7501C8.10435 33.1602 7.00884 31.84 6.79817 30.6041C6.61559 29.5086 6.64368 29.5366 5.95547 29.4383C2.97795 29.031 1.22233 25.8147 2.50042 23.1041C3.16053 21.7277 4.24199 20.9131 5.81502 20.59L6.67177 20.4074L6.75603 19.7052C6.93862 18.2586 7.97795 16.8962 9.38244 16.2501C10.4077 15.7866 12.0369 15.8147 13.0903 16.3344C14.4105 16.9805 15.4077 18.3288 15.5763 19.7333L15.6605 20.4355L17.3459 20.4777C19.242 20.5198 19.6914 20.3653 20.2251 19.4945C20.4779 19.0872 20.506 18.8204 20.4779 17.3456L20.4358 15.6602L19.7336 15.576C18.3291 15.4074 16.9808 14.4102 16.3347 13.09C15.815 12.0366 15.7869 10.4074 16.2504 9.38215C16.8403 8.10406 18.1605 7.00856 19.3965 6.79789C20.492 6.6153 20.4639 6.64339 20.5622 5.95519C20.7588 4.46642 21.7139 3.17429 23.1044 2.50013C23.8768 2.12092 24.0454 2.09283 25.1409 2.14901C26.0819 2.19114 26.4892 2.27541 27.051 2.55631Z" fill="#E7C99F"/>
<path d="M24.3064 4.17587L24.3025 4.1773C23.9267 4.31577 23.6785 4.44281 23.4799 4.59309C23.2842 4.74127 23.113 4.93007 22.9157 5.22261C22.7678 5.44466 22.7078 5.57191 22.6678 5.75592C22.621 5.97142 22.6002 6.27282 22.5788 6.85843L22.5787 6.86163L22.5225 8.16781L22.5019 8.64632H22.023H21.0398C20.3903 8.64632 19.9436 8.70465 19.5915 8.82489C19.2505 8.94138 18.9696 9.12585 18.6687 9.42686L18.6651 9.4304C18.3532 9.73605 18.1633 10.0194 18.0544 10.3175C17.9453 10.6163 17.9048 10.9644 17.9425 11.4182C18.0121 12.2032 18.4193 12.8467 19.1671 13.274L19.1741 13.278L19.1811 13.2823C19.4273 13.4338 19.5907 13.508 19.7985 13.5566C20.0246 13.6096 20.3222 13.6369 20.8491 13.658L20.8491 13.6579L20.8575 13.6584L22.0935 13.7286L22.5718 13.7558L22.565 14.2349L22.5229 17.2124L22.5229 17.2125L22.5219 17.286C22.5017 18.696 22.4908 19.4581 22.4352 19.929C22.4055 20.1805 22.3604 20.3787 22.282 20.564C22.2071 20.7413 22.1097 20.8856 22.019 21.02L22.016 21.0244L22.0147 21.0263C21.772 21.3822 21.3182 21.8408 20.9551 22.0667C20.8222 22.1515 20.681 22.2365 20.4993 22.3028C20.3176 22.3691 20.1187 22.4086 19.8679 22.4356C19.3824 22.4879 18.6046 22.5018 17.2 22.5227C17.1997 22.5227 17.1993 22.5227 17.1989 22.5227L14.2375 22.5788L13.7558 22.5879L13.7288 22.107L13.6586 20.857L13.6585 20.857L13.6582 20.8489C13.6371 20.3219 13.6098 20.0243 13.5568 19.7982C13.5082 19.5905 13.434 19.4271 13.2825 19.1808L13.2824 19.1809L13.2762 19.1704C12.2768 17.4536 9.88056 17.5118 8.984 19.2467L8.98404 19.2467L8.98099 19.2524C8.80991 19.5732 8.71531 19.9733 8.6741 20.8382C8.67409 20.8383 8.67408 20.8385 8.67407 20.8386L8.61794 22.0735L8.59625 22.5508H8.11846H6.92464C6.26543 22.5508 5.84324 22.61 5.51636 22.7365C5.20177 22.8584 4.93481 23.0586 4.61794 23.4199L4.61697 23.421C4.26975 23.8145 4.01172 24.4855 4.01172 24.9441C4.01172 25.1758 4.09548 25.5322 4.24622 25.8985C4.39669 26.2641 4.58053 26.5587 4.72648 26.7019C5.07426 27.0225 5.28561 27.1713 5.53861 27.2646C5.80857 27.3642 6.16592 27.4154 6.83829 27.4504L6.84002 27.4505L8.10406 27.5207L8.54406 27.5451L8.57508 27.9847L8.65927 29.1774C8.65928 29.1775 8.65929 29.1776 8.6593 29.1778C8.70863 29.8542 8.75894 30.2267 8.84881 30.5049C8.93131 30.7603 9.0548 30.9589 9.31384 31.2633L9.31552 31.2653C9.76527 31.7993 10.4762 32.0798 11.205 32.0723C11.9346 32.0647 12.6143 31.77 13.0154 31.2426L13.0162 31.2415C13.4836 30.6304 13.6725 30.0407 13.6859 29.0279V28.0901V27.6051L14.1707 27.5904L14.6279 27.5765C14.7942 27.5677 15.3534 27.5641 16.0615 27.5596C16.518 27.5567 17.0365 27.5534 17.5515 27.548V27.548H17.5567C18.9289 27.548 19.8046 27.573 20.4196 27.7282C20.7441 27.8102 21.0115 27.931 21.2506 28.1093C21.4835 28.2828 21.6681 28.4952 21.8441 28.7272C22.0468 28.9893 22.1805 29.2214 22.266 29.6197C22.3418 29.9728 22.3822 30.4696 22.4374 31.257C22.5088 32.2559 22.5372 33.6754 22.5229 34.42L22.5229 34.42L22.5227 34.4261L22.4806 35.7604L22.4663 36.212L22.0156 36.2434L20.8078 36.3277L20.8069 36.3278C19.8386 36.3936 19.153 36.6468 18.7026 37.0235C18.264 37.3904 17.9979 37.9165 17.943 38.6463C17.8824 39.5046 18.1481 40.1542 18.6386 40.5989C19.1406 41.0539 19.9374 41.3474 21.0273 41.3542H22.023H22.5019L22.5225 41.8327L22.5787 43.1389L22.5788 43.1421C22.6002 43.7281 22.6211 44.0281 22.6691 44.244C22.7101 44.4288 22.7727 44.5595 22.9288 44.7905L22.93 44.7922C23.7691 46.045 25.4392 46.3009 26.5644 45.3729L26.5651 45.3723C26.907 45.0915 27.1143 44.8209 27.2454 44.4849C27.3814 44.1363 27.4499 43.6807 27.4499 43.0059V41.8542V41.3542H27.9499H28.9471C29.6041 41.3542 30.0544 41.2958 30.4083 41.1754C30.7508 41.0589 31.0314 40.8745 31.3323 40.5737L31.3323 40.5737L31.3359 40.5701C31.6478 40.2645 31.8377 39.9811 31.9466 39.683C32.0557 39.3842 32.0962 39.0361 32.0585 38.5823C31.9889 37.7973 31.5817 37.1539 30.8339 36.7265L30.8339 36.7266L30.828 36.7231C30.5769 36.575 30.4103 36.499 30.2006 36.4483C29.9763 36.394 29.6815 36.3635 29.1656 36.3425L29.1632 36.3424L27.9272 36.2863L27.4499 36.2646V35.7868V33.2727C27.4499 31.8692 27.4844 30.9003 27.5927 30.1963C27.7034 29.4768 27.8973 28.9904 28.2421 28.5822L28.2435 28.5805C28.4176 28.3761 28.6016 28.1858 28.841 28.0305C29.0834 27.8731 29.356 27.7683 29.6915 27.6948C30.334 27.5539 31.2915 27.5126 32.8687 27.4779L32.87 27.4779L35.7632 27.4217L36.2451 27.4123L36.2722 27.8936L36.3424 29.1436L36.3425 29.1436L36.3428 29.1516C36.3639 29.6786 36.3912 29.9762 36.4441 30.2023C36.4928 30.41 36.5669 30.5735 36.7185 30.8197L36.7222 30.8257L36.7257 30.8319C36.9011 31.1359 37.2822 31.551 37.5237 31.7181C37.7548 31.8653 37.8812 31.9248 38.0264 31.9597C38.1892 31.9988 38.406 32.0143 38.8348 32.0143C39.2635 32.0143 39.4803 31.9988 39.6431 31.9597C39.7882 31.9248 39.9146 31.8654 40.1453 31.7184C40.3867 31.5516 40.7683 31.1361 40.9438 30.8318L40.9462 30.8277C41.0943 30.5766 41.1702 30.41 41.221 30.2004C41.2753 29.9761 41.3058 29.6813 41.3267 29.1654L41.3268 29.1629L41.383 27.927L41.4047 27.4497H41.8825H43.0342C43.6863 27.4497 44.1353 27.3815 44.4827 27.2454C44.8187 27.1138 45.0928 26.9055 45.3726 26.5649L45.3732 26.5641C46.3012 25.439 46.0453 23.7689 44.7925 22.9297L44.7908 22.9286C44.5597 22.7724 44.4291 22.7099 44.2442 22.6688C44.0283 22.6209 43.7283 22.6 43.1423 22.5786L43.1391 22.5784L41.8329 22.5223L41.3544 22.5017V22.0227V21.0396C41.3544 20.39 41.2961 19.9433 41.1758 19.5913C41.0594 19.2502 40.8749 18.9694 40.5739 18.6684L40.5703 18.6648C40.2647 18.3529 39.9814 18.1631 39.6832 18.0542C39.3846 17.9451 39.0365 17.9046 38.583 17.9422C37.8083 18.012 37.1502 18.4225 36.7243 19.143C36.5888 19.3772 36.5165 19.5481 36.4655 19.7688C36.4106 20.0061 36.3773 20.3133 36.3422 20.8316C36.3422 20.8326 36.3421 20.8336 36.342 20.8345L36.2722 22.0789L36.2457 22.5508H35.773H33.0904C32.325 22.5508 31.5865 22.5331 30.9964 22.5046C30.7015 22.4903 30.4406 22.4732 30.2302 22.4539C30.0315 22.4357 29.8452 22.4128 29.7198 22.3801L29.7198 22.3802L29.7136 22.3785C29.245 22.2498 28.7861 21.9333 28.4268 21.574C28.0675 21.2147 27.7509 20.7558 27.6223 20.2871L27.6222 20.2871L27.6206 20.281C27.5879 20.1556 27.5651 19.9692 27.5468 19.7706C27.5275 19.5601 27.5104 19.2992 27.4962 19.0044C27.4676 18.4142 27.4499 17.6758 27.4499 16.9104V14.2137V13.736L27.9272 13.7143L29.1632 13.6581L29.1656 13.658C29.6815 13.6371 29.9763 13.6065 30.2006 13.5522C30.4103 13.5015 30.5769 13.4255 30.8279 13.2774L30.8321 13.275C31.1361 13.0996 31.5513 12.7185 31.7183 12.4771C31.8655 12.246 31.925 12.1195 31.9599 11.9744C31.999 11.8115 32.0145 11.5947 32.0145 11.166C32.0145 10.7373 31.999 10.5205 31.9599 10.3576C31.925 10.2124 31.8655 10.086 31.7183 9.8549C31.5513 9.61346 31.1361 9.23233 30.8321 9.05696L30.828 9.05453C30.5769 8.90646 30.4103 8.83051 30.2006 8.77976C29.9763 8.72548 29.6815 8.69492 29.1656 8.67401L29.1632 8.6739L27.9272 8.61772L27.4499 8.59602V8.11823V6.99464C27.4499 6.21004 27.3446 5.67912 27.1451 5.28976C26.9525 4.91416 26.6477 4.62272 26.1483 4.36351C25.5318 4.04971 24.7813 3.99645 24.3064 4.17587Z" fill="#E7C99F" stroke="#E7C99F"/>
</g>
<path d="M56.176 22.144C56.112 22.144 56.032 22.112 55.936 22.048C55.856 21.984 55.816 21.92 55.816 21.856C55.816 21.712 55.968 21.096 56.272 20.008C56.672 18.504 57.04 16.96 57.376 15.376L57.616 14.176C57.712 13.76 57.776 13.352 57.808 12.952C57.824 12.808 57.832 12.616 57.832 12.376C57.832 11.848 57.784 11.304 57.688 10.744C57.608 10.168 57.464 9.44 57.256 8.56L56.872 6.904C56.84 6.696 56.784 6.488 56.704 6.28L56.56 5.8C56.4 5.256 56.304 4.816 56.272 4.48C56.416 4.272 56.544 4.168 56.656 4.168C56.784 4.168 56.888 4.208 56.968 4.288C57.048 4.352 57.096 4.432 57.112 4.528C57.128 4.576 57.136 4.696 57.136 4.888C57.152 4.984 57.16 5.088 57.16 5.2L57.736 8.056L57.904 8.896C57.968 9.28 58.04 9.672 58.12 10.072C58.2 10.472 58.272 10.848 58.336 11.2C58.432 10.464 58.744 8.672 59.272 5.824C59.272 5.824 59.288 5.704 59.32 5.464C59.368 5.096 59.432 4.744 59.512 4.408C59.56 4.216 59.624 4.072 59.704 3.976C59.8 3.864 59.896 3.808 59.992 3.808C60.28 3.808 60.424 3.896 60.424 4.072C60.424 4.2 60.376 4.384 60.28 4.624C60.168 4.896 60.112 5.032 60.112 5.032C59.888 5.912 59.56 7.424 59.128 9.568L58.888 10.864C58.776 11.584 58.712 12.016 58.696 12.16C58.664 12.448 58.648 12.64 58.648 12.736L59.92 19.216L60.184 20.44L60.232 20.728C60.264 20.856 60.28 21.008 60.28 21.184C60.28 21.52 60.152 21.688 59.896 21.688C59.816 21.688 59.744 21.688 59.68 21.688C59.632 21.672 59.584 21.64 59.536 21.592C59.488 21.544 59.464 21.472 59.464 21.376C59.464 21.088 59.424 20.648 59.344 20.056C59.344 20.04 59.304 19.808 59.224 19.36C59.24 19.424 59.2 19.216 59.104 18.736L58.936 17.872C58.568 16.016 58.336 14.936 58.24 14.632C58.176 14.744 57.944 15.72 57.544 17.56C57.144 19.384 56.888 20.624 56.776 21.28L56.752 21.448L56.704 21.736C56.672 21.816 56.632 21.896 56.584 21.976C56.568 22.024 56.536 22.056 56.488 22.072C56.44 22.088 56.4 22.104 56.368 22.12L56.176 22.144ZM63.7906 22.288C63.6146 21.28 63.5266 20.128 63.5266 18.832C63.5266 18.32 63.5506 17.576 63.5986 16.6L63.6466 14.368C63.5346 14.144 63.4786 13.96 63.4786 13.816C63.6386 13.56 63.7186 12.824 63.7186 11.608C63.7186 8.696 63.6786 7.144 63.5986 6.952C63.7426 6.552 63.8546 6.352 63.9346 6.352H64.9906C65.1666 6.352 65.4146 6.44 65.7346 6.616C66.0706 6.776 66.3506 6.952 66.5746 7.144C66.9746 7.512 67.1746 8.456 67.1746 9.976C67.1746 10.792 67.1506 11.416 67.1026 11.848C67.0706 12.152 67.0146 12.392 66.9346 12.568C66.8706 12.744 66.7666 12.944 66.6226 13.168C66.3826 13.536 65.9746 13.856 65.3986 14.128C65.1586 14.256 64.8226 14.384 64.3906 14.512V17.368C64.3906 17.768 64.4306 18.552 64.5106 19.72L64.5586 20.488L64.6066 22.048C64.6066 22.336 64.4546 22.48 64.1506 22.48L63.7906 22.288ZM64.5586 13.696C65.0226 13.696 65.4146 13.48 65.7346 13.048C65.8466 12.888 65.9506 12.672 66.0466 12.4C66.1426 12.128 66.2066 11.864 66.2386 11.608C66.3346 11.144 66.3826 10.608 66.3826 10V9.352C66.3826 9.128 66.3746 8.912 66.3586 8.704C66.3426 8.496 66.3106 8.296 66.2626 8.104C66.1986 7.896 66.1106 7.728 65.9986 7.6C65.9026 7.456 65.7666 7.336 65.5906 7.24C65.3986 7.144 65.1666 7.096 64.8946 7.096C64.7026 7.096 64.5666 7.144 64.4866 7.24C64.4066 7.336 64.3666 7.504 64.3666 7.744C64.3666 8.128 64.3906 8.704 64.4386 9.472L64.4866 11.2C64.4866 11.616 64.4706 11.992 64.4386 12.328L64.3906 13.456L64.5586 13.696ZM74.4873 22.216C74.2473 22.216 74.0953 22.184 74.0312 22.12C73.9673 22.072 73.9193 21.928 73.8873 21.688C73.7433 20.52 73.6553 19.792 73.6233 19.504L73.5033 18.544C73.1513 18.464 72.7513 18.424 72.3033 18.424L71.4393 18.376C71.0553 18.328 70.7753 18.304 70.5993 18.304C70.5033 18.304 70.4473 18.344 70.4313 18.424C70.4313 18.472 70.4233 18.496 70.4073 18.496L70.3593 18.976C70.3433 19.264 70.2553 19.84 70.0953 20.704C70.0153 21.136 69.9193 21.472 69.8073 21.712C69.6793 21.984 69.5593 22.12 69.4473 22.12C69.3513 22.12 69.2473 22.08 69.1353 22C69.0233 21.904 68.9673 21.808 68.9673 21.712L68.9913 21.64L69.0153 21.568C69.3033 20.432 69.5433 19.304 69.7353 18.184L70.0233 16.696L70.3113 14.872C70.3113 14.872 70.3993 14.344 70.5753 13.288C70.6553 12.856 70.7993 12.16 71.0073 11.2C71.2313 10.112 71.3673 9.368 71.4153 8.968C71.4313 8.92 71.4633 8.624 71.5113 8.08C71.5753 7.472 71.6313 7.024 71.6793 6.736C71.7273 6.32 71.7753 6.08 71.8233 6.016H71.9913C72.0393 6.032 72.0953 6.04 72.1593 6.04C72.3513 6.04 72.4953 5.992 72.5913 5.896C72.7033 5.896 72.7993 5.936 72.8793 6.016C72.9753 6.08 73.0233 6.16 73.0233 6.256C73.0233 7.024 73.0793 7.904 73.1913 8.896C73.2553 9.408 73.3033 9.832 73.3353 10.168C73.5113 12.232 73.9593 16.104 74.6793 21.784V21.856C74.6793 22.016 74.6153 22.136 74.4873 22.216ZM73.3833 17.896C73.2233 15.592 72.9193 12.192 72.4713 7.696L71.1753 14.104C70.8073 15.944 70.6233 17.104 70.6233 17.584C70.6233 17.664 70.9273 17.736 71.5353 17.8C72.1433 17.864 72.6793 17.896 73.1433 17.896H73.3833ZM86.7627 23.248C86.4427 23.248 86.2827 22.736 86.2827 21.712V20.128C86.2827 17.824 86.2347 16.024 86.1387 14.728L86.0667 13.84C86.0027 13.44 85.9707 13.088 85.9707 12.784C85.9707 12.24 85.9867 11.744 86.0187 11.296L86.0667 9.808C86.0667 9.312 86.0347 8.936 85.9707 8.68C85.6507 8.904 84.6827 12.272 83.0667 18.784L83.0427 19.144C82.9947 19.544 82.9307 19.864 82.8507 20.104C82.8027 20.28 82.7307 20.416 82.6347 20.512C82.5547 20.608 82.4587 20.656 82.3467 20.656C82.0907 20.656 81.9067 20.592 81.7947 20.464C81.6827 20.336 81.6267 20.136 81.6267 19.864C81.6267 19.432 81.4187 18.312 81.0027 16.504C80.6027 14.696 80.1627 12.96 79.6827 11.296C79.2187 9.632 78.8987 8.712 78.7227 8.536C78.7067 9.096 78.6427 10.416 78.5307 12.496C78.3067 16.176 78.1947 19.072 78.1947 21.184L78.2187 22.144C78.1547 22.352 77.9867 22.456 77.7147 22.456C77.6667 22.456 77.5867 22.408 77.4747 22.312C77.3627 22.232 77.3067 22.168 77.3067 22.12C77.3067 20.68 77.4347 18.152 77.6907 14.536C77.9307 11.176 78.0507 8.656 78.0507 6.976C78.0507 6.896 78.0347 6.816 78.0027 6.736C77.9547 6.64 77.9307 6.568 77.9307 6.52C77.9307 6.28 78.1387 6.16 78.5547 6.16C78.8267 6.16 78.9867 6.28 79.0347 6.52C79.0987 6.84 79.1307 7.08 79.1307 7.24L79.1547 7.528C79.2347 7.944 79.4667 8.584 79.8507 9.448C80.1547 10.136 80.3867 10.736 80.5467 11.248C80.6427 11.632 80.7307 11.944 80.8107 12.184C81.0667 13.112 81.2347 13.8 81.3147 14.248L81.6267 14.872C81.6747 15.112 81.7707 15.504 81.9147 16.048C82.0587 16.656 82.1627 17.152 82.2267 17.536C82.2907 17.92 82.3227 18.288 82.3227 18.64C82.4987 18.368 82.9947 16.736 83.8107 13.744C84.6427 10.736 85.1307 8.816 85.2747 7.984C85.2907 7.952 85.2987 7.912 85.2987 7.864C85.3147 7.8 85.3307 7.72 85.3467 7.624C85.3787 7.416 85.4507 7.104 85.5627 6.688C85.6907 6.368 85.8827 6.208 86.1387 6.208C86.2507 6.208 86.3787 6.256 86.5227 6.352C86.6667 6.448 86.7387 6.544 86.7387 6.64C86.7387 13.312 86.8427 16.84 87.0507 17.224V18.472C87.0347 18.84 87.0267 19.264 87.0267 19.744C87.0267 20.768 87.0827 21.536 87.1947 22.048C87.2107 22.064 87.2187 22.088 87.2187 22.12C87.2347 22.152 87.2507 22.192 87.2667 22.24C87.2827 22.304 87.2907 22.376 87.2907 22.456C87.2907 22.632 87.2347 22.808 87.1227 22.984C87.0267 23.16 86.9067 23.248 86.7627 23.248ZM85.9707 8.536H85.9467L85.8987 8.56L85.9707 8.584V8.536ZM96.2254 22C96.0654 22 95.9294 21.952 95.8174 21.856C95.7214 21.744 95.6814 21.608 95.6974 21.448C95.7294 21.064 95.7454 20.768 95.7454 20.56C95.7454 19.952 95.6654 19.008 95.5054 17.728C95.4094 16.784 95.3374 15.816 95.2894 14.824C95.1614 12.456 95.0734 10.688 95.0254 9.52C94.9934 8.896 94.9614 7.744 94.9294 6.064V5.512C94.9134 5.272 94.9054 4.896 94.9054 4.384C94.9214 4.24 94.9694 4.12 95.0494 4.024C95.1294 3.928 95.2334 3.872 95.3614 3.856C95.6974 3.84 96.3854 3.856 97.4254 3.904C97.6654 3.904 97.8174 3.936 97.8814 4C98.0254 4.112 98.0814 4.256 98.0494 4.432C98.0014 4.528 97.9294 4.584 97.8334 4.6C97.7534 4.616 97.5294 4.624 97.1614 4.624H96.0334C95.9054 4.624 95.8174 4.672 95.7694 4.768C95.7214 4.848 95.6974 5 95.6974 5.224C95.6974 5.608 95.7054 5.944 95.7214 6.232C95.7374 6.52 95.7534 6.752 95.7694 6.928C95.8014 7.376 95.8174 7.688 95.8174 7.864C95.8814 10.84 95.9454 13.072 96.0094 14.56C96.0254 14.88 96.0574 15.232 96.1054 15.616C96.1534 15.984 96.1854 16.24 96.2014 16.384L96.2974 17.248C96.5054 19.216 96.6414 20.624 96.7054 21.472C96.7214 21.616 96.6734 21.744 96.5614 21.856C96.4654 21.952 96.3534 22 96.2254 22ZM105.917 22.216C105.677 22.216 105.525 22.184 105.461 22.12C105.397 22.072 105.349 21.928 105.317 21.688C105.173 20.52 105.085 19.792 105.053 19.504L104.933 18.544C104.581 18.464 104.181 18.424 103.733 18.424L102.869 18.376C102.485 18.328 102.205 18.304 102.029 18.304C101.933 18.304 101.877 18.344 101.861 18.424C101.861 18.472 101.853 18.496 101.837 18.496L101.789 18.976C101.773 19.264 101.685 19.84 101.525 20.704C101.445 21.136 101.349 21.472 101.237 21.712C101.109 21.984 100.989 22.12 100.877 22.12C100.781 22.12 100.677 22.08 100.565 22C100.453 21.904 100.397 21.808 100.397 21.712L100.421 21.64L100.445 21.568C100.733 20.432 100.973 19.304 101.165 18.184L101.453 16.696L101.741 14.872C101.741 14.872 101.829 14.344 102.005 13.288C102.085 12.856 102.229 12.16 102.437 11.2C102.661 10.112 102.797 9.368 102.845 8.968C102.861 8.92 102.893 8.624 102.941 8.08C103.005 7.472 103.061 7.024 103.109 6.736C103.157 6.32 103.205 6.08 103.253 6.016H103.421C103.469 6.032 103.525 6.04 103.589 6.04C103.781 6.04 103.925 5.992 104.021 5.896C104.133 5.896 104.229 5.936 104.309 6.016C104.405 6.08 104.453 6.16 104.453 6.256C104.453 7.024 104.509 7.904 104.621 8.896C104.685 9.408 104.733 9.832 104.765 10.168C104.941 12.232 105.389 16.104 106.109 21.784V21.856C106.109 22.016 106.045 22.136 105.917 22.216ZM104.813 17.896C104.653 15.592 104.349 12.192 103.901 7.696L102.605 14.104C102.237 15.944 102.053 17.104 102.053 17.584C102.053 17.664 102.357 17.736 102.965 17.8C103.573 17.864 104.109 17.896 104.573 17.896H104.813ZM109.096 22.264C108.968 22.264 108.856 22.216 108.76 22.12C108.68 22.024 108.64 21.904 108.64 21.76L108.616 21.016C108.616 20.44 108.664 19.592 108.76 18.472C108.84 17.224 108.88 16.384 108.88 15.952L108.856 14.872C108.84 14.552 108.832 14.2 108.832 13.816C108.832 13.176 108.856 12.224 108.904 10.96C108.952 9.664 108.976 8.704 108.976 8.08L108.952 6.688L108.856 6.568V6.424C108.856 6.008 109.024 5.8 109.36 5.8C109.616 5.8 110.032 5.904 110.608 6.112C111.2 6.304 111.496 6.464 111.496 6.592V6.664C111.784 7.128 111.976 7.592 112.072 8.056C112.184 8.52 112.24 9.112 112.24 9.832C112.24 11 112.112 11.952 111.856 12.688H111.88C111.816 12.816 111.688 13.024 111.496 13.312L111.16 13.816C111.448 14.04 111.688 14.368 111.88 14.8C112.088 15.232 112.216 15.648 112.264 16.048C112.28 16.192 112.296 16.368 112.312 16.576C112.328 16.784 112.344 17.032 112.36 17.32L112.384 17.944V18.28C112.384 19.816 111.904 20.952 110.944 21.688C110.448 22.072 109.832 22.264 109.096 22.264ZM109.84 13.336C110.896 13.336 111.424 12.272 111.424 10.144C111.424 9.968 111.408 9.624 111.376 9.112L111.352 8.656L111.304 8.608C111.24 8.08 111.152 7.664 111.04 7.36C110.96 7.136 110.832 6.96 110.656 6.832C110.48 6.688 110.288 6.616 110.08 6.616C109.728 6.616 109.552 7.664 109.552 9.76C109.552 10.16 109.56 10.432 109.576 10.576V11.056V11.872C109.56 12.128 109.552 12.416 109.552 12.736V13.024C109.552 13.024 109.568 13.072 109.6 13.168L109.648 13.336H109.84ZM109.48 21.328C109.864 21.328 110.216 21.2 110.536 20.944C110.872 20.688 111.136 20.36 111.328 19.96C111.52 19.544 111.616 19.136 111.616 18.736L111.64 18.64V18.448V18.184C111.64 17.512 111.584 16.872 111.472 16.264C111.296 15.448 110.984 14.856 110.536 14.488C110.28 14.28 109.976 14.176 109.624 14.176C109.544 15.504 109.504 16.592 109.504 17.44V17.992C109.504 18.456 109.528 18.824 109.576 19.096C109.496 19.24 109.456 19.624 109.456 20.248V20.872L109.48 21.328ZM115.845 22.288C115.669 21.28 115.581 20.128 115.581 18.832C115.581 18.32 115.605 17.576 115.653 16.6L115.701 14.368C115.589 14.144 115.533 13.96 115.533 13.816C115.693 13.56 115.773 12.824 115.773 11.608C115.773 8.696 115.733 7.144 115.653 6.952C115.797 6.552 115.909 6.352 115.989 6.352H117.045C117.221 6.352 117.469 6.44 117.789 6.616C118.125 6.776 118.405 6.952 118.629 7.144C119.029 7.512 119.229 8.456 119.229 9.976C119.229 10.792 119.205 11.416 119.157 11.848C119.125 12.152 119.069 12.392 118.989 12.568C118.925 12.744 118.821 12.944 118.677 13.168C118.437 13.536 118.029 13.856 117.453 14.128C117.213 14.256 116.877 14.384 116.445 14.512V17.368C116.445 17.768 116.485 18.552 116.565 19.72L116.613 20.488L116.661 22.048C116.661 22.336 116.509 22.48 116.205 22.48L115.845 22.288ZM116.613 13.696C117.077 13.696 117.469 13.48 117.789 13.048C117.901 12.888 118.005 12.672 118.101 12.4C118.197 12.128 118.261 11.864 118.293 11.608C118.389 11.144 118.437 10.608 118.437 10V9.352C118.437 9.128 118.429 8.912 118.413 8.704C118.397 8.496 118.365 8.296 118.317 8.104C118.253 7.896 118.165 7.728 118.053 7.6C117.957 7.456 117.821 7.336 117.645 7.24C117.453 7.144 117.221 7.096 116.949 7.096C116.757 7.096 116.621 7.144 116.541 7.24C116.461 7.336 116.421 7.504 116.421 7.744C116.421 8.128 116.445 8.704 116.493 9.472L116.541 11.2C116.541 11.616 116.525 11.992 116.493 12.328L116.445 13.456L116.613 13.696ZM122.846 22C122.638 22 122.494 21.96 122.414 21.88C122.334 21.784 122.294 21.632 122.294 21.424C122.15 13.808 122.014 9.4 121.886 8.2C121.838 7.896 121.782 7.44 121.718 6.832C121.702 6.624 121.742 6.464 121.838 6.352C121.95 6.224 122.094 6.16 122.27 6.16C122.574 6.16 122.726 6.368 122.726 6.784C122.71 7.344 122.742 8.84 122.822 11.272C122.854 12.168 122.87 13.008 122.87 13.792C122.87 14.864 122.894 16.208 122.942 17.824L123.11 20.128L123.302 19.888C123.75 18.72 124.31 17.2 124.982 15.328C125.654 13.456 126.054 12.32 126.182 11.92L126.494 11.152C126.75 10.512 126.958 9.944 127.118 9.448C127.214 9.16 127.342 8.696 127.502 8.056C127.63 7.592 127.758 7.168 127.886 6.784C128.014 6.384 128.126 6.144 128.222 6.064C128.286 6.016 128.374 5.984 128.486 5.968C128.598 5.936 128.694 5.928 128.774 5.944C128.822 5.96 128.87 6.016 128.918 6.112C128.966 6.192 128.99 6.272 128.99 6.352C129.006 6.624 129.006 6.928 128.99 7.264C128.99 7.584 128.99 7.88 128.99 8.152V9.16C128.99 9.784 129.022 10.72 129.086 11.968C129.118 12.368 129.15 12.984 129.182 13.816C129.198 14.104 129.206 14.528 129.206 15.088C129.206 15.952 129.198 16.592 129.182 17.008L129.158 18.952C129.158 19.72 129.182 20.488 129.23 21.256V21.304C129.23 21.416 129.174 21.52 129.062 21.616C128.966 21.696 128.846 21.744 128.702 21.76C128.558 21.76 128.43 21.72 128.318 21.64C128.222 21.544 128.182 21.432 128.198 21.304L128.27 19.528L128.414 15.808V15.088C128.382 13.856 128.358 12.432 128.342 10.816C128.326 9.184 128.326 8.352 128.342 8.32L128.174 8.296L126.518 12.88C125.078 16.944 123.95 19.976 123.134 21.976L122.846 22ZM133.627 22C133.419 22 133.275 21.96 133.195 21.88C133.115 21.784 133.075 21.632 133.075 21.424C132.931 13.808 132.795 9.4 132.667 8.2C132.619 7.896 132.563 7.44 132.499 6.832C132.483 6.624 132.523 6.464 132.619 6.352C132.731 6.224 132.875 6.16 133.051 6.16C133.355 6.16 133.507 6.368 133.507 6.784C133.491 7.344 133.523 8.84 133.603 11.272C133.635 12.168 133.651 13.008 133.651 13.792C133.651 14.864 133.675 16.208 133.723 17.824L133.891 20.128L134.083 19.888C134.531 18.72 135.091 17.2 135.763 15.328C136.435 13.456 136.835 12.32 136.963 11.92L137.275 11.152C137.531 10.512 137.739 9.944 137.899 9.448C137.995 9.16 138.123 8.696 138.283 8.056C138.411 7.592 138.539 7.168 138.667 6.784C138.795 6.384 138.907 6.144 139.003 6.064C139.067 6.016 139.155 5.984 139.267 5.968C139.379 5.936 139.475 5.928 139.555 5.944C139.603 5.96 139.651 6.016 139.699 6.112C139.747 6.192 139.771 6.272 139.771 6.352C139.787 6.624 139.787 6.928 139.771 7.264C139.771 7.584 139.771 7.88 139.771 8.152V9.16C139.771 9.784 139.803 10.72 139.867 11.968C139.899 12.368 139.931 12.984 139.963 13.816C139.979 14.104 139.987 14.528 139.987 15.088C139.987 15.952 139.979 16.592 139.963 17.008L139.939 18.952C139.939 19.72 139.963 20.488 140.011 21.256V21.304C140.011 21.416 139.955 21.52 139.843 21.616C139.747 21.696 139.627 21.744 139.483 21.76C139.339 21.76 139.211 21.72 139.099 21.64C139.003 21.544 138.963 21.432 138.979 21.304L139.051 19.528L139.195 15.808V15.088C139.163 13.856 139.139 12.432 139.123 10.816C139.107 9.184 139.107 8.352 139.123 8.32L138.955 8.296L137.299 12.88C135.859 16.944 134.731 19.976 133.915 21.976L133.627 22ZM143.448 21.856C143.256 21.968 143.096 22.024 142.968 22.024C142.776 22.024 142.656 21.928 142.608 21.736V21.664C142.608 21.552 142.672 21.456 142.8 21.376C142.928 21.28 143.016 21.216 143.064 21.184C143.368 20.928 143.6 20.616 143.76 20.248C143.936 19.88 144.112 19.384 144.288 18.76C144.608 17.528 144.768 16.12 144.768 14.536C144.768 14.136 144.752 13.536 144.72 12.736C144.672 11.744 144.632 10.6 144.6 9.304C144.568 8.008 144.56 7.184 144.576 6.832C144.56 6.832 144.536 6.84 144.504 6.856C144.472 6.856 144.432 6.856 144.384 6.856C144.032 6.856 143.856 6.776 143.856 6.616C143.856 6.44 143.984 6.304 144.24 6.208C144.48 6.112 144.752 6.072 145.056 6.088C145.36 6.088 145.56 6.088 145.656 6.088H146.808C147.352 6.088 147.656 6.08 147.72 6.064C148.12 6.032 148.408 6.072 148.584 6.184C148.76 6.296 148.848 6.512 148.848 6.832C148.848 6.976 148.84 7.088 148.824 7.168C148.76 7.632 148.728 8.168 148.728 8.776L148.752 10.48C148.752 11.456 148.744 12.184 148.728 12.664L148.704 14.872V15.592C148.704 16.52 148.752 17.928 148.848 19.816C148.848 20.056 148.864 20.328 148.896 20.632C148.928 20.92 148.952 21.128 148.968 21.256V21.352C148.968 21.512 148.936 21.624 148.872 21.688C148.824 21.752 148.72 21.792 148.56 21.808H148.512C148.368 21.808 148.248 21.768 148.152 21.688C148.072 21.608 148.032 21.488 148.032 21.328L148.056 19.816C148.072 19.224 148.08 18.336 148.08 17.152L148.008 10.84L148.032 9.352C148.032 8.712 148.008 8.096 147.96 7.504C147.96 7.408 147.912 7.216 147.816 6.928H145.2L145.296 8.824L145.368 10.216C145.432 12.488 145.464 14.192 145.464 15.328C145.432 17.056 145.184 18.648 144.72 20.104C144.448 20.92 144.024 21.504 143.448 21.856ZM157.198 22.216C156.958 22.216 156.806 22.184 156.742 22.12C156.678 22.072 156.63 21.928 156.598 21.688C156.454 20.52 156.366 19.792 156.334 19.504L156.214 18.544C155.862 18.464 155.462 18.424 155.014 18.424L154.15 18.376C153.766 18.328 153.486 18.304 153.31 18.304C153.214 18.304 153.158 18.344 153.142 18.424C153.142 18.472 153.134 18.496 153.118 18.496L153.07 18.976C153.054 19.264 152.966 19.84 152.806 20.704C152.726 21.136 152.63 21.472 152.518 21.712C152.39 21.984 152.27 22.12 152.158 22.12C152.062 22.12 151.958 22.08 151.846 22C151.734 21.904 151.678 21.808 151.678 21.712L151.702 21.64L151.726 21.568C152.014 20.432 152.254 19.304 152.446 18.184L152.734 16.696L153.022 14.872C153.022 14.872 153.11 14.344 153.286 13.288C153.366 12.856 153.51 12.16 153.718 11.2C153.942 10.112 154.078 9.368 154.126 8.968C154.142 8.92 154.174 8.624 154.222 8.08C154.286 7.472 154.342 7.024 154.39 6.736C154.438 6.32 154.486 6.08 154.534 6.016H154.702C154.75 6.032 154.806 6.04 154.87 6.04C155.062 6.04 155.206 5.992 155.302 5.896C155.414 5.896 155.51 5.936 155.59 6.016C155.686 6.08 155.734 6.16 155.734 6.256C155.734 7.024 155.79 7.904 155.902 8.896C155.966 9.408 156.014 9.832 156.046 10.168C156.222 12.232 156.67 16.104 157.39 21.784V21.856C157.39 22.016 157.326 22.136 157.198 22.216ZM156.094 17.896C155.934 15.592 155.63 12.192 155.182 7.696L153.886 14.104C153.518 15.944 153.334 17.104 153.334 17.584C153.334 17.664 153.638 17.736 154.246 17.8C154.854 17.864 155.39 17.896 155.854 17.896H156.094ZM58.36 45.928C58.248 45.976 58.136 46 58.024 46C57.784 46 57.568 45.912 57.376 45.736C57.2 45.56 57.112 45.352 57.112 45.112C57.112 44.584 57.096 43.808 57.064 42.784L56.968 39.04L56.92 36.616C56.888 34.472 56.856 32.84 56.824 31.72C56.824 31.992 56.8 31.776 56.752 31.072C56.704 30.352 56.672 29.768 56.656 29.32C56.656 29.272 56.648 29.2 56.632 29.104C56.616 29.008 56.592 28.92 56.56 28.84C56.528 28.712 56.512 28.616 56.512 28.552C56.512 28.36 56.568 28.2 56.68 28.072C56.808 27.944 56.976 27.88 57.184 27.88C57.488 27.864 58.208 27.856 59.344 27.856C59.712 27.856 59.904 28.04 59.92 28.408C59.68 28.472 59.472 28.512 59.296 28.528C59.232 28.544 58.992 28.552 58.576 28.552C58.448 28.568 58.32 28.576 58.192 28.576C58.064 28.576 57.952 28.584 57.856 28.6C57.6 28.648 57.48 28.8 57.496 29.056C57.496 29.472 57.504 30.168 57.52 31.144C57.536 32.12 57.56 33.064 57.592 33.976V35.392C57.656 35.408 57.736 35.432 57.832 35.464C57.928 35.496 58 35.512 58.048 35.512C58.448 35.464 58.8 35.528 59.104 35.704C59.408 35.88 59.696 36.136 59.968 36.472C60.528 37.224 60.904 38.192 61.096 39.376C61.192 39.904 61.24 40.424 61.24 40.936C61.24 41.912 61.056 42.864 60.688 43.792C60.48 44.336 60.2 44.752 59.848 45.04C59.512 45.312 59.016 45.608 58.36 45.928ZM58.144 45.28C58.656 45.04 59.072 44.776 59.392 44.488C59.728 44.2 59.976 43.824 60.136 43.36C60.392 42.608 60.52 41.832 60.52 41.032C60.52 40.616 60.48 40.128 60.4 39.568C60.272 38.704 59.896 37.792 59.272 36.832C59.032 36.48 58.68 36.28 58.216 36.232L57.64 36.16C57.608 36.992 57.592 37.6 57.592 37.984C57.592 39.36 57.664 41.024 57.808 42.976L57.856 43.792C57.856 43.888 57.856 44.04 57.856 44.248C57.856 44.456 57.872 44.648 57.904 44.824C57.952 44.984 58.032 45.136 58.144 45.28ZM64.3793 46.312C64.0913 46.312 63.9313 46.144 63.8993 45.808V45.496C63.9153 45.416 63.9233 45.32 63.9233 45.208L63.8273 45.112C63.9553 44.776 64.0193 44.448 64.0193 44.128C64.0193 43.76 63.9953 43.232 63.9473 42.544L63.8993 40.96C63.8993 40.16 63.9233 38.96 63.9713 37.36C64.0353 35.936 64.0673 34.728 64.0673 33.736L64.0193 32.296C63.9873 31.864 63.9713 31.384 63.9713 30.856C63.9713 30.616 64.0273 30.448 64.1393 30.352C64.2513 30.24 64.4273 30.184 64.6673 30.184C64.8273 30.184 64.9553 30.232 65.0513 30.328C65.0833 30.344 65.3153 30.376 65.7473 30.424C66.1473 30.472 66.4913 30.544 66.7793 30.64C67.0833 30.736 67.2353 30.856 67.2353 31C67.2353 31.16 67.0833 31.32 66.7793 31.48C65.8673 31.176 65.2193 31.024 64.8353 31.024L64.7153 31.168C64.7313 31.312 64.7393 31.656 64.7393 32.2C64.7393 32.888 64.7233 33.504 64.6913 34.048C64.6753 34.608 64.6673 35.232 64.6673 35.92C64.6673 36.368 64.7793 36.592 65.0033 36.592L65.3873 36.568C65.5153 36.552 65.6513 36.544 65.7953 36.544C66.4193 36.544 66.7313 36.688 66.7313 36.976C66.7313 37.152 66.6913 37.304 66.6113 37.432C66.5313 37.544 66.4113 37.6 66.2513 37.6C66.0113 37.6 65.8273 37.536 65.6993 37.408L64.9313 37.288H64.8113L64.6913 37.408V37.48C64.7233 37.752 64.7393 38.384 64.7393 39.376C64.7393 40 64.7313 40.568 64.7153 41.08L64.6913 42.784C64.6913 43.408 64.7153 44.048 64.7633 44.704C64.7793 45.072 64.8593 45.32 65.0033 45.448C65.1473 45.56 65.4113 45.616 65.7953 45.616L66.2273 45.592C66.3713 45.576 66.5313 45.568 66.7073 45.568C67.1713 45.568 67.4033 45.672 67.4033 45.88C67.4033 46.168 67.0513 46.312 66.3473 46.312H64.3793ZM70.1359 45.856C69.9439 45.968 69.7839 46.024 69.6559 46.024C69.4639 46.024 69.3439 45.928 69.2959 45.736V45.664C69.2959 45.552 69.3599 45.456 69.4879 45.376C69.6159 45.28 69.7039 45.216 69.7519 45.184C70.0559 44.928 70.2879 44.616 70.4479 44.248C70.6239 43.88 70.7999 43.384 70.9759 42.76C71.2959 41.528 71.4559 40.12 71.4559 38.536C71.4559 38.136 71.4399 37.536 71.4079 36.736C71.3599 35.744 71.3199 34.6 71.2879 33.304C71.2559 32.008 71.2479 31.184 71.2639 30.832C71.2479 30.832 71.2239 30.84 71.1919 30.856C71.1599 30.856 71.1199 30.856 71.0719 30.856C70.7199 30.856 70.5439 30.776 70.5439 30.616C70.5439 30.44 70.6719 30.304 70.9279 30.208C71.1679 30.112 71.4399 30.072 71.7439 30.088C72.0479 30.088 72.2479 30.088 72.3439 30.088H73.4959C74.0399 30.088 74.3439 30.08 74.4079 30.064C74.8079 30.032 75.0959 30.072 75.2719 30.184C75.4479 30.296 75.5359 30.512 75.5359 30.832C75.5359 30.976 75.5279 31.088 75.5119 31.168C75.4479 31.632 75.4159 32.168 75.4159 32.776L75.4399 34.48C75.4399 35.456 75.4319 36.184 75.4159 36.664L75.3919 38.872V39.592C75.3919 40.52 75.4399 41.928 75.5359 43.816C75.5359 44.056 75.5519 44.328 75.5839 44.632C75.6159 44.92 75.6399 45.128 75.6559 45.256V45.352C75.6559 45.512 75.6239 45.624 75.5599 45.688C75.5119 45.752 75.4079 45.792 75.2479 45.808H75.1999C75.0559 45.808 74.9359 45.768 74.8399 45.688C74.7599 45.608 74.7199 45.488 74.7199 45.328L74.7439 43.816C74.7599 43.224 74.7679 42.336 74.7679 41.152L74.6959 34.84L74.7199 33.352C74.7199 32.712 74.6959 32.096 74.6479 31.504C74.6479 31.408 74.5999 31.216 74.5039 30.928H71.8879L71.9839 32.824L72.0559 34.216C72.1199 36.488 72.1519 38.192 72.1519 39.328C72.1199 41.056 71.8719 42.648 71.4079 44.104C71.1359 44.92 70.7119 45.504 70.1359 45.856ZM81.6537 46.456C79.7817 46.456 78.8457 43.512 78.8457 37.624V36.784C78.8457 32.32 79.4217 30.088 80.5737 30.088C80.6537 30.088 80.7657 30.112 80.9097 30.16C81.4217 30.336 81.9257 30.448 82.4217 30.496C82.7257 30.56 83.0297 30.872 83.3337 31.432C83.6697 32.008 83.9177 32.768 84.0777 33.712C84.2537 34.656 84.3417 35.624 84.3417 36.616L84.2937 36.736C84.2937 37.264 84.3017 37.736 84.3177 38.152L84.3417 39.592C84.3417 40.408 84.3097 41.144 84.2457 41.8C84.1497 42.792 83.9897 43.648 83.7657 44.368C83.6217 44.8 83.4537 45.16 83.2617 45.448C83.0857 45.736 82.8617 45.976 82.5897 46.168C82.3337 46.36 82.0217 46.456 81.6537 46.456ZM81.5577 45.76C82.1817 45.76 82.6457 45.32 82.9497 44.44C83.2537 43.544 83.4377 42.632 83.5017 41.704C83.5657 40.744 83.5977 39.976 83.5977 39.4C83.5977 38.76 83.5497 37.816 83.4537 36.568C83.3737 35.176 83.3337 34.232 83.3337 33.736L83.2377 33.544L83.2857 33.424C83.2857 32.72 83.0857 32.112 82.6857 31.6C82.3017 31.088 81.8297 30.832 81.2697 30.832C80.5337 30.832 80.0937 31.184 79.9497 31.888C79.9177 32.128 79.8857 32.472 79.8537 32.92C79.8537 34.104 79.8057 34.912 79.7097 35.344C79.7097 35.584 79.6857 35.96 79.6377 36.472L79.5897 37.6C79.5897 37.952 79.5977 38.264 79.6137 38.536L79.6377 39.496C79.6377 40.248 79.7017 41.112 79.8297 42.088C79.9257 42.808 80.0377 43.416 80.1657 43.912C80.2937 44.408 80.4777 44.832 80.7177 45.184C80.9577 45.568 81.2377 45.76 81.5577 45.76ZM89.2306 46.168C88.9266 46.072 88.6626 45.936 88.4386 45.76C88.2306 45.584 88.0306 45.32 87.8386 44.968C87.5026 44.328 87.3026 43.408 87.2386 42.208C87.2066 41.664 87.1906 41.184 87.1906 40.768V38.032C87.1906 36.992 87.2226 35.984 87.2866 35.008C87.3346 34.288 87.4066 33.68 87.5026 33.184C87.5986 32.688 87.7506 32.192 87.9586 31.696C88.1826 31.184 88.4306 30.824 88.7026 30.616C88.8146 30.52 89.0306 30.408 89.3506 30.28C89.5586 30.2 89.7586 30.112 89.9506 30.016H90.9106H90.9826C90.9986 30.032 91.0226 30.04 91.0546 30.04L91.1746 30.064L91.2706 30.136C91.3186 30.184 91.3426 30.216 91.3426 30.232C91.3586 30.264 91.3666 30.312 91.3666 30.376L91.0546 30.736H90.0466C89.7426 30.736 89.4626 30.888 89.2066 31.192C88.9666 31.48 88.7826 31.848 88.6546 32.296C88.5266 32.696 88.4226 33.168 88.3426 33.712C88.2626 34.256 88.2146 34.728 88.1986 35.128C88.1666 35.64 88.1506 35.992 88.1506 36.184L88.1026 36.304C88.1026 37.2 88.0866 38.008 88.0546 38.728L88.0066 41.152C88.0066 41.856 88.0546 42.504 88.1506 43.096C88.2306 43.736 88.4626 44.312 88.8466 44.824C89.2146 45.336 89.7826 45.592 90.5506 45.592C90.7906 45.592 90.9906 45.52 91.1506 45.376C91.3906 45.376 91.5106 45.464 91.5106 45.64C91.5106 45.752 91.4066 45.88 91.1986 46.024C91.0066 46.184 90.8066 46.304 90.5986 46.384H89.8066L89.2306 46.168ZM95.8823 45.664L95.8583 44.776C95.8423 44.52 95.8343 44.232 95.8343 43.912C95.8343 43.752 95.8423 43.616 95.8583 43.504L95.8823 43.072C95.8823 42.912 95.8503 42.72 95.7863 42.496C95.7863 41.424 95.7063 39.432 95.5463 36.52C95.3863 33.704 95.2983 31.792 95.2823 30.784C94.2903 30.784 93.6263 30.76 93.2903 30.712C92.9703 30.632 92.8103 30.504 92.8103 30.328C92.8903 30.152 93.0423 30.064 93.2663 30.064C93.7463 30.064 94.4423 30.096 95.3543 30.16C96.1863 30.24 96.8823 30.28 97.4423 30.28H97.9463L98.4503 30.256C98.7383 30.256 98.8823 30.36 98.8823 30.568C98.8823 30.664 98.8263 30.744 98.7143 30.808C98.6183 30.856 98.4983 30.88 98.3543 30.88C98.0343 30.88 97.6983 30.864 97.3463 30.832L96.3143 30.784C96.2503 30.784 96.2183 30.808 96.2183 30.856C96.2023 30.904 96.1943 31.056 96.1943 31.312C96.1943 32.864 96.2903 35.216 96.4823 38.368C96.6583 41.632 96.7463 43.976 96.7463 45.4C96.7463 45.512 96.6743 45.616 96.5303 45.712C96.4023 45.808 96.2743 45.856 96.1463 45.856L95.8823 45.664ZM103.919 46.456C102.047 46.456 101.111 43.512 101.111 37.624V36.784C101.111 32.32 101.687 30.088 102.839 30.088C102.919 30.088 103.031 30.112 103.175 30.16C103.687 30.336 104.191 30.448 104.687 30.496C104.991 30.56 105.295 30.872 105.599 31.432C105.935 32.008 106.183 32.768 106.343 33.712C106.519 34.656 106.607 35.624 106.607 36.616L106.559 36.736C106.559 37.264 106.567 37.736 106.583 38.152L106.607 39.592C106.607 40.408 106.575 41.144 106.511 41.8C106.415 42.792 106.255 43.648 106.031 44.368C105.887 44.8 105.719 45.16 105.527 45.448C105.351 45.736 105.127 45.976 104.855 46.168C104.599 46.36 104.287 46.456 103.919 46.456ZM103.823 45.76C104.447 45.76 104.911 45.32 105.215 44.44C105.519 43.544 105.703 42.632 105.767 41.704C105.831 40.744 105.863 39.976 105.863 39.4C105.863 38.76 105.815 37.816 105.719 36.568C105.639 35.176 105.599 34.232 105.599 33.736L105.503 33.544L105.551 33.424C105.551 32.72 105.351 32.112 104.951 31.6C104.567 31.088 104.095 30.832 103.535 30.832C102.799 30.832 102.359 31.184 102.215 31.888C102.183 32.128 102.151 32.472 102.119 32.92C102.119 34.104 102.071 34.912 101.975 35.344C101.975 35.584 101.951 35.96 101.903 36.472L101.855 37.6C101.855 37.952 101.863 38.264 101.879 38.536L101.903 39.496C101.903 40.248 101.967 41.112 102.095 42.088C102.191 42.808 102.303 43.416 102.431 43.912C102.559 44.408 102.743 44.832 102.983 45.184C103.223 45.568 103.503 45.76 103.823 45.76ZM112.864 46.168C112.528 46.072 112.264 45.912 112.072 45.688C111.896 45.448 111.76 45.144 111.664 44.776C111.552 44.328 111.48 43.88 111.448 43.432C111.432 42.968 111.424 42.392 111.424 41.704C111.424 41.192 111.416 40.808 111.4 40.552C111.4 40.136 111.352 39.712 111.256 39.28C111.224 39.056 111.144 38.896 111.016 38.8C110.904 38.704 110.688 38.64 110.368 38.608L110.344 39.328C110.312 39.968 110.296 40.44 110.296 40.744C110.296 41.112 110.312 41.648 110.344 42.352L110.368 43.144L110.536 45.304L110.56 45.544C110.56 45.72 110.488 45.84 110.344 45.904C110.248 45.952 110.16 45.976 110.08 45.976C109.952 45.976 109.848 45.944 109.768 45.88C109.688 45.8 109.64 45.688 109.624 45.544C109.608 45.368 109.608 45.168 109.624 44.944C109.656 44.72 109.672 44.568 109.672 44.488L109.696 43.528C109.728 42.664 109.744 42.032 109.744 41.632L109.72 40.144C109.688 38.832 109.672 37.848 109.672 37.192V36.472C109.672 35.72 109.704 34.688 109.768 33.376L109.816 32.032L109.792 31.024C109.792 30.672 109.832 30.456 109.912 30.376C109.96 30.328 110.016 30.304 110.08 30.304C110.16 30.304 110.24 30.328 110.32 30.376C110.416 30.424 110.488 30.48 110.536 30.544C110.6 30.624 110.632 30.744 110.632 30.904L110.608 31.192L110.512 34.072C110.432 35.88 110.392 37.008 110.392 37.456C110.584 37.504 110.728 37.488 110.824 37.408C110.936 37.328 111.04 37.2 111.136 37.024C111.504 36.32 111.728 35.464 111.808 34.456L112.072 31.432C112.104 31.096 112.248 30.792 112.504 30.52C112.776 30.248 113.08 30.08 113.416 30.016C113.464 30 113.536 29.992 113.632 29.992C113.84 29.992 114.008 30.056 114.136 30.184C114.344 30.36 114.4 30.52 114.304 30.664C114.272 30.728 114.2 30.808 114.088 30.904C113.976 31 113.896 31.048 113.848 31.048C113.4 31.112 113.104 31.216 112.96 31.36C112.832 31.488 112.744 31.784 112.696 32.248C112.648 32.648 112.592 33.304 112.528 34.216C112.48 35.048 112.336 35.856 112.096 36.64C112.048 36.816 111.992 36.992 111.928 37.168C111.88 37.328 111.8 37.464 111.688 37.576C111.448 37.816 111.152 37.952 110.8 37.984C110.816 38.016 110.904 38.072 111.064 38.152C111.24 38.216 111.344 38.256 111.376 38.272C111.616 38.432 111.768 38.608 111.832 38.8C111.912 38.992 111.976 39.28 112.024 39.664C112.072 39.952 112.096 40.272 112.096 40.624C112.096 40.976 112.096 41.192 112.096 41.272C112.112 42.024 112.176 42.864 112.288 43.792C112.288 43.904 112.304 44.088 112.336 44.344C112.448 45.016 112.792 45.344 113.368 45.328H113.584C113.776 45.328 113.904 45.376 113.968 45.472C114 45.536 114.016 45.592 114.016 45.64C114.016 45.768 113.968 45.896 113.872 46.024C113.728 46.168 113.536 46.24 113.296 46.24C113.136 46.24 112.992 46.216 112.864 46.168ZM118.387 46.168C118.083 46.072 117.819 45.936 117.595 45.76C117.387 45.584 117.187 45.32 116.995 44.968C116.659 44.328 116.459 43.408 116.395 42.208C116.363 41.664 116.347 41.184 116.347 40.768V38.032C116.347 36.992 116.379 35.984 116.443 35.008C116.491 34.288 116.563 33.68 116.659 33.184C116.755 32.688 116.907 32.192 117.115 31.696C117.339 31.184 117.587 30.824 117.859 30.616C117.971 30.52 118.187 30.408 118.507 30.28C118.715 30.2 118.915 30.112 119.107 30.016H120.067H120.139C120.155 30.032 120.179 30.04 120.211 30.04L120.331 30.064L120.427 30.136C120.475 30.184 120.499 30.216 120.499 30.232C120.515 30.264 120.523 30.312 120.523 30.376L120.211 30.736H119.203C118.899 30.736 118.619 30.888 118.363 31.192C118.123 31.48 117.939 31.848 117.811 32.296C117.683 32.696 117.579 33.168 117.499 33.712C117.419 34.256 117.371 34.728 117.355 35.128C117.323 35.64 117.307 35.992 117.307 36.184L117.259 36.304C117.259 37.2 117.243 38.008 117.211 38.728L117.163 41.152C117.163 41.856 117.211 42.504 117.307 43.096C117.387 43.736 117.619 44.312 118.003 44.824C118.371 45.336 118.939 45.592 119.707 45.592C119.947 45.592 120.147 45.52 120.307 45.376C120.547 45.376 120.667 45.464 120.667 45.64C120.667 45.752 120.563 45.88 120.355 46.024C120.163 46.184 119.963 46.304 119.755 46.384H118.963L118.387 46.168ZM126.599 46.168C126.263 46.072 125.999 45.912 125.807 45.688C125.631 45.448 125.495 45.144 125.399 44.776C125.287 44.328 125.215 43.88 125.183 43.432C125.167 42.968 125.159 42.392 125.159 41.704C125.159 41.192 125.151 40.808 125.135 40.552C125.135 40.136 125.087 39.712 124.991 39.28C124.959 39.056 124.879 38.896 124.751 38.8C124.639 38.704 124.423 38.64 124.103 38.608L124.079 39.328C124.047 39.968 124.031 40.44 124.031 40.744C124.031 41.112 124.047 41.648 124.079 42.352L124.103 43.144L124.271 45.304L124.295 45.544C124.295 45.72 124.223 45.84 124.079 45.904C123.983 45.952 123.895 45.976 123.815 45.976C123.687 45.976 123.583 45.944 123.503 45.88C123.423 45.8 123.375 45.688 123.359 45.544C123.343 45.368 123.343 45.168 123.359 44.944C123.391 44.72 123.407 44.568 123.407 44.488L123.431 43.528C123.463 42.664 123.479 42.032 123.479 41.632L123.455 40.144C123.423 38.832 123.407 37.848 123.407 37.192V36.472C123.407 35.72 123.439 34.688 123.503 33.376L123.551 32.032L123.527 31.024C123.527 30.672 123.567 30.456 123.647 30.376C123.695 30.328 123.751 30.304 123.815 30.304C123.895 30.304 123.975 30.328 124.055 30.376C124.151 30.424 124.223 30.48 124.271 30.544C124.335 30.624 124.367 30.744 124.367 30.904L124.343 31.192L124.247 34.072C124.167 35.88 124.127 37.008 124.127 37.456C124.319 37.504 124.463 37.488 124.559 37.408C124.671 37.328 124.775 37.2 124.871 37.024C125.239 36.32 125.463 35.464 125.543 34.456L125.807 31.432C125.839 31.096 125.983 30.792 126.239 30.52C126.511 30.248 126.815 30.08 127.151 30.016C127.199 30 127.271 29.992 127.367 29.992C127.575 29.992 127.743 30.056 127.871 30.184C128.079 30.36 128.135 30.52 128.039 30.664C128.007 30.728 127.935 30.808 127.823 30.904C127.711 31 127.631 31.048 127.583 31.048C127.135 31.112 126.839 31.216 126.695 31.36C126.567 31.488 126.479 31.784 126.431 32.248C126.383 32.648 126.327 33.304 126.263 34.216C126.215 35.048 126.071 35.856 125.831 36.64C125.783 36.816 125.727 36.992 125.663 37.168C125.615 37.328 125.535 37.464 125.423 37.576C125.183 37.816 124.887 37.952 124.535 37.984C124.551 38.016 124.639 38.072 124.799 38.152C124.975 38.216 125.079 38.256 125.111 38.272C125.351 38.432 125.503 38.608 125.567 38.8C125.647 38.992 125.711 39.28 125.759 39.664C125.807 39.952 125.831 40.272 125.831 40.624C125.831 40.976 125.831 41.192 125.831 41.272C125.847 42.024 125.911 42.864 126.023 43.792C126.023 43.904 126.039 44.088 126.071 44.344C126.183 45.016 126.527 45.344 127.103 45.328H127.319C127.511 45.328 127.639 45.376 127.703 45.472C127.735 45.536 127.751 45.592 127.751 45.64C127.751 45.768 127.703 45.896 127.607 46.024C127.463 46.168 127.271 46.24 127.031 46.24C126.871 46.24 126.727 46.216 126.599 46.168ZM132.841 46.456C130.969 46.456 130.033 43.512 130.033 37.624V36.784C130.033 32.32 130.609 30.088 131.761 30.088C131.841 30.088 131.953 30.112 132.097 30.16C132.609 30.336 133.113 30.448 133.609 30.496C133.913 30.56 134.217 30.872 134.521 31.432C134.857 32.008 135.105 32.768 135.265 33.712C135.441 34.656 135.529 35.624 135.529 36.616L135.481 36.736C135.481 37.264 135.489 37.736 135.505 38.152L135.529 39.592C135.529 40.408 135.497 41.144 135.433 41.8C135.337 42.792 135.177 43.648 134.953 44.368C134.809 44.8 134.641 45.16 134.449 45.448C134.273 45.736 134.049 45.976 133.777 46.168C133.521 46.36 133.209 46.456 132.841 46.456ZM132.745 45.76C133.369 45.76 133.833 45.32 134.137 44.44C134.441 43.544 134.625 42.632 134.689 41.704C134.753 40.744 134.785 39.976 134.785 39.4C134.785 38.76 134.737 37.816 134.641 36.568C134.561 35.176 134.521 34.232 134.521 33.736L134.425 33.544L134.473 33.424C134.473 32.72 134.273 32.112 133.873 31.6C133.489 31.088 133.017 30.832 132.457 30.832C131.721 30.832 131.281 31.184 131.137 31.888C131.105 32.128 131.073 32.472 131.041 32.92C131.041 34.104 130.993 34.912 130.897 35.344C130.897 35.584 130.873 35.96 130.825 36.472L130.777 37.6C130.777 37.952 130.785 38.264 130.801 38.536L130.825 39.496C130.825 40.248 130.889 41.112 131.017 42.088C131.113 42.808 131.225 43.416 131.353 43.912C131.481 44.408 131.665 44.832 131.905 45.184C132.145 45.568 132.425 45.76 132.745 45.76ZM139.242 45.976C139.194 45.992 139.138 46 139.074 46C138.946 46 138.834 45.952 138.738 45.856C138.658 45.76 138.618 45.632 138.618 45.472C138.602 45.184 138.594 44.744 138.594 44.152C138.562 41.688 138.546 39.856 138.546 38.656V37.36C138.578 35.856 138.61 34.728 138.642 33.976C138.674 33.384 138.706 32.528 138.738 31.408C138.754 31.248 138.762 30.992 138.762 30.64C138.762 30.4 138.802 30.224 138.882 30.112C138.962 30 139.098 29.944 139.29 29.944C139.738 29.944 140.29 30.016 140.946 30.16L141.666 30.28C141.778 30.296 141.858 30.344 141.906 30.424C141.954 30.504 141.962 30.592 141.93 30.688C141.914 30.768 141.866 30.848 141.786 30.928C141.722 30.992 141.65 31.04 141.57 31.072H141.498C141.402 31.072 141.258 31.04 141.066 30.976L139.722 30.736L139.674 31.408C139.562 32.848 139.498 33.784 139.482 34.216L139.362 37.696C139.33 38.304 139.298 38.776 139.266 39.112C139.266 39.272 139.25 39.528 139.218 39.88C139.234 40.296 139.266 41.008 139.314 42.016C139.362 43.008 139.418 43.976 139.482 44.92C139.498 45.08 139.538 45.376 139.602 45.808C139.554 45.824 139.49 45.856 139.41 45.904C139.346 45.936 139.29 45.96 139.242 45.976ZM146.88 46.456C145.008 46.456 144.072 43.512 144.072 37.624V36.784C144.072 32.32 144.648 30.088 145.8 30.088C145.88 30.088 145.992 30.112 146.136 30.16C146.648 30.336 147.152 30.448 147.648 30.496C147.952 30.56 148.256 30.872 148.56 31.432C148.896 32.008 149.144 32.768 149.304 33.712C149.48 34.656 149.568 35.624 149.568 36.616L149.52 36.736C149.52 37.264 149.528 37.736 149.544 38.152L149.568 39.592C149.568 40.408 149.536 41.144 149.472 41.8C149.376 42.792 149.216 43.648 148.992 44.368C148.848 44.8 148.68 45.16 148.488 45.448C148.312 45.736 148.088 45.976 147.816 46.168C147.56 46.36 147.248 46.456 146.88 46.456ZM146.784 45.76C147.408 45.76 147.872 45.32 148.176 44.44C148.48 43.544 148.664 42.632 148.728 41.704C148.792 40.744 148.824 39.976 148.824 39.4C148.824 38.76 148.776 37.816 148.68 36.568C148.6 35.176 148.56 34.232 148.56 33.736L148.464 33.544L148.512 33.424C148.512 32.72 148.312 32.112 147.912 31.6C147.528 31.088 147.056 30.832 146.496 30.832C145.76 30.832 145.32 31.184 145.176 31.888C145.144 32.128 145.112 32.472 145.08 32.92C145.08 34.104 145.032 34.912 144.936 35.344C144.936 35.584 144.912 35.96 144.864 36.472L144.816 37.6C144.816 37.952 144.824 38.264 144.84 38.536L144.864 39.496C144.864 40.248 144.928 41.112 145.056 42.088C145.152 42.808 145.264 43.416 145.392 43.912C145.52 44.408 145.704 44.832 145.944 45.184C146.184 45.568 146.464 45.76 146.784 45.76Z" fill="#FDFFFE"/>
<defs>
<clipPath id="clip0_1212_8528">
<rect width="50" height="50" fill="white"/>
</clipPath>
</defs>
</svg>
