<svg width="134" height="40" fill="none" xmlns="http://www.w3.org/2000/svg"><g clip-path="url(#clip0_646_4669)"><path d="M123.307.012H8.396a17.16 17.16 0 00-2.243.183C5.415.305 4.69.525 4.02.83a7.247 7.247 0 00-1.819 1.184A6.325 6.325 0 00.875 3.637 6.354 6.354 0 00.191 5.53 10.93 10.93 0 000 7.531v24.95c0 .671.068 1.343.191 2.002.123.659.37 1.306.711 1.904a6.483 6.483 0 001.327 1.611 7.011 7.011 0 001.818 1.184c.67.305 1.381.513 2.133.635.739.11 1.49.17 2.243.183h117.154a17.169 17.169 0 002.243-.183 8.03 8.03 0 002.133-.635 6.92 6.92 0 001.818-1.184 6.819 6.819 0 001.327-1.611c.328-.598.56-1.245.697-1.904.123-.66.191-1.33.205-2.002V7.53a12.327 12.327 0 00-.205-2.002 6.587 6.587 0 00-.697-1.904 6.551 6.551 0 00-1.327-1.623 7.24 7.24 0 00-1.818-1.184 8.507 8.507 0 00-2.133-.635c-.739-.11-1.491-.17-2.243-.183l-2.27.012z" fill="#B7B7B7"/><path d="M9.97 38.365H8.966a13.665 13.665 0 01-2.073-.13 7.145 7.145 0 01-1.857-.574 5.727 5.727 0 01-1.544-.963 5.128 5.128 0 01-1.111-1.349 5.052 5.052 0 01-.61-1.596 10.075 10.075 0 01-.176-1.795V8.007c0-.598.067-1.209.176-1.795a4.835 4.835 0 01.596-1.62c.285-.504.65-.95 1.111-1.35a6.13 6.13 0 011.558-.961 7.118 7.118 0 011.843-.528A15.439 15.439 0 018.967 1.6h116.067c.691 0 1.382.059 2.06.153a7.07 7.07 0 011.856.528c1.152.504 2.087 1.314 2.669 2.311.285.505.488 1.033.597 1.585a11.5 11.5 0 01.189 1.807v23.974a11.37 11.37 0 01-.189 1.783 5.322 5.322 0 01-.597 1.608 5.472 5.472 0 01-1.111 1.338 5.879 5.879 0 01-1.558.962 7.197 7.197 0 01-1.856.598c-.691.106-1.382.153-2.073.153H9.969v-.035z" fill="#000"/><path d="M27.69 24.695a11.164 11.164 0 01-1.513 3.085c-.891 1.342-1.831 2.647-3.32 2.671-1.49.025-1.93-.854-3.59-.854s-2.185.83-3.577.879c-1.392.048-2.503-1.415-3.43-2.744C10.403 25 9.011 20.11 10.903 16.78a5.32 5.32 0 014.468-2.769c1.417 0 2.735 1 3.614 1 .88 0 2.49-1.183 4.163-1a5.11 5.11 0 014.005 2.159 4.888 4.888 0 00-2.357 4.146 4.699 4.699 0 002.894 4.378zM22.003 12.22a4.881 4.881 0 001.11-3.487 4.977 4.977 0 00-3.21 1.658 4.631 4.631 0 00-1.136 3.354 4.13 4.13 0 003.236-1.524zM42.29 27.134h-4.725l-1.135 3.354h-2.002l4.48-12.403h2.088l4.48 12.403h-2.002l-1.184-3.354zm-4.236-1.549h3.748l-1.807-5.439h-.049l-1.892 5.44zm17.104.378c0 2.805-1.514 4.61-3.785 4.61a3.072 3.072 0 01-2.844-1.585v4.476h-1.905V21.476h1.795v1.512a3.232 3.232 0 012.893-1.598c2.332-.049 3.834 1.756 3.834 4.598l.012-.024zm-1.917 0c0-1.829-1.001-3-2.393-3s-2.38 1.232-2.38 3c0 1.769 1 3.05 2.38 3.05s2.393-1.196 2.393-3.013v-.037zm11.867 0c0 2.805-1.502 4.61-3.773 4.61a3.072 3.072 0 01-2.844-1.585v4.476h-1.905V21.476h1.795v1.512a3.212 3.212 0 012.88-1.598c2.333-.049 3.834 1.756 3.834 4.598l.013-.024zm-1.905 0c0-1.829-.94-3-2.393-3-1.453 0-2.368 1.232-2.368 3 0 1.769.952 3.025 2.368 3.025s2.393-1.183 2.393-3v-.024zm8.497 1.025c.134 1.232 1.33 2 3.003 2s2.686-.805 2.686-1.915c0-1.11-.683-1.536-2.295-1.939l-1.611-.39c-2.283-.549-3.333-1.61-3.333-3.341 0-2.147 1.855-3.61 4.505-3.61 2.649 0 4.431 1.463 4.492 3.61h-1.904c-.11-1.244-1.136-2-2.625-2-1.49 0-2.515.743-2.515 1.853 0 .866.647 1.39 2.246 1.793l1.368.33c2.551.597 3.613 1.621 3.613 3.438 0 2.33-1.855 3.78-4.797 3.78-2.747 0-4.615-1.414-4.725-3.658l1.892.049zm11.635-7.683v2.134h1.721v1.463h-1.721v4.988c0 .769.342 1.134 1.099 1.134.207.013.402.013.61 0v1.464c-.33.06-.66.097-1.001.085-1.844 0-2.552-.695-2.552-2.451v-5.22h-1.355V21.44h1.319v-2.134h1.88zm2.71 6.683c0-2.842 1.685-4.634 4.297-4.634 2.625 0 4.286 1.792 4.286 4.634 0 2.841-1.648 4.61-4.285 4.61-2.638 0-4.298-1.78-4.298-4.61zm6.703 0c0-1.951-.904-3.11-2.406-3.11-1.501 0-2.356 1.11-2.356 3.11 0 2 .891 3.11 2.405 3.11 1.502 0 2.356-1.183 2.356-3.11zm3.43-4.524h1.807v1.524a2.145 2.145 0 012.185-1.622c.22 0 .428.024.635.073v1.732a2.345 2.345 0 00-.818-.183 1.876 1.876 0 00-2.014 1.732c-.013.134 0 .256.012.39v5.366h-1.807v-9.012zm13.185 6.402c-.244 1.634-1.855 2.768-3.894 2.768-2.637 0-4.273-1.768-4.273-4.597 0-2.83 1.636-4.671 4.187-4.671 2.552 0 4.078 1.72 4.078 4.463v.634h-6.397v.122a2.361 2.361 0 002.148 2.55c.098.011.196.011.293.011a2.039 2.039 0 002.088-1.268l1.77-.012zm-6.275-2.707h4.529a2.169 2.169 0 00-2.051-2.28h-.171c-1.257 0-2.282 1-2.307 2.255v.025zM35.696 8.94c.44-.281.99-.476 1.673-.476 1.099 0 1.868.573 1.868 1.548 0 .78-.562 1.378-1.306 1.55v.024c.89.097 1.55.682 1.55 1.597 0 1.317-1.136 1.841-2.295 1.841-.574 0-1.184-.121-1.66-.414l.22-.646c.341.195.903.39 1.427.39.94 0 1.465-.512 1.465-1.208 0-.95-.915-1.22-1.72-1.22h-.38v-.621h.38c.842 0 1.489-.512 1.489-1.17 0-.647-.452-1-1.136-1-.476 0-.977.194-1.318.414l-.257-.61zm7.374 5.975l-.06-.573h-.025a1.715 1.715 0 01-1.392.682c-.928 0-1.392-.646-1.392-1.304 0-1.098.977-1.708 2.747-1.696v-.097c0-.378-.098-1.061-1.038-1.061a2.25 2.25 0 00-1.184.341l-.183-.548c.379-.244.928-.403 1.502-.403 1.391 0 1.733.951 1.733 1.866v1.707c0 .39.025.78.074 1.098h-.782v-.012zm-.122-2.33c-.903-.024-1.929.147-1.929 1.025 0 .537.354.793.782.793.598 0 .976-.379 1.098-.769.025-.085.05-.183.05-.268v-.78zm4.92-2.231v.67H45.89v3.89h-.818v-4.56h2.796zm.792 1.488c0-.586-.025-1.061-.037-1.488h.745l.036.78h.025c.342-.56.879-.89 1.623-.89 1.1 0 1.93.927 1.93 2.317 0 1.634-1.002 2.451-2.076 2.451-.598 0-1.135-.268-1.404-.72h-.024v2.476h-.818v-4.926zm.818 1.22c0 .121.024.23.036.34a1.28 1.28 0 001.245.976c.88 0 1.392-.72 1.392-1.756 0-.915-.476-1.695-1.355-1.695-.561 0-1.099.402-1.257 1.024-.025.098-.061.232-.061.342v.768zm4.752-2.708l1 2.695c.098.305.22.658.294.927h.024c.086-.269.183-.622.293-.952l.904-2.67h.879l-1.246 3.244c-.598 1.56-1 2.365-1.562 2.853-.403.354-.806.5-1.014.537l-.207-.695c.207-.061.476-.195.72-.403.232-.183.513-.5.696-.927a.567.567 0 00.061-.195c0-.048-.024-.11-.061-.22l-1.685-4.194h.904zm4.565 1.914h.391c.696 0 1.172-.317 1.172-.744 0-.402-.366-.658-.891-.658a2.21 2.21 0 00-1.099.317l-.207-.512c.464-.28.989-.415 1.514-.415.695 0 1.55.305 1.55 1.195 0 .561-.513.927-1.026 1.037v.024c.684.061 1.246.476 1.246 1.134 0 .988-1.014 1.354-1.966 1.354a3.188 3.188 0 01-1.477-.366l.22-.56c.33.182.769.304 1.208.304.684 0 1.123-.33 1.123-.78 0-.61-.646-.78-1.33-.78h-.415v-.55h-.013zm4.443-1.914v1.927c0 .72-.012 1.182-.048 1.829l.024.012c.269-.56.44-.878.733-1.402l1.428-2.354h.977v4.56h-.794V13c0-.744.024-1.134.061-1.866h-.024c-.293.586-.489.951-.757 1.415-.44.707-.928 1.585-1.429 2.378h-.952v-4.573h.781zm7.521 0v.658H69.33v3.903h-.818v-3.903h-1.428v-.658h3.675zm1.063 2.426c.025 1.123.733 1.586 1.563 1.586.598 0 .952-.098 1.27-.232l.146.598c-.293.134-.793.28-1.514.28-1.404 0-2.246-.927-2.246-2.292 0-1.366.806-2.464 2.136-2.464 1.49 0 1.88 1.305 1.88 2.147 0 .17-.024.304-.024.39h-3.21v-.012zm2.43-.585c.012-.524-.22-1.341-1.148-1.341-.842 0-1.208.768-1.27 1.341h2.418zm3.808-1.78c.318-.061.916-.098 1.453-.098.77 0 2.027.122 2.027 1.134 0 .561-.44.915-.952 1.025v.024c.671.098 1.16.476 1.16 1.134 0 1.195-1.514 1.342-2.406 1.342-.512 0-1.037-.037-1.281-.061v-4.5zm.794 3.951c.232.024.403.037.672.037.561 0 1.391-.135 1.391-.793 0-.659-.659-.805-1.453-.805h-.598v1.561h-.012zm0-2.098h.623c.61 0 1.245-.182 1.245-.719 0-.451-.39-.67-1.22-.67-.27 0-.44.024-.648.036v1.354z" fill="#fff"/></g><defs><clipPath id="clip0_646_4669"><path fill="#fff" d="M0 0h134v40H0z"/></clipPath></defs></svg>