<svg width="134" height="40" fill="none" xmlns="http://www.w3.org/2000/svg"><g clip-path="url(#clip0_646_4649)"><path d="M123.307.012H8.396a17.16 17.16 0 00-2.243.183C5.415.305 4.69.525 4.02.83a7.247 7.247 0 00-1.819 1.184A6.325 6.325 0 00.875 3.637 6.354 6.354 0 00.191 5.53 10.93 10.93 0 000 7.531v24.95c0 .671.068 1.343.191 2.002.123.659.37 1.306.711 1.904a6.483 6.483 0 001.327 1.611 7.011 7.011 0 001.818 1.184c.67.305 1.381.513 2.133.635.739.11 1.49.17 2.243.183h117.154a17.169 17.169 0 002.243-.183 8.03 8.03 0 002.133-.635 6.92 6.92 0 001.818-1.184 6.819 6.819 0 001.327-1.611c.328-.598.56-1.245.697-1.904.123-.66.191-1.33.205-2.002V7.53a12.327 12.327 0 00-.205-2.002 6.587 6.587 0 00-.697-1.904 6.551 6.551 0 00-1.327-1.623 7.24 7.24 0 00-1.818-1.184 8.507 8.507 0 00-2.133-.635c-.739-.11-1.491-.17-2.243-.183l-2.27.012z" fill="#B7B7B7"/><path d="M9.97 38.365H8.966a13.665 13.665 0 01-2.073-.13 7.145 7.145 0 01-1.857-.574 5.727 5.727 0 01-1.544-.963 5.128 5.128 0 01-1.111-1.349 5.052 5.052 0 01-.61-1.596 10.075 10.075 0 01-.176-1.795V8.007c0-.598.067-1.209.176-1.795a4.835 4.835 0 01.596-1.62c.285-.504.65-.95 1.111-1.35a6.13 6.13 0 011.558-.961 7.118 7.118 0 011.843-.528A15.439 15.439 0 018.967 1.6h116.067c.691 0 1.382.059 2.06.153a7.07 7.07 0 011.856.528c1.152.504 2.087 1.314 2.669 2.311.285.505.488 1.033.597 1.585a11.5 11.5 0 01.189 1.807v23.974a11.37 11.37 0 01-.189 1.783 5.322 5.322 0 01-.597 1.608 5.472 5.472 0 01-1.111 1.338 5.879 5.879 0 01-1.558.962 7.197 7.197 0 01-1.856.598c-.691.106-1.382.153-2.073.153H9.969v-.035z" fill="#000"/><path d="M10.364 7.517c-.315.4-.479.897-.438 1.407v22.152c-.027.51.137 1.02.465 1.407l.068.083 12.265-12.4v-.304L10.432 7.448l-.068.07z" fill="url(#paint0_linear_646_4649)"/><path d="M26.8 24.29l-4.075-4.138v-.304l4.074-4.138.096.055 4.868 2.787c1.394.786 1.394 2.096 0 2.896l-4.854 2.787-.11.055z" fill="url(#paint1_linear_646_4649)"/><path d="M26.924 24.235L22.726 20 10.352 32.483a1.582 1.582 0 002.05.069l14.522-8.317z" fill="url(#paint2_linear_646_4649)"/><path d="M26.924 15.78L12.416 7.461a1.598 1.598 0 00-2.05.055L22.74 20l4.184-4.22z" fill="url(#paint3_linear_646_4649)"/><path d="M67.629 21.752c-2.338 0-4.225 1.917-4.225 4.276 0 2.358 1.9 4.262 4.239 4.262 2.338 0 4.225-1.918 4.225-4.276.027-2.317-1.805-4.22-4.102-4.262h-.137zm0 6.841a2.576 2.576 0 01-2.735-2.4c-.095-1.42.971-2.662 2.38-2.759a2.576 2.576 0 012.734 2.4v.18a2.45 2.45 0 01-2.324 2.58h-.055zm-9.243-6.841c-2.338 0-4.225 1.917-4.225 4.276 0 2.358 1.9 4.262 4.238 4.262 2.339 0 4.225-1.918 4.225-4.276.028-2.317-1.804-4.22-4.102-4.262h-.136zm0 6.841a2.576 2.576 0 01-2.735-2.4c-.096-1.42.97-2.662 2.38-2.759a2.576 2.576 0 012.734 2.4v.18a2.45 2.45 0 01-2.325 2.58h-.054zm-10.994-5.53v1.806h4.294a3.797 3.797 0 01-.998 2.276 4.36 4.36 0 01-3.31 1.324c-2.625 0-4.758-2.152-4.758-4.8 0-2.648 2.133-4.8 4.759-4.8a4.555 4.555 0 013.254 1.297l1.258-1.27a6.24 6.24 0 00-4.499-1.82c-3.623-.138-6.672 2.703-6.81 6.358-.136 3.656 2.68 6.732 6.304 6.87h.506a6.034 6.034 0 004.58-1.849 6.033 6.033 0 001.546-4.234c0-.373-.027-.745-.096-1.118l-6.03-.04zm44.972 1.406a3.994 3.994 0 00-3.61-2.717 3.988 3.988 0 00-3.978 4c0 .082 0 .165.013.262a4.218 4.218 0 004.157 4.276 4.181 4.181 0 003.541-1.904l-1.435-1.007a2.392 2.392 0 01-2.079 1.173c-.875.041-1.695-.483-2.05-1.297l5.646-2.358-.205-.428zm-5.756 1.42c-.082-1.282.889-2.4 2.16-2.482h.055a1.628 1.628 0 011.559.896l-3.774 1.587zm-4.595 4.125h1.86v-12.51h-1.86v12.51zm-3.035-7.31h-.068a2.915 2.915 0 00-2.23-.952c-2.337.11-4.129 2.11-4.02 4.469.11 2.193 1.847 3.945 4.02 4.055a2.853 2.853 0 002.23-1.007h.068v.607c0 1.627-.861 2.496-2.256 2.496a2.36 2.36 0 01-2.133-1.517l-1.614.676c.616 1.545 2.092 2.552 3.747 2.524 2.174 0 3.965-1.296 3.965-4.441v-7.628h-1.723l.014.717zm-2.133 5.89c-1.408-.084-2.489-1.311-2.393-2.746a2.573 2.573 0 012.393-2.413c1.313.055 2.324 1.172 2.27 2.496v.083a2.377 2.377 0 01-2.16 2.58h-.11zm24.216-11.09h-4.444v12.51h1.86v-4.745h2.584a3.87 3.87 0 004.129-3.6c.15-2.138-1.449-4.014-3.569-4.166a3.819 3.819 0 00-.56 0zm0 6h-2.585V19.24h2.626a2.13 2.13 0 012.119 2.138 2.13 2.13 0 01-2.119 2.138l-.041-.014zm11.444-1.794a3.464 3.464 0 00-3.309 1.918l1.641.69a1.76 1.76 0 011.696-.911 1.79 1.79 0 011.982 1.586v.152a4.132 4.132 0 00-1.941-.483c-1.764 0-3.569 1.007-3.569 2.828a2.872 2.872 0 002.994 2.758h.096a2.631 2.631 0 002.366-1.227h.054v1.007h1.792v-4.814c0-2.193-1.655-3.462-3.761-3.462l-.041-.042zm-.218 6.855c-.602 0-1.45-.317-1.45-1.062 0-1.006 1.053-1.337 1.983-1.337a3.242 3.242 0 011.682.413 2.236 2.236 0 01-2.188 2l-.027-.014zM122.829 22l-2.12 5.42h-.054L118.453 22h-1.982l3.309 7.586-1.915 4.22h1.983L124.88 22h-2.051zm-16.682 8.014h1.846v-12.51h-1.846v12.51zM45.368 7.117v5.118l.492.013-.055 1.959h-.574l-.055-1.38h-3.582l-.055 1.38h-.574l-.055-1.959.424-.013c.205-.387.424-.814.56-1.256.192-.662.274-1.42.274-2.413V7.117h3.2zM42.865 8.8c0 .924-.082 1.697-.287 2.331-.123.4-.3.786-.465 1.09h2.516V7.724h-1.764V8.8zm8.696 1.117c0 1.973-1.19 3.021-2.639 3.021-1.504 0-2.557-1.172-2.557-2.91 0-1.821 1.121-3.007 2.64-3.007 1.558 0 2.556 1.2 2.556 2.896zm-4.403.097c0 1.227.657 2.317 1.805 2.317 1.162 0 1.819-1.076 1.819-2.372 0-1.145-.588-2.331-1.805-2.331s-1.819 1.13-1.819 2.386zm9.327 2.634c-.274.138-.807.276-1.504.276-1.6 0-2.803-1.02-2.803-2.896 0-1.793 1.203-3.007 2.967-3.007.71 0 1.148.151 1.354.248l-.178.607c-.274-.138-.67-.235-1.149-.235-1.326 0-2.215.856-2.215 2.36 0 1.406.807 2.303 2.188 2.303.451 0 .902-.097 1.19-.235l.15.58zm2.283-4.91h-1.723v-.634h4.198v.634h-1.737v5.103h-.738V7.738zm3.65-.621l1.135 2.442c.137.345.273.676.41 1.007h.014c.096-.304.205-.635.355-1.035l.89-2.414H66l-1.19 2.938c-.315.759-.67 1.642-1.067 2.18-.369.469-.779.703-1.285.703-.191 0-.314-.014-.41-.055l.082-.607c.055.014.137.027.273.027.588-.013.93-.579 1.108-.979.055-.124.041-.207-.027-.345l-1.887-3.862h.82zm8.288 0v5.724h-.739V7.738h-2.639v5.103h-.738V7.117h4.116zm2.009 0v2.4h2.748v-2.4h.739v5.724h-.739v-2.69h-2.748v2.69h-.738V7.117h.738zm9.598 2.8c0 1.973-1.19 3.021-2.639 3.021-1.504 0-2.557-1.172-2.557-2.91 0-1.821 1.121-3.007 2.64-3.007 1.558 0 2.556 1.2 2.556 2.896zm-4.403.097c0 1.227.657 2.317 1.805 2.317 1.162 0 1.819-1.076 1.819-2.372 0-1.145-.588-2.331-1.805-2.331-1.203 0-1.819 1.13-1.819 2.386zm8.93-2.828c.314-.069.82-.124 1.34-.124.738 0 1.203.124 1.559.414.3.22.465.565.465 1.007 0 .552-.356 1.034-.958 1.255v.014c.534.138 1.176.593 1.176 1.434 0 .497-.191.87-.478 1.145-.397.359-1.04.538-1.956.538-.505 0-.888-.028-1.135-.069V7.186h-.013zm.738 2.345h.67c.78 0 1.23-.414 1.23-.965 0-.676-.505-.938-1.243-.938-.342 0-.534.027-.643.055V9.53h-.014zm0 2.745c.137.027.356.027.615.027.753 0 1.464-.275 1.464-1.117 0-.786-.67-1.103-1.463-1.103h-.602v2.193h-.014z" fill="#fff"/></g><defs><linearGradient id="paint0_linear_646_4649" x1="21.648" y1="8.707" x2="4.847" y2="25.362" gradientUnits="userSpaceOnUse"><stop stop-color="#00A0FF"/><stop offset=".01" stop-color="#00A1FF"/><stop offset=".26" stop-color="#00BEFF"/><stop offset=".51" stop-color="#00D2FF"/><stop offset=".76" stop-color="#00DFFF"/><stop offset="1" stop-color="#00E3FF"/></linearGradient><linearGradient id="paint1_linear_646_4649" x1="33.579" y1="20" x2="9.568" y2="20" gradientUnits="userSpaceOnUse"><stop stop-color="#FFE000"/><stop offset=".41" stop-color="#FFBD00"/><stop offset=".78" stop-color="orange"/><stop offset="1" stop-color="#FF9C00"/></linearGradient><linearGradient id="paint2_linear_646_4649" x1="24.643" y1="22.3" x2="1.855" y2="44.881" gradientUnits="userSpaceOnUse"><stop stop-color="#FF3A44"/><stop offset="1" stop-color="#C31162"/></linearGradient><linearGradient id="paint3_linear_646_4649" x1="7.249" y1=".153" x2="17.422" y2="10.238" gradientUnits="userSpaceOnUse"><stop stop-color="#32A071"/><stop offset=".07" stop-color="#2DA771"/><stop offset=".48" stop-color="#15CF74"/><stop offset=".8" stop-color="#06E775"/><stop offset="1" stop-color="#00F076"/></linearGradient><clipPath id="clip0_646_4649"><path fill="#fff" d="M0 0h134v40H0z"/></clipPath></defs></svg>