<svg>
    <symbol id="header_instagram" width="22" height="22" viewBox="0 0 22 22" fill="none" xmlns="http://www.w3.org/2000/svg">
        <path d="M14.535 5.66602H17.0003M7.00033 1.66602H15.0003C17.9458 1.66602 20.3337 4.05383 20.3337 6.99935V14.9993C20.3337 17.9449 17.9458 20.3327 15.0003 20.3327H7.00032C4.05481 20.3327 1.66699 17.9449 1.66699 14.9993V6.99935C1.66699 4.05383 4.05481 1.66602 7.00033 1.66602ZM11.0003 14.9993C8.79119 14.9993 7.00033 13.2085 7.00033 10.9993C7.00033 8.79021 8.79119 6.99935 11.0003 6.99935C13.2095 6.99935 15.0003 8.79021 15.0003 10.9993C15.0003 13.2085 13.2095 14.9993 11.0003 14.9993Z" stroke-width="2.5"/>
    </symbol>

    <symbol id="header_telegram" width="22" height="22" viewBox="0 0 22 22" fill="none" xmlns="http://www.w3.org/2000/svg">
        <g clip-path="url(#clip0_461_380)">
        <path d="M21 11C21 16.5228 16.5228 21 11 21C5.47715 21 1 16.5228 1 11C1 5.47715 5.47715 1 11 1C16.5228 1 21 5.47715 21 11Z" stroke-width="2"/>
        <path d="M3.18659 10.5145L16.651 6.01369C16.8532 5.9459 17.0461 6.14081 16.9902 6.35611L14.6345 15.4244C14.5928 15.5846 14.4293 15.6722 14.2816 15.6133L9.52469 13.7204C9.33766 13.6459 9.29133 13.3895 9.43958 13.2482L13.1712 9.69068C13.4006 9.47213 13.153 9.08642 12.8745 9.22901L6.62773 12.4258C6.55932 12.4608 6.48017 12.4634 6.40978 12.4332L3.16663 11.0436C2.93485 10.9441 2.94798 10.5942 3.18661 10.5146L3.18659 10.5145ZM10.6712 11.2813C10.7883 11.1742 10.6583 10.9813 10.5234 11.0621L7.54646 12.7726C7.27799 12.9334 7.15192 13.2689 7.2432 13.5795L8.16274 16.8368C8.20947 17.0018 8.40634 17.055 8.52279 16.9342L10.3581 15.1063C10.4331 15.0284 10.4092 14.8952 10.3123 14.8518L8.40787 13.8531C8.30327 13.7981 8.28268 13.6507 8.3675 13.5665L10.671 11.2812L10.6712 11.2813Z"/>
        </g>
        <defs>
        <clipPath id="clip0_461_380">
        <rect width="22" height="22" fill="white"/>
        </clipPath>
        </defs>
    </symbol>

    <symbol id="header_zen" width="21" height="22" viewBox="0 0 22 22" fill="none" xmlns="http://www.w3.org/2000/svg">
        <g clip-path="url(#clip0_461_384)">
        <path d="M12.2507 5.6036C12.0654 4.63742 11.9865 3.42878 11.9253 1.77228C13.5163 1.77998 14.8361 1.81318 15.9326 1.95457C17.3116 2.1324 18.1092 2.45786 18.5867 2.91308C19.0367 3.3856 19.3657 4.21034 19.5452 5.61896C19.6857 6.72167 19.7195 8.03337 19.7275 9.57283C18.0709 9.50971 16.8624 9.43107 15.8956 9.24632C14.7635 9.03 14.0541 8.68327 13.4232 8.07684C12.8159 7.445 12.4677 6.73486 12.2507 5.6036ZM5.10445 9.24632C4.13759 9.43107 2.92905 9.50971 1.27247 9.57283C1.28051 8.03337 1.31431 6.72167 1.45481 5.61896C1.6343 4.21035 1.96333 3.38562 2.41328 2.9131C2.89055 2.45816 3.68952 2.1325 5.07013 1.95458C6.16701 1.81323 7.4864 1.78 9.07467 1.77229C9.01345 3.42879 8.9346 4.63743 8.7493 5.6036C8.53233 6.73486 8.18414 7.44499 7.57684 8.07683C6.94588 8.68326 6.23652 9.03 5.10445 9.24632ZM8.74632 16.3956C8.93108 17.3624 9.00972 18.571 9.07284 20.2277C7.4827 20.22 6.16351 20.1868 5.06742 20.0454C3.68836 19.8676 2.89081 19.5421 2.41327 19.0869C1.96333 18.6144 1.6343 17.7896 1.45481 16.381C1.31425 15.2779 1.28048 13.9656 1.27246 12.4253C2.92887 12.4866 4.13746 12.5654 5.1036 12.7507C6.23486 12.9677 6.945 13.3159 7.57684 13.9232C8.18327 14.5541 8.53 15.2635 8.74632 16.3956ZM15.8956 12.7537C16.8624 12.5689 18.0709 12.4903 19.7275 12.4272C19.7195 13.9666 19.6857 15.2783 19.5452 16.381C19.3657 17.7897 19.0367 18.6144 18.5867 19.0869C18.1092 19.5421 17.3116 19.8676 15.9326 20.0454C14.8361 20.1868 13.5163 20.22 11.9253 20.2277C11.9865 18.5712 12.0654 17.3626 12.2507 16.3964C12.4677 15.2651 12.8159 14.555 13.4232 13.9232C14.0541 13.3167 14.7635 12.97 15.8956 12.7537Z" stroke-width="2.54"/>
        </g>
        <defs>
        <clipPath id="clip0_461_384">
        <rect width="21" height="21" fill="white" transform="translate(0 0.5)"/>
        </clipPath>
        </defs>
    </symbol>

    <symbol id="header_mail" width="27" height="22" viewBox="0 0 22 22" fill="none" xmlns="http://www.w3.org/2000/svg">
        <path d="M22.3125 0.5H3.9375C2.89321 0.5 1.89169 0.914843 1.15327 1.65327C0.414843 2.39169 0 3.39321 0 4.4375V17.5625C0 18.6068 0.414843 19.6083 1.15327 20.3467C1.89169 21.0852 2.89321 21.5 3.9375 21.5H22.3125C23.3568 21.5 24.3583 21.0852 25.0967 20.3467C25.8352 19.6083 26.25 18.6068 26.25 17.5625V4.4375C26.25 3.39321 25.8352 2.39169 25.0967 1.65327C24.3583 0.914843 23.3568 0.5 22.3125 0.5ZM21.4331 3.125L13.125 9.35938L4.81687 3.125H21.4331ZM22.3125 18.875H3.9375C3.5894 18.875 3.25556 18.7367 3.00942 18.4906C2.76328 18.2444 2.625 17.9106 2.625 17.5625V4.76562L12.3375 12.05C12.5647 12.2204 12.841 12.3125 13.125 12.3125C13.409 12.3125 13.6853 12.2204 13.9125 12.05L23.625 4.76562V17.5625C23.625 17.9106 23.4867 18.2444 23.2406 18.4906C22.9944 18.7367 22.6606 18.875 22.3125 18.875Z"/>
    </symbol>

    <symbol id="header_phone" width="23" height="22" viewBox="0 0 23 22" fill="none" xmlns="http://www.w3.org/2000/svg">
        <g clip-path="url(#clip0_461_390)">
        <path d="M5.99664 11.2139H2.20335C1.7788 11.2139 1.43896 11.5571 1.43896 11.9863V14.3034C1.43896 14.7324 1.77861 15.0758 2.20335 15.0758H5.99664C6.42119 15.0758 6.76102 14.7326 6.76102 14.3034V11.9863C6.76102 11.5571 6.42118 11.2139 5.99664 11.2139Z"/>
        <path d="M5.99676 17.25H2.20347C1.77892 17.25 1.43909 17.5932 1.43909 18.0224V20.3395C1.43909 20.7686 1.77873 21.112 2.20347 21.112H5.99676C6.42131 21.112 6.76114 20.7687 6.76114 20.3395V18.0224C6.76114 17.5932 6.42131 17.25 5.99676 17.25Z"/>
        <path d="M13.4703 11.2139H9.67698C9.25243 11.2139 8.9126 11.5571 8.9126 11.9863V14.3034C8.9126 14.7324 9.25224 15.0758 9.67698 15.0758H13.4703C13.8948 15.0758 14.2347 14.7326 14.2347 14.3034V11.9863C14.2347 11.5571 13.895 11.2139 13.4703 11.2139Z"/>
        <path d="M13.4703 17.25H9.67698C9.25243 17.25 8.9126 17.5932 8.9126 18.0224V20.3395C8.9126 20.7686 9.25224 21.112 9.67698 21.112H13.4703C13.8948 21.112 14.2347 20.7687 14.2347 20.3395V18.0224C14.2347 17.5932 13.895 17.25 13.4703 17.25Z"/>
        <path d="M20.9439 11.2139H17.1506C16.7261 11.2139 16.3862 11.5571 16.3862 11.9863V14.3034C16.3862 14.7324 16.7259 15.0758 17.1506 15.0758H20.9439C21.3685 15.0758 21.7083 14.7326 21.7083 14.3034V11.9863C21.7083 11.5571 21.3686 11.2139 20.9439 11.2139Z"/>
        <path d="M20.9437 17.25H17.1504C16.7258 17.25 16.386 17.5932 16.386 18.0224V20.3395C16.386 20.7686 16.7256 21.112 17.1504 21.112H20.9437C21.3682 21.112 21.708 20.7687 21.708 20.3395V18.0224C21.708 17.5932 21.3684 17.25 20.9437 17.25Z"/>
        <path d="M21.9628 3.46152C21.4533 3.00377 20.8021 2.46018 20.2642 2.14551C17.9147 0.772434 14.8289 0 11.5735 0C8.31797 0 5.23234 0.772434 2.88273 2.17406C2.34481 2.48875 1.69377 3.03232 1.18411 3.49008C0.674661 3.9191 0.4764 4.60574 0.617993 5.26364L1.29745 8.41049C1.4106 8.92531 1.9485 9.23998 2.45815 9.0971L7.01583 7.63821C7.44037 7.49514 7.69528 7.09463 7.63861 6.66563L7.29897 4.14798C8.74266 3.71896 9.93157 3.49008 11.5735 3.49008C13.3286 3.49008 14.5175 3.74749 15.9047 4.17669L15.5933 6.63687C15.5366 7.06589 15.7916 7.49513 16.2161 7.60945L20.7456 9.06835C21.255 9.23995 21.7929 8.92527 21.9063 8.38173L22.5291 5.23488C22.6704 4.57718 22.4724 3.89057 21.9627 3.46152H21.9628Z"/>
        </g>
        <defs>
        <clipPath id="clip0_461_390">
        <rect width="22" height="22" fill="white" transform="translate(0.25)"/>
        </clipPath>
        </defs>
    </symbol>

    <symbol id="stories_video_svg" width="69" height="81" viewBox="0 0 69 81" fill="none" xmlns="http://www.w3.org/2000/svg">
        <g filter="url(#filter0_d_512_664)">
        <path d="M56.8027 36.2411L17.866 10.8268C14.5454 8.6558 10.0527 11.0183 10.0527 14.9135V65.6782C10.0527 69.6371 14.5455 71.9359 17.866 69.765L56.8027 44.3507C59.7326 42.4986 59.7326 38.1567 56.8027 36.241V36.2411Z" fill="#FDFFFE"/>
        </g>
        <defs>
        <filter id="filter0_d_512_664" x="0.0527344" y="0" width="68.9474" height="80.6014" filterUnits="userSpaceOnUse" color-interpolation-filters="sRGB">
        <feFlood flood-opacity="0" result="BackgroundImageFix"/>
        <feColorMatrix in="SourceAlpha" type="matrix" values="0 0 0 0 0 0 0 0 0 0 0 0 0 0 0 0 0 0 127 0" result="hardAlpha"/>
        <feOffset/>
        <feGaussianBlur stdDeviation="5"/>
        <feComposite in2="hardAlpha" operator="out"/>
        <feColorMatrix type="matrix" values="0 0 0 0 0 0 0 0 0 0 0 0 0 0 0 0 0 0 0.5 0"/>
        <feBlend mode="normal" in2="BackgroundImageFix" result="effect1_dropShadow_512_664"/>
        <feBlend mode="normal" in="SourceGraphic" in2="effect1_dropShadow_512_664" result="shape"/>
        </filter>
        </defs>
    </symbol>

    <symbol id="pagination_arrow" width="12" height="18" viewBox="0 0 12 18" fill="none" xmlns="http://www.w3.org/2000/svg">
        <path d="M10 2L3 9L10 16" stroke="#20211B" stroke-width="3" stroke-linecap="round"/>
    </symbol>

    <symbol id="share_post" width="16" height="17" viewBox="0 0 16 17" fill="none" xmlns="http://www.w3.org/2000/svg">
        <path d="M3.20347 5.31496C2.15203 5.31336 1.16703 5.82654 0.568632 6.68779C-0.0297671 7.54904 -0.165128 8.64825 0.206591 9.62791C0.578436 10.6077 1.40973 11.3429 2.43043 11.5944C3.451 11.8459 4.53059 11.5816 5.318 10.8875L9.64822 13.2807C9.47866 14.277 9.79336 15.2943 10.4964 16.0225C11.1995 16.7507 12.2077 17.1036 13.2135 16.9734C14.2193 16.8433 15.1036 16.2457 15.5966 15.3627C16.0897 14.4797 16.1332 13.4161 15.7137 12.496C15.2943 11.5761 14.4618 10.9088 13.4698 10.6977C12.478 10.4865 11.4443 10.7567 10.6841 11.4256L6.35391 9.03234C6.41786 8.68119 6.41786 8.32137 6.35391 7.97018L10.6841 5.57695C11.4216 6.22423 12.4167 6.49785 13.3829 6.31893C14.3492 6.14014 15.1793 5.52868 15.634 4.66063C16.0888 3.79272 16.1178 2.76466 15.7126 1.87266C15.3074 0.98065 14.5131 0.32376 13.5584 0.091268C12.6038 -0.141363 11.5947 0.0762039 10.8221 0.681239C10.0494 1.28641 9.59884 2.21174 9.60021 3.1908C9.60132 3.36885 9.61744 3.54654 9.64817 3.72188L5.31796 6.11511C4.73517 5.59949 3.98282 5.31474 3.20343 5.315L3.20347 5.31496Z" fill="#8B8B88"/>
    </symbol>

    <symbol id="news_gallery_arrow" width="18" height="28" viewBox="0 0 18 28" fill="none" xmlns="http://www.w3.org/2000/svg">
        <path d="M15.5 2.5L3.7 11.35C2.1 12.55 2.1 14.95 3.7 16.15L15.5 25" stroke="#E7C99F" stroke-width="4.5" stroke-linecap="round"/>
    </symbol>

    <symbol id="arrow" width="13" height="19" viewBox="0 0 13 19" fill="none" xmlns="http://www.w3.org/2000/svg">
        <path d="M11 2L3.13333 7.9C2.06667 8.7 2.06667 10.3 3.13333 11.1L11 17" stroke="#E7C99F" stroke-width="3" stroke-linecap="round"/>
    </symbol>

    <symbol id="notes_cart_delete" width="30" height="30" viewBox="0 0 30 30" fill="none" xmlns="http://www.w3.org/2000/svg">
        <path d="M15 15L20.625 9.375M15 15L9.375 20.625M15 15L20.625 20.625M15 15L9.375 9.375" stroke="#BABAB7" stroke-width="3" stroke-linecap="round"/>
        <rect x="0.5" y="0.5" width="29" height="29" rx="14.5" stroke="#BABAB7"/>
    </symbol>
    
    <symbol id="notes_cart_total" width="20" height="20" viewBox="0 0 20 20" fill="none" xmlns="http://www.w3.org/2000/svg">
        <path d="M10 0.000171335C7.34783 0.000171335 4.80435 1.05369 2.9289 2.92905C1.05353 4.8044 0 7.34807 0 10.0001C0 12.6521 1.05353 15.1957 2.9289 17.0711C4.80427 18.9465 7.34796 20 10 20C12.652 20 15.1956 18.9465 17.0711 17.0711C18.9465 15.1958 20 12.6521 20 10.0001C20 8.24477 19.538 6.52028 18.6604 4.99991C17.7826 3.47981 16.5201 2.21736 15 1.33964C13.4797 0.462045 11.7552 0 9.99983 0L10 0.000171335ZM10 18.0003C7.8782 18.0003 5.84331 17.1574 4.3432 15.657C2.84284 14.1568 1.99991 12.122 1.99991 10.0003C1.99991 7.87856 2.84284 5.8436 4.3432 4.34351C5.8434 2.84316 7.87828 2.00024 10 2.00024C12.1217 2.00024 14.1567 2.84316 15.6568 4.34351C17.1572 5.84369 18.0001 7.87856 18.0001 10.0003C18.0001 11.4045 17.6304 12.7841 16.9281 14.0002C16.226 15.2165 15.2162 16.2263 13.9999 16.9284C12.7838 17.6307 11.4042 18.0004 9.99991 18.0004L10 18.0003Z" fill="#8B8B88"/>
        <path d="M10.19 5.00006H9.81001C9.06467 5.00006 8.35002 5.29621 7.823 5.82322C7.29598 6.35007 7 7.06493 7 7.81005V8.00006C7 8.35732 7.19068 8.68745 7.50006 8.86608C7.80945 9.04471 8.19063 9.04471 8.50002 8.86608C8.8094 8.68745 9.00009 8.35732 9.00009 8.00006V7.81005C9.00009 7.59526 9.0853 7.38934 9.23731 7.23734C9.38916 7.0855 9.59524 7.00012 9.81002 7.00012H10.19C10.4166 7.0023 10.6322 7.09806 10.7856 7.2648C10.9391 7.43137 11.0166 7.6542 11 7.88019C11.0009 8.0317 10.9592 8.18052 10.8796 8.30962C10.8001 8.43869 10.6859 8.54282 10.55 8.61012C10.0814 8.83998 9.68732 9.19757 9.41312 9.6417C9.1389 10.0857 8.99576 10.5983 9.00011 11.1201C9.00011 11.4774 9.19063 11.8075 9.5 11.9861C9.80939 12.1648 10.1907 12.1648 10.5001 11.9861C10.8095 11.8075 11 11.4774 11 11.1201C10.9992 10.9686 11.041 10.8198 11.1206 10.6907C11.2001 10.5616 11.3143 10.4575 11.45 10.3902C12.2133 10.0018 12.7616 9.29097 12.943 8.45422C13.1247 7.61734 12.9203 6.74327 12.3866 6.07362C11.8529 5.40397 11.0464 5.00973 10.1901 5L10.19 5.00006Z" fill="#8B8B88"/>
        <path d="M10.7102 13.2903L10.5602 13.1703L10.3802 13.0802V13.0804C10.3206 13.0499 10.2565 13.0296 10.1902 13.0203C10.0619 12.9905 9.92851 12.9905 9.80011 13.0203L9.62014 13.0802L9.44017 13.1703L9.29017 13.2903C9.19909 13.3854 9.12778 13.4976 9.08023 13.6203C8.97326 13.8624 8.97326 14.1383 9.08023 14.3803C9.13079 14.5015 9.20177 14.6132 9.29017 14.7103C9.478 14.8996 9.73349 15.0061 10.0001 15.0061C10.2668 15.0061 10.5223 14.8996 10.7101 14.7103C10.7985 14.6132 10.8695 14.5015 10.9201 14.3803C11.027 14.1382 11.027 13.8623 10.9201 13.6203C10.8725 13.4976 10.8012 13.3854 10.7101 13.2903L10.7102 13.2903Z" fill="#8B8B88"/>
    </symbol>

    <symbol id="contact_instagram" width="22" height="22" viewBox="0 0 22 22" fill="none" xmlns="http://www.w3.org/2000/svg">
        <path d="M14.535 5.66602H17.0003M7.00033 1.66602H15.0003C17.9458 1.66602 20.3337 4.05383 20.3337 6.99935V14.9993C20.3337 17.9449 17.9458 20.3327 15.0003 20.3327H7.00032C4.05481 20.3327 1.66699 17.9449 1.66699 14.9993V6.99935C1.66699 4.05383 4.05481 1.66602 7.00033 1.66602ZM11.0003 14.9993C8.79119 14.9993 7.00033 13.2085 7.00033 10.9993C7.00033 8.79021 8.79119 6.99935 11.0003 6.99935C13.2095 6.99935 15.0003 8.79021 15.0003 10.9993C15.0003 13.2085 13.2095 14.9993 11.0003 14.9993Z" stroke="#20211B" stroke-width="2.5"/>
    </symbol>

    <symbol id="contact_telegram" width="22" height="22" viewBox="0 0 22 22" fill="none" xmlns="http://www.w3.org/2000/svg">
        <g clip-path="url(#clip0_415_2867)">
        <path d="M21 11C21 16.5228 16.5228 21 11 21C5.47715 21 1 16.5228 1 11C1 5.47715 5.47715 1 11 1C16.5228 1 21 5.47715 21 11Z" stroke="#20211B" stroke-width="2"/>
        <path d="M3.18659 10.5145L16.651 6.01369C16.8532 5.9459 17.0461 6.14081 16.9902 6.35611L14.6345 15.4244C14.5928 15.5846 14.4293 15.6722 14.2816 15.6133L9.52469 13.7204C9.33766 13.6459 9.29133 13.3895 9.43958 13.2482L13.1712 9.69068C13.4006 9.47213 13.153 9.08642 12.8745 9.22901L6.62773 12.4258C6.55932 12.4608 6.48017 12.4634 6.40978 12.4332L3.16663 11.0436C2.93485 10.9441 2.94798 10.5942 3.18661 10.5146L3.18659 10.5145ZM10.6712 11.2813C10.7883 11.1742 10.6583 10.9813 10.5234 11.0621L7.54646 12.7726C7.27799 12.9334 7.15192 13.2689 7.2432 13.5795L8.16274 16.8368C8.20947 17.0018 8.40634 17.055 8.52279 16.9342L10.3581 15.1063C10.4331 15.0284 10.4092 14.8952 10.3123 14.8518L8.40787 13.8531C8.30327 13.7981 8.28268 13.6507 8.3675 13.5665L10.671 11.2812L10.6712 11.2813Z" fill="#20211B"/>
        </g>
        <defs>
        <clipPath id="clip0_415_2867">
        <rect width="22" height="22" fill="white"/>
        </clipPath>
        </defs>
    </symbol>

    <symbol id="contact_zen" width="21" height="22" viewBox="0 0 21 22" fill="none" xmlns="http://www.w3.org/2000/svg">
        <g clip-path="url(#clip0_415_2871)">
        <path d="M12.2507 5.6036C12.0654 4.63742 11.9865 3.42878 11.9253 1.77228C13.5163 1.77998 14.8361 1.81318 15.9326 1.95457C17.3116 2.1324 18.1092 2.45786 18.5867 2.91308C19.0367 3.3856 19.3657 4.21034 19.5452 5.61896C19.6857 6.72167 19.7195 8.03337 19.7275 9.57283C18.0709 9.50971 16.8624 9.43107 15.8956 9.24632C14.7635 9.03 14.0541 8.68327 13.4232 8.07684C12.8159 7.445 12.4677 6.73486 12.2507 5.6036ZM5.10445 9.24632C4.13759 9.43107 2.92905 9.50971 1.27247 9.57283C1.28051 8.03337 1.31431 6.72167 1.45481 5.61896C1.6343 4.21035 1.96333 3.38562 2.41328 2.9131C2.89055 2.45816 3.68952 2.1325 5.07013 1.95458C6.16701 1.81323 7.4864 1.78 9.07467 1.77229C9.01345 3.42879 8.9346 4.63743 8.7493 5.6036C8.53233 6.73486 8.18414 7.44499 7.57684 8.07683C6.94588 8.68326 6.23652 9.03 5.10445 9.24632ZM8.74632 16.3956C8.93108 17.3624 9.00972 18.571 9.07284 20.2277C7.4827 20.22 6.16351 20.1868 5.06742 20.0454C3.68836 19.8676 2.89081 19.5421 2.41327 19.0869C1.96333 18.6144 1.6343 17.7896 1.45481 16.381C1.31425 15.2779 1.28048 13.9656 1.27246 12.4253C2.92887 12.4866 4.13746 12.5654 5.1036 12.7507C6.23486 12.9677 6.945 13.3159 7.57684 13.9232C8.18327 14.5541 8.53 15.2635 8.74632 16.3956ZM15.8956 12.7537C16.8624 12.5689 18.0709 12.4903 19.7275 12.4272C19.7195 13.9666 19.6857 15.2783 19.5452 16.381C19.3657 17.7897 19.0367 18.6144 18.5867 19.0869C18.1092 19.5421 17.3116 19.8676 15.9326 20.0454C14.8361 20.1868 13.5163 20.22 11.9253 20.2277C11.9865 18.5712 12.0654 17.3626 12.2507 16.3964C12.4677 15.2651 12.8159 14.555 13.4232 13.9232C14.0541 13.3167 14.7635 12.97 15.8956 12.7537Z" stroke="#20211B" stroke-width="2.54"/>
        </g>
        <defs>
        <clipPath id="clip0_415_2871">
        <rect width="21" height="21" fill="white" transform="translate(0 0.5)"/>
        </clipPath>
        </defs>
    </symbol>
    
    <symbol id="contact_card_link" width="16" height="16" viewBox="0 0 16 16" fill="none" xmlns="http://www.w3.org/2000/svg">
        <path d="M3.03655 6.13674C3.42307 5.75455 4.02695 5.75455 4.41348 6.13674C4.8 6.51894 4.8 7.11607 4.41348 7.49827L3.22984 8.66867C2.67431 9.21798 2.38432 9.93457 2.38432 10.699C2.38432 11.4634 2.67413 12.1798 3.22984 12.7293C3.78536 13.2786 4.51005 13.5653 5.2831 13.5653C6.05615 13.5653 6.78067 13.2788 7.33637 12.7293L8.54412 11.5589C8.93064 11.1767 9.53452 11.1767 9.92105 11.5589C10.3076 11.9411 10.3076 12.5382 9.92105 12.9204L8.73741 14.0908C7.81947 14.9985 6.61172 15.5 5.3315 15.5C4.05128 15.5 2.81946 14.9983 1.92559 14.0908C1.00766 13.1831 0.500486 11.9889 0.500486 10.723C0.500486 9.45708 1.00783 8.23904 1.92559 7.35517L3.03655 6.13674Z" fill="#20211B"/>
        <path d="M10.7174 2.43463C9.94433 2.43463 9.21981 2.7212 8.66412 3.27069L7.45636 4.46493C7.06984 4.84713 6.46596 4.84713 6.07944 4.46493C5.69292 4.08273 5.69292 3.48561 6.07944 3.10341L7.26308 1.90916C8.18101 1.0015 9.38877 0.5 10.669 0.5C11.9492 0.5 13.181 1.00167 14.0749 1.90916C14.9928 2.81683 15.5 4.01108 15.5 5.27697C15.5 6.54287 14.9927 7.76091 14.0749 8.64478L12.8913 9.83903C12.698 10.0301 12.4565 10.1256 12.2149 10.1256C11.9733 10.1256 11.7319 10.0301 11.5386 9.83903C11.152 9.45683 11.152 8.8597 11.5386 8.4775L12.7463 7.28326C13.3018 6.73395 13.5918 6.01736 13.5918 5.25296C13.5918 4.48856 13.302 3.77214 12.7463 3.22266C12.2149 2.72116 11.4902 2.43459 10.7173 2.43459L10.7174 2.43463Z" fill="#20211B"/>
        <path d="M6.44179 10.4839C6.20017 10.4839 5.95873 10.3884 5.76545 10.1973C5.37893 9.81509 5.37893 9.21797 5.76545 8.83577L8.83319 5.80252C9.21971 5.42032 9.82359 5.42032 10.2101 5.80252C10.5966 6.18471 10.5966 6.78184 10.2101 7.16404L7.14237 10.1975C6.94911 10.3884 6.7075 10.4839 6.44179 10.4839Z" fill="#20211B"/>
    </symbol>

    <symbol id="">

    </symbol>
</svg>